<?xml version="1.0" encoding="UTF-8"?>
<!DOCTYPE svg PUBLIC "-//W3C//DTD SVG 1.1//EN" "http://www.w3.org/Graphics/SVG/1.1/DTD/svg11.dtd">
<!-- Creator: CorelDRAW -->
<svg xmlns="http://www.w3.org/2000/svg" xml:space="preserve" width="168.487mm" height="85.4502mm" version="1.1" style="shape-rendering:geometricPrecision; text-rendering:geometricPrecision; image-rendering:optimizeQuality; fill-rule:evenodd; clip-rule:evenodd"
viewBox="0 0 16834.41 8537.79"
 xmlns:xlink="http://www.w3.org/1999/xlink"
 xmlns:xodm="http://www.corel.com/coreldraw/odm/2003">
 <defs>
  <style type="text/css">
   <![CDATA[
    .fil1 {fill:none}
    .fil0 {fill:white}
   ]]>
  </style>
   <clipPath id="id0">
    <path d="M1246.97 6991.26l14354.71 0 0 -5445.79 -14354.71 0 0 5445.79z"/>
   </clipPath>
 </defs>
 <g id="Vrstva_x0020_1">
  <metadata id="CorelCorpID_0Corel-Layer"/>
  <g>
  </g>
  <g style="clip-path:url(#id0)">
   <g id="_1215704179440">
    <path class="fil0" d="M7082.58 3111.9c40.18,15.44 76.84,35.24 110,59.64 50.76,37.64 90.22,83.82 119.12,138.45 28.9,54.63 43.7,116.66 43.7,186.1 0,76.84 -13.38,144.38 -38.76,202.75 -26.1,58.3 -63.45,107.09 -111.41,146.22 -47.93,39.12 -105.03,68.3 -171.28,87.49 -66.27,19.24 -140.29,28.83 -221.37,28.83l-695.8 0 0 -1550.84 673.25 0c105.03,0 193.14,15.08 263.65,45.39 71.19,30.24 125.49,73.82 162.84,130.7 38.07,56.89 56.41,126.69 56.41,209.38 0,85.65 -22.57,158.05 -67.7,217.13 -31.72,41.8 -72.59,74.73 -122.66,98.77zm-647.13 -74.38l315.12 0c40.87,0 76.11,-7.04 105.03,-21.07 28.89,-14.04 51.44,-33.98 67.67,-59.86 16.21,-25.8 23.98,-55.76 23.98,-89.67 0,-53.21 -17.64,-94.53 -54.3,-124.07 -35.95,-29.54 -89.53,-44.33 -160.73,-44.33l-296.77 0 0 339.01zm0 635.8l363.73 0c70.51,0 126.21,-16.57 165.68,-49.84 40.19,-33.2 59.93,-80.15 59.93,-140.71 0,-38.35 -9.17,-70.85 -28.93,-97.43 -19.03,-26.58 -46.52,-46.53 -81.76,-59.85 -35.24,-13.25 -77.53,-19.95 -126.18,-19.95l-352.47 0 0 367.78zm1416.97 -691.91c11.98,-19.67 25.35,-38.64 40.16,-56.89 38.78,-48.78 85.31,-87.56 139.58,-116.32 53.58,-28.84 109.98,-43.21 169.19,-43.21 26.81,0 51.48,1.84 74.05,5.51 23.27,3.74 42.99,9.23 59.22,16.63l-84.6 343.39c-16.23,-7.32 -37.38,-14.38 -62.76,-21 -26.07,-6.62 -52.16,-10.01 -78.93,-10.01 -33.84,0 -66.27,6.34 -96.6,18.89 -30.29,12.55 -56.39,30.23 -79.65,53.16 -22.55,22.9 -40.19,49.84 -52.88,80.85 -12.69,31.02 -19.03,65.7 -19.03,104.13l0 604.85 -316.51 0 0 -1172 303.11 0 5.66 192.04zm926.32 -40.12c8.46,-10.64 17.61,-21.08 27.5,-31.23 42.98,-43.56 93.74,-78.59 152.96,-105.18 59.21,-26.65 120.55,-39.9 183.99,-39.9 88.11,0 162.84,17.7 222.77,53.16 59.22,35.46 104.34,89.04 134.64,160.66 30.32,71.62 45.84,160.59 45.84,266.96l0 715.6 -315.14 0 0 -693.47c0,-53.16 -7.03,-97.49 -21.83,-132.95 -14.81,-35.46 -36.67,-61.26 -66.27,-77.54 -29.61,-16.22 -67.68,-23.62 -113.49,-22.14 -35.27,0 -67.67,5.58 -97.29,16.64 -29.6,11.07 -55.69,26.94 -78.24,47.59 -23.27,20.72 -40.9,44.34 -52.17,70.92 -12,26.57 -17.63,56.11 -17.63,88.61l0 702.35 -315.12 0 0 -1172 303.83 0 5.66 151.92zm1254.1 503.83c7.05,35.67 19.05,68.52 35.98,98.63 29.6,52.45 72.59,92.63 127.58,120.76 55.69,28.06 120.55,42.08 195.99,42.08 52.16,0 99.37,-8.17 141.67,-24.39 43.01,-16.29 89.53,-44.34 139.6,-84.17l148.73 210.43c-41.58,36.94 -88.12,68.73 -139.58,95.31 -51.45,26.58 -105.03,46.53 -159.31,59.78 -54.98,13.33 -109.29,19.95 -164.27,19.95 -126.89,0 -238.27,-25.88 -333.44,-77.54 -95.17,-51.68 -169.19,-122.6 -221.35,-212.69 -52.87,-90.09 -78.96,-192.74 -78.96,-307.93 0,-91.57 14.81,-175.39 44.41,-251.46 29.61,-76.07 71.2,-141.49 124.06,-196.12 53.58,-54.63 116.32,-97.07 189.65,-127.38 73.31,-30.24 152.96,-45.4 240.39,-45.4 79.65,0 152.98,14.38 220.66,43.21 66.96,28.77 125.46,69.37 174.82,121.82 49.35,52.46 87.4,114.13 114.2,184.98 26.06,70.92 38.78,148.46 37.35,232.64l-2.11 97.49 -836.09 0zm3.54 -194.92l535.78 0 0 -6.69c-2.83,-41.32 -16.23,-77.55 -38.78,-108.57 -23.26,-31.02 -52.19,-55.76 -87.43,-74.17 -35.95,-18.46 -74.71,-27.71 -117.72,-27.71 -66.27,0 -121.95,12.9 -167.07,38.78 -45.13,25.8 -78.96,62.75 -102.23,110.75 -9.86,20.45 -16.92,43 -22.55,67.61zm287.63 -845.95l272.11 -159.95 113.51 97.5 -284.11 274.72 -203.74 0 -283.4 -274.72 112.8 -97.5 272.82 159.95zm1044.75 537.04c8.46,-10.64 17.64,-21.08 27.5,-31.23 43.01,-43.56 93.77,-78.59 152.98,-105.18 59.22,-26.65 120.55,-39.9 183.99,-39.9 88.12,0 162.85,17.7 222.06,53.16 59.91,35.46 105.03,89.04 135.36,160.66 30.29,71.62 45.81,160.59 45.81,266.96l0 715.6 -315.11 0 0 -693.47c0,-53.16 -7.05,-97.49 -21.86,-132.95 -14.81,-35.46 -36.64,-61.26 -66.25,-77.54 -29.6,-16.22 -67.67,-23.62 -113.51,-22.14 -35.24,0 -67.67,5.58 -97.28,16.64 -29.61,11.07 -55.68,26.94 -78.94,47.59 -22.57,20.72 -40.19,44.34 -51.47,70.92 -11.98,26.57 -18.32,56.11 -18.32,88.61l0 702.35 -314.42 0 0 -1172 303.85 0 5.63 151.92zm2380.67 651.25l0 368.83 -315.14 0 0 -1639.52 315.14 0 0 919.97 444.81 -452.45 414.52 0 -544.22 508.7 542.1 663.3 -379.28 0 -373.61 -466.55 -104.32 97.72zm1586.16 255.05c-4.23,4.02 -9.17,7.96 -13.4,11.84 -44.41,38.42 -92.37,68.66 -143.82,90.86 -52.18,22.14 -106.45,33.21 -164.27,33.21 -74.02,0 -140.98,-14.74 -200.2,-44.27 -59.9,-29.54 -107.14,-70.57 -142.38,-123.02 -34.55,-52.38 -51.48,-114.06 -51.48,-184.98 0,-60.56 10.58,-114.06 33.13,-160.59 21.86,-46.52 54.98,-84.94 98.71,-115.25 42.98,-30.24 97.98,-53.51 163.53,-69.79 65.56,-16.22 142.41,-24.33 229.13,-24.33l191.05 0 0 -33.27c0,-62.04 -19.03,-109.62 -56.41,-142.89 -38.07,-33.21 -88.82,-49.85 -152.27,-49.85 -60.62,0 -114.2,11.84 -161.42,35.46 -47.24,23.62 -91.65,60.56 -133.24,110.76l-192.45 -186.11c70.48,-73.81 150.15,-130.7 238.27,-170.61 87.42,-39.83 183.27,-59.78 286.91,-59.78 94.48,0 176.96,14.74 246.75,44.27 70.48,29.6 124.75,73.88 162.82,132.96 38.78,59.07 57.81,133.66 57.81,223.75l0 795.41 -296.77 0 0 -113.77zm0 -375.89l-195.28 0c-35.24,0 -66.98,2.97 -93.76,8.88 -27.5,5.92 -50.76,15.52 -69.08,28.84 -18.34,13.25 -32.43,28.76 -42.29,46.52 -9.17,17.7 -14.1,38.36 -14.1,62.04 0,25.1 6.32,47.24 19.72,66.41 13.41,19.24 31.72,33.98 54.27,44.34 23.27,10.36 49.36,15.51 78.96,15.51 43.01,0 83.89,-7.4 122.67,-22.14 39.47,-14.8 74.74,-35.45 105.74,-62.03 11.98,-10.36 22.58,-21.29 33.15,-32.78l0 -155.59zm-8436.98 2570.99c-21.15,24.88 -46.5,47.88 -76.12,68.81 -39.5,27.34 -83.91,48.78 -133.24,64.3 -49.35,15.49 -101.53,23.26 -155.81,23.26 -102.23,0 -193.86,-25.88 -276.34,-77.56 -81.79,-51.74 -145.93,-123.72 -192.46,-215.98 -46.52,-92.37 -69.79,-196.84 -69.79,-313.5 0,-118.22 23.27,-223.07 69.79,-314.64 46.53,-91.57 109.98,-163.95 191.74,-217.12 81.08,-53.14 173.42,-79.73 277.06,-79.73 54.27,0 107.17,8.46 157.93,25.46 51.45,16.98 96.57,40.24 136.75,69.79 22.55,17.14 43.69,35.45 62.02,54.85l0 -593.25 312.32 0 0 1639.48 -296.8 0 -7.05 -134.17zm-296.77 -105.11c60.61,0 112.77,-14.75 156.5,-44.28 42.98,-29.53 77.53,-70.13 102.91,-121.89 24.67,-51.66 37.36,-111.52 37.36,-179.4 0,-69.45 -12.69,-130.36 -37.36,-182.81 -25.38,-52.45 -59.93,-93.05 -102.91,-121.9 -43.72,-28.77 -95.89,-43.19 -156.5,-43.19 -57.82,0 -108.58,14.43 -152.99,43.19 -44.41,28.85 -78.24,69.45 -102.91,121.9 -24.67,52.45 -36.67,113.35 -36.67,182.81 0,67.88 12,127.74 36.67,179.4 24.67,51.76 58.5,92.36 102.91,121.89 44.41,29.54 95.17,44.28 152.99,44.28zm1680.61 -276.92c7.06,35.66 19.75,68.52 36.67,98.56 29.6,52.45 71.91,92.71 126.89,120.76 55.67,28.08 121.24,42.08 195.97,42.08 52.16,0 99.4,-8.11 142.41,-24.32 42.29,-16.29 88.82,-44.33 139.58,-84.23l148.03 210.48c-41.6,36.94 -88.14,68.68 -139.58,95.25 -51.47,26.57 -105.05,46.53 -159.33,59.86 -54.98,13.24 -109.26,19.95 -164.25,19.95 -126.89,0 -238.27,-25.88 -333.44,-77.56 -95.17,-51.74 -169.19,-122.58 -221.37,-212.67 -52.16,-90.09 -78.93,-192.75 -78.93,-308.01 0,-91.57 14.8,-175.4 44.41,-251.46 29.6,-76.06 71.19,-141.41 124.06,-196.05 53.58,-54.64 116.31,-97.13 189.62,-127.36 73.31,-30.32 152.99,-45.42 240.41,-45.42 79.65,0 152.96,14.38 220.64,43.14 66.98,28.85 125.48,69.45 174.84,121.9 49.33,52.45 87.4,114.07 114.2,184.97 26.78,70.93 38.76,148.46 37.36,232.63l-2.12 97.5 -836.09 0zm3.55 -194.99l535.75 0 0 -6.6c-2.8,-41.39 -16.21,-77.56 -38.78,-108.57 -22.55,-31.04 -52.16,-55.78 -87.4,-74.24 -35.24,-18.47 -74.74,-27.71 -117.75,-27.71 -66.24,0 -121.95,12.96 -167.08,38.76 -45.09,25.88 -78.93,62.81 -102.19,110.82 -9.18,20.46 -16.93,42.96 -22.55,67.54zm2431.39 194.99c7.05,35.66 19.03,68.52 35.95,98.56 29.61,52.45 72.62,92.71 127.61,120.76 55.67,28.08 120.55,42.08 195.96,42.08 52.17,0 99.41,-8.11 141.7,-24.32 43.01,-16.29 89.53,-44.33 139.58,-84.23l148.75 210.48c-41.6,36.94 -88.14,68.68 -139.58,95.25 -51.47,26.57 -105.05,46.53 -159.33,59.86 -54.99,13.24 -109.27,19.95 -164.25,19.95 -126.89,0 -238.29,-25.88 -333.46,-77.56 -95.17,-51.74 -169.2,-122.58 -221.35,-212.67 -52.16,-90.09 -78.96,-192.75 -78.96,-308.01 0,-91.57 14.81,-175.4 44.41,-251.46 29.6,-76.06 71.19,-141.41 124.06,-196.05 53.58,-54.64 116.34,-97.13 189.65,-127.36 73.31,-30.32 152.98,-45.42 240.39,-45.42 79.67,0 152.98,14.38 220.65,43.14 66.96,28.85 125.49,69.45 174.82,121.9 49.36,52.45 87.43,114.07 114.2,184.97 26.1,70.93 38.79,148.46 37.38,232.63l-2.11 97.5 -836.09 0zm3.52 -194.99l535.78 0 0 -6.6c-2.83,-41.39 -16.21,-77.56 -38.78,-108.57 -23.27,-31.04 -52.17,-55.78 -87.41,-74.24 -35.95,-18.47 -74.73,-27.71 -117.74,-27.71 -66.25,0 -121.95,12.96 -167.08,38.76 -45.1,25.88 -78.93,62.81 -102.2,110.82 -9.17,20.46 -16.92,42.96 -22.57,67.54zm1527.66 -201.6l-551.27 0 0 -259.23 932.66 0 0 206.08 -535.07 706.71 550.56 0 0 259.23 -948.16 0 0 -201.55 551.27 -711.24zm806.48 396.59c7.03,35.66 19.03,68.52 35.95,98.56 29.61,52.45 71.91,92.71 127.58,120.76 54.99,28.08 120.58,42.08 195.99,42.08 51.48,0 98.69,-8.11 141.7,-24.32 43.01,-16.29 89.53,-44.33 139.58,-84.23l148.75 210.48c-41.6,36.94 -88.14,68.68 -139.58,95.25 -52.19,26.57 -105.05,46.53 -160.04,59.86 -54.27,13.24 -109.26,19.95 -163.55,19.95 -126.89,0 -238.27,-25.88 -333.44,-77.56 -95.17,-51.74 -169.2,-122.58 -221.35,-212.67 -52.88,-90.09 -78.96,-192.75 -78.96,-308.01 0,-91.57 14.81,-175.4 44.41,-251.46 29.6,-76.06 70.5,-141.41 124.06,-196.05 52.88,-54.64 116.34,-97.13 189.65,-127.36 72.62,-30.32 152.96,-45.42 240.39,-45.42 79.65,0 152.98,14.38 219.94,43.14 67.67,28.85 125.49,69.45 175.53,121.9 49.36,52.45 87.43,114.07 113.51,184.97 26.79,70.93 39.48,148.46 38.05,232.63l-2.09 97.5 -836.09 0zm2.81 -194.99l536.49 0 0 -6.6c-3.54,-41.39 -16.21,-77.56 -38.78,-108.57 -23.27,-31.04 -52.17,-55.78 -88.12,-74.24 -35.24,-18.47 -74.02,-27.71 -117.03,-27.71 -66.27,0 -122.67,12.96 -167.08,38.76 -45.12,25.88 -79.65,62.81 -102.22,110.82 -9.86,20.46 -17.61,42.96 -23.26,67.54zm-269.99 -1482.17c-107.86,0 -204.44,-17.7 -289.74,-53.16 -84.59,-35.46 -153.67,-85.66 -206.55,-150.65l196.68 -168.42c45.82,48.79 96.58,83.82 152.27,105.25 54.99,21.43 111.38,32.14 169.2,32.14 20.43,0 40.18,-2.6 57.81,-7.75 17.61,-5.22 33.12,-12.55 46.5,-22.13 13.41,-9.66 23.27,-21.08 29.61,-34.4 7.05,-13.26 9.88,-28.77 9.88,-46.53 0,-32.49 -13.4,-57.59 -39.5,-75.29 -11.97,-8.88 -33.83,-18.82 -65.55,-29.89 -31.72,-11.13 -71.89,-23.26 -120.53,-36.59 -75.45,-19.17 -138.89,-41.72 -191.05,-67.6 -51.48,-25.8 -93.77,-55.69 -126.18,-89.66 -26.09,-28.07 -46.55,-60.56 -60.64,-97.5 -14.1,-36.94 -21.15,-77.54 -21.15,-121.89 0,-70.85 20.43,-132.89 62.05,-186.11 41.58,-53.16 96.57,-94.47 164.96,-124.07 69.07,-29.54 143.81,-44.27 224.89,-44.27 60.62,0 119.12,7.4 176.22,22.13 57.1,14.81 109.98,35.82 159.33,63.18 49.34,27.28 93.06,59.42 129.72,96.36l-168.5 188.3c-26.09,-26.58 -56.39,-49.84 -90.94,-69.79 -33.83,-19.88 -67.67,-36.16 -101.51,-48.71 -33.83,-12.55 -64.85,-18.83 -93.05,-18.83 -25.38,0 -47.93,2.19 -67.67,6.63 -19.75,4.44 -36.65,11.42 -50.05,21.07 -13.4,9.59 -23.26,21.01 -29.6,34.33 -7.06,13.26 -9.89,28.06 -9.89,44.27 0,16.29 3.55,31.44 12,45.47 8.46,14.03 19.72,26.93 34.53,38.78 14.81,8.81 38.78,19.17 71.93,31.01 33.12,11.77 76.12,25.1 129.7,39.84 70.5,19.24 130.43,40.6 179.07,64.29 48.65,23.62 88.12,50.98 117.72,81.99 26.79,26.58 45.1,57.17 56.39,91.93 11.29,34.68 16.92,71.97 16.92,111.88 0,72.33 -20.43,136.97 -61.33,193.86 -40.9,56.82 -95.86,101.16 -166.36,132.89 -69.79,31.79 -149.44,47.66 -237.58,47.66zm2188.9 -1340.42l-98 -146.21 370.1 -301.3 157.22 217.14 -429.32 230.38zm-7510.64 3533.77l314.42 0 0 -1172.02 -314.42 0 0 1172.02zm155.1 -1413.45c-60.65,0 -107.86,-14.81 -142.41,-44.36 -33.84,-29.53 -50.76,-71.61 -50.76,-126.25 0,-50.26 17.64,-91.2 52.16,-123.01 34.55,-31.72 82.51,-47.59 143.13,-47.59 59.21,0 105.74,15.15 139.58,45.39 33.83,30.32 50.76,71.99 50.76,125.2 0,51.68 -16.93,93.05 -50.76,124.08 -33.84,31.01 -81.08,46.53 -141.7,46.53zm2219.91 1435.65c-112.78,0 -212.89,-26.6 -301.71,-79.81 -88.15,-53.16 -157.91,-125.91 -209.37,-218.18 -50.76,-92.36 -76.14,-195.35 -76.14,-309.06 0,-116.74 25.38,-221.21 76.14,-313.5 51.47,-92.34 121.23,-165.09 209.37,-218.26 88.82,-53.14 188.93,-79.73 301.71,-79.73 104.34,0 200.22,19.53 286.93,58.66 86,39.21 153.68,92.71 202.32,160.65l-170.6 208.23c-20.45,-28.05 -46.52,-53.9 -77.55,-77.53 -31.01,-23.61 -64.14,-42.08 -100.8,-55.41 -35.95,-13.24 -73.31,-19.87 -111.38,-19.87 -60.64,0 -114.91,14.38 -162.15,43.14 -47.22,28.84 -83.89,68.73 -110.67,119.62 -26.81,50.97 -40.21,108.23 -40.21,171.75 0,62.02 14.12,118.14 42.32,168.4 28.18,50.2 65.55,90.09 112.77,119.65 47.24,29.53 100.12,44.25 157.93,44.25 38.07,0 74.71,-5.5 109.26,-16.55 34.53,-11.16 66.96,-27.71 96.58,-49.92 29.6,-22.15 57.81,-47.95 83.9,-77.55l170.6 208.31c-48.64,63.53 -117.72,114.83 -207.25,153.96 -88.82,39.13 -183.28,58.74 -281.99,58.74zm1001.04 -1340.44l-97.28 -146.19 370.1 -301.31 157.22 217.14 -430.04 230.37z"/>
    <path class="fil0" d="M2444.65 6483.78l7.76 39.92 703.54 0c505.45,0 935.49,-368.49 1012.31,-867.9 61.33,-395.82 -96.57,-843.2 -409.57,-1065.05 53.57,-26.57 243.21,-104.9 438.5,-7.32 105.74,52.67 200.19,162.34 269.98,307.29 106.46,219.44 157.22,519.55 109.27,828.11 -108.55,700.61 -711.3,1217.53 -1420.49,1217.53l-1891.41 0 0 -5373.97 1891.41 0c709.19,0 1311.94,516.95 1420.49,1217.54 108.57,700.59 -310.18,1375.59 -986.24,1589.69l-100.8 31.85 0 7.48c-79.66,1802.08 -1036.29,2071.1 -1036.29,2071.1l-8.46 3.73zm-755.01 4.58l-2.12 14.62 14.82 -2.97c257.3,-53.16 535.76,-193.17 736.68,-394.66 357.42,-357.47 560.44,-904.03 624.59,-1530.46l2.12 -18.95 -17.63 8.17c-756.42,357.55 -1274.57,1087.97 -1358.46,1924.25zm29.61 -3229.77l-42.29 6.27 0 2029.72 40.89 6.05 3.53 -7.96c0,0 363.75,-809.78 1347.88,-1186.02l7.75 -2.75 -0.71 -7.83c-33.13,-697.98 -247.44,-1312.7 -637.28,-1702.62 -200.92,-201.69 -480.07,-341.83 -738.1,-394.85l-14.1 -2.89 1.41 14.45c71.2,764.6 444.12,1533.01 1088.46,1919.68 -44.41,37.3 -223.47,168.7 -471.62,87.42 -164.96,-53.78 -289.04,-184.13 -379.27,-320.82 -136.76,-206.49 -203.74,-428.06 -203.74,-428.06l-2.81 -9.8zm1436.7 -1283.51l-703.54 0 -7.76 40.46 8.46 3.39c0,0 888.96,231.01 1027.83,1938.08l1.41 13.88 12.69 -4.58c464.57,-162.7 749.37,-634.18 673.23,-1123.28 -76.82,-499.4 -506.86,-867.95 -1012.31,-867.95z"/>
   </g>
  </g>
  <polygon class="fil1" points="1246.97,6991.26 15601.69,6991.26 15601.69,1545.47 1246.97,1545.47 "/>
  <rect class="fil1" x="-0" width="16834.41" height="8537.79"/>
 </g>
</svg>
