<?xml version="1.0" encoding="UTF-8"?>
<!DOCTYPE svg PUBLIC "-//W3C//DTD SVG 1.1//EN" "http://www.w3.org/Graphics/SVG/1.1/DTD/svg11.dtd">
<!-- Creator: CorelDRAW -->
<svg xmlns="http://www.w3.org/2000/svg" xml:space="preserve" width="40.8876mm" height="40.8876mm" version="1.1" style="shape-rendering:geometricPrecision; text-rendering:geometricPrecision; image-rendering:optimizeQuality; fill-rule:evenodd; clip-rule:evenodd"
viewBox="0 0 1373.87 1373.87"
 xmlns:xlink="http://www.w3.org/1999/xlink"
 xmlns:xodm="http://www.corel.com/coreldraw/odm/2003">
 <defs>
  <style type="text/css">
   <![CDATA[
    .fil0 {fill:none}
    .fil2 {fill:#FEFEFE}
    .fil1 {fill:#1878F1}
   ]]>
  </style>
 </defs>
 <g id="Vrstva_x0020_1">
  <metadata id="CorelCorpID_0Corel-Layer"/>
  <rect class="fil0" width="1373.87" height="1373.87"/>
  <circle class="fil1" cx="686.94" cy="686.94" r="570.49"/>
  <path class="fil2" d="M585.71 759.02l0.67 408.36 169.15 -0.01c4.65,-19.17 2.53,-315.43 1.61,-385.91 -0.03,-2.6 -0.45,-10.14 -0.28,-12.14 0.99,-11.31 2.06,-9.9 4.92,-13.03l167.26 -2.51 -1.33 -156.1 -166.23 -0.44c-1.16,-38.9 -6.79,-131.43 14.11,-156.75 27.93,-33.85 105.34,-20.89 157.33,-23.16l0.87 -143.11c-42.97,-6.28 -126.62,-8.97 -168.35,-4.09 -97,11.35 -162.02,72.48 -175.15,164.17 -7.65,53.38 -2.75,108.81 -4.16,162.9l-144.49 0.07 -0.95 160.02c31.84,0.12 121.51,-3.6 145.03,1.72z"/>
 </g>
</svg>
