<?xml version="1.0" encoding="UTF-8"?>
<!DOCTYPE svg PUBLIC "-//W3C//DTD SVG 1.1//EN" "http://www.w3.org/Graphics/SVG/1.1/DTD/svg11.dtd">
<!-- Creator: CorelDRAW -->
<svg xmlns="http://www.w3.org/2000/svg" xml:space="preserve" width="40.8876mm" height="40.8876mm" version="1.1" style="shape-rendering:geometricPrecision; text-rendering:geometricPrecision; image-rendering:optimizeQuality; fill-rule:evenodd; clip-rule:evenodd"
viewBox="0 0 4088.76 4088.76"
 xmlns:xlink="http://www.w3.org/1999/xlink"
 xmlns:xodm="http://www.corel.com/coreldraw/odm/2003">
 <defs>
  <style type="text/css">
   <![CDATA[
    .fil0 {fill:none}
    .fil230 {fill:#A1209D}
    .fil231 {fill:#A1209E}
    .fil228 {fill:#A2209C}
    .fil229 {fill:#A2209D}
    .fil226 {fill:#A31F9A}
    .fil227 {fill:#A31F9B}
    .fil223 {fill:#A41F98}
    .fil224 {fill:#A41F99}
    .fil225 {fill:#A41F9A}
    .fil222 {fill:#A51F97}
    .fil220 {fill:#A61E95}
    .fil221 {fill:#A61E96}
    .fil219 {fill:#A71E94}
    .fil217 {fill:#A81E92}
    .fil218 {fill:#A81E93}
    .fil215 {fill:#A91D90}
    .fil216 {fill:#A91D91}
    .fil214 {fill:#AA1D8F}
    .fil212 {fill:#AB1C8C}
    .fil213 {fill:#AB1D8E}
    .fil211 {fill:#AC1C8B}
    .fil210 {fill:#AD1C8A}
    .fil208 {fill:#AE1B87}
    .fil209 {fill:#AE1C89}
    .fil207 {fill:#AF1B86}
    .fil206 {fill:#B01B85}
    .fil205 {fill:#B11B83}
    .fil204 {fill:#B21A82}
    .fil202 {fill:#B31A7F}
    .fil203 {fill:#B31A80}
    .fil201 {fill:#B4197D}
    .fil200 {fill:#B5197C}
    .fil199 {fill:#B6197A}
    .fil198 {fill:#B71879}
    .fil197 {fill:#B81877}
    .fil196 {fill:#B91876}
    .fil195 {fill:#BA1774}
    .fil194 {fill:#BB1772}
    .fil193 {fill:#BC1771}
    .fil192 {fill:#BD166F}
    .fil191 {fill:#BE166D}
    .fil190 {fill:#BF166C}
    .fil189 {fill:#C0156A}
    .fil188 {fill:#C11568}
    .fil187 {fill:#C21566}
    .fil186 {fill:#C31465}
    .fil185 {fill:#C41463}
    .fil184 {fill:#C51461}
    .fil183 {fill:#C6135F}
    .fil182 {fill:#C7135E}
    .fil181 {fill:#C8135C}
    .fil180 {fill:#C9125A}
    .fil179 {fill:#CB1258}
    .fil178 {fill:#CC1156}
    .fil177 {fill:#CD1155}
    .fil176 {fill:#CE1153}
    .fil175 {fill:#CF1051}
    .fil174 {fill:#D0104F}
    .fil173 {fill:#D1104D}
    .fil172 {fill:#D20F4B}
    .fil171 {fill:#D30F4A}
    .fil170 {fill:#D40F48}
    .fil169 {fill:#D50E46}
    .fil168 {fill:#D60E44}
    .fil167 {fill:#D80D42}
    .fil166 {fill:#D90D41}
    .fil165 {fill:#DA0D3F}
    .fil164 {fill:#DB0C3D}
    .fil163 {fill:#DC0C3B}
    .fil162 {fill:#DD0C39}
    .fil161 {fill:#DE0B38}
    .fil160 {fill:#DF0B36}
    .fil159 {fill:#E00B34}
    .fil158 {fill:#E10A32}
    .fil157 {fill:#E20A31}
    .fil156 {fill:#E30A2F}
    .fil155 {fill:#E4092D}
    .fil154 {fill:#E5092C}
    .fil153 {fill:#E6092A}
    .fil152 {fill:#E70828}
    .fil151 {fill:#E80827}
    .fil150 {fill:#E90825}
    .fil149 {fill:#EA0724}
    .fil148 {fill:#EB0722}
    .fil146 {fill:#EC061F}
    .fil147 {fill:#EC0721}
    .fil145 {fill:#ED061E}
    .fil144 {fill:#EE061C}
    .fil143 {fill:#EF051B}
    .fil142 {fill:#F00519}
    .fil140 {fill:#F10517}
    .fil141 {fill:#F10518}
    .fil139 {fill:#F20415}
    .fil138 {fill:#F30414}
    .fil136 {fill:#F40412}
    .fil137 {fill:#F40413}
    .fil135 {fill:#F50310}
    .fil134 {fill:#F6030F}
    .fil132 {fill:#F7030D}
    .fil133 {fill:#F7030E}
    .fil130 {fill:#F8020B}
    .fil131 {fill:#F8020C}
    .fil129 {fill:#F9020A}
    .fil127 {fill:#FA0208}
    .fil128 {fill:#FA0209}
    .fil125 {fill:#FB0107}
    .fil126 {fill:#FB0207}
    .fil122 {fill:#FC0104}
    .fil123 {fill:#FC0105}
    .fil124 {fill:#FC0106}
    .fil120 {fill:#FD0103}
    .fil121 {fill:#FD0104}
    .fil118 {fill:#FE0001}
    .fil119 {fill:#FE0002}
    .fil116 {fill:red}
    .fil117 {fill:#FF0001}
    .fil115 {fill:#FF0100}
    .fil114 {fill:#FF0200}
    .fil113 {fill:#FF0300}
    .fil112 {fill:#FF0400}
    .fil111 {fill:#FF0500}
    .fil110 {fill:#FF0600}
    .fil109 {fill:#FF0700}
    .fil108 {fill:#FF0800}
    .fil107 {fill:#FF0900}
    .fil106 {fill:#FF0A00}
    .fil105 {fill:#FF0B00}
    .fil104 {fill:#FF0D00}
    .fil103 {fill:#FF0E00}
    .fil102 {fill:#FF1000}
    .fil101 {fill:#FF1100}
    .fil100 {fill:#FF1300}
    .fil99 {fill:#FF1500}
    .fil98 {fill:#FF1700}
    .fil97 {fill:#FF1900}
    .fil96 {fill:#FF1A00}
    .fil95 {fill:#FF1C00}
    .fil94 {fill:#FF1E00}
    .fil93 {fill:#FF2100}
    .fil92 {fill:#FF2300}
    .fil91 {fill:#FF2500}
    .fil90 {fill:#FF2700}
    .fil89 {fill:#FF2900}
    .fil88 {fill:#FF2C00}
    .fil87 {fill:#FF2E00}
    .fil86 {fill:#FF3100}
    .fil85 {fill:#FF3300}
    .fil84 {fill:#FF3600}
    .fil83 {fill:#FF3800}
    .fil82 {fill:#FF3B00}
    .fil81 {fill:#FF3E00}
    .fil80 {fill:#FF4000}
    .fil79 {fill:#FF4300}
    .fil78 {fill:#FF4600}
    .fil77 {fill:#FF4800}
    .fil76 {fill:#FF4B00}
    .fil75 {fill:#FF4E00}
    .fil74 {fill:#FF5100}
    .fil73 {fill:#FF5400}
    .fil72 {fill:#FF5700}
    .fil71 {fill:#FF5A00}
    .fil70 {fill:#FF5D00}
    .fil69 {fill:#FF6000}
    .fil68 {fill:#FF6300}
    .fil67 {fill:#FF6600}
    .fil66 {fill:#FF6900}
    .fil65 {fill:#FF6C00}
    .fil64 {fill:#FF6F00}
    .fil63 {fill:#FF7200}
    .fil62 {fill:#FF7500}
    .fil61 {fill:#FF7800}
    .fil60 {fill:#FF7B00}
    .fil59 {fill:#FF7E00}
    .fil58 {fill:#FF8100}
    .fil57 {fill:#FF8400}
    .fil56 {fill:#FF8700}
    .fil55 {fill:#FF8A00}
    .fil54 {fill:#FF8D00}
    .fil53 {fill:#FF9000}
    .fil52 {fill:#FF9300}
    .fil51 {fill:#FF9600}
    .fil50 {fill:#FF9900}
    .fil49 {fill:#FF9C00}
    .fil48 {fill:#FF9F00}
    .fil47 {fill:#FFA200}
    .fil46 {fill:orange}
    .fil45 {fill:#FFA800}
    .fil44 {fill:#FFAB00}
    .fil43 {fill:#FFAE00}
    .fil42 {fill:#FFB100}
    .fil41 {fill:#FFB400}
    .fil40 {fill:#FFB600}
    .fil39 {fill:#FFB900}
    .fil38 {fill:#FFBC00}
    .fil37 {fill:#FFBF00}
    .fil36 {fill:#FFC100}
    .fil35 {fill:#FFC400}
    .fil34 {fill:#FFC700}
    .fil33 {fill:#FFC900}
    .fil32 {fill:#FFCC00}
    .fil31 {fill:#FFCE00}
    .fil30 {fill:#FFD100}
    .fil29 {fill:#FFD300}
    .fil28 {fill:#FFD500}
    .fil27 {fill:#FFD800}
    .fil26 {fill:#FFDA00}
    .fil25 {fill:#FFDC00}
    .fil24 {fill:#FFDE00}
    .fil23 {fill:#FFE000}
    .fil22 {fill:#FFE200}
    .fil21 {fill:#FFE400}
    .fil20 {fill:#FFE600}
    .fil19 {fill:#FFE800}
    .fil18 {fill:#FFEA00}
    .fil17 {fill:#FFEC00}
    .fil16 {fill:#FFED00}
    .fil15 {fill:#FFEF00}
    .fil14 {fill:#FFF100}
    .fil13 {fill:#FFF200}
    .fil12 {fill:#FFF400}
    .fil11 {fill:#FFF500}
    .fil10 {fill:#FFF600}
    .fil9 {fill:#FFF700}
    .fil8 {fill:#FFF800}
    .fil7 {fill:#FFF900}
    .fil6 {fill:#FFFA00}
    .fil5 {fill:#FFFB00}
    .fil4 {fill:#FFFC00}
    .fil3 {fill:#FFFD00}
    .fil2 {fill:#FFFE00}
    .fil1 {fill:yellow}
    .fil232 {fill:white;fill-rule:nonzero}
   ]]>
  </style>
    <clipPath id="id0">
     <path d="M3742.22 2044.39c0,-937.69 -760.14,-1697.83 -1697.83,-1697.83 -937.69,0 -1697.83,760.14 -1697.83,1697.83 0,937.69 760.14,1697.83 1697.83,1697.83 937.69,0 1697.83,-760.14 1697.83,-1697.83z"/>
    </clipPath>
 </defs>
 <g id="Vrstva_x0020_1">
  <metadata id="CorelCorpID_0Corel-Layer"/>
  <rect class="fil0" width="4088.76" height="4088.76"/>
  <g>
   <g style="clip-path:url(#id0)">
    <polygon class="fil1" points="-640.65,1557.09 -433.76,1413.76 1763.98,4586.1 1557.09,4729.43 "/>
    <polygon id="_1" class="fil1" points="-439.21,1417.53 -422.85,1406.2 1774.88,4578.54 1758.53,4589.87 "/>
    <polygon id="_2" class="fil1" points="-428.3,1409.98 -411.95,1398.65 1785.79,4570.99 1769.43,4582.32 "/>
    <polygon id="_3" class="fil1" points="-417.4,1402.43 -401.05,1391.1 1796.69,4563.44 1780.33,4574.77 "/>
    <polygon id="_4" class="fil2" points="-406.5,1394.87 -390.14,1383.54 1807.59,4555.88 1791.24,4567.21 "/>
    <polygon id="_5" class="fil2" points="-395.59,1387.32 -379.24,1375.99 1818.5,4548.33 1802.14,4559.66 "/>
    <polygon id="_6" class="fil3" points="-384.69,1379.77 -368.34,1368.44 1829.4,4540.77 1813.04,4552.11 "/>
    <polygon id="_7" class="fil3" points="-373.79,1372.21 -357.43,1360.88 1840.3,4533.22 1823.95,4544.55 "/>
    <polygon id="_8" class="fil4" points="-362.88,1364.66 -346.53,1353.33 1851.21,4525.67 1834.85,4537 "/>
    <polygon id="_9" class="fil5" points="-351.98,1357.11 -335.63,1345.77 1862.11,4518.11 1845.75,4529.44 "/>
    <polygon id="_10" class="fil6" points="-341.08,1349.55 -324.72,1338.22 1873.01,4510.56 1856.66,4521.89 "/>
    <polygon id="_11" class="fil7" points="-330.17,1342 -313.82,1330.67 1883.92,4503.01 1867.56,4514.34 "/>
    <polygon id="_12" class="fil8" points="-319.27,1334.44 -302.92,1323.11 1894.82,4495.45 1878.46,4506.78 "/>
    <polygon id="_13" class="fil9" points="-308.37,1326.89 -292.01,1315.56 1905.72,4487.9 1889.37,4499.23 "/>
    <polygon id="_14" class="fil10" points="-297.46,1319.34 -281.11,1308.01 1916.63,4480.35 1900.27,4491.68 "/>
    <polygon id="_15" class="fil11" points="-286.56,1311.78 -270.2,1300.45 1927.53,4472.79 1911.17,4484.12 "/>
    <polygon id="_16" class="fil12" points="-275.66,1304.23 -259.3,1292.9 1938.43,4465.24 1922.08,4476.57 "/>
    <polygon id="_17" class="fil13" points="-264.75,1296.68 -248.4,1285.35 1949.34,4457.68 1932.98,4469.02 "/>
    <polygon id="_18" class="fil14" points="-253.85,1289.12 -237.49,1277.79 1960.24,4450.13 1943.88,4461.46 "/>
    <polygon id="_19" class="fil15" points="-242.95,1281.57 -226.59,1270.24 1971.14,4442.58 1954.79,4453.91 "/>
    <polygon id="_20" class="fil16" points="-232.04,1274.01 -215.69,1262.68 1982.05,4435.02 1965.69,4446.35 "/>
    <polygon id="_21" class="fil17" points="-221.14,1266.46 -204.78,1255.13 1992.95,4427.47 1976.59,4438.8 "/>
    <polygon id="_22" class="fil18" points="-210.24,1258.91 -193.88,1247.58 2003.85,4419.92 1987.5,4431.25 "/>
    <polygon id="_23" class="fil19" points="-199.33,1251.35 -182.98,1240.02 2014.76,4412.36 1998.4,4423.69 "/>
    <polygon id="_24" class="fil20" points="-188.43,1243.8 -172.07,1232.47 2025.66,4404.81 2009.3,4416.14 "/>
    <polygon id="_25" class="fil21" points="-177.53,1236.25 -161.17,1224.92 2036.56,4397.26 2020.21,4408.59 "/>
    <polygon id="_26" class="fil22" points="-166.62,1228.69 -150.27,1217.36 2047.47,4389.7 2031.11,4401.03 "/>
    <polygon id="_27" class="fil23" points="-155.72,1221.14 -139.36,1209.81 2058.37,4382.15 2042.01,4393.48 "/>
    <polygon id="_28" class="fil24" points="-144.82,1213.59 -128.46,1202.26 2069.27,4374.59 2052.92,4385.92 "/>
    <polygon id="_29" class="fil25" points="-133.91,1206.03 -117.56,1194.7 2080.18,4367.04 2063.82,4378.37 "/>
    <polygon id="_30" class="fil26" points="-123.01,1198.48 -106.65,1187.15 2091.08,4359.49 2074.72,4370.82 "/>
    <polygon id="_31" class="fil27" points="-112.11,1190.92 -95.75,1179.59 2101.98,4351.93 2085.63,4363.26 "/>
    <polygon id="_32" class="fil28" points="-101.2,1183.37 -84.85,1172.04 2112.89,4344.38 2096.53,4355.71 "/>
    <polygon id="_33" class="fil29" points="-90.3,1175.82 -73.94,1164.49 2123.79,4336.83 2107.44,4348.16 "/>
    <polygon id="_34" class="fil30" points="-79.4,1168.26 -63.04,1156.93 2134.69,4329.27 2118.34,4340.6 "/>
    <polygon id="_35" class="fil31" points="-68.49,1160.71 -52.14,1149.38 2145.6,4321.72 2129.24,4333.05 "/>
    <polygon id="_36" class="fil32" points="-57.59,1153.16 -41.23,1141.83 2156.5,4314.17 2140.15,4325.5 "/>
    <polygon id="_37" class="fil33" points="-46.69,1145.6 -30.33,1134.27 2167.4,4306.61 2151.05,4317.94 "/>
    <polygon id="_38" class="fil34" points="-35.78,1138.05 -19.43,1126.72 2178.31,4299.06 2161.95,4310.39 "/>
    <polygon id="_39" class="fil35" points="-24.88,1130.5 -8.52,1119.16 2189.21,4291.5 2172.86,4302.83 "/>
    <polygon id="_40" class="fil36" points="-13.98,1122.94 2.38,1111.61 2200.11,4283.95 2183.76,4295.28 "/>
    <polygon id="_41" class="fil37" points="-3.07,1115.39 13.28,1104.06 2211.02,4276.4 2194.66,4287.73 "/>
    <polygon id="_42" class="fil38" points="7.83,1107.83 24.19,1096.5 2221.92,4268.84 2205.57,4280.17 "/>
    <polygon id="_43" class="fil39" points="18.73,1100.28 35.09,1088.95 2232.82,4261.29 2216.47,4272.62 "/>
    <polygon id="_44" class="fil40" points="29.64,1092.73 45.99,1081.4 2243.73,4253.74 2227.37,4265.07 "/>
    <polygon id="_45" class="fil41" points="40.54,1085.17 56.9,1073.84 2254.63,4246.18 2238.28,4257.51 "/>
    <polygon id="_46" class="fil42" points="51.44,1077.62 67.8,1066.29 2265.53,4238.63 2249.18,4249.96 "/>
    <polygon id="_47" class="fil43" points="62.35,1070.07 78.7,1058.74 2276.44,4231.08 2260.08,4242.41 "/>
    <polygon id="_48" class="fil44" points="73.25,1062.51 89.61,1051.18 2287.34,4223.52 2270.99,4234.85 "/>
    <polygon id="_49" class="fil45" points="84.16,1054.96 100.51,1043.63 2298.24,4215.97 2281.89,4227.3 "/>
    <polygon id="_50" class="fil46" points="95.06,1047.41 111.41,1036.07 2309.15,4208.41 2292.79,4219.74 "/>
    <polygon id="_51" class="fil47" points="105.96,1039.85 122.32,1028.52 2320.05,4200.86 2303.7,4212.19 "/>
    <polygon id="_52" class="fil48" points="116.87,1032.3 133.22,1020.97 2330.95,4193.31 2314.6,4204.64 "/>
    <polygon id="_53" class="fil49" points="127.77,1024.74 144.12,1013.41 2341.86,4185.75 2325.5,4197.08 "/>
    <polygon id="_54" class="fil50" points="138.67,1017.19 155.03,1005.86 2352.76,4178.2 2336.41,4189.53 "/>
    <polygon id="_55" class="fil51" points="149.58,1009.64 165.93,998.31 2363.66,4170.65 2347.31,4181.98 "/>
    <polygon id="_56" class="fil52" points="160.48,1002.08 176.83,990.75 2374.57,4163.09 2358.21,4174.42 "/>
    <polygon id="_57" class="fil53" points="171.38,994.53 187.74,983.2 2385.47,4155.54 2369.12,4166.87 "/>
    <polygon id="_58" class="fil54" points="182.29,986.98 198.64,975.65 2396.37,4147.98 2380.02,4159.32 "/>
    <polygon id="_59" class="fil55" points="193.19,979.42 209.54,968.09 2407.28,4140.43 2390.92,4151.76 "/>
    <polygon id="_60" class="fil56" points="204.09,971.87 220.45,960.54 2418.18,4132.88 2401.83,4144.21 "/>
    <polygon id="_61" class="fil57" points="215,964.32 231.35,952.98 2429.09,4125.32 2412.73,4136.65 "/>
    <polygon id="_62" class="fil58" points="225.9,956.76 242.25,945.43 2439.99,4117.77 2423.63,4129.1 "/>
    <polygon id="_63" class="fil59" points="236.8,949.21 253.16,937.88 2450.89,4110.22 2434.54,4121.55 "/>
    <polygon id="_64" class="fil60" points="247.71,941.65 264.06,930.32 2461.8,4102.66 2445.44,4113.99 "/>
    <polygon id="_65" class="fil61" points="258.61,934.1 274.96,922.77 2472.7,4095.11 2456.34,4106.44 "/>
    <polygon id="_66" class="fil62" points="269.51,926.55 285.87,915.22 2483.6,4087.56 2467.25,4098.89 "/>
    <polygon id="_67" class="fil63" points="280.42,918.99 296.77,907.66 2494.51,4080 2478.15,4091.33 "/>
    <polygon id="_68" class="fil64" points="291.32,911.44 307.67,900.11 2505.41,4072.45 2489.05,4083.78 "/>
    <polygon id="_69" class="fil65" points="302.22,903.89 318.58,892.56 2516.31,4064.89 2499.96,4076.23 "/>
    <polygon id="_70" class="fil66" points="313.13,896.33 329.48,885 2527.22,4057.34 2510.86,4068.67 "/>
    <polygon id="_71" class="fil67" points="324.03,888.78 340.38,877.45 2538.12,4049.79 2521.76,4061.12 "/>
    <polygon id="_72" class="fil68" points="334.93,881.22 351.29,869.89 2549.02,4042.23 2532.67,4053.56 "/>
    <polygon id="_73" class="fil69" points="345.84,873.67 362.19,862.34 2559.93,4034.68 2543.57,4046.01 "/>
    <polygon id="_74" class="fil70" points="356.74,866.12 373.09,854.79 2570.83,4027.13 2554.47,4038.46 "/>
    <polygon id="_75" class="fil71" points="367.64,858.56 384,847.23 2581.73,4019.57 2565.38,4030.9 "/>
    <polygon id="_76" class="fil72" points="378.55,851.01 394.9,839.68 2592.64,4012.02 2576.28,4023.35 "/>
    <polygon id="_77" class="fil73" points="389.45,843.46 405.81,832.13 2603.54,4004.47 2587.18,4015.8 "/>
    <polygon id="_78" class="fil74" points="400.35,835.9 416.71,824.57 2614.44,3996.91 2598.09,4008.24 "/>
    <polygon id="_79" class="fil75" points="411.26,828.35 427.61,817.02 2625.35,3989.36 2608.99,4000.69 "/>
    <polygon id="_80" class="fil76" points="422.16,820.8 438.52,809.47 2636.25,3981.8 2619.89,3993.14 "/>
    <polygon id="_81" class="fil77" points="433.06,813.24 449.42,801.91 2647.15,3974.25 2630.8,3985.58 "/>
    <polygon id="_82" class="fil78" points="443.97,805.69 460.32,794.36 2658.06,3966.7 2641.7,3978.03 "/>
    <polygon id="_83" class="fil79" points="454.87,798.13 471.23,786.8 2668.96,3959.14 2652.6,3970.47 "/>
    <polygon id="_84" class="fil80" points="465.77,790.58 482.13,779.25 2679.86,3951.59 2663.51,3962.92 "/>
    <polygon id="_85" class="fil81" points="476.68,783.03 493.03,771.7 2690.77,3944.04 2674.41,3955.37 "/>
    <polygon id="_86" class="fil82" points="487.58,775.47 503.94,764.14 2701.67,3936.48 2685.31,3947.81 "/>
    <polygon id="_87" class="fil83" points="498.48,767.92 514.84,756.59 2712.57,3928.93 2696.22,3940.26 "/>
    <polygon id="_88" class="fil84" points="509.39,760.37 525.74,749.04 2723.48,3921.38 2707.12,3932.71 "/>
    <polygon id="_89" class="fil85" points="520.29,752.81 536.65,741.48 2734.38,3913.82 2718.02,3925.15 "/>
    <polygon id="_90" class="fil86" points="531.19,745.26 547.55,733.93 2745.28,3906.27 2728.93,3917.6 "/>
    <polygon id="_91" class="fil87" points="542.1,737.71 558.45,726.37 2756.19,3898.71 2739.83,3910.04 "/>
    <polygon id="_92" class="fil88" points="553,730.15 569.36,718.82 2767.09,3891.16 2750.74,3902.49 "/>
    <polygon id="_93" class="fil89" points="563.9,722.6 580.26,711.27 2777.99,3883.61 2761.64,3894.94 "/>
    <polygon id="_94" class="fil90" points="574.81,715.04 591.16,703.71 2788.9,3876.05 2772.54,3887.38 "/>
    <polygon id="_95" class="fil91" points="585.71,707.49 602.07,696.16 2799.8,3868.5 2783.45,3879.83 "/>
    <polygon id="_96" class="fil92" points="596.61,699.94 612.97,688.61 2810.7,3860.95 2794.35,3872.28 "/>
    <polygon id="_97" class="fil93" points="607.52,692.38 623.87,681.05 2821.61,3853.39 2805.25,3864.72 "/>
    <polygon id="_98" class="fil94" points="618.42,684.83 634.78,673.5 2832.51,3845.84 2816.16,3857.17 "/>
    <polygon id="_99" class="fil95" points="629.32,677.28 645.68,665.95 2843.41,3838.29 2827.06,3849.62 "/>
    <polygon id="_100" class="fil96" points="640.23,669.72 656.58,658.39 2854.32,3830.73 2837.96,3842.06 "/>
    <polygon id="_101" class="fil97" points="651.13,662.17 667.49,650.84 2865.22,3823.18 2848.87,3834.51 "/>
    <polygon id="_102" class="fil98" points="662.03,654.62 678.39,643.28 2876.12,3815.62 2859.77,3826.95 "/>
    <polygon id="_103" class="fil99" points="672.94,647.06 689.29,635.73 2887.03,3808.07 2870.67,3819.4 "/>
    <polygon id="_104" class="fil100" points="683.84,639.51 700.2,628.18 2897.93,3800.52 2881.58,3811.85 "/>
    <polygon id="_105" class="fil101" points="694.74,631.95 711.1,620.62 2908.83,3792.96 2892.48,3804.29 "/>
    <polygon id="_106" class="fil102" points="705.65,624.4 722,613.07 2919.74,3785.41 2903.38,3796.74 "/>
    <polygon id="_107" class="fil103" points="716.55,616.85 732.91,605.52 2930.64,3777.86 2914.29,3789.19 "/>
    <polygon id="_108" class="fil104" points="727.46,609.29 743.81,597.96 2941.54,3770.3 2925.19,3781.63 "/>
    <polygon id="_109" class="fil105" points="738.36,601.74 754.71,590.41 2952.45,3762.75 2936.09,3774.08 "/>
    <polygon id="_110" class="fil106" points="749.26,594.19 765.62,582.86 2963.35,3755.19 2947,3766.53 "/>
    <polygon id="_111" class="fil107" points="760.17,586.63 776.52,575.3 2974.25,3747.64 2957.9,3758.97 "/>
    <polygon id="_112" class="fil108" points="771.07,579.08 787.42,567.75 2985.16,3740.09 2968.8,3751.42 "/>
    <polygon id="_113" class="fil109" points="781.97,571.53 798.33,560.19 2996.06,3732.53 2979.71,3743.86 "/>
    <polygon id="_114" class="fil110" points="792.88,563.97 809.23,552.64 3006.96,3724.98 2990.61,3736.31 "/>
    <polygon id="_115" class="fil111" points="803.78,556.42 820.13,545.09 3017.87,3717.43 3001.51,3728.76 "/>
    <polygon id="_116" class="fil112" points="814.68,548.86 831.04,537.53 3028.77,3709.87 3012.42,3721.2 "/>
    <polygon id="_117" class="fil113" points="825.59,541.31 841.94,529.98 3039.67,3702.32 3023.32,3713.65 "/>
    <polygon id="_118" class="fil114" points="836.49,533.76 852.84,522.43 3050.58,3694.77 3034.22,3706.1 "/>
    <polygon id="_119" class="fil114" points="847.39,526.2 863.75,514.87 3061.48,3687.21 3045.13,3698.54 "/>
    <polygon id="_120" class="fil115" points="858.3,518.65 874.65,507.32 3072.39,3679.66 3056.03,3690.99 "/>
    <polygon id="_121" class="fil115" points="869.2,511.1 885.55,499.77 3083.29,3672.1 3066.93,3683.44 "/>
    <polygon id="_122" class="fil116" points="880.1,503.54 896.46,492.21 3094.19,3664.55 3077.84,3675.88 "/>
    <polygon id="_123" class="fil116" points="891.01,495.99 907.36,484.66 3105.1,3657 3088.74,3668.33 "/>
    <polygon id="_124" class="fil116" points="901.91,488.43 918.26,477.1 3116,3649.44 3099.64,3660.77 "/>
    <polygon id="_125" class="fil116" points="912.81,480.88 929.17,469.55 3126.9,3641.89 3110.55,3653.22 "/>
    <polygon id="_126" class="fil116" points="923.72,473.33 940.07,462 3137.81,3634.34 3121.45,3645.67 "/>
    <polygon id="_127" class="fil116" points="934.62,465.77 950.97,454.44 3148.71,3626.78 3132.35,3638.11 "/>
    <polygon id="_128" class="fil116" points="945.52,458.22 961.88,446.89 3159.61,3619.23 3143.26,3630.56 "/>
    <polygon id="_129" class="fil116" points="956.43,450.67 972.78,439.34 3170.52,3611.68 3154.16,3623.01 "/>
    <polygon id="_130" class="fil117" points="967.33,443.11 983.68,431.78 3181.42,3604.12 3165.06,3615.45 "/>
    <polygon id="_131" class="fil118" points="978.23,435.56 994.59,424.23 3192.32,3596.57 3175.97,3607.9 "/>
    <polygon id="_132" class="fil118" points="989.14,428.01 1005.49,416.68 3203.23,3589.01 3186.87,3600.35 "/>
    <polygon id="_133" class="fil119" points="1000.04,420.45 1016.39,409.12 3214.13,3581.46 3197.77,3592.79 "/>
    <polygon id="_134" class="fil119" points="1010.94,412.9 1027.3,401.57 3225.03,3573.91 3208.68,3585.24 "/>
    <polygon id="_135" class="fil120" points="1021.85,405.34 1038.2,394.01 3235.94,3566.35 3219.58,3577.68 "/>
    <polygon id="_136" class="fil120" points="1032.75,397.79 1049.11,386.46 3246.84,3558.8 3230.48,3570.13 "/>
    <polygon id="_137" class="fil121" points="1043.65,390.24 1060.01,378.91 3257.74,3551.25 3241.39,3562.58 "/>
    <polygon id="_138" class="fil122" points="1054.56,382.68 1070.91,371.35 3268.65,3543.69 3252.29,3555.02 "/>
    <polygon id="_139" class="fil123" points="1065.46,375.13 1081.82,363.8 3279.55,3536.14 3263.19,3547.47 "/>
    <polygon id="_140" class="fil124" points="1076.36,367.58 1092.72,356.25 3290.45,3528.59 3274.1,3539.92 "/>
    <polygon id="_141" class="fil125" points="1087.27,360.02 1103.62,348.69 3301.36,3521.03 3285,3532.36 "/>
    <polygon id="_142" class="fil126" points="1098.17,352.47 1114.53,341.14 3312.26,3513.48 3295.9,3524.81 "/>
    <polygon id="_143" class="fil127" points="1109.07,344.92 1125.43,333.59 3323.16,3505.92 3306.81,3517.25 "/>
    <polygon id="_144" class="fil128" points="1119.98,337.36 1136.33,326.03 3334.07,3498.37 3317.71,3509.7 "/>
    <polygon id="_145" class="fil129" points="1130.88,329.81 1147.24,318.48 3344.97,3490.82 3328.61,3502.15 "/>
    <polygon id="_146" class="fil130" points="1141.78,322.25 1158.14,310.92 3355.87,3483.26 3339.52,3494.59 "/>
    <polygon id="_147" class="fil131" points="1152.69,314.7 1169.04,303.37 3366.78,3475.71 3350.42,3487.04 "/>
    <polygon id="_148" class="fil132" points="1163.59,307.15 1179.95,295.82 3377.68,3468.16 3361.32,3479.49 "/>
    <polygon id="_149" class="fil133" points="1174.49,299.59 1190.85,288.26 3388.58,3460.6 3372.23,3471.93 "/>
    <polygon id="_150" class="fil134" points="1185.4,292.04 1201.75,280.71 3399.49,3453.05 3383.13,3464.38 "/>
    <polygon id="_151" class="fil135" points="1196.3,284.49 1212.66,273.16 3410.39,3445.5 3394.04,3456.83 "/>
    <polygon id="_152" class="fil136" points="1207.2,276.93 1223.56,265.6 3421.29,3437.94 3404.94,3449.27 "/>
    <polygon id="_153" class="fil137" points="1218.11,269.38 1234.46,258.05 3432.2,3430.39 3415.84,3441.72 "/>
    <polygon id="_154" class="fil138" points="1229.01,261.83 1245.37,250.49 3443.1,3422.83 3426.75,3434.16 "/>
    <polygon id="_155" class="fil139" points="1239.91,254.27 1256.27,242.94 3454,3415.28 3437.65,3426.61 "/>
    <polygon id="_156" class="fil140" points="1250.82,246.72 1267.17,235.39 3464.91,3407.73 3448.55,3419.06 "/>
    <polygon id="_157" class="fil141" points="1261.72,239.16 1278.08,227.83 3475.81,3400.17 3459.46,3411.5 "/>
    <polygon id="_158" class="fil142" points="1272.62,231.61 1288.98,220.28 3486.71,3392.62 3470.36,3403.95 "/>
    <polygon id="_159" class="fil143" points="1283.53,224.06 1299.88,212.73 3497.62,3385.07 3481.26,3396.4 "/>
    <polygon id="_160" class="fil144" points="1294.43,216.5 1310.79,205.17 3508.52,3377.51 3492.17,3388.84 "/>
    <polygon id="_161" class="fil145" points="1305.33,208.95 1321.69,197.62 3519.42,3369.96 3503.07,3381.29 "/>
    <polygon id="_162" class="fil146" points="1316.24,201.4 1332.59,190.07 3530.33,3362.41 3513.97,3373.74 "/>
    <polygon id="_163" class="fil147" points="1327.14,193.84 1343.5,182.51 3541.23,3354.85 3524.88,3366.18 "/>
    <polygon id="_164" class="fil148" points="1338.04,186.29 1354.4,174.96 3552.13,3347.3 3535.78,3358.63 "/>
    <polygon id="_165" class="fil149" points="1348.95,178.74 1365.3,167.4 3563.04,3339.74 3546.68,3351.07 "/>
    <polygon id="_166" class="fil150" points="1359.85,171.18 1376.21,159.85 3573.94,3332.19 3557.59,3343.52 "/>
    <polygon id="_167" class="fil151" points="1370.76,163.63 1387.11,152.3 3584.84,3324.64 3568.49,3335.97 "/>
    <polygon id="_168" class="fil152" points="1381.66,156.07 1398.01,144.74 3595.75,3317.08 3579.39,3328.41 "/>
    <polygon id="_169" class="fil153" points="1392.56,148.52 1408.92,137.19 3606.65,3309.53 3590.3,3320.86 "/>
    <polygon id="_170" class="fil154" points="1403.47,140.97 1419.82,129.64 3617.55,3301.98 3601.2,3313.31 "/>
    <polygon id="_171" class="fil155" points="1414.37,133.41 1430.72,122.08 3628.46,3294.42 3612.1,3305.75 "/>
    <polygon id="_172" class="fil156" points="1425.27,125.86 1441.63,114.53 3639.36,3286.87 3623.01,3298.2 "/>
    <polygon id="_173" class="fil157" points="1436.18,118.31 1452.53,106.98 3650.26,3279.31 3633.91,3290.65 "/>
    <polygon id="_174" class="fil158" points="1447.08,110.75 1463.43,99.42 3661.17,3271.76 3644.81,3283.09 "/>
    <polygon id="_175" class="fil159" points="1457.98,103.2 1474.34,91.87 3672.07,3264.21 3655.72,3275.54 "/>
    <polygon id="_176" class="fil160" points="1468.89,95.64 1485.24,84.31 3682.97,3256.65 3666.62,3267.98 "/>
    <polygon id="_177" class="fil161" points="1479.79,88.09 1496.14,76.76 3693.88,3249.1 3677.52,3260.43 "/>
    <polygon id="_178" class="fil162" points="1490.69,80.54 1507.05,69.21 3704.78,3241.55 3688.43,3252.88 "/>
    <polygon id="_179" class="fil163" points="1501.6,72.98 1517.95,61.65 3715.69,3233.99 3699.33,3245.32 "/>
    <polygon id="_180" class="fil164" points="1512.5,65.43 1528.85,54.1 3726.59,3226.44 3710.23,3237.77 "/>
    <polygon id="_181" class="fil165" points="1523.4,57.88 1539.76,46.55 3737.49,3218.89 3721.14,3230.22 "/>
    <polygon id="_182" class="fil166" points="1534.31,50.32 1550.66,38.99 3748.4,3211.33 3732.04,3222.66 "/>
    <polygon id="_183" class="fil167" points="1545.21,42.77 1561.56,31.44 3759.3,3203.78 3742.94,3215.11 "/>
    <polygon id="_184" class="fil168" points="1556.11,35.22 1572.47,23.89 3770.2,3196.22 3753.85,3207.56 "/>
    <polygon id="_185" class="fil169" points="1567.02,27.66 1583.37,16.33 3781.11,3188.67 3764.75,3200 "/>
    <polygon id="_186" class="fil170" points="1577.92,20.11 1594.27,8.78 3792.01,3181.12 3775.65,3192.45 "/>
    <polygon id="_187" class="fil171" points="1588.82,12.55 1605.18,1.22 3802.91,3173.56 3786.56,3184.89 "/>
    <polygon id="_188" class="fil172" points="1599.73,5 1616.08,-6.33 3813.82,3166.01 3797.46,3177.34 "/>
    <polygon id="_189" class="fil173" points="1610.63,-2.55 1626.98,-13.88 3824.72,3158.46 3808.36,3169.79 "/>
    <polygon id="_190" class="fil174" points="1621.53,-10.11 1637.89,-21.44 3835.62,3150.9 3819.27,3162.23 "/>
    <polygon id="_191" class="fil175" points="1632.44,-17.66 1648.79,-28.99 3846.53,3143.35 3830.17,3154.68 "/>
    <polygon id="_192" class="fil176" points="1643.34,-25.21 1659.69,-36.54 3857.43,3135.8 3841.07,3147.13 "/>
    <polygon id="_193" class="fil177" points="1654.24,-32.77 1670.6,-44.1 3868.33,3128.24 3851.98,3139.57 "/>
    <polygon id="_194" class="fil178" points="1665.15,-40.32 1681.5,-51.65 3879.24,3120.69 3862.88,3132.02 "/>
    <polygon id="_195" class="fil179" points="1676.05,-47.87 1692.41,-59.2 3890.14,3113.13 3873.78,3124.46 "/>
    <polygon id="_196" class="fil180" points="1686.95,-55.43 1703.31,-66.76 3901.04,3105.58 3884.69,3116.91 "/>
    <polygon id="_197" class="fil181" points="1697.86,-62.98 1714.21,-74.31 3911.95,3098.03 3895.59,3109.36 "/>
    <polygon id="_198" class="fil182" points="1708.76,-70.54 1725.12,-81.87 3922.85,3090.47 3906.49,3101.8 "/>
    <polygon id="_199" class="fil183" points="1719.66,-78.09 1736.02,-89.42 3933.75,3082.92 3917.4,3094.25 "/>
    <polygon id="_200" class="fil184" points="1730.57,-85.64 1746.92,-96.97 3944.66,3075.37 3928.3,3086.7 "/>
    <polygon id="_201" class="fil185" points="1741.47,-93.2 1757.83,-104.53 3955.56,3067.81 3939.2,3079.14 "/>
    <polygon id="_202" class="fil186" points="1752.37,-100.75 1768.73,-112.08 3966.46,3060.26 3950.11,3071.59 "/>
    <polygon id="_203" class="fil187" points="1763.28,-108.3 1779.63,-119.63 3977.37,3052.71 3961.01,3064.04 "/>
    <polygon id="_204" class="fil188" points="1774.18,-115.86 1790.54,-127.19 3988.27,3045.15 3971.91,3056.48 "/>
    <polygon id="_205" class="fil189" points="1785.08,-123.41 1801.44,-134.74 3999.17,3037.6 3982.82,3048.93 "/>
    <polygon id="_206" class="fil190" points="1795.99,-130.96 1812.34,-142.3 4010.08,3030.04 3993.72,3041.37 "/>
    <polygon id="_207" class="fil191" points="1806.89,-138.52 1823.25,-149.85 4020.98,3022.49 4004.62,3033.82 "/>
    <polygon id="_208" class="fil192" points="1817.79,-146.07 1834.15,-157.4 4031.88,3014.94 4015.53,3026.27 "/>
    <polygon id="_209" class="fil193" points="1828.7,-153.63 1845.05,-164.96 4042.79,3007.38 4026.43,3018.71 "/>
    <polygon id="_210" class="fil194" points="1839.6,-161.18 1855.96,-172.51 4053.69,2999.83 4037.34,3011.16 "/>
    <polygon id="_211" class="fil195" points="1850.5,-168.73 1866.86,-180.06 4064.59,2992.28 4048.24,3003.61 "/>
    <polygon id="_212" class="fil196" points="1861.41,-176.29 1877.76,-187.62 4075.5,2984.72 4059.14,2996.05 "/>
    <polygon id="_213" class="fil197" points="1872.31,-183.84 1888.67,-195.17 4086.4,2977.17 4070.05,2988.5 "/>
    <polygon id="_214" class="fil198" points="1883.21,-191.39 1899.57,-202.72 4097.3,2969.62 4080.95,2980.95 "/>
    <polygon id="_215" class="fil199" points="1894.12,-198.95 1910.47,-210.28 4108.21,2962.06 4091.85,2973.39 "/>
    <polygon id="_216" class="fil200" points="1905.02,-206.5 1921.38,-217.83 4119.11,2954.51 4102.76,2965.84 "/>
    <polygon id="_217" class="fil201" points="1915.92,-214.05 1932.28,-225.39 4130.01,2946.95 4113.66,2958.28 "/>
    <polygon id="_218" class="fil202" points="1926.83,-221.61 1943.18,-232.94 4140.92,2939.4 4124.56,2950.73 "/>
    <polygon id="_219" class="fil203" points="1937.73,-229.16 1954.09,-240.49 4151.82,2931.85 4135.47,2943.18 "/>
    <polygon id="_220" class="fil204" points="1948.63,-236.72 1964.99,-248.05 4162.72,2924.29 4146.37,2935.62 "/>
    <polygon id="_221" class="fil205" points="1959.54,-244.27 1975.89,-255.6 4173.63,2916.74 4157.27,2928.07 "/>
    <polygon id="_222" class="fil206" points="1970.44,-251.82 1986.8,-263.15 4184.53,2909.19 4168.18,2920.52 "/>
    <polygon id="_223" class="fil207" points="1981.34,-259.38 1997.7,-270.71 4195.43,2901.63 4179.08,2912.96 "/>
    <polygon id="_224" class="fil208" points="1992.25,-266.93 2008.6,-278.26 4206.34,2894.08 4189.98,2905.41 "/>
    <polygon id="_225" class="fil209" points="2003.15,-274.48 2019.51,-285.81 4217.24,2886.52 4200.89,2897.86 "/>
    <polygon id="_226" class="fil210" points="2014.06,-282.04 2030.41,-293.37 4228.14,2878.97 4211.79,2890.3 "/>
    <polygon id="_227" class="fil211" points="2024.96,-289.59 2041.31,-300.92 4239.05,2871.42 4222.69,2882.75 "/>
    <polygon id="_228" class="fil212" points="2035.86,-297.14 2052.22,-308.48 4249.95,2863.86 4233.6,2875.19 "/>
    <polygon id="_229" class="fil213" points="2046.77,-304.7 2063.12,-316.03 4260.85,2856.31 4244.5,2867.64 "/>
    <polygon id="_230" class="fil214" points="2057.67,-312.25 2074.02,-323.58 4271.76,2848.76 4255.4,2860.09 "/>
    <polygon id="_231" class="fil215" points="2068.57,-319.81 2084.93,-331.14 4282.66,2841.2 4266.31,2852.53 "/>
    <polygon id="_232" class="fil216" points="2079.48,-327.36 2095.83,-338.69 4293.56,2833.65 4277.21,2844.98 "/>
    <polygon id="_233" class="fil217" points="2090.38,-334.91 2106.73,-346.24 4304.47,2826.1 4288.11,2837.43 "/>
    <polygon id="_234" class="fil218" points="2101.28,-342.47 2117.64,-353.8 4315.37,2818.54 4299.02,2829.87 "/>
    <polygon id="_235" class="fil219" points="2112.19,-350.02 2128.54,-361.35 4326.27,2810.99 4309.92,2822.32 "/>
    <polygon id="_236" class="fil220" points="2123.09,-357.57 2139.44,-368.9 4337.18,2803.43 4320.82,2814.77 "/>
    <polygon id="_237" class="fil221" points="2133.99,-365.13 2150.35,-376.46 4348.08,2795.88 4331.73,2807.21 "/>
    <polygon id="_238" class="fil222" points="2144.9,-372.68 2161.25,-384.01 4358.98,2788.33 4342.63,2799.66 "/>
    <polygon id="_239" class="fil222" points="2155.8,-380.24 2172.15,-391.57 4369.89,2780.77 4353.53,2792.1 "/>
    <polygon id="_240" class="fil223" points="2166.7,-387.79 2183.06,-399.12 4380.79,2773.22 4364.44,2784.55 "/>
    <polygon id="_241" class="fil224" points="2177.61,-395.34 2193.96,-406.67 4391.7,2765.67 4375.34,2777 "/>
    <polygon id="_242" class="fil225" points="2188.51,-402.9 2204.86,-414.23 4402.6,2758.11 4386.24,2769.44 "/>
    <polygon id="_243" class="fil226" points="2199.41,-410.45 2215.77,-421.78 4413.5,2750.56 4397.15,2761.89 "/>
    <polygon id="_244" class="fil227" points="2210.32,-418 2226.67,-429.33 4424.41,2743.01 4408.05,2754.34 "/>
    <polygon id="_245" class="fil227" points="2221.22,-425.56 2237.57,-436.89 4435.31,2735.45 4418.95,2746.78 "/>
    <polygon id="_246" class="fil228" points="2232.12,-433.11 2248.48,-444.44 4446.21,2727.9 4429.86,2739.23 "/>
    <polygon id="_247" class="fil228" points="2243.03,-440.66 2259.38,-451.99 4457.12,2720.34 4440.76,2731.67 "/>
    <polygon id="_248" class="fil229" points="2253.93,-448.22 2270.28,-459.55 4468.02,2712.79 4451.66,2724.12 "/>
    <polygon id="_249" class="fil229" points="2264.83,-455.77 2281.19,-467.1 4478.92,2705.24 4462.57,2716.57 "/>
    <polygon id="_250" class="fil230" points="2275.74,-463.33 2292.09,-474.66 4489.83,2697.68 4473.47,2709.01 "/>
    <polygon id="_251" class="fil231" points="2286.64,-470.88 2302.99,-482.21 4500.73,2690.13 4484.37,2701.46 "/>
    <polygon id="_252" class="fil231" points="2297.54,-478.43 2313.9,-489.76 4511.63,2682.58 4495.28,2693.91 "/>
    <polygon id="_253" class="fil231" points="2308.45,-485.99 2324.8,-497.32 4522.54,2675.02 4506.18,2686.35 "/>
    <polygon id="_254" class="fil231" points="2319.35,-493.54 2335.71,-504.87 4533.44,2667.47 4517.08,2678.8 "/>
    <polygon id="_255" class="fil231" points="2330.25,-501.09 2531.69,-640.65 4729.43,2531.69 4527.99,2671.25 "/>
   </g>
  </g>
  <path class="fil232" d="M2044.38 833.59c-328.83,0 -370.06,1.39 -499.2,7.29 -128.88,5.88 -216.89,26.35 -293.91,56.28 -79.62,30.94 -147.15,72.34 -214.46,139.65 -67.31,67.32 -108.71,134.84 -139.65,214.46 -29.93,77.02 -50.4,165.03 -56.29,293.91 -5.89,129.14 -7.28,170.37 -7.28,499.21 0,328.83 1.39,370.06 7.28,499.2 5.89,128.88 26.36,216.89 56.29,293.91 30.94,79.62 72.34,147.15 139.65,214.46 67.31,67.31 134.84,108.71 214.46,139.65 77.02,29.93 165.03,50.4 293.91,56.28 129.14,5.9 170.37,7.29 499.2,7.29 328.84,0 370.07,-1.39 499.21,-7.29 128.88,-5.88 216.89,-26.35 293.91,-56.28 79.62,-30.94 147.14,-72.34 214.46,-139.65 67.31,-67.31 108.71,-134.84 139.65,-214.46 29.93,-77.02 50.4,-165.03 56.28,-293.91 5.89,-129.14 7.29,-170.37 7.29,-499.2 0,-328.84 -1.4,-370.07 -7.29,-499.21 -5.88,-128.88 -26.35,-216.89 -56.28,-293.91 -30.94,-79.62 -72.34,-147.14 -139.65,-214.46 -67.32,-67.31 -134.84,-108.71 -214.46,-139.65 -77.02,-29.93 -165.03,-50.4 -293.91,-56.28 -129.14,-5.9 -170.37,-7.29 -499.21,-7.29zm0 218.17c323.3,0 361.59,1.23 489.27,7.05 118.05,5.39 182.16,25.11 224.82,41.69 56.52,21.96 96.86,48.2 139.23,90.58 42.36,42.36 68.6,82.7 90.57,139.22 16.58,42.66 36.3,106.77 41.68,224.82 5.83,127.68 7.06,165.97 7.06,489.27 0,323.29 -1.23,361.58 -7.06,489.26 -5.38,118.05 -25.1,182.16 -41.68,224.83 -21.97,56.51 -48.21,96.85 -90.57,139.21 -42.37,42.38 -82.71,68.62 -139.23,90.58 -42.66,16.58 -106.77,36.3 -224.82,41.69 -127.66,5.82 -165.95,7.05 -489.27,7.05 -323.32,0 -361.6,-1.23 -489.26,-7.05 -118.05,-5.39 -182.16,-25.11 -224.83,-41.69 -56.51,-21.96 -96.85,-48.2 -139.21,-90.58 -42.37,-42.36 -68.62,-82.7 -90.58,-139.21 -16.58,-42.67 -36.3,-106.78 -41.69,-224.83 -5.82,-127.68 -7.05,-165.97 -7.05,-489.26 0,-323.3 1.23,-361.59 7.05,-489.27 5.39,-118.05 25.11,-182.16 41.69,-224.82 21.96,-56.52 48.2,-96.86 90.58,-139.22 42.36,-42.38 82.7,-68.62 139.21,-90.58 42.67,-16.58 106.78,-36.3 224.83,-41.69 127.68,-5.82 165.97,-7.05 489.26,-7.05z"/>
  <path class="fil232" d="M2044.38 2447.99c-222.89,0 -403.6,-180.71 -403.6,-403.6 0,-222.9 180.71,-403.6 403.6,-403.6 222.91,0 403.6,180.7 403.6,403.6 0,222.89 -180.69,403.6 -403.6,403.6zm0 -1025.36c-343.38,0 -621.75,278.37 -621.75,621.76 0,343.38 278.37,621.75 621.75,621.75 343.39,0 621.76,-278.37 621.76,-621.75 0,-343.39 -278.37,-621.76 -621.76,-621.76z"/>
  <path class="fil232" d="M2740.32 1476.16c0,70.55 -57.19,127.74 -127.73,127.74 -70.55,0 -127.74,-57.19 -127.74,-127.74 0,-70.54 57.19,-127.73 127.74,-127.73 70.54,0 127.73,57.19 127.73,127.73z"/>
 </g>
</svg>
