<svg xmlns="http://www.w3.org/2000/svg" xml:space="preserve" width="320.318" height="223.928" style="shape-rendering:geometricPrecision;text-rendering:geometricPrecision;image-rendering:optimizeQuality;fill-rule:evenodd;clip-rule:evenodd" viewBox="0 0 8470.52 5921.58"><defs><style>.fil0{fill:#fefefe;fill-rule:nonzero}</style></defs><g id="Vrstva_x0020_1"><path d="M2634.05 965.11c61.33 0 108.32-17.32 140.97-51.98 32.65-34.63 48.99-86.1 48.99-154.41 0-82.17-18.23-139.6-54.98-172.25-36.63-32.57-86.61-48.88-149.83-48.88h-121.78v354.85c0 24.67 6.1 43.02 18.54 54.83 12.33 11.85 31.44 17.84 57.16 17.84zm-37.14-501.8c62.32 0 109.31-17.12 140.97-51.27 31.66-34.04 47.58-83.83 47.58-149.17 0-70.26-17.1-119.27-51.28-147.04-34.15-27.69-77.84-41.51-131.32-41.51h-105.44v388.99zm-478.12 576.08v-68.31h74.17c16.85 0 30.28-4.66 40.25-14.12 9.73-9.37 14.73-23 14.73-40.83V123.29c0-17.81-5-31.43-14.73-40.81-9.96-9.36-23.4-14.14-40.25-14.14h-74.17V.05h573.09c107.92 0 190.56 20.59 247.91 61.63 57.35 41.13 86.22 101.76 86.22 181.9 0 70.31-20.4 124.46-60.93 162.59-40.62 38.13-101.44 63.54-182.6 76.46v14.83c92.99 12.85 164.99 41.83 215.95 86.81 50.97 45.02 76.57 104.74 76.57 178.91 0 93.11-30.45 162.39-91.3 207.9-60.93 45.52-156.22 68.31-285.84 68.31h-579.08zM3729.72 1066.1c-154.41 0-264.22-38.36-329.64-115.09-65.3-76.69-97.97-178.94-97.97-306.57V132.18c0-19.82-5.19-35.35-15.54-46.79-10.44-11.34-24-17.03-40.82-17.03h-59.44V.07h491.54v68.29h-71.26c-17.92 0-31.78 5.49-41.63 16.32-9.96 10.87-14.93 26.78-14.93 47.5v516.73c0 95.99 20.8 170.46 62.43 223.43 41.52 52.96 103.35 79.46 185.57 79.46 78.18 0 137.3-26.31 177.43-78.66 40.02-52.46 60.14-123.28 60.14-212.38v-475.1c0-38.55-8.78-67.82-25.99-87.63-17.33-19.7-42.82-29.67-76.46-29.67h-43.13V.07h323.7v68.29h-34.07c-21.79 0-39.23 7.19-52.07 21.52s-19.19 40.42-19.19 77.94v472.16c0 78.15-9.96 148.25-29.77 210.05-19.73 61.96-58.14 113.44-115.01 154.44-57.04 41.02-134.91 61.65-233.88 61.65zM5146.09 712.73l10.35-75.71h68.3l-51.87 402.35h-837.43v-68.29h72.78c17.81 0 31.67-4.7 41.52-14.14 9.85-9.35 14.84-23.01 14.84-40.81V123.29c0-17.81-4.99-31.35-14.84-40.81-9.84-9.36-23.71-14.14-41.52-14.14h-72.78V.05h537.44v68.29h-99.46c-19.81 0-34.65 4.78-44.51 14.14-9.96 9.45-14.93 23-14.93 40.81V965.1H4870c50.38 0 94.47-8.88 132.12-26.67 37.62-17.81 68.69-45.5 93.5-83.16 24.67-37.61 41.52-85.11 50.46-142.54zM5983.43 628.07l-1.49 72.76h-452.81l1.49-72.76zm390.5 343.01h48.99v68.29h-515.26v-68.29h84.74c21.71 0 35.85-7.5 42.31-22.3 6.39-14.85 3.67-37.06-8.16-66.84l-270.23-668.05h-13.43l-228.61 627.96c-15.83 40.61-18.82 72.36-8.95 95.08 9.93 22.8 34.63 34.15 74.26 34.15h68.29v68.29h-378.64v-68.29h38.64c23.79 0 46.32-8.99 67.59-26.79 21.22-17.72 37.76-42.54 49.78-74.17L5741.37 0h163.39l378.64 898.29c11.85 26.68 24.5 45.49 37.84 56.44 13.24 10.95 30.85 16.35 52.67 16.35zM1433.05 2776.91c47.46 0 91.78-10.15 132.82-30.47 41.12-20.2 76.06-62.82 104.73-127.63 28.67-64.83 43.01-158.61 43.01-281.38 0-102.93-11.34-188.07-34.03-255.38-22.92-67.28-55.26-116.79-97.4-148.43-42-31.67-91.78-47.49-149.13-47.49h-178.23v789.85c0 22.8 3.19 41.52 9.76 56.45 6.39 14.83 16.32 25.88 29.55 33.36 13.46 7.44 29.49 11.13 48.28 11.13h90.63zm547.81-461.78c0 110.92-22.81 206.59-68.3 287.34-45.53 80.68-108.82 142.28-190.08 184.82-81.06 42.62-172.64 63.91-274.61 63.91h-570.1v-68.29h75.78c16.82 0 29.58-4.99 38.53-14.83 8.86-9.96 13.34-23.32 13.34-40.14v-792.83c0-17.82-4.49-31.44-13.34-40.83-8.95-9.35-21.71-14.12-38.53-14.12h-75.78v-68.3h589.44c102.92 0 192.96 20.01 270.2 60.15 77.16 40.13 137.11 98.26 179.6 174.45 42.54 76.25 63.85 165.86 63.85 268.7zM2580.64 2306.27c75.28 0 134.63-15.04 178.14-45.31 43.61-30.16 65.31-85.34 65.31-165.57 0-53.37-10.36-95.8-31.07-126.95-20.81-31.16-47.58-52.67-80.24-64.53-32.66-11.92-69.32-17.83-109.82-17.83H2475.2v420.18h105.43zm-475.01 544.91v-68.3h77.16c12.84 0 23.4-4.7 31.86-14.14 8.39-9.34 12.64-21.99 12.64-37.83v-798.82c0-15.83-4.26-28.35-12.64-37.82-8.47-9.35-19.02-14.12-31.86-14.12h-77.16v-68.3h593.81c124.66 0 218.24 21.3 280.68 63.81 62.32 42.62 93.47 112.41 93.47 209.4 0 71.28-14.33 128.63-43.01 172.23-28.87 43.53-70.78 74.96-126.24 94.3-55.46 19.22-125.73 28.95-210.77 28.95h-72.9c23.9 32.69 46.12 54.2 66.82 64.53 20.81 10.47 48.57 15.62 83.24 15.62h106.82l210.88 264.26c14.85 20.8 30.37 35.65 46.71 44.52 16.31 8.95 33.92 13.43 52.75 13.43h20.83v68.3h-337.04l-332.64-470.66h-63.84v334.05c0 21.71 5 38.52 14.95 50.48 9.74 11.83 24.19 17.82 42.91 17.82h78.77v68.3h-506.21zM3778.91 2776.91c61.36 0 108.35-17.32 141-51.98 32.65-34.63 48.96-86.1 48.96-154.4 0-82.17-18.2-139.61-54.95-172.25-36.63-32.58-86.61-48.89-149.84-48.89h-121.77v354.86c0 24.66 6.1 43 18.54 54.83 12.33 11.85 31.44 17.83 57.12 17.83zm-37.11-501.8c62.32 0 109.3-17.12 140.97-51.27 31.66-34.03 47.57-83.83 47.57-149.17 0-70.26-17.13-119.26-51.27-147.04-34.15-27.69-77.84-41.51-131.33-41.51h-105.43v388.99zm-478.13 576.08v-68.29h74.17c16.85 0 30.28-4.68 40.25-14.14 9.73-9.36 14.73-22.99 14.73-40.83V1935.1c0-17.82-5-31.44-14.73-40.83-9.96-9.35-23.4-14.12-40.25-14.12h-74.17v-68.3h573.1c107.92 0 190.56 20.59 247.91 61.63 57.35 41.14 86.22 101.76 86.22 181.91 0 70.3-20.41 124.46-60.94 162.59-40.61 38.13-101.44 63.53-182.6 76.45v14.84c93 12.85 164.99 41.83 215.96 86.82 50.97 45.01 76.57 104.72 76.57 178.93 0 93.08-30.48 162.35-91.3 207.88-60.94 45.51-156.22 68.29-285.85 68.29h-579.08zM4907.18 2791.73c58.45 0 108.43-15.03 149.95-45.3 41.63-30.16 73.78-77.67 96.58-142.46 22.7-64.84 34.07-148.27 34.07-250.24 0-112.8-10.36-204.9-31.19-276.06-20.69-71.3-51.95-123.57-93.58-156.73-41.52-33.17-90.99-49.67-148.46-49.67-59.24 0-110.01 15.04-152.12 45.19-42.11 30.28-74.17 78.06-96.5 143.27-22.18 65.42-33.44 148.55-33.44 249.53 0 111.8 10.67 203.61 31.98 275.37 21.19 71.8 52.15 124.15 92.76 157.33 40.53 33.26 90.51 49.77 149.95 49.77m-4.49 84.64c-103.94 0-196.71-20.53-278.36-61.64-81.65-41.02-145.46-102.38-191.58-184.11-45.98-81.65-68.97-180.38-68.97-296.18 0-113.81 23.48-212.09 70.58-294.72 46.99-82.63 112.3-145.46 195.92-188.58 83.66-43.02 179.44-64.52 287.26-64.52 105.94 0 199.13 21.03 279.88 63.13 80.75 42.03 143.77 103.95 189.27 185.49 45.5 81.73 68.41 179.52 68.41 293.32 0 112.81-23.32 210.77-69.8 293.9-46.59 83.16-111.62 146.26-195.25 189.38-83.65 43.02-179.41 64.53-287.37 64.53zM6387.41 2524.48l10.36-75.67h68.29l-51.87 402.36h-837.43v-68.3h72.79c17.83 0 31.66-4.7 41.52-14.14 9.84-9.36 14.84-23.01 14.84-40.85v-792.79c0-17.84-5-31.36-14.84-40.85-9.85-9.33-23.69-14.14-41.52-14.14h-72.79v-68.3h537.45v68.3h-99.46c-19.81 0-34.66 4.81-44.51 14.14-9.96 9.48-14.93 23.01-14.93 40.85v841.8h156.02c50.37 0 94.49-8.87 132.11-26.67 37.65-17.85 68.69-45.5 93.51-83.15 24.69-37.62 41.51-85.12 50.45-142.59zM7224.79 2439.85l-1.5 72.79h-452.84l1.5-72.79zm390.49 342.99h48.96v68.34h-515.23v-68.34h84.72c21.71 0 35.84-7.45 42.34-22.3 6.35-14.81 3.67-37.01-8.19-66.8l-270.2-668.05h-13.43l-228.61 627.92c-15.83 40.65-18.83 72.4-8.98 95.08 9.96 22.82 34.65 34.15 74.28 34.15h68.3v68.34h-378.65v-68.34h38.64c23.8 0 46.29-8.95 67.59-26.79 21.23-17.69 37.74-42.5 49.78-74.17l316.13-870.08h163.38l378.64 898.29c11.85 26.68 24.5 45.49 37.82 56.44 13.26 10.96 30.87 16.31 52.69 16.31zM5723.25 4235.25c-56.96 17.31-114.59 34.55-173.75 51.36-12.13 6.09-24.27 12.14-37.42 17.82-542.62 235.37-528.39 810.67-529.18 1617.15 2480.34-703.74 3444.61-1394.93 3444.61-2358.71l43.01-589.8c-496.41 460.68-1483.39 915.18-2747.28 1262.18zM2747.28 4235.25c56.96 17.31 114.62 34.55 173.75 51.36 12.16 6.09 24.3 12.14 37.45 17.82 542.61 235.37 528.39 810.67 529.18 1617.15C1007.32 5217.84 43.02 4526.65 43.02 3562.87L.01 2973.07c496.44 460.68 1483.42 915.18 2747.28 1262.18z" class="fil0"/></g></svg>