<svg xmlns="http://www.w3.org/2000/svg" width="120" height="79" viewBox="0 0 100 65.833"><g fill="#e2b368"><path d="M57 5q1.5 53.432 0 106.863h6Q61.5 58.433 63 5Z" style="stroke-width:.943678" transform="matrix(0 -.58291 .85882 0 -3.578 67.752)"/><path d="M13.599 32.777c-8.588 11.658 8.588 29.145 25.764 32.06-8.588-14.573-14.6-23.317-17.176-32.06zM30.775 32.777c-4.294 14.573 17.176 32.06 34.353 32.06-12.883-17.487-21.47-26.231-25.765-32.06zM52.245 32.777C60.834 47.35 82.304 61.922 99.48 61.922 82.304 47.35 69.422 38.606 60.834 32.777ZM13.599 32.777C5.01 21.118 22.187 3.63 39.363.717c-8.588 14.572-14.6 23.316-17.176 32.06z"/><path d="M30.775 32.777C26.481 18.204 47.951.717 65.128.717c-12.883 17.487-21.47 26.23-25.765 32.06zM52.245 32.777C60.834 18.204 82.304 3.63 99.48 3.63 82.304 18.204 69.422 26.948 60.834 32.777Z"/></g></svg>