<svg xmlns="http://www.w3.org/2000/svg" version="1.1" xmlns:xlink="http://www.w3.org/1999/xlink" width="400" height="140"><svg xmlns="http://www.w3.org/2000/svg" viewBox="0 0 8578.18 2985.99" width="400" height="140"> <path fill="#E2B368" stroke="#E2B368" d="M5795.98 1278.22c-57.68,17.56 -116.04,34.99 -175.95,52.03 -12.29,6.15 -24.59,12.28 -37.9,18.02 -549.51,238.38 -535.11,821 -535.91,1637.71 2511.87,-712.68 3488.38,-1412.64 3488.38,-2388.67l43.57 -597.32c-502.72,466.53 -1502.26,926.83 -2782.2,1278.22z"></path> <path fill="#E2B368" stroke="#E2B368" d="M2782.19 1278.22c57.68,17.56 116.07,34.99 175.95,52.03 12.32,6.15 24.62,12.28 37.93,18.02 549.51,238.38 535.11,821 535.91,1637.71 -2511.87,-712.68 -3488.41,-1412.64 -3488.41,-2388.67l-43.56 -597.32c502.74,466.53 1502.28,926.83 2782.19,1278.22z"></path> </svg><style>@media (prefers-color-scheme: light) { :root { filter: none; } }
@media (prefers-color-scheme: dark) { :root { filter: none; } }
</style></svg>