<svg xmlns="http://www.w3.org/2000/svg" xml:space="preserve" width="324.211" height="20mm" style="shape-rendering:geometricPrecision;text-rendering:geometricPrecision;image-rendering:optimizeQuality;fill-rule:evenodd;clip-rule:evenodd" viewBox="0 0 8583.64 2001.3"><path fill="#fff" d="M1345.28 2001.3h-66.72V0h66.72zM3346.64 2001.3h166.74V0h-166.74zM5514.92 2001.3h400.35V0h-400.35zM7916.57 2001.3h667.07V0h-667.07zM6577.16 1000.99c0-215.7 122.1-340.81 338.46-340.81 216.64 0 338.99 125.11 338.99 340.81 0 215.46-122.35 340.14-338.99 340.14-216.36 0-338.46-124.68-338.46-340.14m338.46-213.67c-123.2 0-148.3 113.79-148.3 216.15 0 96.5 25.1 211.14 148.3 211.14 123.34 0 148.62-114.63 148.62-211.14 0-102.36-25.28-216.15-148.62-216.15M4195.59 673.83h253.71l219.11 486.8 1.98-1.49V673.83h162.63v653.65h-250.81L4360.66 826.8h-1.84v500.68h-163.23zM2243.05 1327.48h-181.34V673.83h302.81c110.43 0 253.4 29.76 253.4 168.6 0 97.72-75.08 149.14-166.61 159.95v3.85c115.84 2.48 137.32 61.58 149.46 162.37 4.43 54.74 14.34 106.45 29.45 158.88h-196.31c-10.01-45.12-15.22-92.3-19.72-138.66-7.17-78.66-11.01-111.5-103.24-111.5h-67.9zm70.64-376.58c57.69 0 113.93-8.2 113.93-75.19 0-67.22-56.25-75.09-113.93-75.09h-70.64V950.9zM0 1327.48V673.83h313.15c123.07.91 226.23 55.93 226.23 171.11 0 80.5-67.73 129.22-140.99 142.84v2.07c86.78 11.8 157.46 66.93 157.46 160.3 0 190.13-242.7 177.33-248.93 177.33zm181.35-393.9 91.89-.91c48.91 0 80.55-19.03 80.55-68.7 0-37.17-31.64-63.35-74.19-63.35h-98.25v132.97zm105.66 267.35c45.11 0 78.69-27.28 78.69-67.87 0-36.41-25.28-70.86-66.16-73.62H181.35v141.49z"/></svg>