<svg xmlns="http://www.w3.org/2000/svg" xml:space="preserve" width="1281.608" height="1252.471" style="shape-rendering:geometricPrecision;text-rendering:geometricPrecision;image-rendering:optimizeQuality;fill-rule:evenodd;clip-rule:evenodd" viewBox="0 0 41347.75 40407.67"><path fill="#fff" d="M0 10965.69c270.64 95.56 3339.33 33.7 3891.32 33.7 1260.87 0 2498.99 16.83 3376.01-601.27 1494.34-1053.15 1815.55-3512.53 362.6-4706.52-187.32-153.93-422.12-234.41-597.22-392.64 291.4-150.42 644.35-569.52 817.57-941.95 584.87-1257.45 94.06-2993.32-1206.48-3786.42C5737.62 17.99 4758.17 67.3 3590.21 67.3 3056.79 67.3 291.95 32.01 6.48 83.14L-.01 10965.68zm2344.49-2027.47c856.76-.02 1697.7 6.02 2536.21.61 1426.18-9.19 1674.81-1446.36 968.41-2153.52-252.01-252.27-550.57-308.82-966.71-322.17-828.96-26.61-1705.54-.35-2539.83-.35l1.93 2475.43zm-2.88-4397.19c719.94 0 1581.59 43.19 2283.02-3.22 1592.42-105.34 1471.58-2332.57 26.47-2437.49-696.53-50.57-1572.6-5.34-2288.65-5.34zM21499.15 10993.04l2328.57 6.71c72.8-301.12 23.08-5143.05 23.08-5880.25l2440.89 3032.55c57.07 75.28 106.87 134.43 169.75 218.21 350.51 466.99 690.53-191.75 1041.56-621.17 240.93-294.73 461.49-579.34 707.71-883.64l1393.87-1723.71 17.38 5848.56 2353.76 8.61-1.29-10970.24-853.32-4.88-2557.39 3020.73c-55.19 67.08-69.52 103.73-129.81 173.27-248.38 286.49-1535.31 1767.29-1639.59 1975.21-247.32-143.46-1455.25-1670.62-1822.41-2086.93L22572.28 256.01C22347.9-35.15 22114.15-26.2 21508.35 33.72l-9.18 10959.31zM35070.54 20580.1c-74.64 146.1-189.09 291.4-279.62 436.04-102.29 163.42-206.29 308.69-311.33 462.75l-1546.89 2282.09c-151.29 212.25-189.55 249.98-170.91 590.42h2316.49c181.51-37.06 2054.76-3365.91 2236.86-3415.15h1778.46l-.65 3403.36 2233.34 12.41 9.21-10361.02c-1384.89 0-2766.85-.4-4149.41.63-693.7.52-1232.02 44.47-1799.69 265-457.98 177.93-1016.74 565.08-1232.52 830.89-1461.26 1800.15-1209.01 4390.9 916.66 5492.57zm4031.59-1490.03 19.08-3143.78c-1555.76 0-3719.44-448.65-3713.94 1572.36 2.18 799.31 459.15 1362.73 1113.01 1528.61 432.23 109.65 2020.7 42.81 2581.85 42.81M250.98 17279.81l2177.79-.93c286.32-416.85 381.72-708.77 895.44-1015.72 1529.22-913.68 4648.9-402.54 4655.56 2934.05 7.3 3658.51-3734.1 3716.48-4968.73 2771.86-414.52-317.16-896.47-1009.56-911.24-1463.03h2799.72l.9-1846.12c-1323.15 0-3669.79-44.45-4874.29 7.08L.12 19582.97c-18.6 6872.65 10243.82 6366.89 10243.82-258.1 0-2294.7-916.66-3969.83-2963.35-4981.16-2415.83-1193.72-6443.05-244.92-7029.62 2936.08zM14287.5 19808l-.18-5798.97-2233.47-12.41-2 10397.92c893.72-.11 622.58 26.14 1102.09-452.82 256.79-256.52 528.25-503.88 786.5-762.1 525.79-525.75 997.09-1049.35 1523.17-1573.99 519.44-518.02 1932.29-1894.58 2313.05-2332.07 197.31-226.72 549.3-633.8 783.47-779.8v5863.89l2223.16-10.28-.39-10381.34c-834.5-74.73-737.64 15.83-1033.59 310.86-128 127.58-244.48 231.41-362.64 367.99l-3618.7 3694.76c-215.9 188.27-1307.04 1382.86-1480.46 1468.37zM19069.75 59.9l-2304.7.56c-63.02 1268.13-5.39 4023.26-5.39 5456.12 0 719.35 101.9 2011.96-179.5 2578.99-642.48 1294.65-2948.51 1290.75-3651.28 41.89-307.45-546.39-189.98-1849.9-189.98-2577.86 0-1784.48 72.26-3722.59-4.38-5487.91l-2341.3-12.36c-66.22 1209.02-6.23 2594.71-6.23 3822.64 0 1208.23-77.97 2698.26 7.84 3872.18 325.24 4449.23 8259.81 4584.01 8667.94 38.47 52.59-585.81 25.46-7395.29 6.97-7732.71zM21886.04 24343.99l2328.78 14.35c136.8-365.09 617.36-1414.09 811.09-1701.48l4245.15.1c114.79 128.05 739.85 1497.16 808.22 1700.67h2331.99c-.18-587.51-828.79-2057.92-1106.81-2678.42l-1212.4-2572.41c-418.03-837.74-811.74-1732.18-1204.72-2583.02-399.12-864.16-847.19-1730.63-1223.89-2602.98l-1045.58-8.95c-769.7 1567.99-1669.08 3566.25-2411.04 5165.3l-1806.31 3871.98c-187.27 416.69-514.47 916.63-514.47 1394.84zM34490.19 10993.04l6768.07 2.52c134.98-43.81 77.17-733.42 77.17-1005.27 0-360.69 19.19-778.28-6.4-1131.78l-4457.88-16.28V6370.5l4045.57-.33 5.68-2051.65-4051.26-6.43V2118.1h4336.98l-2.85-2058.23-6711.03.45-4.06 10932.71zM9153.15 37005v515.85c84.18 211.13 310.55-56.48 313.1 471.15 3.17 655.16-36.51 1737.64 3.87 2295.27l973.16 13.94c34.64-493.65 7.69-1084.7 6.15-1575.9-1.12-359.29-32.51-967.93 587.34-1031.41 585.11-59.92 612.83 475.44 611.49 988.39-1.28 485.5-36.7 1146.3 9.29 1611.38l947.92 9.38c129.13-1115.67-302.26-2551.14 580.84-2611.14 587.45-39.92 562.76 516.91 562.21 1033.4-.49 461.18-39.12 1137.92 11.78 1573.41l957.36 4.82c72.93-565.15 67.63-2533.61-153.32-2917.89-330.4-574.63-1388.21-769.65-2112.73 49.93-7.9-6.43-18.38-28.69-21.22-21.97-9.93 23.45-169.75-489.71-924.23-515.51-729.74-24.96-860.94 244.51-1145.46 423.68-129.4-506.02-742.36-517.46-1207.55-316.78M2865.34 36975.45l-628.45 2.93-7.82 691.28 610.08 10.9.6 2606.71 947.32 16.38 12.34-2624.55h1024.83l11-703.65H3799.91c-1.04-956.07 161.8-1170.61 1123.63-900.31l93.34-703.06c-489.75-209.23-1267.23-202.5-1670.69 54.87-473.63 302.13-480.87 879.71-480.87 1548.5zM8874.83 40267.51l-40.19-723.24c-832.73 24.74-655.48-294.31-655.48-1808.33 0-807.91 30.36-1676.31-4.38-2476.75l-959.38-11.75c-54.03 1086.5-5.19 2296.45-5.4 3391.86-.1 524.79-6.77 1061.97 281.82 1389.6 263.19 298.79 879.02 369.67 1383.02 238.62z"/><path fill="#fff" d="m25751.45 20748.97 2793.04 9.67-1385.87-3334.98-184.99 378.31c-259.74 618.27-1134.5 2613.99-1222.18 2947M5368.06 40293.67l988.59 6.98 6.13-3309.36-985.62-15.28zM1049.03 39353.72c-704.05 223.94-403.15 1254.26 407.11 1019.36 642.74-186.33 382.58-1270.54-407.11-1019.36M5630.19 35457.58c-179.71 81.8-224.73 55.38-304.33 272.28-50.05 136.37-53.86 301.51 2.28 438.69 100.02 244.32 423.23 414.4 769.41 287.71 257.53-94.24 433.11-425.1 292.22-747.13-109.51-250.34-463.4-386.34-759.58-251.56z"/></svg>