<svg xmlns="http://www.w3.org/2000/svg" xml:space="preserve" width="295.952" height="295.572" style="shape-rendering:geometricPrecision;text-rendering:geometricPrecision;image-rendering:optimizeQuality;fill-rule:evenodd;clip-rule:evenodd" viewBox="0 0 7083.92 7074.84"><path fill="#fff" d="M125.69 6041.05c-11.82 0-17.73 5.91-17.73 17.75v977.6c0 11.83 5.91 17.73 17.73 17.73h215.94c118.31 0 201.13-7.38 258.82-56.19 35.48-31.06 97.61-100.58 97.61-223.33 0-180.43-106.48-229.23-181.92-251.43 48.82-25.13 146.43-85.77 146.43-241.07 0-229.23-183.41-241.07-294.32-241.07H125.69zm103.52 446.64v-343.11h136.07c87.26 0 164.17 19.23 164.17 150.85 0 173.04-109.46 192.26-195.23 192.26zv462.92-363.82h136.07c102.06 0 199.67 39.94 199.67 183.39 0 146.42-96.13 180.44-192.26 180.44H229.21V6487.7zM1063.3 6548.33c35.51-38.45 87.25-115.35 139.03-115.35 28.08 0 41.42 13.31 48.8 13.31 5.92 0 7.4-7.4 8.87-10.34l32.55-75.44c1.48-4.44 4.44-8.87 4.44-11.83 0-13.31-38.46-25.13-72.48-25.13-85.76 0-139.02 82.81-177.46 124.23-5.92-32.52-31.06-124.23-57.69-124.23-2.94 0-8.87 2.96-14.78 7.39l-54.71 34.02c-2.97 1.48-8.87 5.92-10.35 14.79 0 4.43 4.42 16.27 16.26 36.97 20.71 36.96 25.15 85.77 25.15 112.41v507.28c0 11.83 5.91 17.73 17.73 17.73h76.92c11.81 0 17.73-5.9 17.73-17.73v-488.07zM2002.45 6545.38c0-106.5-11.81-221.84-175.99-221.84-112.41 0-189.32 62.11-238.11 100.56-1.48-11.83-19.22-100.56-45.87-100.56-4.41 0-8.85 4.42-11.81 5.91l-66.57 36.98c-5.92 4.43-7.4 7.4-7.4 10.34 0 7.4 11.84 17.75 23.66 62.11 5.92 22.19 5.92 38.47 5.92 87.27v510.24c0 11.83 5.93 17.73 17.77 17.73h76.89c11.85 0 17.77-5.9 17.77-17.73v-523.55c36.98-32.54 99.1-90.21 195.21-90.21 79.86 0 96.14 56.19 96.14 119.79v493.98c0 11.83 5.93 17.73 17.73 17.73h76.92c11.83 0 17.74-5.9 17.74-17.73zM2828.95 6694.75c0-208.54-85.75-371.21-288.39-371.21-214.44 0-300.23 174.52-300.23 378.61 0 211.48 85.79 372.69 285.45 372.69 215.94 0 303.17-173.02 303.17-380.09m-292.83 288.4c-136.05 0-174.5-125.71-174.5-294.31 0-146.42 39.91-273.6 173.03-273.6 133.11 0 173.05 133.09 173.05 278.02 0 170.1-39.94 289.88-171.58 289.88zM667 4555.46c1.47-5.9 4.42-13.31 4.42-16.27 0-8.87-13.3-11.82-17.73-13.31l-81.37-20.7c-4.42-1.49-8.85-1.49-13.29-1.49-7.4 0-8.88 8.88-13.33 23.68l-187.83 774.98c-5.92 22.19-17.73 78.38-22.17 115.36h-2.96c-4.44-38.47-13.33-90.23-20.71-118.33l-186.35-772.01c-2.96-14.79-5.92-23.68-13.31-23.68-4.42 0-8.87 0-13.31 1.49l-81.35 20.7c-4.42 1.48-17.73 2.96-17.73 11.84 0 4.42 2.95 11.83 4.42 17.73l255.87 965.77c2.96 13.31 5.93 16.27 22.17 16.27h103.52c14.8 0 17.77-1.48 22.21-16.27l258.81-965.77zM859.45 5104.17c0-73.96 29.56-215.94 165.64-215.94 128.67 0 153.81 139.01 153.81 215.94zM1254.34 5397c-2.97-4.45-4.45-8.88-8.9-8.88-8.87 0-85.75 60.65-181.89 60.65-168.59 0-204.09-162.7-204.09-252.91h424.46c16.25 0 16.25-11.84 16.25-32.53 0-127.19-22.18-366.79-269.15-366.79-183.4 0-292.83 158.25-292.83 375.66 0 224.81 115.34 374.17 312.05 375.66 109.46 0 233.69-60.64 233.69-76.91 0-4.42-2.98-7.4-4.46-11.82l-25.11-62.11zM1801.51 5445.81c-1.47-4.45-1.47-8.88-10.34-8.88-10.35 0-38.47 19.22-76.9 19.22-42.91 0-56.22-35.5-59.15-51.75-2.97-17.75-4.44-93.19-4.44-139.04v-789.77c0-7.38 0-19.22-10.35-19.22-10.38 1.48-5.93 0-17.75 2.95l-73.96 17.75c-5.91 1.48-10.37 7.4-10.37 17.75v767.58c0 51.78 0 165.65 20.72 214.45 17.76 41.41 66.54 70.99 139.01 70.99 54.71 0 125.71-20.7 125.71-36.96 0-2.96-1.48-7.4-2.96-10.37l-19.23-54.71zM2060.12 5104.17c0-73.96 29.59-215.94 165.64-215.94 128.67 0 153.82 139.01 153.82 215.94zM2455 5397c-2.96-4.45-4.44-8.88-8.87-8.88-8.87 0-85.78 60.65-181.92 60.65-168.59 0-204.09-162.7-204.09-252.91h424.46c16.28 0 16.28-11.84 16.28-32.53 0-127.19-22.19-366.79-269.19-366.79-183.37 0-292.84 158.25-292.84 375.66 0 224.81 115.38 374.17 312.09 375.66 109.43 0 233.66-60.64 233.66-76.91 0-4.42-2.96-7.4-4.44-11.82l-25.14-62.11zM3142.7 5417.71c0-4.44-4.43-8.88-10.36-8.88-13.3 0-72.45 39.94-141.96 39.94-88.75 0-88.75-60.65-88.75-119.81v-420.02h195.23c8.87 0 16.27-5.92 19.24-13.31l19.2-57.69c0-4.42 1.48-7.4 1.48-10.35 0-8.87-7.39-10.36-16.26-10.36h-218.89v-227.75c0-8.87 0-16.27-7.39-16.27-2.94 0-5.91 1.47-10.35 1.47l-78.4 22.19c-10.33 2.95-16.26 8.87-16.26 17.73v202.62H2678.3c-10.33 0-10.33 7.4-10.33 17.76v56.2c0 7.4 0 17.75 10.33 17.75h110.93v420.02c0 54.72 0 121.27 42.89 167.12 22.19 28.11 75.42 51.77 139.02 51.77 79.88 0 190.77-41.41 190.77-60.64 0-4.44-1.47-8.87-2.92-14.78zM3482.57 5021.34c35.5-38.47 87.26-115.36 139-115.36 28.12 0 41.42 13.31 48.83 13.31 5.92 0 7.4-7.4 8.88-10.35l32.53-75.42c1.48-4.44 4.43-8.88 4.43-11.84 0-13.31-38.45-25.14-72.46-25.14-85.81 0-139.02 82.81-177.5 124.23-5.91-32.53-31.06-124.23-57.67-124.23-2.96 0-8.88 2.97-14.79 7.39l-54.72 34.02c-2.97 1.48-8.87 5.92-10.35 14.79 0 4.44 4.42 16.27 16.27 36.97 20.7 36.98 25.14 85.79 25.14 112.41v507.28c0 11.83 5.92 17.75 17.76 17.75h76.89c11.85 0 17.77-5.92 17.77-17.75v-488.05zM3901.13 5509.4c0 11.83 5.93 17.75 17.72 17.75h76.92c11.84 0 17.73-5.92 17.73-17.75v-523.55c36.98-32.54 103.54-90.21 199.67-90.21 79.88 0 96.13 56.2 96.13 119.79v493.98c0 11.83 5.91 17.75 17.76 17.75h76.9c11.82 0 17.75-5.92 17.75-17.75v-491.02c0-106.49-11.84-221.84-175.99-221.84-107.96 0-184.88 62.11-232.21 100.58v-421.52c0-7.38 0-19.22-10.33-19.22-10.37 1.48-5.93 0-17.77 2.95l-73.91 17.75c-5.93 1.48-10.37 7.4-10.37 17.75v1014.57zM5215.69 4870.48c1.48-7.4 2.95-11.83 2.95-20.7 0-7.4-5.91-8.88-11.83-11.84l-62.11-25.13c-7.42-2.97-14.81-5.93-20.71-5.93-8.87 0-14.79 4.44-16.28 11.84l-147.88 562c-8.87 35.5-16.28 68.04-22.2 103.52h-2.96c-7.37-31.06-14.77-63.6-29.58-106.48l-186.34-559.04c-2.96-7.4-5.93-11.84-16.26-11.84-5.92 0-13.32 2.96-20.73 5.93l-62.1 25.13c-5.93 2.96-11.84 4.44-11.84 11.84-1.48 8.87 1.47 13.3 2.96 20.7l229.23 643.36c2.96 10.35 5.92 13.31 19.24 13.31h53.23l-31.06 93.17c-23.65 70.99-57.67 125.71-112.4 125.71-72.46 0-125.71-57.69-141.97-57.69-4.44 0-8.87 2.97-10.38 7.4l-29.57 59.17c-1.47 2.94-2.95 5.91-2.95 8.87 0 22.17 102.04 73.95 186.34 73.95 81.37 0 144.95-45.85 174.54-107.96 44.37-93.17 78.38-212.98 102.04-294.33l168.61-564.96zM124.92 92.94c-11.84 0-17.73 5.91-17.73 17.75v977.58c0 11.84 5.89 17.75 17.73 17.75h215.93c118.32 0 201.14-7.39 258.81-56.2 35.5-31.06 97.61-100.57 97.61-223.33 0-180.42-106.46-229.23-181.9-251.42 48.82-25.13 146.42-85.77 146.42-241.08 0-229.23-183.4-241.06-294.31-241.06H124.92zm103.54 446.64V196.47h136.05c87.27 0 164.17 19.23 164.17 150.84 0 173.05-109.46 192.27-195.23 192.27h-105v462.92-363.82H364.5c102.06 0 199.67 39.93 199.67 183.4 0 146.4-96.13 180.42-192.26 180.42H228.45V539.58zM1488.46 134.34c1.48-5.93 4.42-13.31 4.42-16.27 0-8.88-13.33-11.83-17.75-13.31l-81.33-20.72c-4.44-1.47-8.89-1.47-13.33-1.47-7.4 0-8.87 8.88-13.31 23.67l-187.84 774.98c-5.89 22.17-17.72 78.38-22.17 115.35h-2.97c-4.44-38.46-13.29-90.2-20.69-118.3L947.15 106.25c-2.97-14.78-5.91-23.67-13.33-23.67-4.44 0-8.88 0-13.31 1.47l-81.33 20.72c-4.44 1.47-17.77 2.96-17.77 11.82 0 4.44 2.96 11.82 4.44 17.75l255.85 965.76c2.96 13.31 5.92 16.27 22.2 16.27h103.54c14.77 0 17.72-1.47 22.17-16.27l258.83-965.76zM2309.44 134.34c1.49-5.93 4.44-13.31 4.44-16.27 0-8.88-13.33-11.83-17.75-13.31l-81.33-20.72c-4.46-1.47-8.9-1.47-13.33-1.47-7.38 0-8.87 8.88-13.31 23.67l-187.83 774.98c-5.91 22.17-17.77 78.38-22.19 115.35h-2.96c-4.44-38.46-13.29-90.2-20.71-118.3l-186.33-772.02c-2.96-14.78-5.92-23.67-13.32-23.67-4.45 0-8.88 0-13.3 1.47l-81.36 20.72c-4.44 1.47-17.74 2.96-17.74 11.82 0 4.44 2.97 11.82 4.43 17.75l255.86 965.76c2.95 13.31 5.91 16.27 22.19 16.27h103.54c14.77 0 17.71-1.47 22.16-16.27l258.83-965.76zM5808.29 3254.44h633.3v633.28h-633.3zM6441.59 3254.44h633.28v633.28h-633.28zM6441.59 2621.16h633.28v633.28h-633.28zM2641.88 3887.72C2777.06 1697.28 3762.95 0 4956.28 0c813.33 0 1521.37 791.62 1937.64 1987.89-372.27-859.74-948.42-1414.81-1601.16-1414.81-1059.42 0-1921.56 1454.03-2017.6 3314.65h-633.28z"/></svg>