<svg xmlns="http://www.w3.org/2000/svg" xml:space="preserve" width="114.141" height="165.307" style="shape-rendering:geometricPrecision;text-rendering:geometricPrecision;image-rendering:optimizeQuality;fill-rule:evenodd;clip-rule:evenodd" viewBox="0 0 902.05 1306.41"><path fill="#fff" d="M284.49 0H21.2v130.91h531.16C513.99 41.48 412.94 0 284.49 0m249.89 336.02H21.2V205.58h547.56c.27 5.09.39 10.28.35 15.56-.46 48.53-12.08 85.94-34.73 114.88M21.2 410.7v130.22h478.36l-80.1-130.22H21.21zm0 204.9h524.3l80.67 131.14H21.2zM759.79 905.05h-42.27l-23.28 94.53-25.47-94.53h-43.33l40.62 113.74c2.16 6.24 5.69 13.28 5.69 20.05 0 4.6-2.17 11.37-5.95 14.35-3.81 2.99-12.19 3.53-16.81 3.53-3.52 0-7.03-.27-10.56-.27v31.43c3.53 0 7.04.54 10.56.54 17.33 0 39.29 1.08 51.18-13.81 5.71-7.32 10.32-21.41 13.3-30.34l46.31-139.22zm-16.77-59.04h-47.75l-19.43 40.41h30.96zm-562.1 135.42-44.68-2.97c-.27 21.66-20.59 35.2-40.89 35.2-10.84 0-21.14-3.52-29.53-10.28-16.25-13.55-19.5-34.94-19.5-54.72 0-31.69 12.73-63.1 49.03-63.1 14.89 0 28.17 5.68 35.74 19.23 1.63 3.26 3.25 6.5 4.07 10.02l43.05-2.97c-.54-4.61-1.9-8.68-3.23-13.01-11.38-33.87-45.24-49.29-79.09-49.29-59.86 0-95.87 40.89-95.87 99.4 0 40.08 18.96 79.35 57.69 94.52 11.91 4.61 24.91 6.22 37.65 6.22 31.14 0 60.12-11.37 76.1-39.27 5.16-8.92 8.4-18.95 9.47-28.97zm148.69 5.42v-6.77c0-43.32-22.2-79.08-69.06-79.08-43.07 0-70.96 32.22-70.96 74.21 0 43.07 26.54 74.21 70.96 74.21 30.88 0 57.43-14.64 67.44-44.69l-40.08-2.71c-5.95 10.57-13.8 14.89-26.26 14.89-18.43 0-27.91-12.73-30.35-30.06zm-41.97-30.33h-56.08c4.35-15.99 13.01-24.11 30.08-24.11 14.34 0 24.64 10.01 26 24.11m182.01 45.76c0-35.22-34.68-41.45-61.77-47.12-7.32-1.62-23.83-3.53-23.83-13.55 0-10.01 11.91-11.36 19.5-11.36 7.6 0 16.25 2.7 21.13 8.92 2.17 2.71 2.98 8.12 3.53 11.38l37.38-1.91c-1.63-34.38-30.61-47.66-61.5-47.66-28.43 0-58.49 11.38-58.49 44.41 0 56.07 83.42 35.76 83.42 60.95 0 11.11-11.38 13-20.05 13-17.87 0-27.35-5.14-29.79-23.3l-37.91 1.35c0 4.61.26 8.4 1.35 12.99 7.04 29.01 36.83 39.02 63.65 39.02 30.6 0 63.38-10.84 63.38-47.13zm159.24 43.07-57.95-87.22 54.15-53.08h-51.72l-43.34 47.93v-98.85h-39.82v191.21h39.82v-46.58l13-13 35.22 59.59zM113.3 837.45H66.78l-25-31.58h36.58l12.09 18.32 11.54-18.32h37.15l-25.83 31.58zM265.03 1302.36v-29.8l69.34-77.45H272.9v-33.05h111.05v32.23l-67.19 75.02h71.78v33.05zm229.42 0v-78.55c0-8.94.54-19.77-6.77-26.27-3.79-3.52-8.95-4.87-14.1-4.87-5.95 0-10.82 1.63-15.44 5.42-9.48 7.86-8.92 21.12-8.92 32.23v72.05h-39.56v-191.23h39.56v65.28c6.21-11.11 26.26-17.61 38.18-17.61 9.22 0 20.31 2.43 27.9 7.86 16.25 11.65 18.95 27.36 18.95 46.04v89.66h-39.8zm107.25 0h-39.81v-191.23h39.81zm300.35-43.07c0-35.22-34.65-41.45-61.74-47.12-7.31-1.63-23.84-3.53-23.84-13.54 0-10.02 11.92-11.38 19.5-11.38 7.6 0 16.24 2.71 21.11 8.94 2.17 2.7 2.99 8.12 3.53 11.37l37.38-1.9c-1.63-34.39-30.6-47.67-61.48-47.67-28.43 0-58.51 11.38-58.51 44.42 0 56.07 83.41 35.76 83.41 60.95 0 11.1-11.35 13-20.03 13-17.87 0-27.35-5.15-29.78-23.3l-37.93 1.35c0 4.61.25 8.4 1.35 12.99 7.04 28.99 36.83 39 63.64 39 30.6 0 63.37-10.83 63.37-47.12zm-148.16-35.13c0-11.39.53-27.65-3.82-38.21-10.28-24.39-36.55-28.19-59.85-28.19-31.71 0-57.99 13.55-59.88 48.51h36.86c-.56-13.82 13.53-17.62 24.64-17.62 8.4 0 21.41 2.17 21.41 13 0 10.03-14.64 10.56-21.67 11.65-30.35 4.34-69.09 7.86-69.09 47.69 0 28.44 21.68 45.24 48.76 45.24 20.05 0 28.74-5.96 44.17-16.8l.27 12.73h38.23l-.02-78.01zm-39.58 32.49c-6.77 11.65-19.5 18.16-32.78 18.16-9.21 0-18.69-4.35-18.69-14.91 0-18.16 28.99-18.42 41.73-21.68 3.24-.81 6.49-1.9 9.75-3.25v21.67zm-610.77-60.62v-36.29c-2.42-.27-4.6-.54-7.05-.54-18.95 0-29.51 8.12-36.28 25.72v-23.01h-39v140.29h40.91v-45.77c0-7.05 0-14.36.26-21.4.53-22.75 3.79-39.81 31.69-39.81 3.25 0 6.23.27 9.47.81m151.67 35.48c0-41.98-27.08-73.68-70.15-73.68-45.51 0-75.03 29.53-75.03 75.03 0 43.07 27.35 73.39 71.22 73.39 43.62 0 73.95-31.42 73.95-74.75zm-40.89-1.63c0 20.85-7.05 43.87-31.69 43.87-24.11 0-31.71-22.2-31.71-42.52 0-20.85 8.13-41.44 32.23-41.44 23.57 0 31.16 20.04 31.16 40.08z"/></svg>