<svg xmlns="http://www.w3.org/2000/svg" xml:space="preserve" width="492.529" height="283.464" style="shape-rendering:geometricPrecision;text-rendering:geometricPrecision;image-rendering:optimizeQuality;fill-rule:evenodd;clip-rule:evenodd" viewBox="0 0 13080.64 7528.25"><path fill="#fff" d="M4713.17 66.69C5216.89 26.85 5762.22 7.03 6204.53.01v655.28c-209.74 7.54-443.84 21.56-663.52 44.97-772.66 82.65-916.99 250.11-1010.48 992.53-39.06 309.38-50.6 637.5-50.6 861.12 0 222.84 11.54 551.52 50.6 860.02 93.49 742.14 237.82 909.78 1010.48 992.32 219.68 23.62 453.78 37.67 663.52 45.11v655.59c-442.31-7.05-987.64-26.84-1491.36-67.03-1386.14-110.77-1644.76-336.01-1812.99-1331.26-70.04-414.7-90.62-855.74-90.62-1155.25 0-299.6 20.58-740.58 90.62-1155.24C3068.41 402.81 3327.02 177.78 4713.17 66.69M10358.62 2553.4c0 299.5-20.61 740.58-90.65 1155.17-168.13 995.26-426.73 1220.68-1813.03 1331.48-503.58 40.05-1048.83 59.91-1491.04 66.96v-655.63c209.56-7.51 443.63-21.53 663.03-45.15 772.98-82.54 917.24-250.14 1010.58-992.39 38.99-308.32 50.64-637.1 50.64-859.91 0-223.66-11.65-551.77-50.64-861.15-93.34-742.43-237.6-909.96-1010.58-992.53-219.4-23.41-453.47-37.47-663.03-44.91V0c442.21 7.12 987.46 26.73 1491.04 66.78 1386.3 111.09 1644.9 336.05 1813.03 1331.38 70.04 414.66 90.65 855.66 90.65 1155.24M12604.2 6489.97c-344.86 0-528.5 229.92-528.5 519.16 0 363.38 252.17 519.12 550.75 519.12 133.5 0 279.92-27.82 402.33-72.3l-24.11-216.89c-118.74 27.76-226.17 46.31-322.66 46.31-151.98 0-259.59-50-296.56-170.57h678.54c68.56-298.48-72.31-624.83-459.78-624.83zm168.73 404.22h-383.92c31.55-103.82 105.74-181.76 213.31-181.76 100.11 0 170.61 55.67 170.61 181.76m-1681.37 606.24h882.54v-222.46h-493.23v-7.4l474.78-530.31V6517.8h-845.53v222.46h457.97v7.33l-476.53 532.23zm-179.24-1223.69c0-100.14-42.6-152.05-179.74-152.05-137.26 0-179.97 51.91-179.97 152.05 0 98.23 42.71 150.17 179.97 150.17 137.14 0 179.74-51.95 179.74-150.17m-816.61 1223.69 372.73-982.62h-318.91l-233.68 674.86h-7.4l-233.65-674.86h-326.23l374.4 982.62zm-807.69-385.63c68.6-298.48-72.23-624.83-459.84-624.83-344.83 0-528.4 229.92-528.4 519.16 0 363.38 252.17 519.12 550.64 519.12 133.5 0 280.03-27.82 402.3-72.3l-23.97-216.89c-118.74 27.76-226.17 46.31-322.66 46.31-152.05 0-259.66-50-296.67-170.57h678.61zm-291.07-220.61H8613.1c31.59-103.82 105.63-181.76 213.24-181.76 100.22 0 170.61 55.67 170.61 181.76m-1192.78 606.24h304V6169.09h-304zm-200.28-385.63c68.6-298.48-72.3-624.83-459.77-624.83-344.91 0-528.5 229.92-528.5 519.16 0 363.38 252.16 519.12 550.74 519.12 133.5 0 279.92-27.82 402.37-72.3l-24.18-216.89c-118.7 27.76-226.14 46.31-322.63 46.31-151.98 0-259.55-50-296.56-170.57h678.54zm-291.07-220.61h-383.78c31.45-103.82 105.63-181.76 213.21-181.76 100.11 0 170.57 55.67 170.57 181.76m-1025 291.07v-445h222.53V6517.8h-222.53v-237.32h-268.84l-35.2 237.32-148.33 18.49v203.97h148.33v476.56c0 328.11 285.55 350.46 545.16 266.92l-24.15-215.05c-155.77 25.96-216.96 3.71-216.96-83.43zM5024.3 7500.42h285.55v-667.43c0-254.03-209.6-343.03-441.33-343.03-152.09 0-313.35 37.12-428.26 98.23l25.93 215.16c129.74-50.11 261.4-66.78 354.14-66.78 113.06 0 185.34 37.15 185.34 127.9v37.11c-333.67-72.3-630.35 29.64-630.35 322.56 0 181.69 142.78 304.1 320.78 304.1 124.23 0 226.21-37.11 309.56-113.13l18.63 85.31zm-18.63-279.89c-40.68 48.16-118.66 87.08-183.53 87.08-74.12 0-133.46-35.2-133.46-103.76 0-100.18 103.78-155.81 316.99-105.74zm-57.4-786.22 252.12-298.48h-341.11l-155.81 298.48zm-989.7 537.68v-7.41l350.5-446.78h-344.91l-348.58 467.17 365.22 515.45h365.26zm-671.18 528.43h304.07V6169.08h-304.07zm-742.03-708.29c0-50 29.67-77.8 142.74-77.8 77.94 0 196.6 14.78 346.78 57.44l25.96-207.68c-116.83-48.19-257.8-74.12-387.54-74.12-228.09 0-430.18 77.8-430.18 311.44 0 404.22 561.83 289.31 561.83 426.45 0 53.79-40.83 76.03-146.46 76.03-107.61 0-228.12-12.96-381.97-57.44l-24.12 207.65c118.67 50.11 276.25 74.15 422.74 74.15 231.8 0 432.01-90.89 432.01-309.66 0-405.98-561.79-289.2-561.79-426.45zm-452.31 322.66c68.6-298.48-72.3-624.83-459.84-624.83-344.86 0-528.43 229.92-528.43 519.16 0 363.38 252.12 519.12 550.67 519.12 133.46 0 279.99-27.82 402.3-72.3l-24.04-216.89c-118.7 27.76-226.21 46.31-322.66 46.31-152.06 0-259.56-50-296.63-170.57h678.64zm-291.14-220.61h-383.82c31.59-103.82 105.71-181.76 213.21-181.76 100.18 0 170.61 55.67 170.61 181.76m-1473.76-7.47c0-231.73 133.5-380.07 372.74-380.07 118.59 0 207.58 25.92 298.51 42.67l25.92-241.15c-113.09-40.72-237.32-62.97-365.29-62.97-433.86 0-660.02 287.36-660.02 643.42 0 370.79 226.16 639.62 660.02 639.62 127.97 0 252.2-22.23 365.29-64.83l-25.92-239.27c-90.93 16.67-178.05 40.86-298.51 40.86-237.36 0-372.74-129.85-372.74-378.29zm484-700.78 198.3-276.35H721.21l-85.27 139.02-85.34-139.02H259.56l198.45 276.35zm10072.44 331.87h-304.1v982.69h304.1z"/></svg>