<svg xmlns="http://www.w3.org/2000/svg" xml:space="preserve" width="945.426" height="364.879" style="shape-rendering:geometricPrecision;text-rendering:geometricPrecision;image-rendering:optimizeQuality;fill-rule:evenodd;clip-rule:evenodd" viewBox="0 0 13035.4 5030.9"><path fill="#fff" d="m9044.03 2787.8.01 2241.95 508.6 1.15 1.04-894.47c266.39 0 418.44-19.27 505.71 284.56 29.9 104.08 51.56 212.84 79.89 317.47 14.18 52.38 28.21 102.48 44.58 153.88 9.27 29.08 36.28 129.6 58.66 138.56h517.05l-169.45-606.51c-44.41-166.49-105.36-337.01-251.82-427.93-9.41-5.84-19.28-12.15-30.59-17.77-11.93-5.93-23.53-8.47-31.72-18.74 13.6-19.65 143.51-52.13 244.29-167.8 155.29-178.21 202-398.78 118.09-633.93-161.87-453.64-796.19-436.44-1221.11-410.23-103.22 6.37-279.5 14.8-373.24 39.82zm510.61 352.29-.96 625.15c149.52 0 296.61 13.31 425.35-42.26 103.37-44.62 184.65-137.3 185.48-283.66 1.8-315.64-321.13-349.86-609.87-299.23M10962.06 5030.12l528.64.79 163.12-584.34 650.67.53 176.01 583.53 554.9.28-706.61-2274.71-675.01-.19-691.71 2274.12zm766.78-967.84h500.79c-20.71-97.36-100.11-339.28-132.73-456.53-21.51-77.31-44.4-152.41-64.01-231.56-8.34-33.64-50.9-217.76-60.81-232.85-9.93 8.79-102.13 413.26-116.55 463.94zM6432.34 5029.62l600.8 1.28 766.37-2274.49-546.76-.35c-46.58 145.77-86.21 293.54-130.91 439.15-78.63 256.14-193.8 628.94-257.18 881.43-18.69 74.45-37.6 150.68-56.36 225.63-8.15 32.55-46 218.54-55.78 229.21-12.22-9-46.91-196.58-53.85-226.64-17.67-76.54-36.83-150.27-55.67-226.64-36.67-148.64-80.26-295.49-122.64-442.12-42.05-145.47-84.8-292.53-125.83-438.68-41.68-148.46-88.3-294.84-127.35-441.39h-561.99l727.13 2273.62zM2687.31 608.34c-234.15 22.26-391.79 116.36-499.13 238.73-178.09 203.04-224.87 588.15-94.35 857.96 20.42 42.2 47.16 81.92 71.26 113.9 24 31.85 60.65 70.04 90.99 94.4 161.25 129.44 349.85 184.66 569.19 165.29 419.67-37.05 692.96-346.71 666.01-805.6-24.79-422.27-347.43-708.08-803.96-664.67zm35.4 313.35c-189.45 27.19-258.39 244.66-250.23 457.39 7.66 200.07 102.71 412.57 317.47 386.52 188.57-22.87 257.77-248.11 249.26-457.35-8.16-200.8-98.92-417.78-316.5-386.56M43.48 2401.23c1286.47 44.14 2584.82 68.18 3875.36 103.62 646.34 17.75 1292.11 33.86 1938.19 51.18 323.58 8.68 647.07 16.99 970.51 25.58 163.27 4.34 326.58 8.59 489.9 12.92 158.67 4.21 328.24 14.48 485.97 12.46l216.33-408.79L43.49 2401.23zM6600.36 2050.37l438.61-.34c-.01-114.96-.01-229.82-.01-344.68 0-118.96-12.01-80.6 70.69-185.52 12.78-16.22 24.84-34.8 40.18-47.73l257.35 434.5c14.76 25.13 28.07 47.76 42.46 72.35 6.99 11.94 37.13 68.93 48.53 71.42h531.39c-9.68-21.63-266.65-389.37-285.61-418.72-46.51-72.03-96.47-136.09-143.83-209.12l-107.84-156.87c-12.08-18.77-25.17-34.23-36.01-54.47 11.2-17.04 17.07-23.2 31.1-37.24 11.88-11.9 18.73-23.76 30.62-35.66l155.26-175.65c11.08-14.06 22.03-22.93 33.2-37.38 18.94-24.48 43.28-45.49 62.45-69.81 30.91-39.2 172.65-189.61 187.52-216.37h-524.14c-33.1 43.76-67.06 98-99.69 146.1-32.62 48.07-65.81 98.7-99.24 147.92-34.01 50.07-64.36 96.31-99.31 147.7-20.63 30.32-83.17 146.03-95.07 152.74V1.82c-126.92-3.81-306.14-.46-438.65-.43l.05 2048.98zM6286.78 1987.73c-3.89-33.36-51.16-282.16-59.29-293.78-151.57 41.57-314.27 77.33-485.74 51.81-155.13-23.09-287.79-103.3-298.99-260.39l909.15-.63c22.17-196.12 18.58-379.79-62.05-543.31-68.65-139.22-168.17-247.63-330.29-300.61-170.55-55.72-379.13-39.63-532.65 30.16-477.5 217.07-531.59 965.46-160.44 1254.1 205.66 159.95 503.05 178.72 771.5 134 65.34-10.88 205.21-38.42 248.8-71.36zm-846.43-803.3h518.28c.54-165.96-88.58-289.63-256.11-285.38-149.34 3.78-251.87 135.99-262.16 285.38zM1454.71 3748.39l168.57-187.94c86.83-81.08 174.02-159.77 282.64-220.3 46.96-26.16 139.9-77.46 197.65-90.17-46.76 38.36-154.45 77.1-229.56 155.28-11.08 11.53-46.45 54.23-53.05 71.75 119.65-85.13 104.53-81.1 246.27-143.23 115.97-50.83 186.08-67.9 330.7-60.61 208.52 10.52 464.23 78.1 643.59 144.49 310.93 115.09 680.47 324.68 961.62 512.06 11.61 7.74 19.51 12.97 29.05 19.45 12.96 8.81 22.61 13.5 29.8 25.87-79.93 56.92-360.77 237.75-449.98 258.83 9.45-21.12 46.29-57.12 62.39-79.48-39.06 10.8-307.28 148.47-388.95 174.55 21.15-16.09 39.93-32.76 61.76-50.48 20.2-16.4 47.82-35.27 61.89-53.88-35.3 11.32-75.73 32.38-113.4 46.49-40.17 15.05-75.97 27.12-118.12 40.72-81.23 26.21-169.23 47.42-256.52 65.95-186.7 39.65-388.75 62.88-585.26 33.05-286.68-43.52-536.85-206.55-776.65-349.17-28.69-17.06-73.35-50.31-101.76-61.95 23.43 42.4 91.37 103.59 128.42 136.71l142.21 122.61c51.47 41.24 90.64 71.54 157.28 107.36 27.87 14.98 58.66 28.72 89.59 42.73 24.77 11.21 76.59 26.5 90.04 51.86-110.89-5.65-247.4-83.53-316-99.06 18.88 25.13 84.43 70.96 117.51 94.03 134.93 94.05 282.33 155.69 454.5 185.78 220.4 38.51 571.61 49.58 786.47-3.19 306.25-75.22 625.99-236.29 881.87-401.92 31.8-20.58 245.13-169.84 261.55-167.29 19.34 10.93 42.92 31.39 61.48 45.39 97.13 73.32 215 158.76 306.13 232.13 19.83 15.97 38.96 32.03 59.38 46.5 17.51 12.42 47.2 39.56 74.91 33.67-3.39-44.28-254.91-264.52-310.69-306.8 18.77 3.02 49.53 15.45 28.74-13.13-22.91-31.49-64.64-42.02-116.47-134.98l417.57-351.4c78.24-61.16 39.89-75.87 6.48-55.63l-107.07 74.02c-94.02 57.94-210.28 125.56-309.52 175.75-25.4 12.85-54 26.58-81.73 37.51-35.86 14.14-61.36 30.57-92.23 7.29-91.15-68.77-188.57-132.08-283.61-197.32l-288.02-195.96 69.23 17.93c-28.22-48.14-175.35-154.36-228.72-190.7-287.45-195.74-651.93-273.69-1014.24-245.73-262.07 20.22-453.52 98.86-619.58 222.49-70.28 52.33-112.14 90.22-169.8 147.87-86.01 86.01-170.39 193.49-198.37 330.17zM8056.12 5029.47l512.22 1.42.85-2273.92-512.8-.91zM4043.49 2050.37l433.07-.01L5000.3 640.1l-460.57-1.01-137.8 493.8c-22.16 82.84-45.38 163.4-66.27 246.81-9.63 38.48-48.84 240.14-58.32 257.26-13.81-4.85-26.68-95.05-33.16-123.6-9.97-43.93-19.39-85.2-30.25-128.61-20.95-83.73-46.39-168.84-70.65-251.19l-107.33-369.24c-10.15-35-24.37-95.01-37.79-125.26l-473.3.03c5.5 32.43 424.53 1171.12 480.56 1324.92l24.33 68.28c6.09 15.57.78 11.2 13.75 18.06zM1139.19 2013.11l-50.53-318.17c-13.81-3.69-76.56 20.87-100.51 26.06-37.68 8.18-78.24 12.6-117.72 14.02-230.22 8.32-413.79-116.04-420.13-382.65-7.71-324.35 235.51-448.67 516.82-395.56 42.87 8.09 68.61 19.12 107.2 30.59 9.53-61.51 66.9-292.44 66.09-326.73-158.81-42.34-248.36-63.06-423.72-49.63C326.62 640.92 5.13 893.99.07 1347.96c-5.25 470.88 311.47 720.84 720.91 730.7 143.85 3.47 298.23-12.97 418.21-65.56zM1350.43 2050.37h438.46l.18-2048.98h-439.19zM8063.55 2606.59l505.41 1.2 283-411.5h-573.38zM5546.7 462.86l296.94.34c15.21-4.03 138.48-204.8 146.95-216.92l143.18-220.86-281.3-1.13c-15.35 7.64-65.16 103.87-77.77 125.26-13.19 22.37-24.33 42.74-37.17 64.25-12.49 20.93-26.01 53.16-39.48 60.96-18.73-20.58-59.49-97.5-75.86-126.03-12.45-21.69-64.02-116.84-78.57-124.4l-278.63.01c19.85 36.18 45.21 72.84 69.19 107.87 23.27 34 48.69 73.69 71.38 109.51 14.03 22.15 134.56 202.5 141.15 221.14zM535.85 463.18l291.2-.02c9.81-3.41 130.54-193.47 146.08-217.64l142.15-221.19-288.36.02c-8.59 21.7-135.81 242.12-145.47 250.67-14.72-12.01-93.05-151.4-113.02-186.14-11.78-20.5-27.81-44.6-36.38-64.46l-285.58 1.3c22.25 31 47.99 73.51 69.9 107.74 24.56 38.37 47.18 71.97 71.28 109.66 18.68 29.22 133.47 211.43 148.2 220.06"/></svg>