<svg xmlns="http://www.w3.org/2000/svg" xml:space="preserve" width="581.114" height="147.779" style="shape-rendering:geometricPrecision;text-rendering:geometricPrecision;image-rendering:optimizeQuality;fill-rule:evenodd;clip-rule:evenodd" viewBox="0 0 15404.03 3917.28"><path fill="#fff" d="M1017.08 1869.57c26.68-111.9 104.9-242.35 234.65-391.68 129.64-149.15 289.71-285.29 480.15-408.22 190.32-123.07 396.27-229.7 617.8-319.79l43.44-18.45c295.01-115.75 586.77-194.78 875.07-237.19 134.73-19.97 261.65-30.01 380.72-30.01 133.64 0 282.26 18.45 445.97 55.17 163.64 36.72 281.61 133 354.07 288.94 91.19-86.84 144.66-187.68 160.29-302.33 3.36-26.76 4.94-52.84 4.94-78.5 0-83.52-22.51-166.4-67.54-248.75-45.13-82.38-122.26-134.23-231.29-155.44C4213.98 7.8 4102.08 0 3979.65 0c-149.26 0-351.85 16.22-607.87 48.49-256.07 32.27-567.52 99.6-934.34 202.1-366.94 102.35-718.65 227.85-1055.47 376.55-336.8 148.51-625.13 313.07-865.03 493.46-239.93 180.37-397.16 369.06-471.88 566.07C15.02 1772.49.01 1853.64.01 1930.54c0 75.67 21.41 164.77 64.32 267.24 42.87 102.46 148.88 185.84 318.19 250.37 96.78 35.7 210.91 53.55 342.28 53.55 100.23 0 209.9-10.15 329-30.12-51.25-118.01-76.8-233.23-76.8-345.65 0-59.03 13.39-144.45 40.08-256.35z"/><path fill="#fff" d="M3373.9 2127.11c0-27.77-6.19-64.92-18.34-111.08-12.3-46.17-42.91-80.45-91.93-102.75-24.46 54.57-99.1 88.55-223.8 101.83-107.94 12.4-232.59 18.48-374.04 18.48h-66.73c23.33-252.81 60.05-487.67 110.17-704.75 16.75-76.8 25.06-141.33 25.06-193.68 0-42.38-8.13-85.5-24.25-129.43-16.11-44.03-52.55-73.87-109.35-89.39-43.43-12.26-90.69-18.37-141.93-18.37-85.36 0-88.58 20.11-88.58 20.11-144.66 319.44-287.2 699.59-427.48 1140.48-3.36 0-6.08.6-8.35 1.72-234.93 41.18-412.78 115.55-533.58 222.89-120.73 107.51-189.51 226.93-206.26 358.31-2.22 22.3-3.25 44-3.25 65.14 0 107.94 36.12 215.35 108.57 322.19 72.31 106.92 85.85 134.55 255.12 248.92-2.23-19.06-4.28-37.96-3.33-56.81 10.67-215.87 108.01-252.38 199.02-300.69-10.04 86.84-15.02 168.83-15.02 245.53 0 149.23 23.95 297.02 71.85 443.43 47.85 146.4 163.64 242.35 347.36 288.01 13.39 3.44 31.73 5.07 55.06 5.07 36.72 0 94.37-6.09 172.86-18.35 78.54-12.29 167.28-43.11 266.32-92.63 99.1-49.62 169.23-123.35 210.5-221.35-99.13-32.27-171.55-141.94-217.11-328.92-45.63-187.07-68.46-413.69-68.46-679.69 93.51-10.14 194.25-15.62 302.19-16.71 138.09-4.49 245.53-34.5 322.33-90.2 76.87-55.59 127.49-121.34 151.94-197.01 15.62-45.67 23.43-89.07 23.43-130.28zM3834.36 1540.77c-85.71 0-158.67 30.11-218.71 90.27-60.16 60.08-90.2 133-90.2 218.74 0 84.62 30.04 157.03 90.2 217.08 60.04 60.08 133 90.2 218.71 90.2 84.61 0 156.95-30.12 217.11-90.2 60.15-60.05 90.16-132.47 90.16-217.08 0-85.74-30.01-158.66-90.16-218.74-60.16-60.16-132.51-90.27-217.11-90.27"/><path fill="#fff" d="m14229.99 2973.6-6.57 50.11c-31.28 122.54-87.48 198.25-168.73 227.25-26.68 8.92-52.35 13.29-76.8 13.29-50.11 0-96.35-18.37-138.65-55.1-44.53-40.18-66.76-99.63-66.76-178.73 0-31.06 3.36-65.13 10.04-101.86 33.36-122.46 87.96-202.09 163.64-238.82 32.27-15.62 63.52-23.32 93.52-23.32 38.98 0 76.2 13.39 111.9 40.07 53.47 42.31 80.16 115.11 80.16 218.82 0 15.52-.6 31.63-1.73 48.28zm-4310.3 0-6.57 50.11c-31.28 122.54-87.47 198.25-168.73 227.25-26.68 8.92-52.34 13.29-76.79 13.29-50.12 0-96.35-18.37-138.66-55.1-44.53-40.18-66.76-99.63-66.76-178.73 0-31.06 3.36-65.13 10.04-101.86 33.36-122.46 87.97-202.09 163.65-238.82 32.27-15.62 63.51-23.32 93.51-23.32 38.98 0 76.2 13.39 111.9 40.07 53.48 42.31 80.16 115.11 80.16 218.82 0 15.52-.6 31.63-1.73 48.28zm5439.22 15.13c-47.9 80.12-108.54 139.67-181.99 178.62-54.6 29.01-109.67 43.44-165.37 43.44-18.88 0-37.86-1.63-56.7-4.98-71.32-19.98-110.81-79.04-118.61-177.01-2.22-24.57-3.36-49.51-3.36-75.17 0-76.8 10.07-159.2 30.04-247.13 10.04-50.11 15.13-95.29 15.13-135.25 0-66.83-17.56-124.77-52.66-173.64-35.1-49.13-91.01-80.16-167.81-93.55-57.9-11.17-115.22-16.76-172.05-16.76-16.72 0-33.97.53-51.71 1.73-26.8 55.59-52.99 119.11-78.54 190.32-50.12-59.06-112.22-104.9-186.16-137.77-74.05-32.87-159.47-49.3-256.35-49.3-134.73 0-251.72 29.22-350.71 87.65-99.1 58.53-180.36 135.64-243.87 231.28-63.41 95.79-108.57 201.07-135.22 315.73-5.76 24.71-10.46 49.44-14.56 74.15-48.81 73.03-111.52 128.97-189.27 166.26-61.28 29.01-120.81 43.44-178.66 43.44-20.07 0-40.04-1.63-60.15-4.98-71.21-19.98-110.77-79.04-118.58-177.01-2.22-24.57-3.36-49.51-3.36-75.17 0-76.8 10.04-159.2 30.15-247.13 10.04-50.11 15.03-95.29 15.03-135.25 0-43.41-9.27-87.44-27.6-131.98-18.38-44.53-53.37-79.03-105.23-103.56-51.74-24.46-108.85-39.47-171.13-45.05-8.91-1.1-18.34-1.63-28.41-1.63-51.22 0-101.02 14.43-149.44 43.44-48.49 28.91-104.97 75.67-169.51 140.21-150.35 142.51-281.73 297.84-394.11 465.93 3.36-91.22 9.44-185.94 18.34-283.95 1.12-17.74 1.72-34.99 1.72-51.75 0-91.29-23.43-161.09-70.19-209.58-46.76-48.39-114.12-78.72-202.1-91.01-74.54-10.04-154.7-15.03-240.41-15.03h-48.49c-51.14 199.38-89.6 395.26-115.14 587.91-11.42 84.3-18.62 164.71-22.23 241.75-22.9 19.13-46.87 36.55-73.03 50.4-54.6 29.01-109.66 43.44-165.37 43.44-18.88 0-37.85-1.63-56.73-4.98-71.29-19.98-110.77-79.04-118.58-177.01-2.22-24.57-3.36-49.51-3.36-75.17 0-76.8 10.07-159.2 30.05-247.13 10.04-50.11 15.13-95.29 15.13-135.25 0-66.83-17.57-124.77-52.67-173.64-35.1-49.13-91.01-80.16-167.77-93.55-57.93-11.17-115.25-16.76-172.09-16.76-16.72 0-33.96.53-51.71 1.73-26.79 55.59-52.98 119.11-78.54 190.32-50.11-59.06-112.21-104.9-186.16-137.77-74.04-32.87-159.47-49.3-256.35-49.3-134.72 0-251.71 29.22-350.71 87.65-99.1 58.53-180.36 135.64-243.86 231.28-63.41 95.79-108.58 201.07-135.23 315.73-13.03 55.95-21.41 111.9-25.98 167.85-32.05 29.18-67.86 53.51-107.65 72.56-61.14 29.01-120.7 43.44-178.63 43.44-20.11 0-39.58-1.63-58.46-4.98-71.28-19.98-110.77-79.04-118.57-177.01-2.22-24.57-3.36-49.51-3.36-75.17 0-76.8 10.04-159.2 30.04-247.13 10.04-51.25 15.13-96.27 15.13-135.25 0-44.61-9.26-89.07-27.6-133.71-18.37-44.42-53.48-78.93-105.22-103.45-51.75-24.57-108.82-38.98-171.14-43.43-8.91-1.1-18.34-1.63-28.41-1.63-51.22 0-101.01 14.43-149.51 43.44-48.42 28.91-104.9 75.67-169.44 140.21-152.57 144.73-285.57 302.89-399.2 474.34 3.36-98.01 9.44-199.34 18.37-303.92 1.13-17.85 1.73-35.11 1.73-51.86 0-94.65-26.79-167.88-80.16-219.62-53.44-51.75-135.82-82.6-247.22-92.74-9.94-1.03-19.48-1.63-28.31-1.63-52.35 0-102.74 14.53-151.13 43.44-48.49 29.01-105.01 75.67-169.55 140.28-149.22 142.54-280.59 297.88-394.11 465.97 3.36-92.42 9.44-187.07 18.37-283.84 1.1-17.85 1.7-35.11 1.7-51.86 0-91.18-23.43-161.2-70.19-209.58-46.77-48.39-114.13-78.75-202.07-91.01-74.57-10.04-154.73-15.03-240.44-15.03h-48.49c-51.15 199.27-89.6 395.25-115.15 587.81-8.94 65.52-15.3 128.93-19.44 190.61-18.84 18.41-41.99 37.22-69.95 56.52-62.87 43.44-132.18 75.28-207.85 95.26-31.14 7.79-60.65 11.66-88.58 11.66-40.04 0-82.56-11.66-127.7-35.11-45.06-23.32-69.91-87.82-74.26-193.64.99-183.72 21.91-393.94 62.56-630.5 40.62-236.59 72.03-404.37 94.38-503.41 10.03-50.11 15.02-94.65 15.02-133.7 0-66.73-17.85-124.37-53.48-172.76-35.59-48.38-90.2-78.82-163.64-91.01-54.57-10.04-106.81-14.99-156.93-14.99-16.75 0-33.39.5-50.11 1.63-69.1 169.19-135.82 360.92-200.36 575.28-64.61 214.36-116.35 431.16-155.3 650.39-23.08 127.99-37.82 249.54-45.99 365.91-45.74 56.67-102.49 100.95-171.24 131.77-65.63 29.01-128.01 43.44-186.97 43.44-20.07 0-39.54-1.63-58.42-4.98-72.46-19.98-112.5-79.04-120.31-177.01-2.22-24.57-3.36-49.51-3.36-75.17 0-76.8 10.04-159.2 30.15-247.13 9.94-50.11 14.99-95.29 14.99-135.25 0-66.83-17.53-124.77-52.63-173.64-35.03-49.13-91.01-80.16-167.81-93.55-57.93-11.17-115.25-16.76-172.05-16.76-16.64 0-33.99.53-51.74 1.73-59.03 122.47-111.3 274.41-156.93 455.9-45.67 181.42-70.19 361.77-73.55 541.05v25.06c0 169.22 32.87 310 98.6 422.42 67.87 114.73 184.74 172.06 350.68 172.06h13.28c207.09-14.42 369.7-59.45 487.68-135.23 107.05-68.74 184.95-148.48 234.29-239.17 17.36 64.43 46.55 130.77 88.01 199.08 69.09 113.53 179.25 170.85 330.71 172.07 210.4-5.7 380.44-43.83 510.18-114.45 129.64-70.69 224.83-157.03 285.58-258.89 3.36-5.62 6.29-11.2 9.44-16.79 16.11 88.59 52.8 172.41 110.7 251.44 68.46 93.54 171.73 140.92 309.79 141.94 46.8 0 108.25-9.12 184.56-27.6 76.27-18.23 133.28-45.85 171.13-82.56 46.77-348.49 138.69-655.77 275.54-921.87-15.55 120.2-23.36 233.83-23.36 340.68 0 24.43.53 48.98 1.62 73.55 0 103.45 11.49 198.1 34.32 283.85 22.79 85.71 60.96 157.03 114.4 213.75 67.87 80.13 165.27 120.21 292.18 120.21h18.34c73.56 0 146.71-12.19 219.63-36.73 72.95-24.46 118.82-76.8 137.77-157.03 52.35-337.21 150.35-632.82 293.92-886.66-36.72 162.51-55.1 320.57-55.1 474.16 0 13.4 1.94 65.74 5.9 157.03 3.86 91.3 38.63 188.7 104.37 292.3 70.12 104.57 184.24 156.92 342.31 156.92h10.03c207.05-13.39 367.94-63.1 482.59-149.44 92.42-69.56 161.27-147.34 207.4-233.05 8.66 20.6 18.05 41.67 28.87 63.56 47.36 95.74 112.99 172.86 197.11 231.27 84.02 58.43 187.89 87.66 311.45 87.66 95.75 0 187.57-21.91 275.54-65.95 87.93-44.04 166.96-104.37 237.15-181.17 32.27 80.12 81.25 142.54 146.92 187.08 59.02 41.17 133.07 61.66 222.17 61.66 11.02 0 22.19-.42 33.36-1.62 195.88-18.88 354.25-84.31 475.09-196.21 52.84-48.94 97.37-100.44 134.55-154.2 18.56 77.05 53.23 150.46 104.23 220.12 68.5 93.55 171.77 140.81 309.82 142.05 46.77 0 108.26-9.24 184.53-27.61 76.3-18.33 133.32-45.34 171.17-80.93 48.98-376.38 151.94-703.66 309.01-982.03-36.76 165.98-55.2 327.29-55.2 484.32 0 8.9.92 57.01 2.54 144.45 1.73 87.43 37.64 185.05 107.73 293.11 70.08 104.57 184.24 156.92 342.37 156.92h9.97c211.49-12.19 373.83-59.25 486.83-141.13 113.02-81.85 190.11-176.72 231.32-284.76 5.16-13.82 9.16-27.25 13.61-40.86 13.58 45.73 32.83 94.72 59.03 147.82 47.36 95.74 112.99 172.86 197.11 231.27 83.98 58.43 187.89 87.66 311.45 87.66 95.74 0 187.57-21.91 275.53-65.95 87.93-44.04 166.96-104.37 237.16-181.17 32.27 80.12 81.25 142.54 146.92 187.08 59.02 41.17 133.07 61.66 222.16 61.66 11.03 0 22.2-.42 33.36-1.62 195.88-18.88 354.25-84.31 475.1-196.21 120.81-111.88 200.64-236.37 239.6-373.22 15.62-57.93 23.43-111.9 23.43-162.02 0-68.99-14.99-130.87-45.13-185.34z"/><path fill="#fff" d="M10869.08 1322.77c-87.33 51.22-401.43 177.22-996.27 247.05-591.05 69.53-927.59 20.82-1025.7-8.23 87.54-51.36 401.47-177.22 995.81-247.06 593.03-69.69 928.58-20.82 1026.16 8.24m392.39-45.37c-18.16-155.09-269.35-215.7-476.75-239.32-256.49-29.22-601.62-21.28-971.71 22.12-698.7 82.07-1389.81 283.07-1358.74 546.81 18.16 155.23 269.49 215.98 476.92 239.6 101.86 11.55 217.83 17.35 343.65 17.35 190.89 0 404.93-13.22 627.84-39.48 698.71-82.06 1389.82-283.03 1358.79-547.08"/></svg>