<svg xmlns="http://www.w3.org/2000/svg" data-name="Layer 1" viewBox="0 0 405.57 182.49"><g fill="#fff"><path d="M139.63 124.72V68.28h44.83v12.01H153.5v10.56h20.64v11.61H153.5v22.25h-13.87ZM206.41 125.52c-4.35 0-8.28-.98-11.77-2.94s-6.26-4.61-8.3-7.94-3.06-7.07-3.06-11.21 1.02-7.89 3.06-11.25 4.81-6.02 8.3-7.98 7.42-2.94 11.77-2.94 8.28.98 11.77 2.94 6.26 4.62 8.3 7.98q3.06 5.04 3.06 11.25c0 6.21-1.02 7.87-3.06 11.21-2.04 3.33-4.81 5.98-8.3 7.94s-7.42 2.94-11.77 2.94m0-11.28c1.99 0 3.76-.48 5.32-1.45s2.79-2.27 3.71-3.91 1.37-3.45 1.37-5.44-.46-3.88-1.37-5.52-2.16-2.94-3.75-3.91-3.35-1.45-5.28-1.45-3.7.48-5.28 1.45c-1.59.97-2.84 2.27-3.75 3.91s-1.37 3.48-1.37 5.52.46 3.8 1.37 5.44 2.16 2.94 3.75 3.91c1.58.97 3.35 1.45 5.28 1.45M235.12 124.72V82.07h13.06v4.27c1.4-1.72 3.04-3.02 4.92-3.91s3.98-1.33 6.29-1.33c2.31.06 3.95.4 4.92 1.05v11.37c-.86-.43-1.83-.75-2.9-.97-1.08-.21-2.18-.32-3.31-.32-2.04 0-3.94.47-5.68 1.41-.02 0-.03.02-.05.03-2.67 1.46-4.18 4.4-4.18 7.43v23.62h-13.06ZM285.76 125.28c-5.11 0-8.96-1.14-11.57-3.43-2.61-2.28-3.91-5.66-3.91-10.12V71.1l13.06-2.82v13.79h11.93v10.88h-11.93v16.2c0 1.88.42 3.21 1.25 3.99s2.3 1.17 4.39 1.17c1.07 0 2.06-.07 2.94-.2.89-.14 1.87-.36 2.94-.69v10.56c-1.18.38-2.69.68-4.51.93-1.83.24-3.36.36-4.6.36ZM313.92 125.44c-3.01 0-5.68-.57-8.02-1.69-2.34-1.13-4.17-2.69-5.48-4.68-1.32-1.99-1.98-4.27-1.98-6.85 0-4.08 1.54-7.24 4.64-9.47 3.09-2.23 7.4-3.35 12.94-3.35 3.33 0 6.56.4 9.67 1.21v-2.1c0-2.15-.68-3.75-2.06-4.8-1.37-1.05-3.4-1.57-6.09-1.57-1.67 0-3.54.27-5.6.81-2.07.54-4.5 1.4-7.3 2.58l-4.68-9.59c3.49-1.56 6.87-2.73 10.12-3.51s6.52-1.17 9.8-1.17c5.91 0 10.51 1.41 13.79 4.23s4.92 6.79 4.92 11.89v27.33h-12.9v-2.58c-1.72 1.18-3.53 2.03-5.44 2.54s-4.02.77-6.33.77m-3.07-13.46c0 1.34.59 2.39 1.77 3.14s2.82 1.13 4.92 1.13c1.56 0 3.02-.16 4.39-.48q2.055-.48 3.75-1.53v-5.48c-1.24-.32-2.5-.57-3.79-.73s-2.61-.24-3.95-.24c-2.26 0-4.01.36-5.24 1.09-1.24.72-1.85 1.76-1.85 3.1M346.23 124.72V68.28l13.06-2.02v58.45h-13.06ZM46.28 114.07l15.15 8.05v16.11l-15.15-8.05zM61.43 122.12v16.11l15.14-8.05v-16.11z"/><path d="m61.43 122.12 40.39-21.48V84.53l-40.39 21.48z"/><path d="m46.28 97.96 15.15 8.05v16.11l-15.15-8.05z"/><path d="M46.28 81.85v16.11l15.15 8.05V89.9z"/><path d="M76.57 81.85v16.11l-15.14 8.05V89.9z"/><path d="M61.43 73.8v16.1l-15.15-8.05V65.74zM61.43 73.8v16.1l40.39-21.47V52.32z"/><path d="m86.67 44.26 15.15 8.06L61.43 73.8l-15.15-8.06zM101.82 84.53l-15.15-8.05-10.1 5.37v16.11z"/></g></svg>