<svg xmlns="http://www.w3.org/2000/svg" xml:space="preserve" width="2619.092" height="1149.343" style="shape-rendering:geometricPrecision;text-rendering:geometricPrecision;image-rendering:optimizeQuality;fill-rule:evenodd;clip-rule:evenodd" viewBox="0 0 37049.95 16258.73"><path fill="#fff" d="M18510.42 8834.3c2.44-5.23 5-18.85 5.89-16.3l52.01-353.56c98.02-691.38 239.39-1017.84 493.5-1635.56 264.15-642.13 456.51-1123.43 860.54-1704.96 172.7-248.57 355.37-511.62 546.8-735.39 181.64-212.33 627.59-708.64 826.71-870.79 438.34-356.95 648.07-587.39 1211.49-938.6 708.36-441.56 1436.02-804.29 2351.76-1080.84 1596.16-482.04 3012.2-430.35 4648.4-486.09 548.43-18.68 1092.45-51.45 1640.44-77.1 461.95-21.62 2972.08-105.6 3216.04-193.18 848.62-304.66 1749.02-574.9 2685.95-736.66-187.08-19.66-529.2 21.17-732.65 33.44-244.41 14.75-492.01 29.79-736.88 44.81l-4473.49 229.22c-1007.6 40.48-2002.73 84.1-3014.87 112.16-2860.8 79.29-4890.86 704.32-6977.05 2421.78-41.28 33.98-57.9 56.03-99.93 88.12-170.13 129.87-558.24 522.69-694.75 682.7-38.2 44.78-46.43 46.85-93.9 93.88l-609.73 767.42c-199.2 282.45-435.46 621.29-606.72 958.72-87.68 172.76-175.76 342.89-263.77 529.39-55.81 118.26-183.99 478.96-235.79 551.4-52.93-72.73-176.68-426.81-229.47-540.02-88.53-189.88-161.97-335.21-257.89-514.48-187.86-351.1-383.44-660.27-603.19-962.85-229.97-316.64-450.2-595.73-701.06-863.94-829.32-886.7-1567.9-1444.54-2657.9-2038.71-659.85-359.68-1481.87-639.57-2291.11-839.54-1411.31-348.76-2867.88-330.51-4324.46-373.08-501.54-14.65-997.37-48.49-1496.72-70.67-994.34-44.16-1986.33-96.7-2979.44-146.75-496.76-25.03-992.29-54.83-1488.55-83.04C1023.62 59.25 443.02-9.2-.01 1.06l1371.56 328.11C3272.06 835.8 1920.71 745.38 4256.6 859.2l4936.6 198.47c2080.88 71.28 3600.11 461.33 5308.47 1514.32 459.57 283.27 803.37 585.36 1192.49 919.71 87.77 75.42 136.02 128.53 220.66 213.15 75 74.97 138.62 146.69 217.65 216.38 245.49 216.5 771.84 909.09 950.96 1179.82 208.45 315.06 454.9 722.73 615.39 1101.66 83.72 197.65 165.2 391.89 250.2 598.14 210.49 510.74 309.98 703.66 435.51 1280.35 37.48 172.16 79.46 650.85 125.88 753.09zM23195.05 12554.12c-973.14 155.22-1731.13 976.52-1571.49 2132.51 77.17 558.83 391.91 941.26 694.13 1175.37 372.55 288.59 867.97 447.77 1468.5 369.38 965.19-126 1739.73-998.65 1576.7-2135.4-135.21-942.78-1037.23-1722.18-2167.83-1541.86zm124.08 693.9c-555.67 97.45-965.47 649.15-880.59 1323.35 71.97 571.67 577.95 1083.48 1253.48 960.66 535.68-97.4 951.78-654.22 859.95-1322.94-77.4-563.55-565.54-1078.1-1232.84-961.07M8521.12 12554.24c-972.51 143.58-1727.03 986.2-1571.05 2132.44 130.11 956.18 1032.05 1693.8 2161.92 1544.81 970.9-128.03 1734.87-995.1 1577.79-2134.9-131.26-952.46-1038.94-1709.13-2168.66-1542.34zm123.92 693.84c-556.44 98.25-975.78 660.81-877.93 1339.06 81.02 561.54 569.52 1054.8 1233.12 948.22 548.72-88.12 970.45-654.15 878.1-1326.62-77.47-564.03-568.09-1078.11-1233.29-960.65zM12420.09 16212.85l1205.22 1.46c758.66 0 1275.28-171.52 1642.26-580.61 637.56-710.74 678.75-2457.72-723.06-2900.66-521.03-164.64-1534.88-137.26-2124.5-117.04l.09 3596.85zm803.34-709.24c418.97 0 884.23 27.95 1204.12-162.88 605.51-361.2 603.15-1490.14 4.48-1853.83-322.46-195.9-785.75-172.23-1205.94-172.23zM27093.69 16213.36l801.51-2.89 1.95-2230.51c61.67 38.71 189.86 224.08 229.11 279.21 277.66 390.05 746.48 982.26 1057.77 1394.62 70.41 93.27 140.41 182.13 213.18 276.88 78.58 102.33 132.03 187.17 211.01 279.31l804 4.66 3.44-3600.38h-803.48l.03 2299.01-1545.81-2008.57c-64.75-89.76-164.47-201.98-213.08-290.44l-759.7.16.09 3598.94zM32331.56 16141.95l2.81 72.47 2645.65-.04.9-710.81-1845.79.05-.1-746.9 1605.08-.11 6.88-682.57c-432.69-16.62-1149.32-2.45-1611.86-2.32l-.1-741.57h1790.76l1.57-715.89h-2596.2l.4 3527.68zM5389.69 14380.75h-808.64v979.84c-543.19 415.4-1898.88 126.93-1698.76-1173.07 110.47-717.65 791.19-1056.06 1444.89-856.72 270.92 82.62 408.93 250.98 508.69 303.38l411.8-585.52c-131.22-215.84-723.67-456.54-1064.53-499.95-2059.68-262.28-2898.02 2348.34-1364.46 3384.47 701.92 474.24 1756.61 426.31 2407.39-117.58 86.24-72.08 160.81-90.08 164.98-238.04l-1.35-1196.81zM17199.66 13237.28l3.63 72.27 1809.33.36c-320.91 447.84-1260.47 1593.03-1662.66 2086.34-252 309.08-225.3 243.55-210.3 814.42l3008.26 3.34 3.14-699.54-1899.58-.67c46.83-98.15 1466.55-1837.09 1652.03-2071.5 274.01-346.28 216.49-210.56 216.49-828.04h-2920.44l.11 623.02z"/></svg>