<svg xmlns="http://www.w3.org/2000/svg" xml:space="preserve" width="381.785" height="312.07" style="shape-rendering:geometricPrecision;text-rendering:geometricPrecision;image-rendering:optimizeQuality;fill-rule:evenodd;clip-rule:evenodd" viewBox="0 0 9401.02 7684.38"><path fill="#fff" d="M7881.74 1421.23s-.54-19.08 1.11-26.34l142.24-816.45c.82-9.28 8.5-16.48 17.94-16.48 9.39 0 17.12 7.3 17.92 16.48l141.95 816.57c1.57 7.15 1.25 26.41 1.25 26.23v87.27h-.18c0 .64.18 1.27.18 2.04 0 29.06-23.43 52.28-52.21 52.28-.37 0-.6-.18-.6-.18h-216.71l-.68.18c-28.98 0-52.23-23.21-52.23-52.28 0-.95 0-1.62.15-2.44h-.15v-86.87zM6743.92 1386.52h.16c0 .07-.35-23.72 1.44-32.9l177.77-1020.63c1.01-11.54 10.63-20.61 22.34-20.61 12.07 0 21.54 9.07 22.52 20.61l177.52 1020.74c1.94 9.13 1.62 33.08 1.62 32.85v108.9h-.18c0 .9.18 1.68.18 2.62 0 36.04-29.5 65.36-65.52 65.36h-272.36c-36.01 0-65.32-29.32-65.32-65.36v-2.84h-.16v-108.74zM5591.82 1342.71h.15c0 .16-.55-29.73 1.65-40.93l222.4-1276.09C5817.19 11.32 5829.31 0 5843.94 0c14.9 0 26.84 11.54 28.08 25.91l221.82 1276.05c2.47 11.27 1.85 41.09 1.85 40.91v136.2h-.07c0 .99.07 1.96.07 3.02 0 45.07-36.59 81.86-81.7 81.86-.29 0-.57-.18-.88-.18h-338.5c-.19 0-.74.18-.74.18-45.35 0-81.9-36.79-81.9-81.86 0-1.15.09-2.43.14-3.51h-.29v-135.86zM4490.13 1342.71c0 .16-.53-29.73 1.85-40.93L4714.27 25.69C4715.49 11.32 4727.45 0 4742.36 0c14.7 0 26.74 11.54 28.12 25.91l221.65 1276.05c2.46 11.27 1.95 41.09 1.95 40.91v136.2h-.29c0 .99.29 1.96.29 3.02 0 45.07-36.7 81.86-81.86 81.86-.25 0-.6-.18-.89-.18h-338.44l-.72.18c-45.42 0-82.03-36.79-82.03-81.86 0-1.15.06-2.43.06-3.51h-.06v-135.86zM3438.67 1386.11c0 .06-.48-23.76 1.47-32.9L3618.1 332.57c.9-11.56 10.44-20.61 22.27-20.61 11.88 0 21.53 9.06 22.61 20.61l177.27 1020.75c1.84 9.09 1.6 33.08 1.6 32.84v108.91h-.16c0 .87.16 1.67.16 2.62 0 36.03-29.45 65.31-65.37 65.31h-272.37c-36.11 0-65.44-29.29-65.44-65.31 0-.95.11-1.93.22-2.85h-.22V1386.1zM2470.96 1449.87s-.35-15.3.95-21.18l113.85-653.06c.57-7.36 6.78-13.22 14.32-13.22 7.58 0 13.63 5.86 14.2 13.22h.16l113.47 653.36c1.24 5.7 1.02 21.03 1.02 20.87v69.8h-.09c0 .54.09 1.06.09 1.57 0 23.33-18.69 41.92-41.74 41.92l-.64-.2h-173.33l-.58.2c-22.91 0-41.68-18.59-41.68-41.92 0-.62.07-1.28.07-1.79h-.07v-69.59zM8897.28 3310.13c0 .11-.61-29.82 1.81-41.15l222.13-1275.93c1.42-14.46 13.25-25.71 28.16-25.71s26.87 11.44 27.96 25.83l221.81 1275.82c2.47 11.44 1.78 41.27 1.78 41.27v139.13c0 45.19-36.43 81.71-81.47 81.71l-1-.07h-338.45l-.97.07c-45.33 0-81.77-36.52-81.77-81.71v-139.24zM7795.41 3310.13c0 .11-.62-29.82 1.8-41.15l222.34-1275.93c1.46-14.46 13.26-25.71 27.98-25.71 14.77 0 26.85 11.44 28.15 25.83l221.82 1275.82c2.37 11.44 1.97 41.27 1.97 41.27v135.91h-.42c.26.96.42 2.07.42 3.22 0 45.19-36.74 81.71-81.76 81.71l-.97-.07h-338.59c-.34 0-.69.07-.82.07-45.36 0-81.92-36.52-81.92-81.71 0-1.15.15-2.31.15-3.58h-.15v-135.66zM6693.56 3310.13c0 .11-.43-29.82 1.99-41.15l222.12-1275.93c1.24-14.46 13.47-25.71 28.19-25.71 14.57 0 26.64 11.44 27.76 25.83h.22l222 1275.82c2.2 11.44 1.77 41.27 1.77 41.27v135.91h-.21c0 .96.21 2.07.21 3.22 0 45.19-36.78 81.71-81.76 81.71l-.97-.07h-338.6c-.35 0-.71.07-.84.07-45.15 0-81.89-36.52-81.89-81.71 0-1.15.21-2.31.33-3.58h-.33v-135.66zM5591.82 3310.13h.15c0 .11-.55-29.82 1.65-41.15l222.4-1275.93c1.17-14.46 13.29-25.71 27.92-25.71 14.9 0 26.84 11.44 28.08 25.83l221.82 1275.82c2.47 11.44 1.85 41.27 1.85 41.27v135.91h-.07c0 .96.07 2.07.07 3.22 0 45.19-36.59 81.71-81.7 81.71-.29 0-.57-.07-.88-.07h-338.5c-.19 0-.74.07-.74.07-45.35 0-81.9-36.52-81.9-81.71 0-1.15.09-2.31.14-3.58h-.29v-135.66zM4490.13 3310.13c0 .11-.53-29.82 1.85-41.15l222.29-1275.93c1.22-14.46 13.18-25.71 28.09-25.71 14.7 0 26.74 11.44 28.12 25.83l221.65 1275.82c2.46 11.44 1.95 41.27 1.95 41.27v135.91h-.29c0 .96.29 2.07.29 3.22 0 45.19-36.7 81.71-81.86 81.71-.25 0-.6-.07-.89-.07h-338.44l-.72.07c-45.42 0-82.03-36.52-82.03-81.71 0-1.15.06-2.31.06-3.58h-.06v-135.66zM3388.24 3310.13c0 .11-.47-29.82 1.94-41.15l222.35-1275.93c1.28-14.46 13.15-25.71 27.98-25.71 14.7 0 26.78 11.44 27.87 25.83l222 1275.82c2.29 11.44 1.78 41.27 1.78 41.27v135.91h-.11c0 .96.11 2.07.11 3.22 0 45.19-36.64 81.71-81.59 81.71-.44 0-.71-.07-1.11-.07h-338.53l-.9.07c-45.06 0-81.79-36.52-81.79-81.71 0-1.15.19-2.31.37-3.58h-.37v-135.66zM2788.79 2939.31 2628.16 1989c-2.2-13.05-13.06-23.18-26.75-23.18-6.24 0-11.7 2.47-16.34 5.98l-.15-.07-.38.4c-1.63 1.35-3.06 2.75-4.36 4.36l-352.31 352.37c113.85 12.67 202.86 109.46 202.86 226.37 0 126.03-102.42 228.22-228.14 228.22-117.3 0-213.84-88.67-226.53-202.7 0 0-305.91 305.96-311.46 311.53-7.42 7.41-19.04 13.42-27.12 16.55-.17.09-1211.09 406.11-1211.09 406.11-1.44-116.37-96.4-210.68-213-210.68C95.4 3104.26.03 3200.02.03 3317.61c0 113.22 88.1 205.66 199.62 212.73l-.59.64h12.95c.47 0 .92.05 1.39.05.45 0 .87-.05 1.33-.05h2491.32c41.14 0 85.51-30.07 85.51-84.09v-456.05c0-30.25-2.74-51.52-2.74-51.52zM1525.38 4547.69h7218.6v3136.69h-7218.6zm1199.11 1851.89h-117.21c-16.66 0-35.35-1.88-53.89-9.33v301.4h265.98c187.9 0 251.21-107.85 251.21-264.18V5389.32h-318.14v974.91c0 26.02-7.45 35.35-27.96 35.35zm561.72-638.16v930.23h303.29v-930.23zm0-372.1v305.11h303.29v-305.11zm842.86 372.1v-372.1h-303.28v1302.33h303.28v-664.17h79.98c22.38 0 26.09 9.28 26.09 35.35v628.82h303.28v-664.17c0-156.32-61.43-266.06-254.97-266.06h-154.37zm619.26-372.1v1302.33h303.29V5389.32zm1195.63 634.39c0-154.35-65.12-262.29-254.9-262.29h-413.02v282.79c22.37-16.73 63.22-22.32 98.56-22.32h238.19c24.18 0 27.97 7.4 27.97 33.48v42.8h-156.34c-187.88 0-253.07 107.94-253.07 260.49v66.91c0 158.21 67.07 266.07 253.07 266.07h459.55V6023.7zm-377.69 292.14h74.48v117.21h-76.34c-24.21 0-29.73-13.04-29.73-39.06v-40.9c0-24.22 5.52-37.25 31.59-37.25m1072.45 375.8 240.05-930.23h-329.28l-81.85 599.04-85.61-599.04h-344.19L6276 6691.65h362.73zm1012.65-667.94c0-154.35-65.21-262.29-254.98-262.29h-413.03v282.79c22.32-16.73 63.32-22.32 98.65-22.32h238.19c24.18 0 27.96 7.4 27.96 33.48v42.8h-156.33c-187.88 0-253.07 107.94-253.07 260.49v66.91c0 158.21 66.91 266.07 253.07 266.07h459.54V6023.7zm-377.69 292.14h74.48v117.21h-76.37c-24.17 0-29.82-13.04-29.82-39.06v-40.9c0-24.22 5.65-37.25 31.71-37.25"/></svg>