<svg xmlns="http://www.w3.org/2000/svg" xml:space="preserve" width="939.617" height="95.991" style="shape-rendering:geometricPrecision;text-rendering:geometricPrecision;image-rendering:optimizeQuality;fill-rule:evenodd;clip-rule:evenodd" viewBox="0 0 23086 2358.46"><path fill="#fff" d="M7.89 2353.21 0 2022.29c34.14 2.62 34.14 2.62 60.41 2.62 128.71 0 196.97-86.67 196.97-239.01V535.79h383.45v1302.64c0 317.8-210.1 520.02-535.76 520.02-26.26 0-97.17-5.25-97.17-5.25zM656.58 0v370.33H249.5V0zM1407.75 0v370.33h-407.08V0zm-399.19 535.79h386.06v1323.66h-386.06zM1772.83 0h386.05v714.37c81.42-123.43 225.86-199.6 401.83-199.6 299.39 0 493.74 189.1 493.74 483.23v861.44h-383.43v-761.62c0-147.07-91.92-241.63-233.74-241.63-183.85 0-278.4 152.34-278.4 425.45v577.8h-386.05V-.01zM3334.3 1197.61c0-393.95 288.9-682.83 698.61-682.83 404.45 0 698.6 288.88 698.6 682.83s-294.15 682.86-698.6 682.86c-409.7 0-698.61-288.91-698.61-682.86m1011.13 0c0-210.09-126.06-354.54-312.53-354.54-189.1 0-315.16 144.45-315.16 354.54 0 210.12 126.06 354.56 315.16 354.56 186.47 0 312.53-144.45 312.53-354.56M5041.48 535.79h386.05v178.58c76.17-118.18 196.98-199.6 372.95-199.6 204.84 0 333.54 84.04 399.19 236.35 70.91-126.05 231.12-236.35 446.47-236.35 286.28 0 475.37 191.72 475.37 443.85v1399.83h-383.43v-1286.9c0-144.45-78.79-233.73-215.37-233.73-160.2 0-252.12 131.3-252.12 344.04v1176.59h-380.82v-1286.9c0-144.45-78.78-233.73-212.73-233.73-157.58 0-249.51 133.92-249.51 344.04v1176.59h-386.05V535.78zM7434.17 1197.61c0-393.95 288.9-682.83 698.61-682.83 404.45 0 698.6 288.88 698.6 682.83s-294.15 682.86-698.6 682.86c-409.7 0-698.61-288.91-698.61-682.86m1011.13 0c0-210.09-126.07-354.54-312.53-354.54-189.1 0-315.17 144.45-315.17 354.54 0 210.12 126.07 354.56 315.17 354.56 186.46 0 312.53-144.45 312.53-354.56M9866.17 874.59c-173.34 0-338.79 131.32-338.79 506.88v477.99h-386.06V535.8h386.06v228.49c60.42-141.82 231.12-249.5 388.7-249.5 44.64 0 105.05 7.87 141.82 21.01l-23.64 370.3c-44.65-21.01-107.67-31.51-168.09-31.51M11438.04 1074.18v785.26h-372.95v-168.09c-76.16 115.56-225.86 189.1-372.92 189.1-257.38 0-438.6-173.33-438.6-393.94 0-262.66 191.72-404.48 572.54-443.86l238.99-23.64v-7.87c0-131.32-89.29-210.13-231.1-210.13-126.06 0-217.99 76.17-231.12 204.88l-336.17-63.05c42.02-260 283.64-428.08 567.29-428.08 359.79 0 604.05 186.48 604.05 559.41zm-372.95 236.35v-20.98l-246.87 28.89c-131.32 13.11-196.98 78.79-196.98 154.93 0 73.56 57.8 131.33 165.46 131.33 173.35 0 275.77-139.2 278.39-294.17M11654.71 535.79h386.04l267.9 877.18 267.84-877.18h388.7l-480.59 1323.66h-349.28zM13117.46 1483.9l309.88-120.83c31.55 123.46 133.98 225.86 281.01 225.86 102.44 0 170.72-49.88 170.72-123.42 0-207.46-701.2-68.27-701.2-569.9 0-207.5 181.2-380.83 472.7-380.83 270.52 0 493.76 131.32 554.17 323.05l-309.88 128.68c-34.16-120.8-141.85-175.95-231.1-175.95-86.7 0-147.09 36.75-147.09 94.53 0 210.12 711.75 36.79 711.75 572.56 0 228.49-210.12 422.83-520.06 422.83-322.98 0-522.62-196.97-590.89-396.57zM15091.09 1313.16l-144.41 144.48v401.81h-388.7V0h388.7v969.12l441.23-433.33h483.2l-522.62 520 562.04 803.66h-459.59zM17377.47 535.79l-698.63 1801.64h-393.95l210.13-543.63-509.5-1258.01h417.56l283.7 766.88 296.76-766.88h393.94zm-606.69-147.06h-270.51L16652.61 0h438.61zM18992.48 1313.16 18848 1457.64v401.81h-388.69V0H18848v969.12l441.23-433.33h483.27l-522.61 520 562.02 803.66h-459.65zM20712.93 874.59c-173.33 0-338.79 131.32-338.79 506.88v477.99h-386.08V535.8h386.08v228.49c60.4-141.82 231.1-249.5 388.69-249.5 44.67 0 105.06 7.87 141.86 21.01l-23.68 370.3c-44.59-21.01-107.68-31.51-168.08-31.51M22219.29 1074.18v785.26h-372.96v-168.09c-76.15 115.56-225.87 189.1-372.89 189.1-257.4 0-438.61-173.33-438.61-393.94 0-262.66 191.7-404.48 572.53-443.86l238.98-23.64v-7.87c0-131.32-89.26-210.13-231.11-210.13-126.04 0-217.99 76.17-231.1 204.88l-336.17-63.05c42.04-260 283.64-428.08 567.27-428.08 359.85 0 604.07 186.48 604.07 559.41zm-372.96 236.35v-20.98l-246.84 28.89c-131.3 13.11-197.01 78.79-197.01 154.93 0 73.56 57.78 131.33 165.46 131.33 173.33 0 275.77-139.2 278.39-294.17M22437.28 2353.21l-7.87-330.92c34.16 2.62 34.16 2.62 60.4 2.62 128.74 0 197.01-86.67 197.01-239.01V535.79h383.45v1302.64c0 317.8-210.12 520.02-535.79 520.02-26.23 0-97.19-5.25-97.19-5.25zM23086 0v370.33h-407.06V0z"/></svg>