<svg xmlns="http://www.w3.org/2000/svg" viewBox="0 0 646.33 97.72"><path fill="#FFFFFF" d="M617.56,52.21h1.36c1.67,0,8,14.86,12.14,21.86.52,1,.94,1.16,1.36,1.16h12.66c.52,0,1.25-.21,1.25-1.68a2.17,2.17,0,0,0-.73-1.78C643,69.37,631.68,49,629,47.29c2.62-1.25,11.3-15.48,15.49-21a1.28,1.28,0,0,0,.31-.94c0-.52-.21-.84-.42-.84H632.1a1.51,1.51,0,0,0-1.25.84c-4.5,7.11-10.68,18.31-11.93,18.31h-1.36a94.18,94.18,0,0,0,.63-11.09V2.41c0-.53-.42-1-.74-1h-11c-.42,0-.73.52-.73,1.05V74.28c0,.42.31,1,.73,1h11c.32,0,.74-.53.74-1V66.75c0-5.65-.21-9.52-.63-14.54M603.85,2.72c.42-.52.21-1.36-.41-1.36h-8.9a2.42,2.42,0,0,0-1.67,1.26l-9.42,14.85c-.31.63-.21,1.05.53,1.05h5.75a1.94,1.94,0,0,0,1.46-.94Zm-7.74,22.81c0-.52-.42-1.05-.73-1.05h-11c-.41,0-.73.53-.73,1.05V74.28c0,.42.32,1,.73,1h11c.31,0,.73-.53.73-1ZM545.89,36.1a82,82,0,0,0-.62-10.68c0-.41-.32-.94-.74-.94h-9.1c-.31,0-.63.53-.63.94a91.44,91.44,0,0,1,.74,11.41V74.28a1,1,0,0,0,.83,1h10.88c.32,0,.63-.53.63-1V47.5c0-8.89,4-13.71,8.58-13.71,3.77,0,5.65,2.93,5.65,10.47v30c0,.42.31,1,.73,1h10.88c.32,0,.74-.53.74-1V40.18c0-11.93-5.76-17.58-12.77-17.58s-13.29,5.13-15.8,13.5m-27.3,4.39H504c.95-5.23,3.77-8.89,8.06-8.89s6.49,3.55,6.49,8.89m-7,36.1c6.8,0,11.3-2.41,13.18-4.61a3,3,0,0,0,.84-2.51V61.94c0-.84-.42-1.36-.94-1.36-.32,0-.63.21-1,.63A13,13,0,0,1,514,65.29c-6.9,0-10.77-6.07-10.77-13.29a28.8,28.8,0,0,1,.21-3.66H525.7c2.09,0,3.14-1.47,3.14-4.29,0-11.3-4-21.45-16.63-21.45-13.4,0-21,13.7-21,27.2,0,14.65,7.11,26.79,20.4,26.79M471.09,54c0,8-2.72,12.55-7.22,12.55-5.54,0-8.79-4.81-8.79-17.26,0-10.88,2.83-16.85,8.69-16.85,5.23,0,7.32,4.61,7.32,11.2Zm13.08,20.29a111.41,111.41,0,0,1-.84-13.07V2.41c0-.53-.31-1-.73-1H471.72c-.32,0-.73.52-.73,1.05,0,9.94.1,20.82.62,30-1.25-5.33-5.44-9.83-12-9.83-11.19,0-17.47,12.45-17.47,26.57,0,14.44,6.59,27.42,17.68,27.42,5.75,0,10.67-3.77,13-11.09a60.27,60.27,0,0,0,.53,8.78c.1.42.42,1,.73,1h9.31a.86.86,0,0,0,.84-1M433.74,2.72c.42-.52.21-1.36-.42-1.36h-8.89a2.46,2.46,0,0,0-1.68,1.26l-9.41,14.85c-.32.63-.21,1.05.52,1.05h5.76a2,2,0,0,0,1.46-.94Zm-27.2,95c8,0,13.7-4.29,18.2-19.67L440,25.84c.21-.83,0-1.36-.53-1.36H428.4c-.52,0-.73.32-.83.84L421.39,51a154.33,154.33,0,0,0-2.72,15.8c-.73-5.75-1.88-11.82-2.82-15.8l-6-25.63c-.21-.52-.42-.84-.84-.84H397.54c-.73,0-.94.42-.63,1.36L412,76.59c-1.36,7.74-4.29,10-7.12,10a6,6,0,0,1-4.29-1.57c-.52-.21-.62-.42-1-.42s-1,.32-1,1.47v8c0,1.57.32,2.09,1,2.4a15.8,15.8,0,0,0,7,1.26m-37.35-69c-.73.42-.84,1.15-.84,3,0,2.09.21,3,.94,3a31.48,31.48,0,0,0,4.92-.42c-.31,3.24-.52,6.8-.52,11.92v11.3c0,12.56,5.75,18.84,14.44,18.84a25.44,25.44,0,0,0,6.48-.95,1,1,0,0,0,.63-1V65.08c0-.74-.42-1-1.05-.74a5.17,5.17,0,0,1-3.14,1c-3.66,0-5-2-5-7.43V46.45c0-5.54-.1-8.79-.42-12.13a88.27,88.27,0,0,0,9.11.42c.41,0,.52-.32.52-.84V25.42c0-.62-.21-.94-.52-.94a77,77,0,0,0-9.11.42,75.73,75.73,0,0,0,.74-9.73V11.4c0-.83-.32-1.36-1.26-1.36a1.22,1.22,0,0,0-1.25,1c-4.19,8.37-9.63,14.22-14.65,17.68m-33-25.95c.42-.52.21-1.36-.42-1.36h-8.89a2.44,2.44,0,0,0-1.68,1.26l-9.41,14.85c-.32.63-.21,1.05.52,1.05H322a2,2,0,0,0,1.47-.94Zm-27.2,95c8.05,0,13.7-4.29,18.2-19.67l15.28-52.21c.21-.83,0-1.36-.53-1.36H330.81c-.52,0-.73.32-.83.84L323.8,51a154.33,154.33,0,0,0-2.72,15.8c-.73-5.75-1.88-11.82-2.82-15.8l-6-25.63c-.21-.52-.41-.84-.83-.84H300c-.73,0-.94.42-.63,1.36l15.07,50.75c-1.36,7.74-4.29,10-7.12,10A6,6,0,0,1,303,85.06c-.52-.21-.62-.42-1-.42s-1.05.32-1.05,1.47v8c0,1.57.31,2.09,1.05,2.4a15.8,15.8,0,0,0,7,1.26M271,52.21h1.36c1.67,0,7.95,14.86,12.13,21.86.53,1,1,1.16,1.36,1.16h12.67c.52,0,1.25-.21,1.25-1.68a2.17,2.17,0,0,0-.73-1.78c-2.62-2.4-13.92-22.81-16.64-24.48,2.62-1.25,11.3-15.48,15.49-21a1.28,1.28,0,0,0,.31-.94c0-.52-.21-.84-.42-.84H285.51a1.51,1.51,0,0,0-1.25.84c-4.5,7.11-10.68,18.31-11.93,18.31H271a94.18,94.18,0,0,0,.63-11.09V2.41c0-.53-.42-1-.74-1h-11c-.42,0-.73.52-.73,1.05V74.28c0,.42.31,1,.73,1h11c.32,0,.74-.53.74-1V66.75c0-5.65-.21-9.52-.63-14.54M248.79,37.66c2.51,0,4.71-2.51,4.71-6.27A7.22,7.22,0,0,0,251,26c-2.2-2.1-4.82-3.35-9.32-3.35-15.06,0-22.91,14.23-22.91,27.62,0,14.44,7.64,26.37,21.45,26.37,5.44,0,8.79-1.89,11-4.4a2.71,2.71,0,0,0,.94-2.51v-7c0-.94-.21-1.46-.84-1.46a1.41,1.41,0,0,0-.94.52,10.5,10.5,0,0,1-8.58,3.87C236.55,65.6,231,60.68,231,50c0-8.27,3.35-15.8,9.94-15.8a7.8,7.8,0,0,1,5,2.09,3.5,3.5,0,0,0,2.83,1.36M205.16,0c-3.77,0-6.9,3.66-6.9,8.06s3.13,7.53,6.9,7.53,6.91-3.14,6.91-7.53S209,0,205.16,0m6.17,25.53c0-.52-.31-1.05-.73-1.05H199.72a1,1,0,0,0-.84,1.05V74.28a1,1,0,0,0,.84,1H210.6c.42,0,.73-.53.73-1ZM189.26,2.41c0-.53-.42-1-.73-1h-11c-.42,0-.73.52-.73,1.05V74.28c0,.42.31,1,.73,1h11c.31,0,.73-.53.73-1Zm-41,64.13c-6,0-8.16-6.59-8.16-17,0-10,2-16.53,8.16-16.53,6,0,8.16,6.28,8.16,16.53s-2.2,17-8.16,17m0-43.94c-14.34,0-21.14,13.39-21.14,26.78s6.8,27.21,21.14,27.21,21-13.71,21-27.21-6.59-26.78-21-26.78m-49.8,6.07c-.73.42-.84,1.15-.84,3,0,2.09.21,3,.94,3a31.48,31.48,0,0,0,4.92-.42c-.31,3.24-.52,6.8-.52,11.92v11.3c0,12.56,5.75,18.84,14.44,18.84a25.44,25.44,0,0,0,6.48-.95,1,1,0,0,0,.63-1V65.08c0-.74-.42-1-1-.74a5.17,5.17,0,0,1-3.14,1c-3.66,0-5-2-5-7.43V46.45c0-5.54-.1-8.79-.42-12.13a88.27,88.27,0,0,0,9.11.42c.41,0,.52-.32.52-.84V25.42c0-.62-.21-.94-.52-.94a77,77,0,0,0-9.11.42,75.73,75.73,0,0,0,.74-9.73V11.4c0-.83-.32-1.36-1.26-1.36a1.23,1.23,0,0,0-1.25,1c-4.19,8.37-9.63,14.22-14.65,17.68M58,33.79c0,3.77,2.51,5.65,5.23,5.65,2.3,0,3.35-1.46,4.29-3.14a6.58,6.58,0,0,1,6.38-3.66c4.19,0,5.86,2.83,5.86,6.91v3.24C65.18,44.26,56.5,52.42,56.5,63.3c0,8,4.49,13.29,11.5,13.29,7.75,0,12.56-4.71,14.44-12.87A31.47,31.47,0,0,0,84.22,73c.63,1.57,1,2.2,2.62,2.2H93A1.19,1.19,0,0,0,94.16,74a2.25,2.25,0,0,0-.73-1.67c-.94-1.26-2.09-5.76-2.09-12.56,0-5.54.41-14,.41-20.61,0-9.52-3.66-16.53-16.94-16.53C61.83,22.6,58,29.5,58,33.79m9.73,27.1c0-5.12,3.35-9.62,12-10.67v4.29c0,6.28-2.93,12-7.64,12-2.61,0-4.39-1.88-4.39-5.65m-53-6.17c0-4.92-.11-10.15-.32-13.5h1.89c1.46,0,5,4.82,10.15,14,3.55,6.38,7.84,13.6,11.61,19.15a2.21,2.21,0,0,0,1.25.84H55c.53,0,.95-.53.95-1.78a2.12,2.12,0,0,0-.53-1.57C53.15,70.1,46,59.74,40,50.22c-5-7.95-9.42-14.33-11.09-15.28,1.67-1.36,5.44-6.59,9.31-12.34,7.43-11.09,12-17.47,13.7-18.83.21-.21.21-.74.21-1.26s-.21-1.15-.62-1.15H36.83c-.52,0-.84.31-1.26.84-3.14,4.81-7,11.19-9.83,16.11C20.82,27.1,17.47,31.7,16.22,31.7H14.44c.1-3,.21-7.53.21-11.93V2.41c0-.53-.42-1-.73-1H.73C.31,1.36,0,1.88,0,2.41V74.28c0,.42.31,1,.73,1H13.92c.31,0,.73-.53.73-1Z"/></svg>