<svg xmlns="http://www.w3.org/2000/svg" xml:space="preserve" width="2183.652" height="633.774" style="shape-rendering:geometricPrecision;text-rendering:geometricPrecision;image-rendering:optimizeQuality;fill-rule:evenodd;clip-rule:evenodd" viewBox="0 0 57910.59 16807.74"><path fill="#fff" d="M13911.95 12016.6h-2816.5V3430.67h2816.5v1430.99c642.17-907.69 1646.93-1523.28 2882.2-1523.28v2785.13h-774.03c-1334.14 0-2108.17 430.75-2108.17 1907.92v3985.16zM18144.67 1610.23c0-764.31 568.73-1367.27 1415.14-1367.27 832.45 0 1401.36 602.96 1401.36 1367.27 0 749.78-568.91 1352.49-1401.36 1352.49-846.41 0-1415.14-602.71-1415.14-1352.49M18144.68 3430.68h2816.5v8585.92h-2816.5zM26495.09 12139.81c-2454.16 0-4101.1-1277.31-4232.7-2939.02h2783.3c65.94 600.13 642.42 1000.19 1416.45 1000.19 724.71 0 1103.42-307.77 1103.42-692.41 0-1384.84-5006.75-384.62-5006.75-3538.95 0-1461.89 1333.93-2661.91 3738.73-2661.91 2371.67 0 3689.22 1230.92 3870.37 2923.57h-2602.36c-82.28-584.88-559.89-969.54-1350.51-969.54-658.79 0-1021.13 246.21-1021.13 661.73 0 1369.39 4974 400.1 5023.32 3600.54 0 1492.37-1416.42 2615.8-3722.15 2615.8zM32333.53 5615.69h-1119.79V3430.68h1119.79V1338.17h2816.5v2092.51h1844.74v2185.01h-1844.74v3446.65c0 507.84 230.52 723.11 856.32 723.11h1004.75v2231.15h-1432.79c-1910.65 0-3244.78-754.03-3244.78-2984.96V5615.68zM45036.27 3430.68h3046.81l-6048.14 13352.54H39004.3l2391.86-5058.94-3738.51-8293.6h3145.66l2124.79 5370z"/><path fill="#fff" d="M45949.99 0v2046.56l-3969.24 1553.98v-1815.6zM55110.67 7354.47c0-1169.57-691.74-1815.6-1762.41-1815.6-1070.45 0-1762.2 646.02-1762.2 1815.6v4662.12h-2816.51V3430.66h2816.51v1138.66c559.88-723.11 1548.06-1230.96 2783.33-1230.96 2124.76 0 3541.21 1354.15 3541.21 3662.15v5016.08h-2799.93zM841.54 16807.72c-488.75 0-834.5-272.55-841.54-674h338.72c20.9 202.54 164.1 405.08 502.82 405.08 307.35 0 488.75-174.58 488.75-405.08 0-656.29-1316.21-237.34-1316.21-1141.61 0-401.69 324.65-674.03 806.57-674.03 464.38 0 768.09 255.05 806.53 625.14H1278c-20.9-164.11-174.57-349.15-471.46-352.79-261.66-6.83-467.81 129.35-467.81 391.22 0 628.31 1312.78 237.3 1312.78 1138.21 0 345.5-282.81 687.86-809.96 687.86zM2873.56 14349.69v2175h852v258.48H2555.99v-2433.48zM4493.91 14349.69h317.78v1539.65c0 446.92 240.73 638.99 600.38 638.99 359.61 0 597.16-192.07 597.16-638.99v-1539.65h317.78v1536.26c0 631.92-415.52 921.77-918.37 921.77-502.82 0-914.73-289.84-914.73-921.77zM8453.16 13654.77v251.42l-481.92 286.2-485.31-286.2v-251.42l485.31 296.88zm289.85 946.09-1180.26 1906.55h1187.29v275.74H7185.85v-251.42l1180-1906.3H7199.72v-275.74h1543.29v251.16zM10488.83 15662.47h-551.72v858.82h562.19c314.39 0 502.82-157.07 502.82-422.37 0-268.92-202.54-436.45-513.28-436.45zm-24.33-1051.16h-527.4v789.28h534.22c296.88 0 468.06-146.6 468.06-394.62 0-240.98-164.14-394.66-474.89-394.66zm62.73 2171.86h-907.69v-2433.49h872.93c513.07 0 771.53 279.14 771.53 617.85 0 307.36-192.08 485.36-425.98 562.19 265.27 45.45 481.92 300.28 481.92 600.56 0 366.68-289.84 652.89-792.71 652.89M11993.69 14349.69h352.58l600.59 1232.29 600.59-1232.29h352.54l-792.67 1515.11v918.37h-317.57v-918.37zM16826.32 15505.17c363.04 0 516.71-170.94 516.71-443.28 0-282.77-153.68-450.55-516.71-450.55h-468.07v893.83zm0 261.87h-468.07v1016.12h-317.57v-2433.44h785.64c572.4 0 841.32 314.13 841.32 712.18 0 370.08-237.33 705.15-841.32 705.15zM19284.34 14611.33h-468.06v921.81h468.06c359.61 0 516.71-195.51 516.71-467.85 0-275.74-153.67-453.96-516.71-453.96m0-261.66c572.41 0 844.97 317.57 844.97 715.62 0 310.74-171.18 607.62-579.7 698.33l611.06 1019.53h-380.55l-579.66-994.96h-384.18v994.96h-317.57v-2433.48zM22161.32 16531.75c513.28 0 897.48-373.47 897.48-967.02 0-597.17-384.19-967.24-897.48-967.24-513.28 0-897.23 370.07-897.23 967.24 0 593.55 383.94 967.02 897.23 967.02m0 275.99c-684.25 0-1222.08-513.33-1222.08-1243.01 0-729.94 537.83-1242.98 1222.08-1242.98 687.86 0 1222.08 513.04 1222.08 1242.98 0 729.69-534.22 1243.01-1222.08 1243.01M26766.85 13654.77v251.42l-481.92 286.2-485.32-286.2v-251.42l485.32 296.88zm289.84 946.09-1180.25 1906.55h1187.28v275.74h-1564.18v-251.42l1180-1906.3H25513.4v-275.74h1543.29v251.16zM27933.03 14349.71h317.57v2433.47h-317.57zM30904.32 14349.69h335.29l-918.37 2433.48h-366.65l-918.16-2433.48h338.71l764.49 2098.16zM33128.44 16531.75c513.28 0 897.47-373.47 897.47-967.02 0-597.17-384.18-967.24-897.47-967.24s-897.23 370.07-897.23 967.24c0 593.55 383.93 967.02 897.23 967.02m0 275.99c-684.25 0-1222.08-513.33-1222.08-1243.01 0-729.94 537.83-1242.98 1222.08-1242.98 687.85 0 1222.07 513.04 1222.07 1242.98 0 729.69-534.22 1243.01-1222.07 1243.01M35055.9 14349.69H36704v258.24h-663.36v2175.24h-317.78v-2175.24h-666.96zM817.69 1785.08c172.45 244.06 312.13 507.17 426.02 784.29 206.22 501.8 325.77 1023.25 366.78 1563.48.68 8.88.53 18.1 3.12 26.41 1.62 5.09 7.75 8.74 11.85 13.05 2.62-3.54 6.22-6.72 7.71-10.67 5.48-14.57 10.5-29.32 15.24-44.13 61.21-190.76 121.5-381.82 184.09-572.12 13.68-41.66 16.76-80.34 5.76-123.41-101.14-396.17-211.35-789.42-353.14-1173.53-110.33-298.9-230.3-593.41-388.18-870.39-31.4-55.06-64.92-108.91-97.88-163.08H410.42c134.26 191.08 272.48 379.34 407.28 570.11zM1496.46 5280.92c7.5-3.5 16.9-5.19 22.13-10.82 25.67-27.65 50.18-56.37 75.18-84.69C1886.2 4853.84 2216 4563.74 2580 4314.03c88.3-60.61 179.14-115.99 270.58-170.05v-412.55c-200.67 126.65-396.24 261.03-586.45 403.64-174.16 130.54-345.04 265.41-517.89 397.73-34.58 26.48-57.7 57.28-69.94 100.96-54.03 192.89-111.49 384.83-167.68 577.11-4.35 14.95-9.44 29.77-12.59 44.97-1.62 7.99.18 16.69.43 25.07zM346.74 2736.09c187.02 247.59 339.38 515.72 468.13 798.47 186.24 408.97 315.98 834.7 395.78 1276.07 22.53 124.5 36.82 250.45 55.63 375.66 1.44 9.79 8.76 18.7 13.33 28.01 5.97-8.45 14.45-16.05 17.46-25.42 69.34-213.86 138.54-427.76 206.15-642.17 5.48-17.4 3.65-39.92-2.11-57.67-90.67-278.82-175.85-559.64-276.16-834.96-86.67-237.93-185.36-471.91-288.68-703.2-120.83-270.33-257.78-533.02-426.09-777.71-146.07-212.41-299.22-420.12-440.66-635.5-12.27-18.66-23.44-37.94-35.46-56.75v854.06c105.05 133.09 210.53 265.87 312.69 401.12zM1905.46 2602.43c18.53 145.3 26.95 291.86 39.75 437.87 1.16 13.26-.21 26.83 1.73 39.91 1.83 12.38 6.51 24.37 9.89 36.49 6.33-10.14 14.92-19.52 18.6-30.51 17.57-52.79 33.84-106.05 50.6-159.09 38.86-123.13 74.29-247.49 117.89-368.91 27.4-76.31 29.95-149.22 13.86-227.83-76.77-375.76-163.08-748.88-277.16-1115.4h-387.9c37.28 76.31 75.07 152.29 107.88 231.08 154.81 371.68 254.03 757.8 304.84 1156.38zM1377.23 5658.7c-65.84 212.62-128.64 426.2-191.91 639.6-3.67 12.37-3.57 25.88-5.23 38.86 12.03-7.93 26.24-13.79 35.71-24.02 217.97-234.93 451.94-452.18 704.94-649.17 233.76-182.03 479.49-345.18 738.07-490.2 62.95-35.28 127.62-65.83 191.77-97.84v-405.89c-97.53 51.37-194.34 103.95-288.82 160.39-240.35 143.52-473.12 299.96-706 455.5-145.9 97.46-286.63 202.69-428.07 306.61-21.64 15.91-42.68 41.09-50.46 66.15z"/><path fill="#fff" d="M6410.14 1585.1c-82.99 121.78-177.93 232.35-279.91 336.13L5000.58 3310.35c31.82-12.66 64.36-23.23 96.07-36.21 288.86-118.02 570.71-249.99 842.31-403.07 279.52-157.53 546.28-333.66 775.91-560.74 7.26-7.19 16.66-12.24 25.08-18.25-1.45 10.39-.6 21.78-4.71 31.01-67.36 151.66-161.31 286.6-266.93 413.32-203.32 243.99-442.04 448.58-702.25 629.77-280.5 195.32-578.17 359.47-891.03 495.64-155.16 67.57-313.15 127.83-472.59 184.05l-531.5 653.56c30.52-7.89 60.4-17.4 91.09-24.83 395.22-95.71 782.59-218.98 1164.4-359.86 410.11-151.3 807.03-330.02 1183.65-552.19 189.81-111.95 369.23-239.14 532.6-387.93 10.32-9.4 23.33-15.88 35.11-23.73-4.21 14.46-6.36 29.99-13.01 43.28-78.32 156.29-183.49 294.02-299.68 423.27-192.58 214.21-413.25 395.78-650.73 558.19-328.49 224.64-680.47 403.42-1048.32 553.46-342.4 139.68-696.42 241.36-1053.13 335.78-186.17 49.25-369.19 108.62-547.84 179.59l-414.48 509.72V5630.6c-206.12 97-411.67 195.36-610.39 305.8-285.49 158.62-559.43 338.08-837.47 510-86.95 53.75-170.12 113.53-256.43 168.35-50.82 32.28-83.73 72.1-100.53 132.81-53.28 193.07-112.69 384.47-169.73 576.51-3.78 12.76-8.38 25.42-10.86 38.47-1.48 7.78.49 16.2.88 24.33 7.64-3.78 16.83-5.97 22.63-11.64 65.1-63.61 128.39-129.09 194.65-191.47 282.11-265.77 586.63-502.51 912.75-712.48 255.26-164.35 521.7-306.78 799.49-428 351.69-153.43 719.69-253.78 1094.26-334.4 460.63-99.15 914.2-225.31 1359.95-378.67 349.6-120.26 690.51-262.05 1018.55-432.39 256.78-133.34 504.72-282.1 721.31-477.22 7.67-6.93 18.88-9.93 28.43-14.74-2.69 10.39-3.57 21.75-8.38 31.08-88.58 171.57-209.86 319.12-342.78 457.13-232.67 241.48-499.6 439.24-784.26 615.65-262.12 162.42-538.28 295.93-822.54 412.34-385.15 157.78-782.91 277.44-1189.44 366.79-382.92 84.19-754.1 203.74-1117.35 351.41-448.54 182.31-875.44 407.35-1295.28 645.99-226.13 128.53-444.87 270.18-665.83 407.63-18.66 11.6-36.06 34.12-42.5 55.13-65.91 214.91-129.56 430.54-193.46 646.09-3.68 12.41-3.68 25.92-5.37 38.9 12.17-7.47 25.67-13.37 36.31-22.6 186.24-161.28 366.19-330.54 559.47-482.87 355.47-280.26 739.23-516.5 1148.35-712.65 499.28-239.39 1025.41-385.28 1568.11-483.83 544.73-98.91 1079.75-239.22 1604.68-415.38 110.58-37.1 220.19-76.52 329-117.85l4218.24-4983.86H6704.58l-277.09 340.69c-6.11 9.58-10.97 20.01-17.36 29.42zM2292.38 1977.9c1.09 15.49-.42 31.22 1.27 46.61.85 7.6 6.26 14.74 9.62 22.09 3.46-5.47 7.95-10.56 10.25-16.51 4.84-12.41 8.59-25.25 12.69-37.94 57.39-177.97 115.91-355.59 171.18-534.19 10.08-32.57 13.12-70.01 8.98-103.88-5.69-46.5-12.87-92.72-19.02-139.1h-261.52c5.05 33.1 12.27 65.66 16.51 98.97 28.19 219.87 34.23 442.53 50.04 663.96zM2297.3 2556.14c-58.28 184.65-111.99 370.75-166.73 556.5-5.4 18.32-6.75 37.84-10 56.75 13.79-12.94 29.81-24.22 40.95-39.14 183.91-246.39 388.43-474.21 614.45-682.42 24.19-22.27 50.04-42.08 74.61-63.79v-399.71c-12.59 11.43-26.27 21.5-38.79 33.03-151.94 139.82-301.55 282.25-448.9 426.87-29.95 29.38-52.83 71.46-65.59 111.91M1991.72 3568.82c-62.27 202.08-122.13 404.9-182.14 607.65-4.81 16.17-5.19 33.63-7.6 50.5 12.8-11.11 27.71-20.54 38.05-33.59 170.01-214.74 358.15-412.44 560.64-596.6 143.38-130.4 293.97-250.45 449.92-362.54v-402.09c-32 23.74-65.2 45.9-96.82 70.08-246.6 188.76-479.49 395.47-717 595.97-20.51 17.32-37.06 44.69-45.04 70.61zM2436.77 2073.77c-.77 5.27 2.98 11.25 4.64 16.87 5.02-3.57 10.96-6.36 14.81-10.93 7.14-8.45 13.15-17.86 19.42-27.05 115.02-168.31 240.9-326.52 374.92-477.11v-360.57h-10.94c-60.04 63.9-120.04 127.86-180.47 191.37-20.55 21.57-37.06 50.57-45.9 79.06-57.39 184.94-112.16 370.68-167.75 556.21-3.19 10.64-7.11 21.22-8.74 32.14zM5393.2 7457.22c240.28-81.22 475.74-174.19 704.84-281.35l-392.25-465.2c-110.64 56.37-223.02 109.84-337.52 159.79-559.18 244.2-1144.17 397.98-1741.12 513.75-186.59 36.17-370.01 83.95-551.44 138.79l331.25 406.47c200.71-35.5 401.62-70.15 601.76-108.94 469.22-90.91 931.6-210.15 1384.48-363.3zM2699.9 9809.14c-344.15 47.77-678.17 140.06-1007.9 247.8-574.64 187.73-1120.39 441.62-1657.93 714.27v1245.39h2816.5V9786.44c-50.21 7.67-100.28 15.7-150.67 22.7M6274.21 7384.82c-246.64 198.09-516.36 362.97-801.73 505.41-524.81 261.94-1076.57 435.35-1644.52 555.89l425.77 522.48c48.96-12.9 98.19-24.54 147.02-38.12 472.52-131.43 932.62-295.54 1358.53-543.63 78.6-45.76 152.33-99.89 228.64-149.61 8.56-5.55 19.42-7.6 29.21-11.28-2.8 9.9-3.47 21.11-8.67 29.49-83.94 135.11-191.76 249.82-307.6 357.56-294.48 274.01-633.33 479.59-996.44 648.4-51.84 24.08-104.31 45.83-156.61 68.07l2189.71 2687.12h3442.09L6274.2 7384.82zM161.73 8625.07c-43-85.37-85.22-171.15-127.66-256.79v772.37c44.59-137.87 88.94-275.81 134.44-413.36 12.13-36.6 10.36-68.14-6.79-102.22zM1291.38 9689.73c495-235.57 1016.36-376.84 1559.2-448.44v-596.2c-303.18 77.89-600.91 174.96-894.18 288.36-599.14 231.57-1170.78 519.9-1732.71 829.01-64.92 35.71-102.69 80.49-122.67 153.15-21.15 76.88-44.09 153.26-66.94 229.63v350.42c19.52-16.41 38.96-32.96 58.73-49.08 368.67-301.12 769.09-552.47 1198.57-756.84zM933.63 6254.21c1.17 2.69 18.71 3.08 20.62-.25 6.65-11.28 9.93-24.61 14-37.27 64.82-201.31 130.86-402.23 192.86-604.38 9.61-31.4 9.44-71.61-1.2-102.54-148.45-431.18-310.53-857.21-504.74-1270.07-178.29-378.95-382.31-741.79-621.1-1083.57v731.13c161.14 234.13 302.75 480.97 422.48 742.18 233.23 508.69 388.11 1039.62 470.54 1592.44 1.62 10.97 2.27 22.46 6.54 32.33M828.74 9021.6c262.9-203.04 547.55-373.16 842.24-525.8 376.95-195.22 769.47-348.69 1179.59-451.62v-449.36c-73.83 25-147.49 50.78-220.79 77.75-504.3 185.85-987.82 416.41-1459.56 672.12-221.03 119.84-437.12 248.69-656.29 372-45.4 25.56-72.45 58.87-87.16 110.25-58.77 205.41-121.95 409.58-182.6 614.45-5.12 17.3-3.78 36.49-5.41 54.78 14.25-9.54 29.39-18.07 42.65-28.89 182.35-148.69 361.2-301.9 547.33-445.68M277.25 8350.71c10.56-22.8 23.61-44.76 31.36-68.49 63.44-194.73 125.14-389.99 189.28-584.47 13.26-40.09 12.98-73.76-4.14-114.29-140.84-334.15-295.22-661.9-459.68-984.7v875.27c90.87 263.99 167.15 532.77 223.41 807.77 4.77 23.33 13.11 45.97 19.77 68.91M599.37 7282.62c3.08 6.93 10.32 11.99 15.7 17.85 4-5.05 9.3-9.54 11.67-15.24 5.13-12.31 8.91-25.18 12.98-37.87 63.3-197.1 125.25-394.66 190.84-590.98 14.63-43.74 11.6-82.32-5.13-122.27-103-246.14-200.39-494.83-310.99-737.51-117.11-257-241.79-510.85-372.17-761.37-34.12-65.56-71.96-128.57-108.2-192.65v724.08c25.96 51.83 53.32 102.79 77.83 155.54C339.55 6213 499.16 6724.52 594.81 7256.51c1.55 8.74 1.09 18.28 4.56 26.1z"/></svg>