<svg xmlns="http://www.w3.org/2000/svg" xml:space="preserve" width="912.386" height="262.627" style="shape-rendering:geometricPrecision;text-rendering:geometricPrecision;image-rendering:optimizeQuality;fill-rule:evenodd;clip-rule:evenodd" viewBox="0 0 24150.46 6951.62"><path fill="#fff" d="M15424.52 5313.47h431.76v-2034.1l-431.76-.78zm-1389.16-1104.35c-87.11-137.71-400.72-596.51-816.79-813.78v-1.69c-8.25-4.31-16.94-7.59-25.26-11.75-16.74-8.19-33.39-15.89-50.4-23.26-21.64-9.42-43.59-17.75-65.75-25.69-16.28-5.82-32.5-11.75-48.99-16.7-25.37-7.58-51.14-13.27-76.9-18.67-14.05-2.86-27.77-6.6-41.93-8.78-40.34-6.28-81.13-10.2-122.53-10.2h-.07l.07.04v2034.84h431.76V3893.54c357.34 296.57 693.57 814.88 817.28 1235.6 18.78 64.06 33.14 125.99 41.47 184.34h389.89V3278.6h-431.84v930.53zm3465.99-579.16h195.24v1675.41h385.53V3265.25h-581.09l.31 364.71zm6544.37 745.49c-69.81-91.97-166.73-156.49-290.5-193.47 94.27-46.24 166.16-106.81 215.57-181.65 49.52-74.97 74.26-157.69 74.26-248.3 0-146.08-56.61-272.28-169.9-378.62-113.33-106.3-253.65-159.52-420.94-159.52-187.79 0-343.47 63.84-467.38 191.42-88.73 91.55-142.83 212.65-162.28 363.34h373.01c16.7-53.61 47.58-97.3 93.03-131.04 45.25-33.75 95.61-50.61 151.09-50.61 62.93 0 113.71 18.28 152.63 54.77 38.79 36.57 58.2 82.5 58.2 137.99 0 42.6-12.68 82.73-38.23 120.67-25.37 37.9-60.99 67.69-106.66 89.46-45.81 21.71-115.37 36.29-208.79 43.66v332.86c151.65 1.85 267.73 34.72 348.16 98.45 80.47 63.81 120.63 142.01 120.63 234.38 0 84.22-29.82 155.43-89.43 213.64-59.62 58.22-134.82 87.37-225.39 87.37-86.92 0-158.82-25.69-215.67-77-56.85-51.27-93.56-129.66-110.26-235.02h-384.19c12.01 206.15 80.43 369.18 205.23 488.85 124.86 119.75 286.19 179.61 484.08 179.61 208.94 0 380.88-63.53 515.88-190.69 135.1-127.12 202.58-282.2 202.58-465.37 0-124.79-34.9-233.22-104.74-325.19zm-4186.18 533.92c-58.65 53.21-137.6 79.79-236.39 79.79-98.14 0-177.07-28.46-237.23-85.32-60.18-56.84-90.14-126.41-90.14-208.72 0-78.59 31.86-146.31 95.64-203.21 63.92-56.85 142.4-85.28 235.86-85.28 91.52 0 167.82 28.42 228.81 85.28 60.99 56.89 91.48 127.41 91.48 211.55s-29.26 152.77-88.03 205.9zm-404.91-1258.09c41.12-41.93 93.6-62.89 157.3-62.89 69.43 0 125.33 20.54 167.82 61.51 42.53 41.09 63.92 94.27 63.92 159.68 0 69.13-21.11 125.39-63.21 168.7-42.11 43.33-95.89 65-161.61 65-63.74 0-117.31-22.09-160.76-66.38-43.48-44.23-65.3-99.07-65.3-164.57 0-65.4 20.58-119.08 61.84-161.05m587.34 547.96c72.04-77.64 121.73-147.59 149.01-209.97 27.35-62.39 41.04-130.02 41.04-203 0-103.5-26.25-200.24-78.41-290.37-52.3-90.05-123.63-159.57-214.3-208.52-90.7-48.99-195.55-73.48-314.77-73.48-121.2 0-228 24.28-320.43 72.8-92.5 48.5-164.39 116.4-215.74 203.69-51.17 87.27-76.87 184.12-76.87 290.34 0 77.57 15.47 151.27 46.38 221.04 31.05 69.73 77.04 135.57 137.99 197.46-93.38 69.34-163.37 148.19-210.02 236.57-46.77 88.4-70.1 186.27-70.1 293.56 0 123.98 29.12 235.29 87.36 333.83 58.23 98.53 135.95 172.08 233.11 220.65 96.98 48.59 227.82 72.84 392.46 72.84 153.42 0 279.59-25.24 378.51-75.6 98.96-50.43 177.77-125.64 236.57-225.56 58.65-99.91 88.06-208.68 88.06-326.17 0-108.28-25.13-208.86-75.67-301.84-50.36-92.99-121.69-169.11-214.16-228.3zm911.87-569.27h855.74l-820.99 1675.41h405.76l897.81-1836.23v-203.9h-1338.33v364.71zM1787.11 3419.02c-261.57 209.68-468.23 626.59-598.69 1057.52-130.49-430.93-337.07-847.84-598.72-1057.52-114.14-91.51-238.67-144.06-372.05-140.22L.02 5313.47h418.7l119.72-1326.12c242.6 356.27 411.31 882.06 479.07 1326.12h341.81c67.77-444.06 236.46-969.85 479.15-1326.12l119.69 1326.12h418.64L2159.17 3278.8c-133.38-3.84-257.85 48.71-372.06 140.22m3803.59 233.53h505.42v1660.92h431.8V3652.55h505.43v-373.18H5590.69v373.18zm-1620.05 805.91c-50.57 10.97-107.22 24.18-165.77 41.05l268.93-752.44 192.34 538.42c-24.67 102.43-85.76 127.27-295.51 172.97zm-114.07-1179.87-761.55 2034.88h419.04l55.27-154.81c93.7-252.06 264.55-290.7 480.22-337.71 113.51-24.7 248.15-55.12 361.5-130.16l222.45 622.67h419.03L4291 3278.58h-434.42zm3995.17 373.96h505.46v1660.92h431.81V3652.55h505.38v-373.18H7851.74v373.18zm3074.32 1295.64c-348.66 0-631.36-292.22-631.36-652.67 0-360.48 282.7-652.71 631.36-652.71 348.76 0 631.35 292.22 631.35 652.71 0 360.44-282.59 652.67-631.35 652.67m0-1714.74c-586.5 0-1062.03 475.49-1062.03 1062.07 0 586.52 475.53 1062.02 1062.03 1062.02 586.6 0 1062.1-475.5 1062.1-1062.02 0-586.58-475.5-1062.07-1062.1-1062.07M1184.06 6803.16l59.63-35.75c41.98 77.28 90.5 115.94 145.51 115.94 23.56 0 45.63-5.47 66.32-16.49 20.67-10.94 36.45-25.65 47.27-44.11 10.78-18.42 16.2-38.02 16.2-58.69 0-23.5-7.93-46.58-23.85-69.18-21.94-31.15-62.03-68.71-120.25-112.62-58.52-44.18-94.94-76.15-109.27-95.88-24.77-33.11-37.2-68.86-37.2-107.33 0-30.56 7.31-58.38 21.96-83.55 14.62-25.13 35.22-44.93 61.77-59.4 26.56-14.47 55.42-21.71 86.59-21.71 33.09 0 64.02 8.18 92.83 24.57 28.77 16.38 59.23 46.51 91.37 90.45l-57.26 43.39c-26.38-34.97-48.91-58-67.51-69.18-18.6-11.11-38.87-16.7-60.85-16.7-28.31 0-51.46 8.57-69.41 25.76-17.98 17.16-26.95 38.33-26.95 63.46 0 15.25 3.18 30.03 9.52 44.37 6.35 14.37 17.98 29.93 34.82 46.79 9.23 8.89 39.43 32.26 90.69 70.13 60.75 44.82 102.39 84.78 125 119.75 22.58 35.01 33.87 70.13 33.87 105.44 0 50.9-19.35 95.09-57.97 132.67-38.66 37.49-85.68 56.3-140.99 56.3-42.64 0-81.3-11.4-115.96-34.13-34.67-22.76-66.65-60.84-95.88-114.32zM2302.39 6282.64c-51.94 0-101.16 13.51-147.65 40.62-46.53 27.03-82.85 63.53-109 109.31-26.11 45.84-39.15 96.99-39.15 153.3 0 83.41 28.89 153.88 86.71 211.3 57.83 57.41 127.49 86.19 209.09 86.19 54.48 0 104.89-13.21 151.24-39.63 46.38-26.44 82.52-62.58 108.49-108.37 25.96-45.88 38.95-96.8 38.95-152.8 0-55.76-12.99-106.09-38.95-151.16-25.96-45.03-62.53-81.1-109.67-108.14-47.15-27.11-97.18-40.62-150.06-40.62m-3.11-68.23c106.33 0 195.27 35.48 266.9 106.42 71.58 70.9 107.42 158.25 107.42 261.94 0 102.73-35.73 189.87-107.21 261.48-71.42 71.58-158.59 107.37-261.37 107.37-104.1 0-191.92-35.65-263.55-106.92-71.59-71.24-107.43-157.44-107.43-258.58 0-67.45 16.31-129.96 48.93-187.51 32.61-57.55 77.12-102.7 133.47-135.29 56.31-32.56 117.29-48.91 182.84-48.91M3038.57 6232.1h70.13v423.69c0 50.25.96 81.56 2.85 93.98 3.52 27.63 11.62 50.79 24.35 69.42 12.72 18.61 32.28 34.17 58.67 46.76 26.4 12.54 52.95 18.85 79.68 18.85 23.21 0 45.48-4.94 66.79-14.83 21.32-9.84 39.15-23.5 53.44-41 14.32-17.51 24.81-38.69 31.48-63.5 4.77-17.79 7.15-54.34 7.15-109.69v-423.69h70.13v423.69c0 62.65-6.09 113.33-18.36 151.92-12.25 38.66-36.72 72.32-73.45 100.94-36.75 28.62-81.2 42.96-133.39 42.96-56.62 0-105.09-13.55-145.51-40.59-40.4-27-67.43-62.83-81.09-107.33-8.61-27.35-12.89-76.69-12.89-147.91v-423.69zM3971.74 6300.78v238.57l120.91.93c46.83 0 81.48-4.41 103.97-13.35 22.44-8.89 39.95-23.12 52.54-42.72 12.61-19.55 18.85-41.36 18.85-65.56 0-23.58-6.35-44.93-19.09-64.21-12.75-19.23-29.47-32.99-50.19-41.25-20.68-8.29-55.09-12.43-103.23-12.43h-123.76zm-70.13-68.68h139.79c77.93 0 130.73 3.17 158.44 9.52 41.64 9.57 75.52 30 101.6 61.41 26.08 31.37 39.14 69.99 39.14 115.87 0 38.2-8.99 71.79-26.96 100.76-17.97 29.01-43.66 50.93-77.04 65.71-33.42 14.84-79.55 22.35-138.42 22.67l252.42 325.93h-86.76l-252.41-325.93h-39.67v325.93h-70.13zM5366.36 6362.33l-55.33 42.46c-30.56-39.77-67.2-69.88-109.98-90.38-42.78-20.52-89.79-30.81-140.99-30.81-55.97 0-107.86 13.44-155.54 40.34-47.72 26.9-84.74 63.01-110.97 108.32-26.25 45.32-39.35 96.27-39.35 152.92 0 85.58 29.32 156.98 88.02 214.22 58.69 57.25 132.74 85.88 222.09 85.88 98.29 0 180.53-38.48 246.7-115.49l55.33 42.01c-34.97 44.54-78.66 78.97-130.97 103.29-52.31 24.35-110.79 36.54-175.33 36.54-122.82 0-219.66-40.9-290.57-122.64-59.54-69.04-89.22-152.36-89.22-250.02 0-102.74 36.01-189.17 108.07-259.33 72.03-70.13 162.28-105.21 270.73-105.21 65.54 0 124.72 12.99 177.53 38.87 52.76 25.97 96.03 62.29 129.76 109.05zM5729.39 6232.1h402.23v68.68h-332.1v219.97h329.24v68.69h-329.24v275.78h329.24v68.75h-399.37zM6402.1 6803.16l59.65-35.75c41.96 77.28 90.49 115.94 145.51 115.94 23.54 0 45.63-5.47 66.32-16.49 20.68-10.94 36.42-25.65 47.22-44.11 10.83-18.42 16.2-38.02 16.2-58.69 0-23.5-7.9-46.58-23.82-69.18-21.96-31.15-62.05-68.71-120.24-112.62-58.51-44.18-94.94-76.15-109.27-95.88-24.78-33.11-37.21-68.86-37.21-107.33 0-30.56 7.31-58.38 21.96-83.55q21.915-37.695 61.8-59.4c26.54-14.47 55.4-21.71 86.57-21.71 33.07 0 63.99 8.18 92.82 24.57 28.77 16.38 59.23 46.51 91.34 90.45l-57.24 43.39c-26.4-34.97-48.91-58-67.51-69.18-18.61-11.11-38.86-16.7-60.82-16.7-28.34 0-51.45 8.57-69.45 25.76-17.97 17.16-26.93 38.33-26.93 63.46 0 15.25 3.17 30.03 9.52 44.37 6.35 14.37 17.97 29.93 34.83 46.79 9.21 8.89 39.43 32.26 90.67 70.13 60.78 44.82 102.38 84.78 125.01 119.75 22.58 35.01 33.84 70.13 33.84 105.44 0 50.9-19.31 95.09-57.95 132.67-38.65 37.49-85.66 56.3-140.99 56.3-42.64 0-81.28-11.4-115.94-34.13-34.69-22.76-66.67-60.84-95.89-114.32zM7953.32 6381.17l-120.24 254.08H8073zm8.86-149.07 327.3 701.87h-75.73l-110.4-230.96h-302.36l-109.37 230.96h-78.21l331.58-701.87zM8620.6 6933.97V6232.1h15.25l467.14 537.97V6232.1h69.17v701.87h-15.74l-463.29-531.52v531.52zM9632.02 6867.62h81.13c97.02 0 164.29-6.04 201.81-18.15 52.8-17.12 94.3-48.03 124.55-92.68 30.21-44.69 45.31-99.23 45.31-163.8 0-67.69-16.37-125.49-49.12-173.49-32.75-47.99-78.38-80.88-136.94-98.71-43.91-13.35-116.25-20.01-217.08-20.01h-49.66zm-67.23 66.35V6232.1h145.51c104.95 0 181.12 8.39 228.52 25.27 68.08 23.82 121.26 65.18 159.63 124.04 38.33 58.84 57.49 129 57.49 210.38 0 70.34-15.22 132.22-45.6 185.61-30.35 53.47-69.81 92.93-118.34 118.38-48.49 25.41-116.46 38.19-203.96 38.19zM10936.44 6300.78v-68.68h384.55v68.68h-156.49v633.19h-71.57v-633.19zM11842.65 6381.17l-120.24 254.08h239.92zm8.86-149.07 327.31 701.87h-75.74l-110.43-230.96h-302.32l-109.38 230.96h-78.21l331.58-701.87zM12436.88 6803.16l59.65-35.75c41.96 77.28 90.49 115.94 145.51 115.94 23.57 0 45.67-5.47 66.38-16.49 20.62-10.94 36.36-25.65 47.23-44.11 10.76-18.42 16.23-38.02 16.23-58.69 0-23.5-8-46.58-23.85-69.18-22.03-31.15-62.05-68.71-120.28-112.62-58.58-44.18-94.94-76.15-109.24-95.88-24.84-33.11-37.27-68.86-37.27-107.33 0-30.56 7.3-58.38 21.95-83.55 14.62-25.13 35.26-44.93 61.84-59.4 26.5-14.47 55.41-21.71 86.54-21.71 33.1 0 64.03 8.18 92.82 24.57 28.76 16.38 59.26 46.51 91.41 90.45l-57.31 43.39c-26.4-34.97-48.88-58-67.48-69.18-18.57-11.11-38.93-16.7-60.85-16.7-28.3 0-51.42 8.57-69.39 25.76-17.96 17.16-26.96 38.33-26.96 63.46 0 15.25 3.18 30.03 9.53 44.37 6.35 14.37 18 29.93 34.86 46.79 9.17 8.89 39.39 32.26 90.63 70.13 60.75 44.82 102.39 84.78 124.97 119.75 22.63 35.01 33.88 70.13 33.88 105.44 0 50.9-19.34 95.09-58.02 132.67-38.58 37.49-85.59 56.3-140.92 56.3-42.64 0-81.28-11.4-115.94-34.13-34.69-22.76-66.67-60.84-95.92-114.32zM13148.2 6300.78v-68.68h384.58v68.68h-156.48v633.19h-71.61v-633.19zM13856.21 6232.1h402.26v68.68h-332.1v219.97h329.21v68.69h-329.21v275.78h329.21v68.75h-399.37zM14528.93 6803.16l59.61-35.75c42.04 77.28 90.53 115.94 145.55 115.94 23.54 0 45.67-5.47 66.35-16.49 20.65-10.94 36.36-25.65 47.22-44.11 10.8-18.42 16.24-38.02 16.24-58.69 0-23.5-8.01-46.58-23.86-69.18-21.99-31.15-62.05-68.71-120.28-112.62-58.51-44.18-94.9-76.15-109.23-95.88-24.85-33.11-37.2-68.86-37.2-107.33 0-30.56 7.3-58.38 21.91-83.55 14.62-25.13 35.26-44.93 61.84-59.4 26.54-14.47 55.37-21.71 86.58-21.71 33.06 0 63.99 8.18 92.82 24.57 28.72 16.38 59.19 46.51 91.34 90.45l-57.31 43.39c-26.37-34.97-48.85-58-67.45-69.18-18.6-11.11-38.9-16.7-60.85-16.7-28.3 0-51.42 8.57-69.38 25.76-18.01 17.16-26.97 38.33-26.97 63.46 0 15.25 3.14 30.03 9.56 44.37 6.28 14.37 17.97 29.93 34.8 46.79 9.24 8.89 39.39 32.26 90.63 70.13 60.74 44.82 102.45 84.78 124.97 119.75 22.62 35.01 33.91 70.13 33.91 105.44 0 50.9-19.31 95.09-57.98 132.67-38.61 37.49-85.66 56.3-140.96 56.3-42.64 0-81.31-11.4-115.94-34.13-34.69-22.76-66.67-60.84-95.92-114.32zM16139.65 6282.64c-51.91 0-101.18 13.51-147.7 40.62-46.48 27.03-82.87 63.53-108.95 109.31-26.12 45.84-39.18 96.99-39.18 153.3 0 83.41 28.9 153.88 86.72 211.3 57.8 57.41 127.51 86.19 209.11 86.19 54.45 0 104.89-13.21 151.26-39.63 46.34-26.44 82.44-62.58 108.49-108.37 25.94-45.88 38.9-96.8 38.9-152.8 0-55.76-12.96-106.09-38.9-151.16-26.04-45.03-62.61-81.1-109.76-108.14-47.15-27.11-97.16-40.62-149.99-40.62m-3.07-68.23c106.24 0 195.24 35.48 266.85 106.42 71.6 70.9 107.43 158.25 107.43 261.94 0 102.73-35.75 189.87-107.19 261.48-71.5 71.58-158.61 107.37-261.41 107.37-104.11 0-191.96-35.65-263.53-106.92-71.61-71.24-107.43-157.44-107.43-258.58 0-67.45 16.3-129.96 48.95-187.51 32.57-57.55 77.07-102.7 133.41-135.29 56.39-32.56 117.27-48.91 182.92-48.91M16873.39 6232.1h351.69v68.68h-281.53v219.97h281.53v68.69h-281.53v344.53h-70.16zM18061.79 6232.1h402.27v68.68h-332.1v219.97h329.17v68.69h-329.17v275.78h329.17v68.75h-399.34zM18809.47 6232.1h70.13v423.69c0 50.25.95 81.56 2.86 93.98 3.53 27.63 11.57 50.79 24.35 69.42 12.71 18.61 32.29 34.17 58.69 46.76 26.39 12.54 52.97 18.85 79.68 18.85 23.23 0 45.46-4.94 66.78-14.83 21.32-9.84 39.11-23.5 53.39-41 14.34-17.51 24.85-38.69 31.55-63.5 4.77-17.79 7.13-54.34 7.13-109.69v-423.69h70.13v423.69c0 62.65-6.14 113.33-18.36 151.92-12.25 38.66-36.74 72.32-73.48 100.94s-81.2 42.96-133.34 42.96c-56.64 0-105.16-13.55-145.54-40.59-40.41-27-67.45-62.83-81.1-107.33-8.61-27.35-12.89-76.69-12.89-147.91v-423.69zM19742.65 6300.78v238.57l120.91.93c46.84 0 81.49-4.41 103.94-13.35 22.44-8.89 39.99-23.12 52.58-42.72 12.57-19.55 18.89-41.36 18.89-65.56 0-23.58-6.39-44.93-19.17-64.21-12.71-19.23-29.4-32.99-50.11-41.25-20.76-8.29-55.16-12.43-103.23-12.43h-123.81zm-70.12-68.68h139.79c77.92 0 130.73 3.17 158.43 9.52 41.65 9.57 75.53 30 101.61 61.41 26.08 31.37 39.07 69.99 39.07 115.87 0 38.2-8.92 71.79-26.93 100.76-17.96 29.01-43.62 50.93-77 65.71-33.39 14.84-79.58 22.35-138.39 22.67l252.42 325.93h-86.75l-252.45-325.93h-39.68v325.93h-70.12zM20820.95 6282.64c-51.92 0-101.15 13.51-147.7 40.62-46.48 27.03-82.84 63.53-108.92 109.31-26.19 45.84-39.25 96.99-39.25 153.3 0 83.41 28.97 153.88 86.75 211.3 57.81 57.41 127.51 86.19 209.12 86.19 54.48 0 104.92-13.21 151.26-39.63 46.34-26.44 82.47-62.58 108.49-108.37 25.97-45.88 38.93-96.8 38.93-152.8 0-55.76-12.96-106.09-38.93-151.16-26.01-45.03-62.58-81.1-109.73-108.14-47.15-27.11-97.16-40.62-150.02-40.62m-3.07-68.23c106.27 0 195.2 35.48 266.84 106.42 71.65 70.9 107.47 158.25 107.47 261.94 0 102.73-35.79 189.87-107.22 261.48-71.5 71.58-158.65 107.37-261.41 107.37-104.08 0-191.96-35.65-263.53-106.92-71.61-71.24-107.44-157.44-107.44-258.58 0-67.45 16.31-129.96 48.95-187.51 32.61-57.55 77.08-102.7 133.41-135.29 56.36-32.56 117.31-48.91 182.93-48.91M21624.35 6300.78v238.08l118.76 1.42c48.03 0 83.22-4.35 105.45-13.06 22.27-8.73 39.78-22.85 52.51-42.4 12.68-19.52 19.1-41.36 19.1-65.5 0-23.48-6.42-44.97-19.1-64.52-12.74-19.48-29.5-33.39-50.32-41.61-20.9-8.29-54.99-12.43-102.39-12.43h-124.01zm-70.16-68.68h139.79c80.18 0 134.22 3.46 162.21 10.47 40.09 9.84 72.84 30.13 98.25 60.86 25.48 30.66 38.19 69.24 38.19 115.68 0 46.76-12.39 85.34-37.17 115.69-24.88 30.39-59.05 50.79-102.62 61.32-31.76 7.62-91.27 11.46-178.41 11.46h-50.08v326.39h-70.16zM22355.23 6232.1h402.23v68.68h-332.11v219.97h329.21v68.69h-329.21v275.78h329.21v68.75h-399.33zM17564.59 946.76l-8.08-3.6c-97.72-43.05-192.13-84.7-283.82-124.33-499.25-215.71-959.23-329.74-1330.18-329.74-250.13 0-454.43 50.86-607.07 151.19-141.53 93-310.26 277.05-310.26 625.75 0 519.75-381.16 805.41-1132.97 849l-46.66 3.95-54.98-184.76c-330.62-1100.89-845.19-1700.12-866.97-1725.07l-27.84-31.97-40.8-11.19C12452.34 55.84 12089.25.01 11775.91.01c-397.01 0-621.81 90.92-720.47 145.12l-10.69 5.86-11.86-2.58c-124.54-26.75-240.69-40.3-345.27-40.3-232.9 0-416.32 67.13-544.96 199.36-303.94 312.34-200.71 679.92-156.7 836.86l4.45 15.74c26.85 97.16 75.31 189.91 101.39 235.79l112.02-80.64c82.63-52.44 187.69-80.18 303.91-80.18 153.16 0 309.55 47.33 428.91 129.92 258.24 178.51 305.88 588.96 314.42 715.2l1.23 41.62h-1039.76c-772.24 0-1087.22-247.94-1087.22-855.74 0-348.7-168.81-532.72-310.37-625.75-152.6-100.33-356.84-151.15-607.07-151.15-371 0-831 114.03-1330.14 329.7-94.16 40.7-191.36 83.58-292.08 128-1083.52 477.55-2565.64 1130.78-4958.46 1136.71v275.57c2451.12-5.86 3963.81-672.72 5069.74-1160.25 99.91-44.04 196.54-86.54 290.14-126.98 459.75-198.73 894.67-308.17 1224.8-308.17 191.85 0 343.89 35.93 451.74 106.83 125.22 82.3 186.03 211.69 186.03 395.5 0 485.66 141.32 1131.3 1362.9 1131.3h1310.82l8.68-131.32c2.18-33.46 48.1-823-446.04-1137.8-154.44-98.36-353.03-157.13-531.23-157.13-99.06 0-193.61 17.26-281 51.35l-34.12 13.34-9.21-35.51c-58.97-226.54-21.07-390.16 115.76-500.23 90.04-72.39 211.58-109.06 361.22-109.06 97.79 0 205.94 14.97 331.82 46.27l61.66 18.21c46.41-49.23 203.54-167.92 638.52-167.92 269.45 0 601.63 45.03 987.31 133.87l11.26 2.57 7.09 9.1c134.78 171.98 595 814.25 853.83 1857.36l29.72 106.12 86.43.67c1378.78-10.87 1585.7-711.96 1585.7-1131.2 0-183.81 60.89-313.19 186.1-395.5 107.93-70.9 259.9-106.83 451.75-106.83 329.99 0 764.96 109.41 1224.8 308.17 93.63 40.45 190.23 82.95 290.07 126.98 1105.93 487.54 2618.58 1154.39 5069.69 1160.25v-275.57c-2392.91-5.93-3875.03-659.2-4958.59-1136.78zm-6146.51-274.15c-75.1 25.51 41.4 296.78 257.71 278.14 231.49-19.91 289.36-298.23 289.36-298.23s-284.91-69.03-547.07 20.09"/></svg>