<svg xmlns="http://www.w3.org/2000/svg" xml:space="preserve" width="1644.291" height="650.491" style="shape-rendering:geometricPrecision;text-rendering:geometricPrecision;image-rendering:optimizeQuality;fill-rule:evenodd;clip-rule:evenodd" viewBox="0 0 63628.07 25171.65"><path fill="#fff" d="M23.59 22684.21c197.71-120.07 433.85-280.49 624.02-417.26 211.57-152.16 413.09-281.36 624.36-433.39 1824.27-1312.74 4859.77-2786.34 6961.15-3667.97 1037.44-435.27 2045.78-758.41 3165.94-1090.18 1124.08-332.93 4263.69-1002.63 5485.67-801.97 1334.9 219.19 1184.63 1338.12 577.67 1756.49-247.24 170.43-644.1 229.97-607.9-211.59 29.82-363.85 122.55-608.91-95.71-899.78-164.43-219.13-381.58-356.16-791.26-276.96-1118.08 216.1-1198.45 1691.19-2057.59 2171.93 270.1 195.01 567.17 360.47 825.62 566.02 197.69 157.24 341.11 339.86 493.93 538.49 63.42 82.43 113.61 108.84 170.52 196.8-150.8 250.61-357.4 434.37-536.69 657.15l-821.84 983.13c-83.55 97.29-185.13 229.46-272.37 321.69l-1432.26 1560.16c-102.07 110.2-209.9 197.69-311.11 307.51l-1178.76 1227.17L12791.8 24427c653.73-247.77 1314.12-471.87 1983.77-699.27 1312.47-445.66 2850.6-865.19 4323.17-1041.21 396.9-47.44 3048.98-360.49 3389.42-42.88 1138.06 1061.73 3765.42 1584.27 5339.59 1696.02 1738.07 123.38 3142.47-114.31 4578.39-730.35 794.73-340.95 1488.85-746.64 2129.81-1224.99 854.96-638.06 1698.61-1583.72 2116.67-2578.28 305.83-727.54 460.9-1274.32 521.39-2157.05 55.77-814-74.9-1638.83-270.41-2378.95-189.82-718.5-534.57-1176.98-959.02-1733.9 137.3-416.84 300.33-688.68 501.71-1340.94 463.74-1501.97 426.08-3310.26-421.77-4532.73-1101.74-1588.55-3470.46-1527.31-5503.08-695.48-865.31 354.12-1675.43 776.93-2577.3 1086.08-596.2 204.36-1070.5 243.75-1094.83-501.17-46.99-1439.59 662.11-3105.3 1212.27-4334.35 186.75-417.22 423.52-817.34 612.98-1219.87 167.37-355.66 425.93-896.49 776.67-1079.29-268.74-221.38-1350.92 5.82-1670.15 108.96-342.44 110.64-1128.19 376.35-1404.67 555.78-603.66 391.74-1002.04 963.91-1427.58 1513.86l-550.28 661.75c-347.4 397.77-936.92 1088.83-1265.77 1417.96-419.15 419.49-1287 1673.25-1710.13 2211.3-99.17 126.13-323.16 460.98-469.75 533.42-13.48-662.43 486.02-2168.81 737.25-2794.11 429.53-1069.12 1585.92-2594.79 1640.57-3613.13 30.44-567.07-195.2-1004.65-508.71-1236.84-716.06-530.33-2129.92-179.07-2956.74 58.03-992.81 284.73-1631.75 706.36-2314.89 1193.75-744.81 531.41-1760.92 1438.86-2517.53 2075.5l-359.92 310.66c-84.61 67.47-143.83 138.17-230.73 207.68-279.46 223.55-856.94 795.17-1140.84 1052.22-80.45 72.85-134.73 147.67-216.46 221.28-390.42 351.68-750.19 725.3-1113.55 1105.55-149.57 156.52-259.73 295.58-436.01 440.98-152.28 125.63-1226.7 1317.13-1482.84 1586.68-79.15 83.29-118.25 149.82-204.7 234.43-412.39 403.69-1681.89 1943.92-2037.71 2347.77-275.09 312.21-526.02 642.83-798.97 955.9l-1597.84 1936.22c-466.96 616.34-1060.16 1314.57-1555.12 1953.85-387.85 500.93-770.16 976.86-1125.29 1506.03-122.02 181.82-242.64 356.19-370.77 532.63-497.94 685.59-947.05 1399.4-1360.95 2147.11-324.45 586.1-1150.77 1852.73-977.6 2540.59zm31384.92-9574.97c-964.15 136.24-1750.53 904.26-2256.96 1672.21-1177.39 1785.36-1933.23 3639.12-1916.29 5926.77 8.89 1202.31 346.18 2402.61 1573.87 2384.51 1227.19-18.11 1830.86-925.13 2313.38-1619.57 1024.92-1475.06 2441.69-5977.09 1558.42-7681.47-210.18-405.56-629.53-773.29-1272.42-682.45m-16286.82 5321.01c294.23 41.32 1201.55-122.31 1514.58-177.79-75.57-166.22-114.62-83.73-100.89-355.51 8.73-172.43 20.11-269.24-69.59-401.74-306.74-453.14-805.8-223.29-1078.14 291.59-117.57 222.26-182.16 406.92-265.96 643.46zm183.37 510.92 124.43 132.07c256.78 248.66 442.89 586.92 896.2 831.12 284.74 153.38 564.1-31.88 586.81-332.77 28.39-375.93-130.36-540.13-127.91-845.11l-1479.53 214.7zm3313.5 1790.38c72.47-63.31 732.32-1251.48 796.43-1413.02-241.64.51-741.13-271.29-965.73 317.82-110.52 289.89-13.88 923.5 169.3 1095.19zm419.54 263.86c550.54-53.29 1705.28-585.23 1288.31-1117.53l-476.38-410.64c-205.53 474.39-670.63 1142.32-811.93 1528.16zm-846.71 759.66c-72.88-811.81-708.37-1874.43-260.68-2663.22 204.73-360.71 504.74-586.02 1059.02-406.29 651.55 211.26 773.36 113.05 960.98-472.37-245.97-44.74-1216.8 80.7-1514.24 117-492.85 60.15-847.98 67.7-1105.88 548.1-180.89 336.95 179.44 861.65-290.43 1309.38-354.2 337.52-716.88-67.2-1194.05 457.01l-860.15 790.98c-369.57 348.52-718.25 768.58-1012.28 1051.14l-1333.19 1543.12c138.98-19.77 380.41-108.89 531.06-152.37 189.54-54.7 370.91-104.82 563.53-157.79 2106.65-579.4 5989.05-1870.78 7997.17-1966.88-1.97-33.3-240.91-524-314.4-748.19-208.81-636.92-291.34-1145.25-343.74-1819.05-13-167.08-25.83-347.78-21.44-516.12 3.64-139.61 67.63-383.48 24.03-496.12-540.54-50.66-606.63-34.68-768.72 224.95-111.24 178.15-344.71 502.75-90.12 684.89 209.42 149.84 324.99 77.28 587.74 444.32 568.9 794.71-203.76 1424.23-1042.1 1732.27-246.98 90.74-530.24 175.86-785 246.77-168.95 47.05-681.02 241.27-787.09 248.44zm-17326.54-419.5c93.25-62.51 161.73-123.23 234.87-190.77 1110.62-1025.49 2528.86-1745 3882.25-2438.47 3120.62-1598.98 6840.29-2613.13 10402.75-3087.4 885.22-117.85 2264.9-180.52 3040.43 149.5 396.03 168.51 557.29 605.15 439.55 1163.54-107.38 509.24-341.94 845.51-608.37 1088.16 602.16-39.71 1213.34-152.06 1845.9-189.14 135.27-156.08 670.35-1455.82 801.49-1752.34 525.27-1187.67 1076.34-2351.13 1666.14-3494.03 236.86-458.99 682.7-1296.16 797.17-1779.53-853.45 28.96-1702.03 131.12-2555.4 141.6-142.48 1.76-277.41 4.48-394.45-60.55-116.75-64.85-150.86-166.76-46.99-266.72 358.37-344.9 2688.45-286.34 3333.52-335.74 156.9-414.61 807-1663.59 1080.89-2113.75 50.05-82.25 157.69-268.3 218.44-323.73 81.62-74.46 306.59-118.99 426.43-61.85 189.22 147.51-408.46 1077.91-501.4 1251.54-169.29 316.29-553.53 927.04-641.09 1248.8 562.48-6.77 1116.98-34.87 1678.31-65.67 258.05-14.16 1630.25-204.39 1336.34 259.75-146.49 231.32-1194.63 190.36-1536.35 206.67-564.8 26.97-1123.54 53.7-1688.15 80.45-134.48 168.12-2666.27 5561.43-2934.9 6146.36-132.21 287.89-333.59 600.65-416.82 911.82l447.89.1c176.84-1020.38 1070.5-2356.88 1710.17-3170.45 508.85-647.19 1107.68-1218.69 1789.66-1692.95 2058.05-1431.17 4340.02-1560.45 6851.1-1266.24 1082.31 126.8 2229.23 523.05 3162.9 1019.35l907.1 504.9c128.67-164.32 404.61-1055.13 470.82-1328.79 235.97-975.5 344.54-2238.87-106.17-3156.76-220.45-448.96-496.17-757.24-823.26-1007.4-1617.77-1237.25-4101.45-328.81-5691.42 383.02-706.77 316.42-1894.98 1153.87-2680.32 765.14-843.87-417.69-664.93-1871.96-420.47-2807.69 362.55-1387.82 1291.3-3069.5 2087.2-4311.77 112.37-175.37 271.21-395.25 350.95-570.52-471.13 151.04-1044.09 624.17-1356.17 958.81-154.41 165.59-216.31 476.79-517.94 397.01-155.1-41.01-109.49-163.41-214.57-273.76-187.16 176.85-384.46 325.3-551.29 501.59-182.07 192.41-339.66 344.65-533.67 524.54-445.04 412.66-871.85 913.5-1287.94 1343.71C23882.73 5088 21459.88 8153.5 21258 8461.84c-145.08 221.59-272.16 417.54-418.86 638.43-607.01 914.01-673.82 147.22-611.71-665.57 47.33-619.17 160.63-1217.68 333.08-1779.06 341.69-1112.39 826.74-1982.29 1313.75-2918.64 126.48-243.19 243.73-445.72 376.82-679.79 125.98-221.56 257.48-439.17 360.53-697.75 237.12-594.99 252.19-1270.57-232.68-1561.32-860.57-516.07-2623.82 262.26-3292.2 617.32-1426.6 757.84-2618.91 1573.9-3744.14 2626.56-105.26 98.47-164.77 122.6-270.39 246l-1081.88 1033.22c-96.26 91.79-198.42 160.31-288.49 254.45-108.62 113.54-155.23 158.07-263.3 252.2-50.59 44.05-91.09 74.93-137.49 121.04l-683.65 657.15c-501.93 459.81-967.81 960.08-1458.57 1430.6l-254 288.79c-198.55 224.73-434.04 443.84-630.63 683.81l-865.9 991.54c-908.79 1058.6-1915 2256.75-2737.87 3351.8-232.13 308.92-478.4 561.09-717.37 855.41-872.48 1074.5-1712.05 2184.2-2521.72 3309.11-328.02 455.71-2402.07 3384.08-2566.46 3818.42zM40426.71 14513.42c-196.18 14.76-377.69 31.59-575.68 36.3-181.14 4.3-416.9-18.03-584.78-.03-279.55 2531.35-963.91 5549.48-2373.35 7302.28-164.7 204.83-320.82 422.94-485.5 598.43l-779.72 845.45c-80.41 88.81-204.71 170.74-199.96 353.22 6.44 247.51 315.62 501.72 545.66 549.07 319.02 65.67 538.84-232.31 661.81-384.76 317.33-393.42 636.03-788.23 937.17-1230.42 146.82-215.59 280.57-398.8 430.09-626.8 769.69-1173.57 1305.42-2297.87 1761.04-3657.51 152.91-456.31 109.81-561.8 436.77-645.18 378.26-96.45 638.18 54.14 776.45 277.91 479.19 775.54-475.85 2595.39-730 3301.71-446.73 1241.5-199.34 2287.18 1099.16 2804.94 1265.08 504.44 2803.33-80.25 3696.04-770.6 390.07-301.65 819.02-677.4 1093.32-1073.63 61.62-89.02 162.03-254.17 257.52-285.75 414.89-137.17 495.57 1072.98 1475.93 1721.23 1362.54 900.98 4050.88 752.24 5499.57 329.35 1037.83-302.95 1348.23-596.5 2142.37-1083.61 720.1-441.7 471.29 24.94 1217.39 589.32 1183.02 894.88 2889.64 773.4 4066.44-129.95 621.15-476.82 745.81-680.15 1243.65-1180.82 422.83-425.25 1374.57-2002.01 1589.97-2477.28l-842.26-236.86c-77.84 250.33-612.07 1064.71-784.04 1284.12-194.68 248.38-712.39 903.61-1109.54 951.19-162.2 19.44-241.01-93.75-301.53-189.94-394.01-626.38 1191.06-5660.65 1371.45-6218.68l784.78-2311.06c86.17-253.18 206.63-559.52 263.23-821.77l-4016.41-72.89c-78.07 118.58-775.51 2601.46-895.1 2980.58-462.83 1467.22-1453.91 4402.78-2127.16 5663.53-455.68 853.33-1216.25 1416.99-2128.18 1767.35-1133.32 435.4-2033.98 371.1-2858.81-513.19-106.33-113.98-324.03-398.26-297.89-655.38 25.14-247.42 368.08-318.2 606.84-374.32 542.34-127.46 1147.38-158.86 1697.33-264.66 542.06-104.29 1034.32-227.29 1482.78-450.48 1343.36-668.5 1706.81-2937.65 214.06-3687.79-2077.45-1043.96-4379.88-572.31-5986.08 597.49-448.72 326.8-459.31 358.69-798.08 647.04-330.53 281.35-833.19 964.72-1083.99 1367.05-423.45 679.33-857.38 1809.06-1525.91 2369.46-276.86 232.08-1142.1 734.75-1058.51-154.49 52.52-558.76 307.54-1023.43 512.44-1450.3 372.23-775.45 1100.43-1978.48 440.21-2930.46-601.82-867.77-1889.94-700.44-3108.32-562.7-2158.97 244.08-1755.29-99.67-1687.75-938.25 25.86-320.97 45.1-631.35 35.09-957.45zm10445.21 5322.23c534.09 63.25 1876.73-529.6 2261.32-756.42 329.6-194.4 562.81-404.1 729.88-792.33 167.37-388.95 114.28-934.3-117.41-1205.7-223.45-261.75-790.74-270.66-1182.8-121.14-444.29 169.42-610.52 399.8-869.74 652.54-193.6 188.76-470.29 658.49-590.09 933.03-177.27 406.26-264.43 785.95-231.15 1290.03z"/></svg>