<svg xmlns="http://www.w3.org/2000/svg" xml:space="preserve" width="258.931mm" height="167.387mm" version="1.1" style="shape-rendering:geometricPrecision; text-rendering:geometricPrecision; image-rendering:optimizeQuality; fill-rule:evenodd; clip-rule:evenodd"
     viewBox="0 0 25887.18 16734.9">
        <path fill="#FFFFFF" d="M23596.3 11808.31l0 -782.15c12.7,7.63 25.39,12.71 40.63,20.32 398.69,124.44 799.92,281.89 1183.37,424.08l-558.67 624.71c-251.4,-99.04 -434.24,-175.23 -591.69,-256.48 -20.32,-7.62 -45.71,-17.79 -73.64,-30.47zm0 -2371.82l0 0 0 -711.04c53.33,-27.93 111.73,-58.41 172.68,-96.51 251.4,-142.2 507.88,-274.25 741.51,-413.92 309.81,-142.21 591.69,-159.98 799.92,-76.18 309.81,124.43 500.27,330.11 551.05,632.32 66.02,241.25 0,523.12 -142.21,883.72 -58.41,139.66 -132.05,299.65 -208.23,441.85 -66.02,157.44 -165.06,325.06 -274.26,449.48l-609.46 -192.99c149.83,-157.44 243.78,-292.03 335.2,-416.48 81.26,-109.19 165.06,-223.46 208.23,-317.42 83.8,-208.23 99.04,-398.7 66.02,-533.28 -33.01,-124.43 -109.2,-182.85 -193,-215.85 -149.83,-66.02 -347.9,-33.01 -606.92,124.43 -251.4,124.43 -525.66,292.03 -784.68,416.47 -17.78,10.15 -38.09,17.77 -55.87,25.39zm0 -711.04l0 0 0 711.04c-281.88,119.35 -548.52,126.97 -759.29,33.01 -284.42,-106.66 -441.86,-314.89 -459.64,-650.09 -33.01,-266.64 50.79,-589.15 193,-954.82 81.26,-193 190.46,-416.47 299.65,-609.46l591.69 193c-218.39,223.47 -368.22,431.7 -441.86,624.7 -83.8,190.46 -83.8,363.14 -33.01,490.11 15.24,114.27 91.42,198.07 190.46,223.46 96.5,50.8 238.71,25.4 419,-60.94zm0 2300.71l0 0 0 782.15c-111.73,-43.18 -297.11,-119.36 -551.05,-213.31l-926.89 1025.93c50.79,83.8 101.58,233.62 208.23,474.86 142.21,350.45 259.02,624.7 325.05,792.31l-548.52 591.68c-40.63,-116.81 -96.5,-251.4 -167.6,-413.93l0 -2110.26 584.07 -642.47 -584.07 -246.31 0 -728.82c177.76,76.18 355.52,149.84 533.28,223.48 266.64,114.27 652.63,251.39 1127.5,464.7zm-1660.78 -5165.18l0 0 0 -733.89c220.93,-106.66 416.47,-276.8 576.45,-523.11 198.07,-248.87 289.49,-507.89 256.48,-789.77 -15.24,-325.04 -190.46,-627.24 -523.12,-868.48 -101.58,-66.02 -205.69,-121.89 -309.81,-162.52l0 -606.92c208.23,83.8 416.47,203.16 624.7,352.98 518.04,350.44 835.47,784.68 891.34,1249.4 101.58,408.85 -7.62,860.86 -299.65,1259.55 -314.89,467.25 -698.34,733.89 -1183.37,817.69 -10.16,0 -22.85,2.54 -33.01,5.08zm0 -3684.7l0 0 0 606.92c-159.98,-63.49 -319.97,-96.5 -482.49,-91.41l0 -645.02c159.98,20.32 319.97,66.03 482.49,129.51zm0 2950.81l0 0 0 733.89c-157.44,20.32 -319.97,12.7 -482.49,-17.78l0 -622.16c101.58,2.54 203.15,-5.08 307.27,-25.39 60.95,-17.78 119.35,-40.63 175.22,-68.56zm0 5210.88l0 0 0 728.82 -482.49 -203.16 0 -738.97c162.52,73.65 322.51,142.22 482.49,213.31zm0 1617.61l0 0 -66.02 73.64 -416.47 -975.14 0 1810.62 157.44 431.69c126.97,312.36 236.17,563.76 325.05,769.44l0 -2110.26zm-482.49 2806.07l0 0 0 -604.38 223.47 490.11 -223.47 114.27zm0 -6765.02l0 0 0 -256.48c33.01,35.55 66.02,71.1 99.04,106.66 -33.01,50.79 -66.02,99.04 -99.04,149.83zm0 -5949.87l0 0 0 645.02c-68.56,2.54 -134.59,12.69 -200.61,30.46 -27.93,2.54 -53.33,7.62 -78.72,12.7l0 -705.96c91.42,-2.54 185.38,5.08 279.34,17.78zm0 3174.28l0 0 0 622.16c-93.96,-17.78 -185.38,-45.71 -279.34,-78.72l0 -591.69c91.42,27.93 185.38,43.17 279.34,48.25zm0 2519.11l0 0 0 256.48c-93.96,139.67 -185.38,274.26 -279.34,401.23l0 -952.28c93.96,93.96 185.38,193 279.34,294.57zm0 2384.51l0 0 0 738.97 -101.58 -43.16 101.58 233.62 0 1810.62c-129.51,-350.44 -223.47,-606.92 -279.34,-756.76l0 -1891.86 137.13 -154.9c48.25,22.85 93.96,43.17 142.21,63.48zm0 4032.61l0 0 0 604.38 -279.34 139.67 0 -627.25 20.32 -10.15c124.43,-101.58 226.01,-142.22 241.25,-142.22l17.78 35.56zm-279.34 -12128.28l0 0 0 705.96c-299.65,68.57 -556.13,253.94 -771.98,543.45 -208.23,302.18 -281.88,584.07 -215.85,883.71 40.63,302.19 241.25,576.45 540.9,792.3 152.37,104.12 299.65,175.22 446.94,218.39l0 591.69c-246.32,-86.34 -502.81,-228.55 -771.98,-416.47 -231.09,-162.51 -424.08,-332.66 -576.45,-510.42l0 -2059.47c325.05,-429.16 746.59,-678.03 1218.92,-741.51 43.17,-2.54 86.34,-5.08 129.51,-7.62zm0 5416.59l0 0 0 952.28c-439.32,611.99 -888.8,1140.19 -1348.43,1592.21l0 -1356.05c139.67,-198.06 274.26,-403.76 401.23,-627.23 -132.05,-152.37 -266.64,-297.11 -401.23,-431.7l0 -1320.5c454.56,340.28 904.03,736.43 1348.43,1190.99zm0 2770.51l0 0 0 1891.86c-12.7,-30.46 -20.32,-55.87 -30.47,-78.72 -124.43,-317.43 -281.88,-766.91 -474.87,-1249.39l505.35 -563.75zm0 4057.99l0 0 0 627.25 -1348.43 683.1 0 -916.74c40.63,88.88 83.8,170.14 126.97,246.33l924.35 -474.88c55.87,-33 165.06,-93.95 297.11,-165.06zm-1348.43 -11495.95l0 0 0 2059.47c-195.54,-228.55 -322.51,-474.87 -373.3,-741.51 -83.8,-408.85 7.62,-817.68 299.65,-1216.38 22.85,-35.55 48.25,-68.56 73.64,-101.58zm0 3476.47l0 0 0 1320.5c-543.44,-545.98 -1117.35,-975.14 -1714.11,-1305.26l0 -1043.7c573.91,264.1 1147.82,604.38 1714.11,1028.47zm0 2379.43l0 0 0 1356.05c-553.59,545.99 -1124.96,980.22 -1714.11,1315.43l0 -1018.31c634.86,-403.78 1211.3,-944.67 1714.11,-1653.17zm0 6033.67l0 0 0 916.74 -391.07 195.53c-388.53,-975.13 -825.31,-1970.58 -1323.04,-2960.97l0 -352.97 606.92 -312.35c149.83,276.79 266.64,558.67 416.47,901.49 124.43,317.43 276.8,657.71 408.85,1000.53 101.58,213.31 193,424.07 281.88,611.99zm-1714.11 1477.94l0 0c48.25,-17.77 96.5,-33.01 142.21,-48.25 0,0 -88.88,-535.81 -109.2,-700.88 -12.7,-86.33 -22.85,-167.59 -33.01,-243.77l0 992.9zm0 -12664.09l0 0 0 -3019.36 723.74 149.82c-58.41,317.43 -149.83,700.89 -266.64,1117.35 -124.43,398.69 -226.01,850.71 -332.66,1249.4 -45.71,175.22 -86.34,342.82 -124.43,502.81zm0 -3019.36l0 0 0 3019.36c-50.79,215.85 -96.5,416.47 -134.59,589.16l-845.63 -190.47 0 -20.31c66.02,-304.74 165.06,-680.58 261.56,-1056.4 109.2,-416.48 215.85,-848.17 350.44,-1282.42 91.42,-441.86 182.84,-810.07 248.86,-1084.33l119.35 25.4zm0 4763.95l0 0 0 1043.7c-322.51,-177.76 -647.55,-325.05 -980.22,-446.94l0 -977.68c327.59,104.12 652.63,228.55 980.22,380.91zm0 5061.07l0 0 0 1018.31c-322.51,185.38 -647.55,337.74 -980.22,464.7l0 -985.3c337.74,-134.59 665.33,-299.64 980.22,-497.72zm0 2178.82l0 0 0 352.97c-48.25,-93.96 -93.96,-187.91 -142.21,-281.88l142.21 -71.09zm0 2686.71l0 0 0 992.9c-246.32,81.26 -528.2,170.14 -528.2,170.14 -137.13,40.63 -289.49,88.88 -452.02,134.59l0 -563.75c132.05,-43.17 231.09,-78.72 337.74,-126.96l-119.35 -916.73 -218.39 38.09 0 -525.67 845.63 -142.2c27.93,165.06 71.1,472.33 134.59,939.59zm-980.22 -1764.91l0 0 0 -556.13c170.14,-12.7 345.36,-2.54 487.57,-2.54l142.21 609.46c-208.23,-33.01 -401.23,-50.79 -609.46,-50.79l-20.32 0zm0 -5416.58l0 0 0 -1081.79c289.49,2.54 535.82,243.78 535.82,540.9 0,299.65 -246.32,540.9 -535.82,540.9zm0 -4111.31l0 0 0 20.31 -5.08 0 5.08 -20.31zm0 985.29l0 0 0 977.68c-876.1,-319.96 -1787.75,-454.56 -2712.1,-441.86l0 -942.13c898.96,-5.08 1805.53,116.81 2712.1,406.31zm0 2044.23l0 0 0 1081.79 -5.08 0c-292.03,0 -533.28,-241.25 -533.28,-540.9 0,-299.65 241.25,-540.9 533.28,-540.9l5.08 0zm0 3895.46l0 0 0 985.3c-863.4,332.67 -1764.9,482.5 -2712.1,485.04l0 -995.46c952.28,0 1869.01,-142.2 2712.1,-474.87zm0 2046.77l0 0 0 556.13c-154.9,0 -330.12,2.55 -520.58,25.39 -434.24,91.43 -766.91,266.65 -1010.69,533.29 -266.64,299.65 -358.06,667.86 -281.88,1124.96 58.41,401.22 241.25,657.7 540.9,799.91 208.23,134.59 495.19,167.61 843.09,116.81 159.98,-27.93 198.07,-30.46 360.6,-81.26 25.39,-7.62 45.71,-12.7 68.56,-20.32l0 563.75c-116.81,30.47 -236.17,60.95 -358.06,88.88 -441.86,88.88 -1041.16,45.71 -1414.46,-142.21 -426.62,-213.3 -698.34,-632.32 -792.3,-1223.99 -106.66,-594.22 17.78,-1109.74 383.45,-1518.57 335.2,-383.46 825.31,-632.32 1467.79,-741.51 157.44,-25.39 368.22,-58.42 591.69,-66.03 40.63,-7.61 81.26,-12.69 121.89,-15.24zm0 1523.65l0 0 -538.36 91.43 66.02 515.5 472.33 -81.26 0 -525.67zm-2712.1 -10795.07l0 0 0 -556.13c231.09,-45.7 383.45,-137.13 553.59,-281.88 274.26,-238.7 424.08,-419 419,-942.13 -5.08,-424.08 -124.43,-746.59 -304.73,-934.5 -177.76,-182.85 -396.15,-279.35 -667.87,-297.12l0 -548.52c553.59,20.32 987.84,190.46 1274.79,507.88 256.48,279.35 485.03,680.57 469.79,1168.13 -20.32,561.21 -132.05,970.07 -401.23,1297.64 -297.11,365.68 -744.05,553.59 -1343.35,586.61zm0 -3560.27l0 0 0 548.52c-27.93,-2.54 -55.87,-2.54 -86.34,-2.54l-883.72 -5.08 0 2498.79 586.61 -2.54c152.37,-2.54 276.8,-12.7 383.45,-33.01l0 556.13c-58.41,2.54 -119.35,5.08 -180.3,5.08l-1442.38 2.54 0 -3567.89 1574.43 0c17.78,0 33.01,0 48.25,0zm0 4438.91l0 0 0 942.13c-792.3,7.62 -1592.21,124.43 -2384.51,322.51l0 -970.06c782.14,-182.83 1579.51,-289.48 2384.51,-294.57zm0 6820.88l0 0 0 995.46c-764.37,2.54 -1556.66,-91.43 -2384.51,-261.56l0 -992.92c807.54,162.53 1607.44,259.02 2384.51,259.02zm-2384.51 5474.99l0 0 0 -609.46c337.74,7.62 614.54,-93.96 835.47,-294.57 238.7,-208.23 363.13,-500.27 413.92,-868.47 40.63,-314.89 0,-591.69 -167.6,-807.54 -172.67,-299.66 -454.55,-474.87 -871.01,-533.29 -71.1,-7.62 -142.21,-12.69 -210.77,-10.15l0 -551.06c101.58,5.08 205.69,12.71 309.81,27.93 614.53,73.65 1081.78,299.65 1381.44,700.89 274.26,332.65 365.68,774.52 307.27,1249.39 -66.02,566.29 -256.48,977.68 -657.71,1284.95 -335.2,253.94 -792.29,416.47 -1340.81,411.39zm0 -13083.08l0 0 0 -25.4 17.78 20.33 -17.78 5.08zm0 -25.4l0 0 0 25.4 -807.54 253.93c-142.21,-200.6 -266.64,-358.06 -358.06,-510.42 -66.02,-66.01 -208.23,-241.25 -416.47,-515.5l-446.94 147.29 0 -622.16 104.12 -33 -104.12 -142.22 0 -1155.44c152.37,210.77 302.19,413.93 454.56,614.55 175.22,248.85 467.25,566.28 792.3,1008.15 243.78,309.8 520.58,634.86 782.14,929.42zm0 1107.19l0 0 0 970.06c-685.64,170.14 -1366.21,401.23 -2029,675.49l0 -1005.61c660.25,-259.02 1338.28,-477.41 2029,-639.93zm0 6267.28l0 0 0 992.92c-655.17,-137.13 -1330.66,-322.51 -2029,-548.53l0 -982.75c672.95,215.84 1353.51,401.22 2029,538.35zm0 2059.47l0 0 0 551.06c-284.42,2.53 -543.44,83.79 -764.37,251.4 -276.8,226 -452.02,525.65 -492.65,926.89 -33.01,347.9 33.01,632.31 241.25,873.55 182.84,259.02 467.25,401.24 843.09,449.48 58.41,7.62 116.81,12.7 172.68,12.7l0 609.46c-104.12,0 -210.77,-7.62 -319.97,-20.32 -624.7,-73.64 -1076.72,-378.37 -1386.52,-759.29 -175.22,-215.85 -284.42,-464.71 -322.51,-741.5l0 -457.11c2.54,-12.7 2.54,-22.85 5.08,-35.55 73.64,-591.68 317.43,-1041.15 741.51,-1333.2 340.28,-243.78 784.68,-347.9 1282.41,-327.59zm-2029 365.69l0 0c17.78,-99.05 17.78,-193 0,-286.96l0 286.96zm-3387.59 -1973.13l0 0c159.98,111.73 256.48,251.4 307.27,452.02 58.41,215.85 25.39,457.1 -116.81,716.12 -53.33,114.27 -116.81,210.76 -190.46,294.57l0 -1462.71zm3387.59 -10378.62l0 0 0 1155.44 -637.4 -865.93 -175.22 1307.79 812.62 -266.64 0 622.16 -871.02 286.95c-7.62,81.26 -40.63,266.64 -73.64,500.27 -50.79,373.3 -101.58,665.33 -101.58,825.31l-799.92 256.48c66.02,-266.64 101.58,-708.5 200.61,-1257.01 109.2,-693.26 182.84,-1142.74 215.85,-1317.95 68.56,-350.45 134.59,-807.55 226.01,-1358.6l916.73 -299.65c96.5,142.22 193,279.35 286.95,411.39zm0 4299.24l0 0 0 1005.61c-1203.69,497.73 -2354.04,1135.12 -3387.59,1810.61l0 -1132.58c1036.08,-606.92 2178.82,-1211.3 3387.59,-1683.64zm0 5089l0 0 0 982.75c-1076.72,-345.36 -2204.22,-789.76 -3387.59,-1297.64l0 -1041.16c1069.1,497.74 2216.92,975.15 3387.59,1356.06zm0 2676.54l0 0c-15.24,-83.79 -48.25,-167.59 -93.96,-251.39 -134.59,-182.84 -368.22,-358.07 -751.67,-507.89l-1500.8 -540.89c-208.23,556.13 -416.47,1132.58 -657.71,1691.26 -121.89,307.27 -251.4,609.46 -383.45,893.88l0 807.54 434.24 165.05 1150.36 -2775.58c139.67,33.01 248.86,50.78 281.88,58.41 50.79,25.39 134.59,58.41 241.25,99.03 226.01,68.56 350.44,167.61 452.02,276.81 73.64,106.66 73.64,248.85 33.01,391.07 -66.02,175.21 -175.22,309.81 -325.05,375.83 -175.22,73.64 -408.85,99.04 -667.87,0l-274.26 -167.6c99.04,784.67 132.05,1241.78 149.83,1343.34 0,281.89 25.39,558.67 58.41,799.93l782.14 281.87 -248.86 -1808.06c317.43,66.02 599.3,25.39 825.31,-91.42 190.46,-116.82 358.06,-292.03 441.86,-566.3 25.39,-63.48 43.17,-126.97 53.33,-187.91l0 -286.96zm0 1617.61l0 0 0 457.11c-17.78,-144.75 -17.78,-297.12 0,-457.11zm-3387.59 -9063.19l0 0c40.63,25.39 83.8,53.33 124.43,78.72l716.12 -441.86 -840.55 -495.19 0 858.32zm-1625.23 4926.48l0 0 1467.79 741.51c58.41,30.46 111.73,60.94 157.44,91.42l0 1462.71c-114.27,126.96 -251.4,220.92 -424.08,281.87 -309.81,106.66 -675.49,66.03 -1058.94,-134.59l-292.03 -182.84 124.43 -518.03 226.01 167.59c266.64,124.44 449.48,149.84 624.7,76.19 132.05,-68.57 241.25,-159.98 325.05,-317.43 73.64,-167.6 91.42,-309.82 25.39,-383.45 -25.39,-101.58 -142.21,-193.01 -299.65,-276.8 -159.98,-73.65 -302.19,-139.67 -492.65,-223.47 -159.98,332.65 -325.05,642.47 -492.65,891.33 -157.44,292.03 -350.44,624.71 -558.67,975.14 -182.84,375.83 -350.44,650.1 -416.47,766.91l-683.1 -350.43c149.83,-281.89 332.66,-632.32 558.67,-982.76 208.23,-375.83 416.47,-733.89 650.09,-1142.74 241.25,-391.07 441.86,-690.72 558.67,-942.13zm1625.23 -5784.8l0 0 0 858.32c-177.76,-116.81 -352.98,-238.71 -540.9,-380.91 -83.8,-48.25 -467.25,-299.65 -1117.35,-741.51l266.64 -116.81c241.25,-132.05 398.69,-325.05 408.85,-515.5 58.41,-159.98 22.85,-292.02 -58.41,-449.47 -83.8,-126.98 -200.61,-226.02 -325.05,-226.02 -167.6,-7.62 -309.81,50.79 -500.27,167.6 -139.67,68.56 -317.43,205.69 -467.25,289.49l1450.01 2643.54 -690.72 434.24c-233.63,-492.65 -500.27,-1025.93 -802.46,-1551.59 -274.26,-540.9 -581.53,-1084.33 -873.56,-1584.6l1358.59 -825.31c350.44,-198.06 617.08,-274.26 865.94,-256.48 241.25,48.25 434.24,190.46 576.45,408.85 139.67,266.64 190.46,482.49 157.44,698.34 -50.79,251.4 -190.46,474.87 -449.48,708.5l741.51 439.32zm0 2221.99l0 0c-744.05,436.78 -1432.23,876.1 -2051.85,1274.79l-4565.88 -2409.91 0 1084.33 3809.13 1805.53 -3768.5 2176.28 0 1033.54 4652.22 -2727.34c657.71,299.64 1300.18,586.61 1924.88,853.24l0 -1041.16c-269.18,-124.42 -533.28,-251.39 -792.3,-378.36 256.48,-180.3 520.58,-360.6 792.3,-538.36l0 -1132.58zm0 7366.86l0 0 0 807.54 -332.66 -126.98c109.2,-208.22 220.93,-439.32 332.66,-680.56z"/>

</svg>