<svg xmlns="http://www.w3.org/2000/svg" xml:space="preserve" width="188.221" height="45.354" style="shape-rendering:geometricPrecision;text-rendering:geometricPrecision;image-rendering:optimizeQuality;fill-rule:evenodd;clip-rule:evenodd" viewBox="0 0 4980 1199.99"><path fill="#fff" d="M0 0h1200.02v1199.99H0zm854.02 612.57c44.14-45.01 46.65-99.53 46.65-122.94 0-58.88-24.22-141.9-105.62-176.51C757.91 297.53 702.54 294 644.6 294H240.09l-.08 4.34 100.04 71.69v535.98h193.81V690.44h57.1L709.5 906.01h214.51L775.32 659.25c28.51-11.16 54.35-20.69 78.7-46.68m-239.69-47.59h-80.47V422.12h79.59c33.63 0 94.28 1.73 94.28 71.87 0 69.19-61.39 70.99-93.4 70.99M1569.54 664.9h84.21l99.94 187.1h107.79l-112.06-204.89c28.51-8.53 99.17-42.1 99.17-138.5 0-58.55-24.2-98.51-55.62-124.19-44.24-35.69-89.23-35.69-156.36-36.42h-160.59v504h93.52zm0-235.54h43.51c55.69 0 79.99.76 99.97 10.68 39.3 20.02 39.95 57.12 39.95 67.87 0 73.53-67.76 77.1-88.5 77.82-17.83.69-29.94 1.41-62.12 1.41h-32.81zM2385.92 767.01h-283.31V632.15h242.59v-81.38h-242.59v-118.5h265.46V348h-358.34v504h376.19zM2619.94 498.67 2840.39 852h82.13V348h-92.81l11.35 356.21L2618.42 348h-84.94v504h92.11zM3058.67 600.7c0 63.55 17.09 129.17 67.11 187.02 51.38 59.24 109.9 77.12 173.3 77.12 154.97 0 242.07-120.63 242.76-264.83.76-172.06-116.32-264.84-241.22-264.84-137.77 0-241.95 111.35-241.95 265.53m241.28-179.16c99.13 0 149.77 90.66 147.7 189.17-2.18 121.33-82.83 167.05-145.69 167.05-83.44 0-146.28-67.85-146.28-181.31 0-104.99 57.86-174.91 144.27-174.91M3909.26 722l-98.49-374h-137.01v504h92.05l-9.34-414.05L3865.79 852h84.88l108.56-414.05-8.55 414.05h92.02V348h-137.01zM4422.67 348h-92.76v504h92.76zM4879.33 852H4980l-172.09-504h-107l-169.93 504h100.56l29.37-98.49h189.07zM4685.8 671.38l70.03-232 69.24 232z"/></svg>