<svg xmlns="http://www.w3.org/2000/svg" xml:space="preserve" width="2492.345" height="879.114" style="shape-rendering:geometricPrecision;text-rendering:geometricPrecision;image-rendering:optimizeQuality;fill-rule:evenodd;clip-rule:evenodd" viewBox="0 0 39775.57 14029.88"><path fill="#fff" d="M20430.56 10039.61h2745.22v-2314.4c-.07-257.59-22.38-182.64 47.89-287.3l16.03-15.97 15.96-15.96 15.96-15.96 15.96-15.96 15.96-15.96 15.9-15.97 47.89-63.84 16.02-15.97 15.97-15.96 15.96-15.96 15.96-15.96 15.96-15.96 15.9-15.97 47.89-63.84 16.02-15.97 15.96-15.96 15.97-15.96 15.96-15.96 15.9-15.96 63.84-79.81 16.03-15.97 15.96-15.96 15.96-15.96 15.97-15.96 15.89-15.96 47.89-63.85 16.03-15.96 15.96-15.97 15.96-15.96 15.96-15.96 15.96-15.96 15.9-15.96 47.89-63.85 16.02-15.96 15.97-15.97 15.96-15.96 15.96-15.96 15.96-15.96 15.9-15.96 47.89-63.85 16.02-15.96 15.96-15.97 15.97-15.96 15.96-15.96 15.96-15.96c14.35-23.66 1.43-23.93 15.96-.07l16.03 16.03 15.96 15.96 15.96 31.93 15.96 15.96 15.97 31.92 15.9 15.96 16.02 15.97v15.96l15.9 15.96 16.02 15.96v15.96l15.9 15.97 16.03 15.96v15.96l15.9 15.96 16.02 15.96v15.97l15.9 15.96 16.03 15.96v15.96l15.9 15.96 16.02 15.97 15.96 31.92 15.97 15.96 15.96 31.93 15.96 15.96 15.96 31.92 15.96 15.96 15.97 31.93 15.96 15.96 15.96 31.92 15.9 15.97 16.02 15.96v15.96l15.9 15.96 16.03 15.96v15.97l15.9 15.96 16.02 15.96v15.96l15.9 15.96 16.03 15.97v15.96l15.89 15.96 16.03 15.96v15.96l15.9 15.97 16.02 15.96 15.97 31.92 15.96 15.96 15.96 31.93 15.96 15.96 15.96 31.92 15.97 15.97 15.96 31.92 15.96 15.96 15.96 31.93 15.96 15.96 15.97 31.92 15.89 15.96 16.03 15.97v15.96l15.9 15.96 16.02 15.96v15.96l15.9 15.97 16.03 15.96v15.96l15.9 15.96 16.02 15.96v15.97l15.9 15.96 16.03 15.96v15.96l15.89 15.96 16.03 15.97 15.96 31.92 15.96 15.96 15.97 31.93 15.96 15.96 15.96 31.92 15.96 15.97 15.96 31.92 15.97 15.96 15.96 31.93 15.9 15.96 16.02 15.96v15.96l15.9 15.96 16.03 15.97v15.96l15.89 15.96 16.03 15.96v15.96l15.9 15.97 16.02 15.96v15.96l15.9 15.96 16.03 15.96v15.97l15.9 15.96 16.02 15.96 15.96 31.92 15.97 15.97 15.96 31.92 15.96 15.96 15.96 31.93 15.96 15.96 15.97 31.92 15.96 15.96 15.96 31.93 15.96 15.96 15.97 31.92 15.89 15.97 16.03 15.96v15.96l15.9 15.96 16.02 15.96v15.97l15.9 15.96 16.03 15.96v15.96l15.9 15.96 16.02 15.97v15.96l15.9 15.96 16.03 15.96v15.96l15.89 15.97 16.03 15.96 15.96 31.92 15.96 15.96 15.97 31.93 15.96 15.96 15.96 31.92 15.96 15.97 15.96 31.92 15.97 15.96 15.96 31.93 15.9 15.96 16.02 15.96v15.96l15.9 15.96 16.03 15.97v15.96l15.89 15.96 16.03 15.96v15.96l15.9 15.97 16.02 15.96v15.96l15.9 15.96 16.03 15.96v15.97l15.9 15.96 16.02 15.96 15.96 31.92 15.97 15.97 15.96 31.92 15.96 15.96 15.96 31.93 15.96 15.96 15.97 31.92 15.96 15.96 15.96 31.93 15.9 15.96 16.02 15.96v15.97l15.9 15.96 16.03 15.96v15.96l15.9 15.96 16.02 15.97v15.96l15.9 15.96 16.03 15.96v15.96l15.89 15.97 16.03 15.96v15.96l15.9 15.96 16.02 15.96 15.97 31.93 15.96 15.96 15.96 31.92 15.96 15.97 15.96 31.92 15.97 15.96 15.96 31.93h3287.91v-15.97l-15.96-15.96-15.97-31.92-15.96-15.96-15.96-31.93-15.9-15.96-16.02-15.96v-15.96l-15.9-15.97-16.03-15.96v-15.96l-15.9-15.96-16.02-15.96-15.96-31.93-15.97-15.96-15.96-31.92-15.96-15.97-15.96-31.92-15.9-15.96-16.03-15.96v-15.97l-15.89-15.96-16.03-15.96v-15.96l-15.9-15.97-16.02-15.96-15.97-31.92-15.96-15.96-15.96-31.93-15.96-15.96-15.96-31.92-15.9-15.97-16.03-15.96v-15.96l-15.9-15.96-16.02-15.96v-15.97l-15.9-15.96-16.03-15.96v-15.96l-15.89-15.96-16.03-15.97-15.96-31.92-15.96-15.96-15.97-31.93-15.89-15.96-16.03-15.96v-15.96l-15.9-15.96-16.02-15.97v-15.96l-15.9-15.96-16.03-15.96v-15.96l-15.9-15.97-16.02-15.96-15.96-31.92-15.97-15.96-15.96-31.93-15.96-15.96-15.96-31.92-15.9-15.97-16.03-15.96v-15.96l-15.9-15.96-16.02-15.96v-15.97l-15.9-15.96-16.02-15.96-15.97-31.92-15.96-15.97-15.96-31.92-15.96-15.96-15.96-31.93-15.9-15.96-16.03-15.96v-15.96l-15.9-15.96-16.02-15.97v-15.96l-15.9-15.96-16.03-15.96-15.96-31.93-15.96-15.96-15.96-31.92-15.97-15.96-15.96-31.93-15.9-15.96-16.02-15.96v-15.96l-15.9-15.97-16.03-15.96v-15.96l-15.89-15.96-16.03-15.96-15.96-31.93-15.96-15.96-15.97-31.92-15.96-15.97-15.96-31.92-15.9-15.96-16.02-15.96v-15.97l-15.9-15.96-16.03-15.96v-15.96l-15.9-15.96-16.02-15.97v-15.96l-15.9-15.96-16.03-15.96-15.96-31.93-15.96-15.96-15.96-31.92-15.96-15.97-15.97-31.92-15.89-15.96-16.03-15.96v-15.97l-15.9-15.96-16.02-15.96v-15.96l-15.9-15.96-16.03-15.97-15.96-31.92-15.96-15.96-15.96-31.93-15.97-15.96-15.96-31.92-15.9-15.96-16.02-15.97v-15.96l-15.9-15.96-16.03-15.96v-15.96l-15.89-15.97-16.03-15.96-15.96-31.92-15.96-15.96-15.97-31.93-15.96-15.96-15.96-31.92-15.9-15.97-16.02-15.96v-15.96l-15.9-15.96-16.03-15.96v-15.97l-15.9-15.96-16.02-15.96-15.96-31.92-15.97-15.97-15.96-31.92-15.96-15.96-15.96-31.93-15.9-15.96-16.03-15.96v-15.96l-15.9-15.96-16.02-15.97v-15.96l-15.9-15.96-16.02-15.96v-15.96l-15.9-15.97-16.03-15.96-15.96-31.92-15.96-15.96-15.96-31.93-15.9-15.96-16.03-15.96v-15.96l-15.9-15.97-16.02-15.96v-15.96l-15.9-15.96-16.03-15.96v-15.97l-15.9-15.96-16.02-15.96-15.96-31.92-15.97-15.97-15.96-31.92-15.96-15.96-15.96-31.93-15.9-15.96-16.03-15.96v-15.96l-15.89-15.96-16.03-15.97v-15.96l-15.9-15.96-16.02-15.96-15.97-31.93-15.96-15.96-15.96-31.92-15.96-15.96-15.96-31.93-15.9-15.96-16.03-15.96v-15.96l-15.9-15.97-16.02-15.96v-15.96l-15.9-15.96-16.03-15.97-15.96-31.92-15.96-15.96-15.96-31.93-15.96-15.96-15.97-31.92-15.89-15.96-16.03-15.97v-15.96l-15.9-15.96-16.02-15.96v-15.96l-15.9-15.97-16.03-15.96-15.96-31.92-15.96-15.96-15.96-31.93-15.97-15.96-15.96-31.92-15.9-15.97-16.02-15.96v-15.96l-15.9-15.96-16.03-15.96v-15.97l-15.89-15.96-16.03-15.96v-15.96l-15.9-15.96-16.02-15.97-15.97-31.92-15.96-15.96-15.96-31.93-15.96-15.96-15.96-31.92-15.9-15.96-16.03-15.97v-15.96l-15.9-15.96-16.02-15.96V5299l-15.9-15.97-16.03-15.96-15.96-31.92-15.96-15.96-15.96-31.93-15.96-15.96-15.97-31.92-15.9-15.97-16.02-15.96v-15.96l-15.9-15.96-16.02-15.96v-15.97l-15.9-15.96-16.03-15.96-15.96-31.92-15.96-15.97-15.97-31.92-15.96-15.96-15.96-31.93-15.9-15.96-16.02-15.96v-15.96l-15.9-15.96-16.03-15.97v-15.96l-15.9-15.96-16.02-15.96-15.96-31.93-15.97-15.96-15.96-31.92-15.96-15.96-15.96-31.93-15.9-15.96-16.03-15.96v-15.96l-15.89-15.97-16.03-15.96v-15.96l-15.9-15.96-16.02-15.96v-15.97l-15.9-15.96-16.03-15.96v-15.96c-23.87-14.54-23.6-1.61.07-15.96l15.96-15.97 15.96-15.96 15.9-15.96 31.92-47.89 16.03-15.96 15.96-15.96 15.96-15.96 15.96-15.97 15.9-15.96 31.93-47.88 16.02-15.97 15.96-15.96 15.97-15.96 15.96-15.96 15.9-15.96 47.88-63.85L26416 4038l15.96-15.97 15.96-15.96 15.96-15.96 15.9-15.96 31.93-47.89 16.02-15.96 15.96-15.96 15.97-15.96 15.96-15.97 15.9-15.96 31.92-47.88 16.03-15.97 15.96-15.96 15.96-15.96 15.96-15.96 15.9-15.96 47.89-63.85 16.02-15.96 15.97-15.97 15.96-15.96 15.96-15.96 15.9-15.96 31.92-47.89 16.03-15.96 15.96-15.96 15.96-15.96 15.96-15.97 15.9-15.96 47.89-63.85 16.02-15.96 15.97-15.96 15.96-15.96 15.9-15.96 47.88-63.85 16.03-15.96 15.96-15.97 15.96-15.96 15.96-15.96 15.9-15.96 31.93-47.89 16.02-15.96 15.96-15.96 15.97-15.96 15.96-15.97 15.9-15.96 47.88-63.85 16.03-15.96 15.96-15.96 15.96-15.96 15.9-15.96 47.89-63.85 16.02-15.96 15.96-15.97 15.97-15.96 15.96-15.96 15.9-15.96 31.92-47.89 16.03-15.96 15.96-15.96 15.96-15.96 15.96-15.97 15.9-15.96 47.89-63.85 16.02-15.96 15.96-15.96 15.97-15.96 15.9-15.97 47.88-63.84 16.03-15.97 15.96-15.96 15.96-15.96 15.96-15.96 15.9-15.96 31.93-47.89 16.02-15.96 15.96-15.96 15.97-15.97 15.96-15.96 15.9-15.96 47.88-63.85 16.03-15.96 15.96-15.96 15.96-15.96 15.96-15.97 15.9-15.96 31.93-47.88 16.02-15.97 15.96-15.96 15.97-15.96 15.96-15.96 15.9-15.96 31.92-47.89 16.03-15.96 15.96-15.96 15.96-15.97 15.96-15.96 15.9-15.96 47.89-63.85 16.02-15.96 15.96-15.96 15.97-15.96 15.96-15.97 15.9-15.96 31.92-47.88 16.03-15.97 15.96-15.96 15.96-15.96 15.96-15.96 15.9-15.96 31.92-47.89 16.03-15.96 15.96-15.96 15.96-15.97 15.97-15.96 15.89-15.96 47.89-63.85 16.03-15.96 15.96-15.96 15.96-15.96 15.96-15.97 15.9-15.96 31.92-47.88 16.03-15.97 15.96-15.96 15.96-15.96 15.97-15.96 15.9-15.96 47.88-63.85 16.03-15.96 15.96-15.97 15.96-15.96 15.9-15.96 47.89-63.85 16.02-15.96 15.96-15.96 15.97-15.97 15.96-15.96 15.9-15.96 31.92-47.89 16.03-15.96 15.96-15.96 15.96-15.96 15.96-15.96 15.9-15.97 47.89-63.84 16.02-15.97 15.96-15.96 15.97-15.96 15.89-15.96 47.89-63.85 16.03-15.96 15.96-15.96 15.96-15.97 15.96-15.96 15.9-15.96 31.92-47.89 16.03-15.96 15.96-15.96 15.96-15.96 15.97-15.96 15.89-15.97 47.89-63.84 16.03-15.97 15.96-15.96 15.96-15.96 15.96-15.96 15.9-15.96 15.96-31.93.07-15.9-3080.67-.13c-84.88-.75-140.38-18.28-175.37 31.99l-16.03 15.97-15.96 15.96-15.96 15.96-15.9 15.96-31.93 47.89-16.02 15.96-15.96 15.96-15.9 15.96-31.93 47.89-16.02 15.96-15.96 15.96-15.97 15.97-15.89 15.96-31.93 47.88-16.02 15.97-15.97 15.96-15.96 15.96-15.9 15.96-15.96 31.93-16.02 15.96-15.97 15.96-15.96 15.96-15.9 15.96-31.92 47.89-16.03 15.96-15.96 15.96-15.96 15.97-15.9 15.96-31.92 47.88-16.03 15.97-15.96 15.96-15.9 15.96-31.92 47.89-16.03 15.96-15.96 15.96-15.96 15.96-15.9 15.97-31.92 47.88-16.03 15.96-15.96 15.97-15.96 15.96-15.9 15.96-15.96 31.92-16.03 15.97-15.96 15.96-15.96 15.96-15.9 15.96-31.93 47.89-16.02 15.96-15.96 15.96-15.97 15.96-15.9 15.97-31.92 47.88-16.02 15.96-15.97 15.97-15.9 15.96-31.92 47.88-16.02 15.97-15.97 15.96-15.96 15.96-15.9 15.96-31.92 47.89-16.03 15.96-15.96 15.96-15.96 15.96-15.9 15.97-15.96 31.92-16.03 15.96-15.96 15.96-15.96 15.97-15.9 15.96-31.92 47.88-16.03 15.97-15.96 15.96-15.96 15.96-15.9 15.96-31.93 47.89-16.02 15.96-15.96 15.96-15.9 15.96-31.93 47.89-16.02 15.96-15.96 15.96-15.97 15.97-15.89 15.96-31.93 47.88-16.02 15.97-15.97 15.96-15.96 15.96-15.9 15.96-31.92 47.89-16.03 15.96-15.96 15.96-15.9 15.96-31.92 47.89-16.03 15.96-15.96 15.96-15.96 15.97-15.9 15.96-31.92 47.88-16.03 15.97-15.96 15.96-15.9 15.96-31.92 47.89-16.03 15.96-15.96 15.96-15.96 15.96-15.9 15.96-31.92 47.89-16.03 15.96-15.96 15.97-15.96 15.96-15.9 15.96-31.93 47.89-16.02 15.96-15.96 15.96-15.9 15.96-31.93 47.89-16.02 15.96-15.96 15.96-15.97 15.96-15.9 15.97-31.92 47.88-16.02 15.96-15.97 15.97-15.9 15.96-31.92 47.88-16.03 15.97-15.96 15.96-15.96 15.96-15.9 15.96-31.92 47.89-16.03 15.96-15.96 15.96-15.96 15.96-15.9 15.97-31.92 47.88-16.03 15.96-15.96 15.97-15.9 15.96-31.92 47.88-16.03 15.97-15.96 15.96-15.96 15.96-15.9 15.96-31.93 47.89-16.02 15.96-15.96 15.96-15.97 15.96-15.89 15.97-15.97 31.92-16.02 15.96-15.96 15.96-15.97 15.97-15.89 15.96-31.93 47.88-16.02 15.97-15.97 15.96-15.96 15.96-15.9 15.96-31.92 47.89-16.03 15.96-15.96 15.96-15.9 15.96-31.92 47.89-16.03 15.96-15.96 15.96-15.96 15.97-15.9 15.96-31.92 47.88-16.03 15.97-15.96 15.96-15.96 15.96-15.9 15.96-15.96 31.93-16.03 15.96-15.96 15.96c-14.72 24.27-1.1 24.45-16.03 0V207.28l-15.89-15.9h-2728.39l-.93 9848.08zM12832.97 143.59v31.93l-15.96 15.96v15.96l-15.97 15.96v15.97l-15.96 15.96v31.92l-15.96 15.96v15.97l-15.96 15.96v15.96l-15.96 15.96v31.93l-15.97 15.96v15.96l-15.96 15.96v15.96l-15.96 15.97v31.92l-15.96 15.96v15.96l-15.96 15.97v31.92l-15.97 15.96v15.96l-15.96 15.97v15.96l-15.96 15.96v31.92l-15.96 15.97v15.96l-15.96 15.96v15.96l-15.97 15.96V814l-15.96 15.96v15.96l-15.96 15.96-15.96 63.85-15.96 15.96v15.97l-15.97 15.96v31.92l-15.96 15.97v15.96l-15.96 15.96v15.96l-15.96 15.96v31.93l-15.96 15.96v15.96l-15.97 15.96v15.97l-15.96 15.96v31.92l-15.96 15.96v15.97l-15.96 15.96-15.96 63.85-15.97 15.96v15.96l-15.96 15.96v31.93l-15.96 15.96v15.96l-15.96 15.96v15.96l-15.96 15.97v31.92l-15.97 15.96v15.96l-15.96 15.97v15.96l-15.96 15.96v31.92l-15.96 15.97v15.96l-15.96 15.96v31.92l-15.97 15.97v15.96l-15.96 15.96v15.96l-15.96 15.96v31.93l-15.96 15.96v15.96l-15.97 15.96v15.97l-15.96 15.96v31.92l-15.96 15.96v15.97l-15.96 15.96v15.96l-15.96 15.96v31.93l-15.97 15.96v15.96l-15.96 15.96v31.93l-15.96 15.96v15.96l-15.96 15.96v15.96l-15.96 15.97v31.92l-15.97 15.96v15.96l-15.96 15.97v15.96l-15.96 15.96v31.92l-15.96 15.97v15.96l-15.96 15.96-15.97 63.85-15.96 15.96v15.96l-15.96 15.96v31.93l-15.96 15.96v15.96l-15.96 15.96v15.97l-15.97 15.96v31.92l-15.96 15.97v15.96l-15.96 15.96v15.96l-15.96 15.96v31.93l-15.96 15.96v15.96l-15.97 15.96-15.96 63.85-15.96 15.96v15.97l-15.96 15.96v31.92l-15.96 15.96v15.97l-15.97 15.96v15.96l-15.96 15.96v31.93l-15.96 15.96v15.96l-15.96 15.96v15.96l-15.96 15.97v31.92l-15.97 15.96v15.96l-15.96 15.97v31.92l-15.96 15.96v15.96l-15.96 15.97V3336l-15.96 15.96v31.92l-15.97 15.97v15.96l-15.96 15.96v15.96l-15.96 15.96v31.93l-15.96 15.96v15.96l-15.96 15.96v15.97l-15.97 15.96v31.92l-15.96 15.96v15.97l-15.96 15.96v31.92l-15.96 15.96v15.97l-15.96 15.96v15.96l-15.97 15.96v31.93l-15.96 15.96v15.96l-15.96 15.96v15.96l-15.96 15.97v31.92l-15.96 15.96v15.96l-15.97 15.97-15.96 63.84-15.96 15.97v15.96l-15.96 15.96v31.92l-15.96 15.97v15.96l-15.97 15.96v15.96l-15.96 15.96v31.93l-15.96 15.96v15.96l-15.96 15.96v15.97l-15.96 15.96v31.92l-15.97 15.96v15.97l-15.96 15.96-15.96 63.85-15.96 15.96v15.96l-15.96 15.96v31.93l-15.97 15.96v15.96l-15.96 15.96v15.97l-15.96 15.96v31.92l-15.96 15.96v15.97l-15.96 15.96v15.96l-15.97 15.96v31.93l-15.96 15.96v15.96l-15.96 15.96v31.93l-15.96 15.96v15.96l-15.97 15.96v15.96l-15.96 15.97v31.92l-15.96 15.96v15.96l-15.96 15.97v15.96l-15.96 15.96v31.92l-15.97 15.97v15.96l-15.96 15.96v15.96l-15.96 15.96v31.93l-15.96 15.96v15.96l-15.96 15.96v31.93l-15.97 15.96v15.96l-15.96 15.96v15.97l-15.96 15.96v31.92l-15.96 15.96v15.97l-15.96 15.96v15.96l-15.97 15.96v31.93l-15.96 15.96v15.96l-15.96 15.96-15.96 63.85-15.96 15.96v15.96l-15.97 15.97v31.92l-15.96 15.96v15.96l-15.96 15.97v15.96l-15.96 15.96v31.92l-15.96 15.97v15.96l-15.97 15.96v15.96l-15.96 15.96v31.93l-15.96 15.96v15.96l-15.96 15.96-15.96 63.85-15.97 15.96v15.97l-15.96 15.96v31.92l-15.96 15.96v15.97l-15.96 15.96v15.96l-15.96 15.96v31.93l-15.97 15.96v15.96l-15.96 15.96v15.97l-15.96 15.96v31.92l-15.96 15.96v15.97l-15.96 15.96v31.92l-15.97 15.96v15.97l-15.96 15.96v15.96l-15.96 15.96v31.93l-15.96 15.96v15.96l-15.96 15.96v15.96l-15.97 15.97v31.92l-15.96 15.96v15.96l-15.96 15.97v15.96l-15.96 15.96v31.92l-15.96 15.97v15.96l-15.97 15.96v31.92l-15.96 15.97v15.96l-15.96 15.96v15.96l-15.96 15.96v31.93l-15.96 15.96v15.96l-15.97 15.96v15.97l-15.96 15.96v31.92l-15.96 15.96v15.97l-15.96 15.96-15.96 63.85-15.97 15.96v15.96l-15.96 15.96v31.93l-15.96 15.96v15.96l-15.96 15.96v15.96l-15.96 15.97v31.92l-15.97 15.96v15.96l-15.96 15.97v15.96l-15.96 15.96v31.92l-15.96 15.97v15.96l-15.96 15.96-15.97 63.85-15.96 15.96v15.96l-15.96 15.96v31.93l-15.96 15.96v15.96l-15.97 15.96v15.97l-15.96 15.96v31.92l-15.96 15.96v15.97l-15.96 15.96v15.96l-15.96 15.96v31.93l-15.97 15.96v15.96l-15.96 15.96v31.93l-15.96 15.96v15.96l-15.96 15.96v15.97l-15.96 15.96v31.92l-15.97 15.96v15.97l-15.96 15.96v15.96l-15.96 15.96v31.93l-15.96 15.96v15.96l-15.96 15.96v15.96l-15.97 15.97v31.92l-15.96 15.96v15.96l-15.96 15.97v31.92l-15.96 15.96v15.96l-15.96 15.97v15.96l-15.97 15.96v31.92l-15.96 15.97v15.96l-15.96 15.96v15.96l-15.96 15.96v31.93l-15.96 15.96v15.96l-15.97 15.96-15.96 63.85-15.96 15.96v15.97l-15.96 15.96v31.92l-15.96 15.96v15.97l-15.97 15.96v15.96l-15.96 15.96v31.93l-15.96 15.96v15.96l-15.96 15.96v15.96l-15.96 15.97v31.92l-15.97 15.96v15.96l-15.96 15.97-15.96 63.84-15.96 15.97v15.96l-15.96 15.96v31.92l-15.97 15.97v15.96l-15.96 15.96v15.96l-15.96 15.96v31.93l-15.96 15.96v15.96l-15.96 15.96v15.97l-15.97 15.96v31.92l-15.96 15.96v15.97l-15.96 15.96v31.92l-15.96 15.96v15.97l-15.96 15.96v15.96l-15.97 15.96v31.93l-15.96 15.96v15.96l-15.96 15.96V9641l-15.96 15.96v31.92l-15.96 15.96v15.97l-15.97 15.96v15.96l-15.96 15.96v31.93l-15.96 15.96v15.96l-15.96 15.96v31.93l-15.96 15.96v15.96l-15.97 15.96v15.96l-15.96 15.97v31.92l-15.96 15.96v15.96l2872.92 15.97v-15.97l15.96-15.96v-15.96l15.96-15.96v-31.93l15.96-15.96v-15.96l15.96-15.96v-31.93l15.97-15.96v-15.96l15.96-15.96v-31.93l15.96-15.96v-15.96l15.96-15.96v-31.93l15.96-15.96v-15.96l15.97-15.96v-31.93l15.96-15.96v-15.96l15.96-15.96v-31.93l15.96-15.96v-15.96l15.97-15.96v-31.93l15.96-15.96v-15.96l15.96-15.96v-31.93l15.96-15.96v-15.96l15.96-15.96v-31.93l15.97-15.96v-15.96l15.96-15.96v-31.93l15.96-15.96v-15.96l15.96-15.96v-31.93l15.96-15.96v-15.96l15.97-15.96v-31.93l15.96-15.96v-15.96l15.96-15.96v-31.93l15.96-15.96v-15.96l15.96-15.96v-31.93l15.97-15.96v-15.96l15.96-15.96v-31.93l15.96-15.96v-15.96l15.96-15.96v-31.93l15.96-15.96v-15.96l15.97-15.96v-31.93l15.96-15.96v-15.96l15.96-15.96v-31.93l15.96-15.96v-15.96l15.96-15.96v-31.93l15.97-15.96v-15.96l15.96-15.96v-31.93l15.96-15.96v-15.96l15.96-15.96v-31.93l15.96-15.96v-15.96l16.03-15.96c47.41-30.09 151.46-16.07 207.49-15.97 407.54.74 3466.75-19.65 3564.26 11.1 2.63.83 7.68 2.7 11.09 4.87l16.03 15.96v31.92l15.96 15.96V8380l15.96 15.96v31.92l15.96 15.96v15.97l15.96 15.96v31.92l15.97 15.96v15.97l15.96 15.96v31.92l15.96 15.96v15.97l15.96 15.96v15.96l15.96 15.96v31.93l15.97 15.96v15.96l15.96 15.96v31.93l15.96 15.96v15.96l15.96 15.96v31.93l15.96 15.96v15.96l15.97 15.96v31.93l15.96 15.96v15.96l15.96 15.96v31.93l15.96 15.96v15.96l15.96 15.96v15.96l15.97 15.97v31.92l15.96 15.96v15.96l15.96 15.97v31.92l15.96 15.96v15.96l15.96 15.97v31.92l15.97 15.96v15.96l15.96 15.97v31.92l15.96 15.96v15.96l15.96 15.97 15.96 63.84 15.97 15.97v15.96l15.96 15.96v31.92l15.96 15.97v15.96l15.96 15.96V9641l15.96 15.96v15.96l15.97 15.96v31.93l15.96 15.96v15.96l15.96 15.96v31.93l15.96 15.96v15.96l15.96 15.96v15.96l15.97 15.97v31.92l15.96 15.96v15.96l15.96 15.97v31.92l15.96 15.96v15.96l15.9 15.97 2745.42.07c52.66.31 131.05 12.21 175.45-16.03v-31.92l-15.96-15.96v-15.96l-15.97-15.97v-15.96l-15.96-15.96v-31.92l-15.96-15.97v-15.96l-15.96-15.96v-15.96l-15.96-15.96v-31.93l-15.97-15.96v-15.96l-15.96-15.96-15.96-63.85-15.96-15.96v-15.97l-15.96-15.96v-31.92l-15.97-15.97v-15.96l-15.96-15.96v-15.96l-15.96-15.96v-31.93l-15.96-15.96v-15.96l-15.96-15.96v-15.97l-15.97-15.96v-31.92l-15.96-15.96v-15.97l-15.96-15.96v-31.92l-15.96-15.96v-15.97l-15.96-15.96v-15.96l-15.97-15.96v-31.93l-15.96-15.96v-15.96l-15.96-15.96v-15.96l-15.96-15.97v-31.92l-15.96-15.96v-15.96l-15.97-15.97v-15.96l-15.96-15.96v-31.92l-15.96-15.97v-15.96l-15.96-15.96v-31.92l-15.96-15.97v-15.96l-15.97-15.96v-15.96l-15.96-15.96v-31.93l-15.96-15.96v-15.96l-15.96-15.96v-15.97l-15.96-15.96v-31.92l-15.97-15.96v-15.97l-15.96-15.96-15.96-63.85-15.96-15.96v-15.96l-15.97-15.96v-31.93l-15.96-15.96v-15.96l-15.96-15.96v-15.96l-15.96-15.97v-31.92l-15.96-15.96v-15.96l-15.97-15.97v-15.96l-15.96-15.96v-31.92l-15.96-15.97v-15.96l-15.96-15.96-15.96-63.85-15.97-15.96v-15.96l-15.96-15.96v-31.93l-15.96-15.96v-15.96l-15.96-15.96v-15.97l-15.96-15.96v-31.92l-15.97-15.96v-15.97l-15.96-15.96v-15.96l-15.96-15.96v-31.93l-15.96-15.96v-15.96l-15.96-15.96v-31.93l-15.97-15.96v-15.96l-15.96-15.96v-15.97l-15.96-15.96v-31.92l-15.96-15.96v-15.97l-15.96-15.96v-15.96l-15.97-15.96v-31.93l-15.96-15.96v-15.96l-15.96-15.96v-15.96l-15.96-15.97v-31.92l-15.96-15.96v-15.96l-15.97-15.97v-31.92l-15.96-15.96v-15.96l-15.96-15.97v-15.96l-15.96-15.96v-31.92l-15.96-15.97v-15.96l-15.97-15.96v-15.96l-15.96-15.96v-31.93l-15.96-15.96v-15.96l-15.96-15.96-15.96-63.85-15.97-15.96v-15.97l-15.96-15.96v-31.92l-15.96-15.96v-15.97l-15.96-15.96v-15.96l-15.96-15.96v-31.93l-15.97-15.96v-15.96l-15.96-15.96v-15.96l-15.96-15.97v-31.92l-15.96-15.96v-15.96l-15.96-15.97-15.97-63.84-15.96-15.97v-15.96l-15.96-15.96v-31.92l-15.96-15.97v-15.96l-15.96-15.96v-15.96l-15.97-15.96v-31.93l-15.96-15.96v-15.96l-15.96-15.96v-15.97l-15.96-15.96v-31.92l-15.96-15.96v-15.97l-15.97-15.96v-31.92l-15.96-15.96v-15.97l-15.96-15.96v-15.96l-15.96-15.96v-31.93l-15.96-15.96v-15.96l-15.97-15.96v-15.97l-15.96-15.96v-31.92l-15.96-15.96v-15.97l-15.96-15.96v-15.96l-15.96-15.96v-31.93l-15.97-15.96v-15.96l-15.96-15.96v-31.93l-15.96-15.96v-15.96l-15.96-15.96v-15.96l-15.97-15.97v-31.92l-15.96-15.96v-15.96l-15.96-15.97v-15.96l-15.96-15.96v-31.92l-15.96-15.97v-15.96l-15.97-15.96-15.96-63.85-15.96-15.96v-15.96l-15.96-15.96v-31.93l-15.96-15.96v-15.96l-15.97-15.96v-15.97l-15.96-15.96v-31.92l-15.96-15.96v-15.97l-15.96-15.96v-15.96l-15.96-15.96v-31.93l-15.97-15.96v-15.96l-15.96-15.96-15.96-63.85-15.96-15.96v-15.96l-15.96-15.97v-31.92l-15.97-15.96v-15.96l-15.96-15.97v-15.96l-15.96-15.96v-31.92l-15.96-15.97v-15.96l-15.96-15.96v-15.96l-15.97-15.96v-31.93l-15.96-15.96v-15.96l-15.96-15.96-15.96-63.85-15.96-15.96v-15.97l-15.97-15.96v-31.92l-15.96-15.96v-15.97l-15.96-15.96v-15.96l-15.96-15.96v-31.93l-15.96-15.96v-15.96l-15.97-15.96v-15.97l-15.96-15.96v-31.92l-15.96-15.96v-15.97l-15.96-15.96v-31.92l-15.96-15.96v-15.97l-15.97-15.96v-15.96l-15.96-15.96v-31.93l-15.96-15.96v-15.96l-15.96-15.96v-15.96l-15.96-15.97v-31.92l-15.97-15.96v-15.96l-15.96-15.97v-15.96l-15.96-15.96v-31.92l-15.96-15.97v-15.96l-15.96-15.96v-31.92l-15.97-15.97v-15.96l-15.96-15.96v-15.96l-15.96-15.96v-31.93l-15.96-15.96v-15.96l-15.96-15.96v-15.97l-15.97-15.96v-31.92l-15.96-15.96v-15.97l-15.96-15.96-15.96-63.85-15.96-15.96v-15.96l-15.97-15.96v-31.93l-15.96-15.96v-15.96l-15.96-15.96v-15.96l-15.96-15.97v-31.92l-15.96-15.96v-15.96l-15.97-15.97v-15.96l-15.96-15.96v-31.92l-15.96-15.97v-15.96l-15.96-15.96-15.96-63.85-15.97-15.96v-15.96l-15.96-15.96v-31.93l-15.96-15.96v-15.96l-15.96-15.96v-15.97l-15.96-15.96v-31.92l-15.97-15.96v-15.97l-15.96-15.96v-15.96l-15.96-15.96v-31.93l-15.96-15.96v-15.96l-15.97-15.96v-31.93l-15.96-15.96v-15.96l-15.96-15.96v-15.97l-15.96-15.96v-31.92l-15.96-15.96v-15.97l-15.97-15.96v-15.96l-15.96-15.96v-31.93l-15.96-15.96v-15.96l-15.96-15.96v-15.96l-15.96-15.97v-31.92l-15.97-15.96v-15.96l-15.96-15.97v-31.92l-15.96-15.96v-15.96l-15.96-15.97v-15.96l-15.96-15.96v-31.92l-15.97-15.97v-15.96l-15.96-15.96v-15.96l-15.96-15.96v-31.93l-15.96-15.96v-15.96l-15.96-15.96-15.97-63.85-15.96-15.96v-15.97l-15.96-15.96v-31.92l-15.96-15.96v-15.97l-15.96-15.96v-15.96l-15.97-15.96v-31.93l-15.96-15.96v-15.96l-15.96-15.96V1660l-15.96-15.97v-31.92l-15.96-15.96v-15.96l-15.97-15.97-15.96-63.84-15.96-15.97v-15.96l-15.96-15.96v-31.92l-15.96-15.97v-15.96l-15.97-15.96v-15.96l-15.96-15.96v-31.93l-15.96-15.96v-15.96l-15.96-15.96v-15.97l-15.96-15.96v-31.92l-15.97-15.96v-15.97l-15.96-15.96v-31.92l-15.96-15.96v-15.97l-15.96-15.96v-15.96l-15.96-15.96v-31.93l-15.97-15.96v-15.96l-15.96-15.96V941.7l-15.96-15.96v-31.92l-15.96-15.96v-15.97l-15.96-15.96v-15.96l-15.97-15.96v-31.93l-15.96-15.96v-15.96l-15.96-15.96v-31.93l-15.96-15.96v-15.96l-15.96-15.96v-15.96l-15.97-15.97v-31.92l-15.96-15.96v-15.96l-15.96-15.97v-15.96l-15.96-15.96v-31.92l-15.96-15.97v-15.96l-15.97-15.96-15.96-63.85-15.96-15.96v-15.96l-15.96-15.96v-31.93l-15.96-15.96v-15.96l-15.97-15.96v-15.97l-15.96-15.96v-31.92l-15.96-15.96V143.6l-15.9-15.89h-2633.62l-15.9 15.89zm1292.74 3272.08v31.92l-15.96 15.96v15.97l-15.96 15.96v31.92l-15.96 15.96v15.97l-15.96 15.96v31.92l-15.97 15.96-15.96 63.85-15.96 15.96v31.93l-15.96 15.96v15.96l-15.96 15.96v31.93l-15.97 15.96v15.96l-15.96 15.96v31.93l-15.96 15.96v15.96l-15.96 15.96v31.93l-15.96 15.96v15.96l-15.97 15.96v31.93l-15.96 15.96v15.96l-15.96 15.96v31.93l-15.96 15.96v15.96l-15.96 15.96v31.93l-15.97 15.96v15.96l-15.96 15.96v31.93l-15.96 15.96v15.96l-15.96 15.96v31.93l-15.96 15.96v15.96l-15.97 15.97v31.92l-15.96 15.96v15.96l-15.96 15.97v31.92l-15.96 15.96v15.96l-15.96 15.97v31.92l-15.97 15.96v15.96l-15.96 15.97v31.92l-15.96 15.96-15.96 63.85-15.96 15.96v31.93l-15.97 15.96v15.96l-15.96 15.96v31.93l-15.96 15.96v15.96l-15.96 15.96v31.93l-15.96 15.96v15.96l-15.97 15.96v31.93l-15.96 15.96v15.96l-15.96 15.96v31.93l-15.96 15.96v15.96l-15.96 15.96v31.93l-15.97 15.96v15.96l-15.96 15.96v31.93l-15.96 15.96v15.96l-15.96 15.96V5379l-15.96 15.96v15.96l-15.97 15.96v31.93l-15.96 15.96v15.96l-15.96 15.96v31.93l-15.96 15.96v15.96l-15.96 15.96v31.93l-15.97 15.96v15.96l-15.96 15.96v31.93l-15.96 15.96v15.96l-15.96 15.96v31.93l-15.96 15.96-15.97 63.85-15.96 15.96v31.92l-15.96 15.96v15.97l-15.96 15.96v31.92l-15.96 15.96v15.97l-15.97 15.96v31.92l-15.96 15.96v15.97l-15.96 15.96v31.92l.06 16.03h2168.75l2.06-31.99-15.96-15.96v-15.96l-15.96-15.97v-31.92l-15.96-15.96v-15.96l-15.97-15.97v-31.92l-15.96-15.96v-31.93l-15.96-15.96v-15.96l-15.96-15.96v-31.93l-15.96-15.96v-15.96l-15.97-15.96v-31.93l-15.96-15.96v-15.96l-15.96-15.96v-31.93l-15.96-15.96v-15.96l-15.96-15.96v-31.93l-15.97-15.96v-31.92l-15.96-15.96v-15.97l-15.96-15.96v-31.92l-15.96-15.96v-15.97l-15.96-15.96v-31.92l-15.97-15.96v-15.97l-15.96-15.96v-31.92l-15.96-15.96v-15.97l-15.96-15.96v-31.92l-15.96-15.96-15.97-63.85-15.96-15.96v-31.93l-15.96-15.96v-15.96l-15.96-15.96v-31.93l-15.96-15.96v-15.96l-15.97-15.96v-31.93l-15.96-15.96v-15.96l-15.96-15.96v-31.93l-15.96-15.96v-15.96l-15.96-15.96v-31.93l-15.97-15.96v-31.92l-15.96-15.97v-15.96l-15.96-15.96v-31.92l-15.96-15.97v-15.96l-15.96-15.96v-31.92l-15.97-15.97v-15.96l-15.96-15.96v-31.92l-15.96-15.97v-15.96l-15.96-15.96v-31.92l-15.97-15.97v-31.92l-15.96-15.96v-15.97l-15.96-15.96v-31.92l-15.96-15.96v-15.97l-15.96-15.96v-31.92l-15.97-15.96v-15.97l-15.96-15.96v-31.92l-15.96-15.96v-15.97l-15.96-15.96v-31.92l-15.96-15.96v-15.97l-15.97-15.96v-31.92l-15.96-15.96v-31.93l-15.96-15.96v-15.96l-15.96-15.96v-31.93l-15.96-15.96v-15.96l-15.97-15.96v-31.93l-15.96-15.96v-15.96l-15.96-15.96v-31.93l-15.96-15.96v-15.96l-15.96-15.96v-31.93l-15.97-15.96v-31.92l-15.96-15.97v-15.96l-15.96-15.96v-31.92l-15.96-15.97v-15.96l-15.96-15.96v-31.92h-16.03l-16.03 15.96z"/><path fill="#fff" d="M34316.86 15.96h-159.61c-17.5 16.15 27.57 15.82-47.88 15.96h-95.77l-31.92 15.97h-79.81l-31.93 15.96h-63.84l-31.93 15.96h-63.85l-31.92 15.96h-63.85l-15.96 15.96h-47.89l-15.96 15.97h-47.88l-31.93 15.96h-47.88l-15.97 15.96h-47.88l-15.96 15.96h-31.93l-15.96 15.96h-47.89l-15.96 15.97h-31.92l-15.96 15.96h-47.89l-15.96 15.96h-31.93l-15.96 15.96h-31.92l-15.96 15.96h-31.93l-15.96 15.97h-31.92l-15.97 15.96h-31.92l-15.96 15.96h-15.96l-15.97 15.96h-31.92l-15.96 15.96h-15.96l-15.97 15.97h-31.92l-15.96 15.96h-15.97l-15.96 15.96h-31.92l-15.96 15.96h-15.97l-15.96 15.96h-15.96l-15.96 15.97h-15.96l-15.97 15.96-63.84 15.96-15.97 15.96h-15.96l-15.96 15.96h-15.96l-15.96 15.97h-15.97l-15.96 15.96h-15.96l-15.96 15.96h-15.96l-15.97 15.96h-15.96l-15.96 15.96h-15.96l-15.96 15.97h-15.97l-15.96 15.96-31.92 15.96-15.96 15.96h-15.97l-15.96 15.96h-15.96l-15.96 15.9-15.96 16.03h-15.97l-15.96 15.96h-15.96l-15.96 15.96-31.93 15.96-15.96 15.97h-15.96l-15.96 15.89-15.96 16.03h-15.97l-15.96 15.9-15.96 16.02h-15.96l-15.96 15.97-31.93 15.96-15.96 15.96-31.92 15.96-15.97 15.9-15.96 16.03h-15.96l-15.96 15.89-15.96 16.03-31.93 15.96-15.96 15.9-15.96 16.03h-15.96l-15.97 15.9-15.96 15.96-15.96 16.02-31.93 15.96-15.96 15.9-15.96 16.03-31.92 15.96-15.97 15.9-15.96 15.96-15.96 16.03-47.89 31.92-15.96 15.9-15.96 15.96-15.96 15.96-15.96 16.03-47.89 31.92-15.96 15.9-15.96 15.96-15.97 15.97-15.96 15.96-15.96 15.96-15.96 15.96-15.96 15.96-15.97 16.03-159.55 159.55-16.03 15.96-15.96 15.96-15.96 15.96-15.96 15.96-15.97 15.97-15.96 15.96-15.96 15.96-15.9 15.96-47.88 63.85-16.03 15.96-15.96 15.96-15.96 15.97-15.9 15.96-31.93 47.88-16.02 15.97-15.9 15.96-15.96 31.92-16.03 15.96-15.96 15.97-15.9 15.96-15.96 31.92-16.03 15.96-15.89 15.97-15.97 31.92-16.02 15.96-15.9 15.96-15.96 31.93-15.97 15.96-15.96 31.92-16.02 15.97-15.9 15.96v15.96l-16.03 15.96-15.9 15.96v15.97l-16.02 15.96-15.9 15.96v15.96l-15.96 15.96-15.96 31.93-15.97 15.96-15.96 31.92-15.96 15.97v15.96l-15.96 15.96-15.96 31.92-15.97 15.97v15.96l-15.96 15.96v15.96l-16.02 15.96-15.9 15.97v15.96l-15.96 15.96v15.96l-15.97 15.97v15.96l-15.96 15.96v15.96l-15.96 15.96v15.97l-15.96 15.96v15.96l-15.96 15.96c-23.95 45.34-51.07 88.87-63.85 143.65l-15.96 15.96v15.96l-15.97 15.97v15.96l-15.96 15.96v15.96l-15.96 15.96v31.93l-15.96 15.96v15.96l-15.96 15.96v15.97l-15.97 15.96v31.92l-15.96 15.96v15.97l-15.96 15.96v31.92l-15.96 15.96v15.97l-15.96 15.96v31.92l-15.97 15.96v31.93l-15.96 15.96v31.92l-15.96 15.97v31.92l-15.96 15.96v31.93l-15.96 15.96v31.92l-15.97 15.96v31.93l-15.96 31.92v31.93l-15.96 15.96v47.88l-15.96 15.97v31.92l-15.96 15.96v47.89l-15.97 31.92v47.89l-15.96 15.96v47.89l-15.96 15.96v63.85l-15.96 15.96v63.85l-15.96 31.92v63.85l-15.97 15.96v79.81l-15.96 31.93v95.77l-15.96 31.92v127.69c-.14 75.45.19 30.38-15.96 47.88v207.5c-.03 17.3 1.91 48.94.51 64.42-3.31 36.61 2.89-4.24-3.74 28.18-7.03 34.38-.63 15.93-12.73 35.09v143.65c21.14 33.46 15.91 91.62 15.96 127.69v207.5c16.15 17.5 15.82-27.57 15.96 47.88v127.69l15.96 31.92v95.77l15.96 31.93v79.81l15.97 15.96v63.85l15.96 31.92v63.85l15.96 15.96v63.85l15.96 15.96v47.89l15.96 15.96v47.89l15.97 31.92v47.89l15.96 15.96v31.92l15.96 15.97v47.88l15.96 15.96v31.93l15.96 15.96v47.89l15.97 15.96v31.92l15.96 15.96v31.93l15.96 15.96v31.92l15.96 15.97v31.92l15.96 15.96v31.93l15.97 15.96v15.96l15.96 15.96v31.93l15.96 15.96v31.92l15.96 15.96v15.97l15.96 15.96v31.92l15.97 15.96v15.97l15.96 15.96v15.96l15.96 15.96v31.93l15.96 15.96v15.96l15.96 15.96v15.96l15.97 15.97v15.96l15.96 15.96v15.96l15.96 15.96c9.78 41.92 14.55 46.92 31.92 79.81l15.97 15.97v15.96l15.96 15.96v15.96l15.96 15.96v15.97l15.96 15.96v15.96l15.96 15.96v15.96l15.97 15.97v15.96l15.96 15.96 15.96 31.92 15.96 15.97v15.96l15.96 15.96v15.96l15.97 15.96 15.96 31.93 15.96 15.96v15.96l15.96 15.96 15.96 31.93 15.97 15.96 15.96 31.93 15.96 15.96v15.96l15.9 15.96 16.02 15.96v15.97l15.9 15.96 16.03 15.96v15.96l15.9 15.96 16.02 15.97 15.96 31.92 15.9 15.96 16.03 15.96v15.97l15.9 15.96 16.02 15.96 15.97 31.92 15.89 15.97 16.03 15.96 15.96 31.92 15.9 15.96 15.96 15.97 16.03 15.96 15.96 31.92 15.9 15.96 16.02 15.97 31.93 47.88 15.9 15.96 15.96 15.97 15.96 15.96 15.96 15.96 16.03 15.96 31.92 47.89 15.9 15.96 15.96 15.96 15.96 15.96 15.97 15.97 15.96 15.96 15.96 15.96 15.96 15.96 15.96 15.96 16.03 15.97 127.63 127.63 15.96 16.02 15.97 15.97 15.96 15.96 15.96 15.96 15.96 15.96 15.96 15.96 15.97 15.97 15.96 15.96 15.96 15.9 47.89 31.92 15.96 16.03 15.96 15.96 15.96 15.96 15.96 15.9 47.89 31.92 15.96 16.03 15.96 15.9 47.89 31.92 15.96 16.03 15.96 15.89 31.93 15.97 15.96 16.02 15.96 15.96 15.97 15.9h15.96l15.96 16.03 15.96 15.9 31.93 15.96 15.96 16.02 15.96 15.9h15.96l15.96 16.03 15.97 15.9 31.92 15.96 15.96 15.96 31.93 15.96 15.96 15.97h15.96l15.96 16.02 15.96 15.9h15.97l15.96 16.02 15.96 15.9h15.96l15.96 15.97 31.93 15.96 15.96 15.96h15.96l15.96 15.96h15.97l15.96 15.96 31.92 15.97 15.96 15.96h15.97l15.96 15.96h15.96l15.96 15.96 31.93 15.96 15.96 15.97h15.96l15.96 15.96h15.96l15.97 15.96h15.96l15.96 15.96h15.96l15.96 15.96h15.97l15.96 15.97h15.96l15.96 15.96h15.96l15.97 15.96h31.92l15.96 15.96h15.96l15.97 15.96h15.96l15.96 15.97h15.96l15.96 15.96h15.97l15.96 15.96h31.92l15.96 15.96h15.97l15.96 15.96h31.92l15.97 15.97h15.96l15.96 15.96h31.92l15.97 15.96h31.92l15.96 15.96h15.96l31.93 15.96h15.96l15.96 15.97h31.93l15.96 15.96h31.92l15.96 15.96h31.93l15.96 15.96h47.89l15.96 15.96h31.92l15.96 15.97h47.89l15.96 15.96h31.93l15.96 15.96h47.88l15.97 15.96h47.88l31.93 15.96h47.88l15.96 15.97h47.89l31.92 15.96h63.85l15.96 15.96h63.85l31.93 15.96h63.84l31.93 15.96h95.77l31.93 15.97h95.77c75.45.14 30.38-.19 47.88 15.96h159.61c75.46.14 30.38-.19 47.89 15.96h542.69c17.5-16.15-27.57-15.82 47.88-15.96h159.61c17.5-16.15-27.57-15.82 47.89-15.96h95.77l31.93-15.97h95.77l31.92-15.96h63.85l31.93-15.96h63.84l15.97-15.96h63.84l31.93-15.96h47.88l15.97-15.97h47.88l15.96-15.96h47.89l31.92-15.96h31.93l15.96-15.96h47.89l15.96-15.96h31.92l31.93-15.97h31.92l15.96-15.96h31.93l15.96-15.96h31.92l15.96-15.96h31.93l15.96-15.96h31.92l15.97-15.97h31.92l15.96-15.96h31.93l15.96-15.96h31.92l15.97-15.96h15.96l15.96-15.96h31.92l15.97-15.97h15.96l15.96-15.96h31.92l15.97-15.96h15.96l15.96-15.96 63.85-15.96 15.96-15.97h15.96l15.96-15.96h15.97l15.96-15.96h15.96l15.96-15.96h31.93l15.96-15.96 95.77-47.89 15.96-15.96h15.96l15.97-15.96h15.96l15.96-15.97h15.96l15.96-15.96h15.97l15.96-15.96h15.96l15.96-15.96 31.93-15.96 15.96-15.97h15.96l15.96-15.96h15.96l15.97-15.96 31.92-15.96 15.96-15.96h15.96l15.97-15.9 15.96-16.03h15.96l15.96-15.96 31.93-15.96 15.96-15.96 31.92-15.97 15.96-15.96h15.97l15.96-15.9 15.96-16.02 31.92-15.96 15.97-15.97 31.92-15.96 15.96-15.9 15.96-16.02 31.93-15.97 15.96-15.96 31.93-15.96 15.96-15.9 15.96-15.96 15.96-16.03 31.93-15.96 15.96-15.9 15.96-16.02 47.89-31.93 15.96-15.89 15.96-15.97 15.96-16.02 47.89-31.93 15.96-15.89 15.96-15.97 15.96-15.96 15.97-16.02 47.88-31.93 15.96-15.9 15.97-15.96 15.96-15.96 15.96-15.96 15.96-15.96 15.96-15.97 15.97-15.96 15.96-15.96 15.96-15.96 15.96-15.96 15.96-15.97 15.97-15.96 15.96-15.96 15.96-15.96 15.96-15.96 15.96-15.97 15.97-15.96 15.96-15.96 15.96-15.96 15.96-15.96 15.96-15.97 15.9-15.96 31.93-47.88 16.02-15.97 15.96-15.96 15.97-15.96 15.96-15.96 15.9-15.96 31.92-47.89 16.03-15.96 15.96-15.96 15.9-15.97 15.96-31.92 16.02-15.96 15.9-15.96 31.93-47.89 16.02-15.96 15.9-15.96 15.96-31.93 16.03-15.96 15.9-15.96v-15.96l16.02-15.97 15.9-15.96 15.96-31.92 16.03-15.96 15.9-15.97v-15.96l16.02-15.96 15.9-15.96v-15.96l16.03-15.97 15.9-15.96v-15.96l16.02-15.96 15.9-15.96v-15.97l15.96-15.96 15.96-31.92 15.97-15.97 15.96-31.92 15.96-15.96v-15.96l15.96-15.97v-15.96l15.96-15.96 15.97-31.92 15.96-15.97v-15.96l15.96-15.96v-15.96l16.03-15.96 15.89-15.97v-15.96l15.97-15.96v-15.96l15.96-15.96V7502l15.96-15.96v-15.96l15.96-15.96v-15.96l15.96-15.97v-15.96l15.97-15.96v-15.96l15.96-15.96v-15.97l15.96-15.96v-15.96l15.96-15.96v-31.93l15.96-15.96v-15.96l15.97-15.96v-15.96l15.96-15.97v-15.96l15.96-15.96v-31.92l15.96-15.97v-15.96l15.96-15.96v-31.92l15.97-15.97v-15.96l15.96-15.96v-31.92l15.96-15.97v-15.96l15.96-15.96v-31.92l15.96-15.97v-31.92l15.97-15.96v-31.93l15.96-15.96v-31.92l15.96-15.96v-31.93l15.96-15.96v-31.92l15.96-15.97v-47.88l15.97-15.96v-31.93l15.96-15.96v-47.89l15.96-15.96v-31.92l15.96-15.96v-47.89l15.96-31.92v-47.89l15.97-15.96v-47.89l15.96-15.96v-63.85l15.96-31.92v-63.85l15.96-15.96v-63.85l15.96-31.93v-79.81l15.97-31.92v-95.77l15.96-31.93v-159.61c.14-75.45-.19-30.38 15.96-47.88v-686.35c-16.15-17.5-15.82 27.57-15.96-47.88V4581l-15.96-31.93v-95.77l-15.97-31.92v-79.81l-15.96-31.92v-63.85l-15.96-15.96v-63.85l-15.96-31.92v-63.85l-15.96-15.96v-47.89l-15.97-15.96v-47.89l-15.96-31.92v-47.89l-15.96-15.96v-31.92l-15.96-15.96v-47.89l-15.96-15.96v-31.93l-15.97-31.92v-31.92l-15.96-15.97v-31.92l-15.96-15.96v-31.93l-15.96-15.96v-31.92l-15.96-15.96v-31.93l-15.97-15.96v-31.92l-15.96-15.97v-31.92l-15.96-15.96v-15.96l-15.96-15.97v-31.92l-15.96-15.96v-15.96l-15.97-15.97v-31.92l-15.96-15.96-15.96-63.85-15.96-15.96v-15.96l-15.96-15.97v-15.96l-15.97-15.96v-15.96l-15.96-15.96v-31.93l-15.96-15.96v-15.96l-15.96-15.96v-15.97l-15.96-15.96v-15.96l-15.97-15.96v-15.96l-15.96-15.97v-15.96l-15.96-15.96v-15.96l-15.96-15.96v-15.97l-15.96-15.96v-15.96l-15.97-15.96v-15.96l-15.89-15.97-16.03-15.96v-15.96l-15.96-15.96v-15.97l-15.96-15.96v-15.96l-15.9-15.96-16.03-15.96v-15.97l-15.96-15.96v-15.96l-15.96-15.96-15.96-31.93-15.97-15.96-15.96-31.92-15.96-15.96v-15.97l-15.9-15.96-16.02-15.96v-15.96l-15.97-15.96-15.96-31.93-15.9-15.96-16.02-15.96v-15.96l-15.9-15.97-16.03-15.96-15.96-31.92-15.96-15.96-15.96-31.93-15.9-15.96-16.03-15.96-15.96-31.93-15.9-15.96-16.02-15.96-15.96-31.92-15.9-15.97-15.97-15.96-16.02-15.96-15.96-31.92-15.9-15.97-15.96-15.96-16.03-15.96-31.92-47.89-15.9-15.96-15.96-15.96-15.97-15.96-16.02-15.96-47.89-63.85-15.9-15.96-15.96-15.97-15.96-15.96-15.96-15.96-15.96-15.96-15.97-15.96-15.96-15.97-15.96-15.96-15.96-15.96-15.96-15.96-15.97-15.9-1787.6 1787.6v15.96l15.96 31.93 15.9 15.96 15.96 15.96 15.97 15.96 15.96 15.97 15.96 15.96 15.96 15.96 16.03 15.96 31.92 47.89 15.9 15.96 16.03 15.96 15.96 31.93 15.9 15.96 16.02 15.96 15.96 31.92 15.9 15.97 16.03 15.96 15.96 31.92 15.96 15.96 15.96 31.93 15.97 15.96v15.96l15.96 15.96 15.96 31.93 15.96 15.96v15.96l15.9 15.96 16.03 15.97v15.96l15.96 15.96v15.96l15.96 15.96v15.97l15.96 15.96v15.96l15.96 15.96v15.96l15.97 15.97c11.54 49.5 20.39 46.2 31.92 95.77l15.96 15.96v31.92l15.96 15.97v15.96l15.97 15.96v31.92l15.96 15.97v31.92l15.96 15.96v15.96l15.96 15.97v47.88l15.96 15.97v47.88l15.97 15.96v47.89l15.96 15.96v47.89l15.96 15.96v79.81l15.96 15.96v79.81l15.96 31.93v127.69c10.75 17.02 9.08.48 14.51 33.32 2.36 14.27 1.43 31.88 1.45 46.49v207.5c-.02 8.55.16 26.43-1.11 30.85-8.27 28.75-4.51 17.21-14.86 33v143.65l-15.96 31.93v79.81l-15.96 15.96v79.81l-15.96 15.96v47.89l-15.96 15.96v47.89l-15.97 15.96v47.88l-15.96 15.97v31.92l-15.96 15.96v31.93l-15.96 15.96v31.92l-15.96 15.96v31.93l-15.97 15.96v15.96l-15.96 15.96v31.93l-15.96 15.96v15.96l-15.96 15.97-15.96 63.84-15.97 15.97v15.96l-15.96 15.96v15.96l-15.96 15.96v15.97l-15.96 15.96v15.96l-15.96 15.96-15.97 31.93-15.96 15.96v15.96l-15.96 15.96-15.96 31.93-15.96 15.96v15.96l-15.97 15.96-15.96 31.93-15.96 15.96-15.96 31.92-16.03 15.96-15.9 15.97-15.96 31.92-16.02 15.96-15.9 15.96-15.96 31.93-16.03 15.96-15.9 15.96-47.89 63.85-16.02 15.96-15.96 15.96-15.96 15.97-15.97 15.96-15.96 15.96-15.9 15.96-47.95 47.95-15.96 15.9-15.96 15.96-15.96 15.96-15.97 15.97-15.96 15.96-15.96 15.96-15.96 16.03-63.85 47.88-15.96 15.9-15.96 16.03-31.93 15.96-15.96 15.9-15.96 16.02-31.93 15.96-15.96 15.9-15.96 16.03-31.92 15.96-15.97 15.96h-15.96l-15.96 15.96-31.92 15.97-15.97 15.96h-15.96l-15.96 15.9-15.96 16.02h-15.96l-15.97 15.96h-15.96l-15.96 15.97c-21.23 12.12-17.04 10.26-47.89 15.96l-15.96 15.96h-15.96l-15.96 15.96h-15.96l-15.97 15.96h-15.96l-15.96 15.97h-15.96l-15.96 15.96h-15.97l-15.96 15.96h-31.92l-15.96 15.96h-15.97l-15.96 15.96h-31.92l-15.96 15.97h-31.93l-15.96 15.96h-15.96l-15.96 15.96h-31.93l-31.92 15.96h-31.93l-15.96 15.96h-47.88l-15.97 15.97h-47.88l-15.96 15.96h-47.89l-31.93 15.96h-79.81l-31.92 15.96h-63.85l-31.92 15.96h-223.46c-27.84 17.59 36.91 12.08-49.23 15.71-17.13.72-11.04.65-26.32-1.88-36.65-6.06-16.92-1.65-36.18-13.83h-207.5l-31.92-15.96h-79.81l-15.97-15.96h-79.81l-31.92-15.96h-47.89l-15.96-15.96h-47.88l-15.97-15.97h-47.88l-15.97-15.96h-47.88l-15.96-15.96h-31.93l-15.96-15.96h-31.92l-15.97-15.96h-15.96l-15.96-15.97h-31.92l-15.97-15.96h-31.92l-15.96-15.96h-15.96l-15.97-15.96h-15.96l-15.96-15.96h-15.96l-15.96-15.97-63.85-15.96-15.96-15.96h-15.97l-15.96-15.96h-15.96l-15.96-15.96-31.93-15.97-15.96-15.96h-15.96l-15.96-15.96-31.93-15.96-15.96-15.96h-15.96l-15.96-15.97-31.93-15.96-15.96-15.96h-15.96l-15.96-16.03-15.96-15.96-15.97-15.9h-15.96l-15.96-16.02-15.96-15.96-15.96-15.9h-15.97l-15.96-16.03-15.96-15.9-31.92-15.96-15.97-16.02-15.96-15.97-15.96-15.96-15.96-15.96-15.96-15.96-15.97-15.96-15.96-15.9-63.85-47.89-16.02-16.02-63.85-79.81-15.9-15.97-15.96-15.96-15.96-15.96-15.97-15.96-15.96-15.96-16.02-15.97-15.96-31.92-15.9-15.96-16.03-15.96-15.96-31.93-15.9-15.96-16.02-15.96-15.97-31.93-15.9-15.96-16.02-15.96-15.96-31.92-15.97-15.97v-15.96l-15.89-15.96-16.03-15.96v-15.96l-15.96-15.97v-15.96l-15.9-15.96-16.03-15.96v-15.96l-15.96-15.97v-15.96l-15.96-15.96v-15.96l-15.96-15.96v-15.97l-15.96-15.96v-15.96l-15.97-15.96v-15.96l-15.96-15.97v-15.96l-15.96-15.96v-15.96l-15.96-15.96v-15.97l-15.96-15.96v-31.92l-15.97-15.97v-31.92l-15.96-15.96v-15.96l-15.96-15.97v-31.92l-15.96-15.96v-31.93l-15.96-15.96v-31.92l-15.97-15.96v-47.89l-15.96-15.96v-47.89l-15.96-15.96v-47.89l-15.96-15.96v-63.85l-15.96-31.92v-63.85l-15.97-31.92v-79.81c-2.09-3.19-5.96-11.45-6.44-9.46-.5 2.08-4.67-8.13-5.23-10.74-4.54-21.26-4.25-21.07-4.29-43.65V4932.1c.01-8.55-.17-26.43 1.1-30.85 8.28-28.75 4.52-17.21 14.86-33v-79.81l15.97-31.92v-63.85l15.96-31.92v-63.85l15.96-15.96v-47.89l15.96-15.96v-47.89l15.96-15.96v-47.89l15.97-15.96v-31.92l15.96-15.97v-31.92l15.96-15.96v-31.93l15.96-15.96v-15.96l15.96-15.96v-31.93l15.97-15.96V4134l15.96-15.96v-15.97l15.96-15.96v-15.96l15.96-15.96v-15.96l15.96-15.97v-15.96l15.97-15.96v-15.96l15.96-15.96v-15.97l15.96-15.96c5.7-30.84 3.84-26.65 15.96-47.88l15.96-15.97v-15.96l16.03-15.96 15.9-15.96v-15.96l15.96-15.97v-15.96l16.03-15.96 15.89-15.96v-15.96l15.97-15.97 15.96-31.92 16.02-15.96 15.9-15.96 15.97-31.93 16.02-15.96 15.9-15.96 15.96-31.93 16.03-15.96 15.9-15.96 15.96-31.92 16.02-15.97 15.96-15.96 15.97-15.96 15.96-15.96 15.96-15.96 15.9-15.97 47.89-63.84 16.02-15.97 15.96-16.02 79.81-63.85 15.97-15.9 15.96-15.96 15.96-15.96 15.96-15.96 15.96-15.97 15.97-16.02 31.92-15.96 15.96-15.9 15.96-16.03 31.93-15.96 15.96-15.9 15.96-16.02 31.93-15.97 15.96-15.89 15.96-16.03h15.96l15.96-15.96 31.93-15.96 15.96-15.97h15.96l15.96-15.89 15.97-16.03h15.96l15.96-15.96h15.96l15.96-15.9 15.97-16.03h15.96l15.96-15.96h15.96l15.96-15.96h15.97l15.96-15.96h15.96l15.96-15.96 63.85-15.97 15.96-15.96h15.96l15.97-15.96h15.96l15.96-15.96h31.92l15.97-15.96h31.92l15.96-15.97h15.96l15.97-15.96h31.92l15.96-15.96h31.93l15.96-15.96h47.88l15.97-15.96h47.88l15.97-15.97h47.88l15.96-15.96h47.89l15.96-15.96h79.81l31.93-15.96h79.81l31.92-15.96h207.5c3.19-2.09 7.64-9.78 9.46-6.45 1.9 3.48 8.12-4.67 10.74-5.23 21.27-4.54 21.07-4.25 43.65-4.29l415-399.03 15.96-15.9 15.96-15.96 15.96-15.96 15.96-15.96 15.97-15.96 15.96-15.97 15.96-15.96 15.96-15.96 15.97-15.96 15.96-15.96 15.96-15.97 15.96-15.96 15.96-15.96 15.97-15.96 15.96-15.96 15.96-15.97 15.96-15.96 15.96-15.96 15.97-15.96 15.96-15.96 15.96-15.97 15.96-15.96 15.96-15.96 15.97-15.96 15.96-15.96 15.96-15.97 15.96-15.96 15.96-15.96 15.97-15.96 15.96-15.96 15.96-15.97 15.96-15.96 15.96-15.96 15.97-15.96 15.96-15.96 15.96-15.97 15.96-15.96 15.96-15.96 15.97-15.96 15.96-15.96 15.96-15.97 15.96-15.96 15.96-15.96 15.97-15.96 15.96-15.96 15.96-15.97 15.96-15.96 15.96-15.96 15.97-15.96 15.96-15.96 15.96-15.97 15.96-15.96 15.96-15.96v-31.92l-15.96-15.97-15.96-15.96-15.96-15.96-15.96-15.96-15.97-15.96-15.96-15.97-15.96-15.96-15.96-15.96-15.96-15.96-15.97-15.96-15.96-15.97-15.96-15.96-15.96-15.96-15.96-15.96-15.97-15.96-15.96-15.97-15.96-15.96-15.96-15.96-15.96-15.96-15.97-15.97-15.96-15.96-15.96-15.96-15.96-15.96-15.96-15.96-15.97-15.97-15.96-15.96-15.96-15.96-15.96-15.96-15.96-15.96-15.97-15.97-15.96-15.96-15.96-15.96-15.96-15.96-15.96-15.96-15.97-15.97-15.96-15.96-15.96-15.96-15.96-15.96-15.96-15.96-15.97-15.97-15.96-15.96-15.96-15.96-15.96-15.96-15.96-15.96-15.97-15.97-15.96-15.96-15.96-15.96-15.96-15.96-15.97-15.96-15.96-15.97-15.96-15.96-15.96-15.96-15.96-15.96-15.97-15.96-15.96-15.97-15.96-15.96-15.96-15.96-15.96-15.96-15.97-15.96-15.96-15.97-15.96-15.96-15.96-15.96-15.96-15.96-15.97-15.96-15.96-15.97-15.96-15.96-15.96-15.96-15.96-15.96-15.97-15.96-15.96-15.97-15.96-15.96-15.96-15.96-15.96-15.96-15.97-15.96-15.96-15.97-15.96-15.96-15.96-15.96-15.96-15.96-15.97-15.9h-287.3c-17.5 16.15 27.57 15.82-47.89 15.96zM3830.72 47.89h-111.73l-31.93 15.96h-111.73l-31.92 15.96h-111.73l-31.92 15.96h-63.85l-15.96 15.96h-79.81l-15.97 15.97h-63.84l-15.97 15.96h-47.88l-31.93 15.96h-47.88l-15.96 15.96h-47.89l-15.96 15.96h-47.89l-15.96 15.97h-31.92l-15.97 15.96h-47.88l-15.96 15.96h-31.93l-15.96 15.96h-31.92l-15.97 15.96h-31.92l-15.96 15.97h-31.93l-15.96 15.96h-31.92l-15.96 15.96h-15.97l-15.96 15.96H2458l-15.96 15.96h-15.97l-15.96 15.97h-31.92l-15.96 15.96h-15.97l-15.96 15.96-63.85 15.96-15.96 15.96h-15.96l-15.96 15.97h-15.96l-15.97 15.96h-15.96l-15.96 15.96h-15.96l-15.96 15.96h-15.97l-15.96 15.96h-15.96l-15.96 15.97h-15.97l-15.96 15.96h-15.96l-15.96 15.9-15.96 16.02h-15.97l-15.96 15.96h-15.96l-15.96 15.97-31.93 15.96-15.96 15.96h-15.96l-15.96 15.9-15.96 16.02h-15.97l-15.96 15.97-31.92 15.96-15.96 15.96-31.93 15.96-15.96 15.9-15.96 16.03-31.93 15.96-15.96 15.9-15.96 16.02-31.92 15.96-15.97 15.9-15.96 16.03-47.88 31.92-15.97 15.9-15.96 15.96-15.96 15.96-15.96 16.03-63.85 47.89-15.96 15.9-15.96 15.96-15.97 15.96-15.96 15.96-15.96 15.96-15.96 15.97-15.96 15.96-15.97 15.96-15.89 15.96-47.89 63.85-16.03 15.96-15.96 15.96-15.96 15.97-15.9 15.96-31.92 47.88-16.03 15.97-15.9 15.96-15.96 31.92-16.02 15.96-15.9 15.97-15.97 31.92-16.02 15.96-15.9 15.96v15.97l-16.02 15.96-15.9 15.96v15.96l-15.97 15.96-15.96 31.93-15.96 15.96-15.96 31.92-15.96 15.97v15.96l-15.97 15.96v15.96l-15.96 15.96v15.97l-15.96 15.96c-17.37 32.89-22.14 37.89-31.92 79.81l-15.97 15.96v15.96l-15.96 15.96v15.97l-15.96 15.96v15.96l-15.96 15.96v15.96l-15.96 15.97v31.92l-15.97 15.96v15.96l-15.96 15.97v31.92l-15.96 15.96v31.93l-15.96 15.96v15.96l-15.96 15.96v31.93l-15.97 31.92v31.92l-15.96 15.97v31.92l-15.96 15.96v47.89l-15.96 15.96v47.89l-15.96 31.92v47.89l-15.97 15.96v63.85l-15.96 31.92v79.81l-15.96 31.93v95.77c-.14 75.45.19 30.38-15.96 47.88v590.57l15.96 31.92v111.73l15.96 31.92v79.81l15.96 31.92v47.89l15.97 31.92v47.89l15.96 15.96v47.89l15.96 15.96v47.89l15.96 15.96v31.92l15.96 15.96v31.93l15.97 15.96v31.92l15.96 15.97v31.92l15.96 15.96v15.96l15.96 15.97v31.92l15.96 15.96v15.96l15.97 15.97v15.96l15.96 15.96v15.96l15.96 15.97v15.96l15.96 15.96v15.96l15.96 15.96v15.97l15.97 15.96v15.96l15.96 15.96 15.96 31.93 15.96 15.96v15.96l15.96 15.96 15.97 31.93 15.96 15.96 15.96 31.92 15.96 15.96 15.96 31.93 15.9 15.96 15.97 15.96 16.02 15.96v15.97l15.9 15.96 15.96 15.96 15.96 15.96 16.03 15.96 31.92 47.89 15.9 15.96 15.96 15.96 15.97 15.97 15.96 15.96 15.96 15.96 15.96 15.96 15.96 15.96 15.97 15.97 15.96 15.96 15.96 15.96 15.96 15.9 63.85 47.88 15.96 16.03 15.96 15.96 15.97 15.9 31.92 15.96 15.96 16.03 15.96 15.9 31.93 15.96 15.96 16.02 15.96 15.9 31.93 15.96 15.96 16.03 15.96 15.9h15.96l15.96 16.02 15.97 15.9h15.96l15.96 15.96 31.92 15.97 15.97 15.96 31.92 15.96 15.96 15.96h15.96l15.97 15.96 31.92 15.97 15.96 15.96h15.96l15.97 15.96h15.96l15.96 15.96h15.96l15.96 15.96 63.85 31.93 15.96 15.96h15.97l15.96 15.96h15.96l15.96 15.96h15.96l15.97 15.97h15.96l15.96 15.96 63.85 15.96 15.96 15.96h15.96l15.97 15.96h15.96l15.96 15.97h31.92l15.97 15.96h15.96l15.96 15.96h15.96l15.96 15.96h31.93l15.96 15.96h15.96l15.96 15.97H2458l15.96 15.96h31.92l15.97 15.96h15.96l15.96 15.96h31.92l15.97 15.97h31.92l15.96 15.96h15.96l15.97 15.96h31.92l15.96 15.96h31.93l15.96 15.96h31.92l15.96 15.97h31.93l15.96 15.96h31.92l31.93 15.96h31.92l15.96 15.96h31.93l15.96 15.96h31.92l15.97 15.97h31.92l31.92 15.96h31.93l15.96 15.96h31.92l31.93 15.96h31.92l15.96 15.96h31.93l31.92 15.97h31.93l15.96 15.96h47.89l15.96 15.96h47.88l15.97 15.96h47.88l15.96 15.96h47.89l15.96 15.97h31.93l31.92 15.96h31.92l31.93 15.96h47.88l15.97 15.96h47.88l15.96 15.96h47.89l15.96 15.97h47.89l31.92 15.96h47.89l15.96 15.96h47.89l15.96 15.96h47.88l15.97 15.96h47.88l15.96 15.97h47.89l15.96 15.96h47.89l15.96 15.96h47.89l15.96 15.96h47.89l15.96 15.96h47.88l15.97 15.97h31.92l15.96 15.96h47.89l15.96 15.96h31.92l15.97 15.96h47.88l15.96 15.96h31.93l15.96 15.97h31.92l31.93 15.96h31.92l15.96 15.96h15.97l15.96 15.96h31.92l15.96 15.96h31.93l15.96 15.97h15.96l15.96 15.96h31.93l15.96 15.96h31.92l15.97 15.96h15.96l15.96 15.96h15.96l15.96 15.97h31.93l15.96 15.96h15.96l15.96 15.96 31.93 15.96 15.96 15.96h15.96l15.96 15.97h15.97l15.96 16.02 15.96 15.9h15.96l15.96 16.03 15.97 15.89 31.92 15.97 15.96 16.02 15.96 15.96 15.97 15.97 15.96 15.96 16.02 15.96 15.97 31.92 15.89 15.97 16.03 15.96v15.96l15.96 15.96v15.96l15.96 15.97v31.92l15.97 15.96v47.89l15.96 15.96v207.5l-15.96 15.96v63.85l-15.97 15.96-15.96 63.85-15.96 15.96-15.96 31.92-15.96 15.96-15.97 31.93-16.02 15.96-15.96 15.96-15.97 15.96-15.96 15.97-15.96 15.96-15.96 16.02-31.93 15.97-15.96 15.89-15.96 16.03h-15.96l-15.96 15.96h-15.97l-15.96 15.96c-21.23 12.12-17.04 10.27-47.88 15.97l-15.97 15.96h-15.96l-15.96 15.96h-31.92l-15.97 15.96h-31.92l-15.96 15.96h-47.89l-15.96 15.97h-31.92l-15.97 15.96h-79.81l-31.92 15.96h-79.81l-15.96 15.96h-255.38c-3.23 2.12-8.15 2.63-9.55 6.53-1.26 3.51-7.93 4.21-9.59 4.08-31.5-2.5-10.16 1.57-28.75-10.61h-303.27c-75.46-.14-30.38.19-47.89-15.96h-127.69l-31.93-15.96h-95.77l-31.92-15.96h-79.81l-15.96-15.97h-79.81l-15.97-15.96h-63.84l-15.97-15.96h-63.84l-15.97-15.96h-47.88l-15.96-15.96h-47.89l-15.96-15.97h-47.89l-15.96-15.96h-47.89l-15.96-15.96h-31.92l-15.96-15.96h-47.89l-15.96-15.96h-31.93l-15.96-15.97h-31.92l-15.97-15.96h-31.92l-15.96-15.96h-31.93l-15.96-15.96h-31.92l-15.96-15.96h-31.93l-15.96-15.97h-15.96l-15.96-15.96h-31.93l-15.96-15.96h-15.96l-15.96-15.96h-31.93l-15.96-15.96h-15.96l-15.96-15.97h-15.97l-15.96-15.96h-31.92l-15.96-15.96h-15.97l-15.96-15.96h-15.96l-15.96-15.96h-15.96l-15.97-15.97h-15.96l-15.96-15.96h-15.96l-15.96-15.96h-15.97l-15.96-15.96h-15.96l-15.96-15.96h-15.96l-15.97-15.97h-15.96l-15.96-15.96h-15.96l-15.96-15.96h-15.97l-15.96-15.96h-15.96l-15.96-15.96h-15.96l-15.97-15.97h-15.96l-15.96-15.96-31.92-15.96-15.97-15.96h-15.96l-15.96-15.96-31.92-15.97-15.97-15.96h-15.96l-15.96-15.96-31.92-15.96-15.97-15.96h-15.96l-15.96-15.97-31.93-15.96-15.96-15.96-31.92-15.96-15.96-15.96-31.93-15.97-15.96-15.96-31.92-15.96-15.97-15.96-31.92-15.96-15.96-16.03-15.96-15.9h-15.97l-15.96-16.02-15.96-15.9-31.92-15.96-15.97-16.03-15.96-15.9h-15.96l-15.96-16.02-15.96-15.97-15.97-15.89-31.92-15.97-15.96-16.02-15.96-15.9-31.93-15.96-15.96-16.03h-31.86l-15.96 31.93-16.03 15.96-15.96 15.96-15.96 15.96-15.9 15.96-15.96 31.93-16.03 15.96-15.96 15.96-15.96 15.96-15.9 15.97-31.92 47.88-16.03 15.96-15.96 15.97-15.9 15.96-31.92 47.88-16.03 15.97-15.96 15.96-15.9 15.96-31.92 47.89-16.03 15.96-15.96 15.96-15.9 15.96-31.93 47.89-16.02 15.96-15.96 15.96-15.9 15.96-31.93 47.89-16.02 15.96-15.96 15.96-15.9 15.97-31.93 47.88-16.02 15.96-15.96 15.97-15.97 15.96-15.89 15.96-15.97 31.92-16.02 15.97-15.96 15.96-15.97 15.96-15.89 15.96-15.97 31.93-16.02 15.96-15.96 15.96-15.97 15.96-15.89 15.96-31.93 47.89-16.02 15.96-15.97 15.96-15.89 15.97-31.93 47.88-16.02 15.97-15.97 15.96-15.89 15.96-31.93 47.89-16.02 15.96-15.97 15.96-15.89 15.96-31.93 47.89-16.02 15.96-15.97 15.96-15.89 15.96-31.93 47.89-16.02 15.96-15.97 15.96-15.89 15.97-31.93 47.88-16.02 15.96-15.97 15.97-15.96 15.96-15.9 15.96-15.96 31.92-16.02 15.97-15.97 15.96-15.96 15.96-15.9 15.96-15.96 31.93-16.02 15.96-15.97 15.96-15.96 15.96-15.9 15.96-31.92 47.89-.06 15.96 15.96 15.96 15.96 15.97 15.96 15.89 47.89 31.93 15.96 16.02 15.96 15.97 15.96 15.96 15.97 15.9 47.88 31.92 15.96 16.03 15.97 15.89 31.92 15.97 15.96 16.02 15.96 15.96 15.97 15.9 31.92 15.96 15.96 16.03 15.96 15.9 31.93 15.96 15.96 16.03 15.96 15.89 31.93 15.97 15.96 15.96 31.92 15.96 15.96 16.03 15.97 15.89h15.96l15.96 16.03 15.96 15.9h15.96l15.97 16.02 15.96 15.9h15.96l15.96 16.03 15.96 15.9 31.93 15.96 15.96 15.96h15.96l15.96 15.96 31.93 15.96 15.96 15.97h15.96l15.96 15.96 31.93 15.96 15.96 15.96h15.96l15.97 16.03 15.96 15.9h15.96l15.96 15.96h15.96l15.97 15.96h15.96l15.96 15.96 31.92 15.97 15.97 15.96h15.96l15.96 15.96h15.96l15.96 15.96h15.97l15.96 15.96h15.96l15.96 15.97c32.89 17.37 37.89 22.14 79.81 31.92l15.96 15.96h15.97l15.96 15.96h15.96l15.96 15.97h15.96l15.97 15.96h15.96l15.96 15.96h15.96l15.96 15.96h15.97l15.96 15.96h15.96l15.96 15.97h31.93l15.96 15.96h15.96l15.96 15.96h15.96l15.97 15.96h31.92l15.96 15.96h15.96l15.97 15.97h15.96l15.96 15.96h31.92l15.97 15.96h15.96l15.96 15.96h31.92l15.97 15.96h31.92l15.96 15.97h15.96l15.97 15.96h31.92l15.96 15.96h31.93l15.96 15.96h15.96l15.96 15.96h31.93l31.92 15.97h31.93l15.96 15.96h31.92l15.96 15.96h31.93l15.96 15.96h31.92l15.97 15.96h31.92l15.96 15.97h47.89l15.96 15.96h31.92l15.97 15.96h47.88l15.96 15.96h31.93l31.92 15.96h31.93l15.96 15.97h47.88l31.93 15.96h47.88l15.97 15.96h47.88l15.96 15.96h47.89l31.92 15.96h47.89l31.92 15.97h63.85l15.96 15.96h63.85l31.93 15.96H3304l15.97 15.96h79.81l31.92 15.96h79.81l31.93 15.97h79.81c75.45.14 30.38-.19 47.88 15.96h111.73c75.45.14 30.38-.19 47.88 15.96h111.73c75.45.14 30.38-.19 47.88 15.96h223.46c75.46.14 30.38-.19 47.89 15.96h590.57c18.86-11.92-.11-7.15 34.66-13.16 22.28-3.85 38.66-2.76 61.1-2.8h191.54c17.5-16.15-27.57-15.82 47.88-15.96h127.69l31.92-15.96h127.69l15.96-15.96h63.85l31.92-15.97h63.85l31.93-15.96h63.84l31.93-15.96h63.85l31.92-15.96h31.93l31.92-15.96h31.92l31.93-15.97h31.92l31.93-15.96h31.92l31.92-15.96h31.93l15.96-15.96h47.89l15.96-15.96h31.92l15.96-15.97h31.93l15.96-15.96h31.92l15.97-15.96h31.92l15.96-15.96h31.93l15.96-15.96h31.92l15.96-15.97h31.93l15.96-15.96h31.92l15.97-15.96h15.96l15.96-15.96h15.96l15.96-15.96h31.93l15.96-15.97h15.96l15.96-15.96h15.97l15.96-15.96h15.96l15.96-15.96 63.85-15.96 15.96-15.97h15.96l15.97-15.96h15.96l15.96-15.96 31.92-15.96 15.97-15.96h15.96l15.96-15.97h15.96l15.97-15.96h15.96l15.96-15.96 31.92-15.96 15.97-15.96h15.96l15.96-15.97 31.92-15.96 15.97-15.96 31.92-15.96 15.96-15.96 31.93-15.97 15.96-15.96 31.92-15.96 15.96-15.9 15.97-16.02 31.92-15.97 15.96-15.9 15.96-16.02 31.93-15.96 15.96-15.9 15.96-15.96 15.96-16.03 47.89-31.92 15.96-15.9 15.96-15.96 15.97-15.97 15.96-15.96 15.96-16.02 175.51-175.51 16.02-15.96 15.97-15.97 15.96-15.96 15.9-15.96 31.92-47.89 16.03-15.96 15.96-15.96 15.9-15.96 15.96-31.93 16.02-15.96 15.9-15.96 15.97-31.92 15.96-15.97 15.96-31.92 15.96-15.96 15.96-31.93 15.97-15.96 15.96-31.92 15.96-15.96v-15.97l15.96-15.96 15.96-31.92 15.97-15.96v-15.97l15.96-15.96v-15.96l15.96-15.96v-15.96l15.96-15.97v-15.96l15.96-15.96v-15.96l15.97-15.96v-15.97l15.96-15.96v-15.96l15.96-15.96v-15.96l15.96-15.97 15.96-63.84 15.97-15.97v-15.96l15.96-15.96v-31.92l15.96-15.97v-31.92l15.96-15.96v-31.93l15.96-15.96v-31.92l15.97-15.96v-31.93l15.96-15.96v-31.92l15.96-31.93v-47.89l15.96-15.96v-47.88l15.96-15.97v-47.88l15.97-31.93v-63.84l15.96-15.97v-79.81l15.96-31.92v-95.77c.14-75.46-.19-30.38 15.96-47.89v-654.41c-16.15-17.5-15.82 27.57-15.96-47.89v-79.81l-15.96-31.92v-79.81l-15.96-15.96v-63.85l-15.97-31.92v-31.93l-15.96-31.92v-31.93l-15.96-31.92v-31.92l-15.96-15.97v-31.92l-15.96-15.96v-31.93l-15.97-15.96v-31.92l-15.96-15.97v-31.92l-15.96-15.96v-15.96l-15.96-15.97-15.96-63.84-15.97-15.97v-15.96l-15.96-15.96v-15.96l-15.96-15.96v-15.97l-15.96-15.96v-15.96l-15.96-15.96-15.97-31.93-15.96-15.96v-15.96l-15.96-15.96v-15.96l-15.9-15.97-16.02-15.96v-15.96l-15.97-15.96-15.96-31.93-15.9-15.96-16.02-15.96-15.96-31.92-15.97-15.97-31.92-47.88-15.9-15.96-15.96-15.97-16.03-15.96-15.96-31.92-15.9-15.96-15.96-15.97-15.96-15.96-15.96-15.96-15.97-15.96-15.96-15.96-15.96-15.97-15.96-15.96-15.96-15.96-15.97-15.96-15.96-15.96-15.96-15.97-15.96-15.96-15.96-15.9-47.89-31.92-15.96-16.03-15.96-15.96-15.97-15.9-31.92-15.96-15.96-16.02-15.96-15.97-15.97-15.96-15.96-15.9h-15.96l-15.96-16.02-15.96-15.9-31.93-15.96-15.96-15.96-31.92-15.97-15.97-15.96-31.92-15.96-15.96-15.96-31.93-15.96-15.96-15.97-31.92-15.96-15.96-15.96h-15.97l-15.96-15.96h-15.96l-15.96-15.96-31.93-15.97-15.96-15.96h-15.96l-15.96-15.96h-15.96l-15.97-15.96h-15.96l-15.96-16.03-15.96-15.9h-15.96l-15.97-15.96h-15.96l-15.96-15.96h-15.96l-15.97-15.96-63.84-15.97-15.97-15.96h-15.96l-15.96-15.96h-15.96l-15.96-15.96h-15.97l-15.96-15.96h-15.96l-15.96-15.97h-15.96l-15.97-15.96h-31.92l-15.96-15.96h-15.96l-15.97-15.96h-31.92l-15.96-15.96h-15.96l-15.97-15.97h-31.92l-15.96-15.96h-15.96l-15.97-15.96h-31.92l-15.96-15.96h-15.96l-15.97-15.96h-31.92l-15.96-15.97h-31.93l-15.96-15.96h-31.92l-15.96-15.96h-31.93l-15.96-15.96h-31.92l-15.97-15.96h-31.92l-15.96-15.97h-31.93l-15.96-15.96h-31.92l-15.96-15.96h-31.93l-15.96-15.96h-47.89l-15.96-15.96h-31.92l-15.96-15.97h-31.93l-15.96-15.96h-47.89l-15.96-15.96h-31.92l-15.97-15.96h-47.88l-15.96-15.96h-31.93l-31.92-15.97h-31.93l-31.92-15.96h-31.92l-15.97-15.96h-47.88l-15.96-15.96h-47.89l-15.96-15.96h-47.89l-15.96-15.97h-47.89l-15.96-15.96h-63.85l-15.96-15.96h-47.88l-15.97-15.96h-47.88l-31.93-15.96h-47.88l-15.96-15.97h-47.89l-15.96-15.96h-47.89l-15.96-15.96h-47.89l-31.92-15.96h-31.92l-31.93-15.96h-47.88l-15.97-15.97h-47.88l-15.96-15.96h-47.89l-15.96-15.96h-47.89l-15.96-15.96h-47.89l-15.96-15.96h-31.92l-15.97-15.97h-47.88l-15.96-15.96h-31.93l-15.96-15.96h-47.89l-15.96-15.96h-31.92l-31.93-15.96h-31.92l-15.96-15.97h-15.96l-31.93-15.96h-15.96l-15.96-15.96h-31.93l-15.96-15.96h-31.92l-15.96-15.96h-31.93l-15.96-15.97h-31.92l-15.97-15.96h-15.96l-15.96-15.96h-15.96l-15.96-15.96h-31.93l-15.96-15.96h-15.96l-15.96-15.97h-15.97l-15.96-15.96-31.92-15.96-15.96-15.96h-15.97l-15.96-15.96-31.92-15.97-15.96-16.02-15.97-15.9-31.92-15.96-15.96-16.03-15.96-15.96-15.97-15.96-15.96-15.96-16.02-15.97-15.97-31.92-15.9-15.96-16.02-15.96v-15.97l-15.96-15.96v-15.96l-15.96-15.96v-47.89l-15.97-15.96v-47.89l-15.96-31.92v-143.65l15.96-31.92v-63.85l15.97-15.96v-31.93l15.96-15.96v-15.96l15.96-15.96v-15.96l15.96-15.97v-15.96l16.03-15.96 15.9-15.96 15.96-31.93 16.02-15.96 15.97-15.96 15.96-16.03 47.88-31.92 15.97-15.9 15.96-16.02h15.96l15.96-15.97h15.96l15.97-15.96h15.96l15.96-15.96c21.23-12.12 17.04-10.27 47.89-15.96l15.96-15.96h31.92l15.96-15.97h31.93l15.96-15.96h31.92l15.97-15.96h63.84l15.97-15.96h63.84l31.93-15.97h159.61c3.19-2.09 7.64-9.77 9.46-6.44 1.9 3.48 8.12-4.67 10.74-5.23 21.27-4.54 21.07-4.25 43.65-4.29h47.88c11.64.02 35.81-1.04 46.49 1.45 30.68 7.15 16.91 4.14 33.32 14.51h239.42l15.97 15.97h95.77l31.92 15.96h79.81l31.93 15.96h79.81l15.96 15.96h47.88l31.93 15.97h47.88l15.97 15.96h47.88l31.93 15.96h47.88l15.96 15.96h47.89l15.96 15.96h31.93l15.96 15.97h31.92l15.96 15.96h31.93l31.92 15.96h31.93l15.96 15.96h31.92l15.96 15.96h31.93l15.96 15.97h31.92l15.97 15.96h31.92l15.96 15.96h15.96l15.97 15.96h31.92l15.96 15.96h15.96l15.97 15.97h31.92l15.96 15.96h15.97l15.96 15.96h31.92l15.96 15.96h15.97l15.96 15.96 63.85 15.97 15.96 15.96h15.96l15.96 15.96h15.96l15.97 15.96h15.96l15.96 15.96h15.96l15.96 15.97h15.97l15.96 15.96h15.96l15.96 15.96h15.96l15.97 15.96c30.84 5.7 26.65 3.84 47.88 15.96l15.96 15.97h15.97l15.96 15.96h15.96l15.96 15.96h15.96l15.97 15.96 31.92 15.96 15.96 15.97h15.96l15.97 15.96h15.96l15.96 15.96 31.92 15.96 15.97 15.96h15.96l15.96 15.97h15.96l15.96 15.96 31.93 15.96 15.96 15.96 31.92 15.96 15.97 15.97h15.96l15.96 16.02 15.96 15.9h15.96l15.97 16.03 15.96 15.89h15.96l15.96 16.03 15.96 15.9h15.97l15.96 16.02 15.96 15.9h15.96l15.96 16.03 15.97 15.9h15.96l15.96-15.9 15.9-15.96v-15.97l16.02-15.96 15.9-15.96 15.97-31.92 16.02-15.97 15.9-15.96v-15.96l16.03-15.96 15.89-15.96 15.97-31.93 15.96-15.96 15.96-31.92 16.03-15.97 15.89-15.96v-15.96l16.03-15.96 15.9-15.96 15.96-31.93 16.03-15.96 15.89-15.96v-15.96l16.03-15.97 15.9-15.96 15.96-31.92 16.03-15.96 15.89-15.97v-15.96l16.03-15.96 15.9-15.96 15.96-31.93 15.96-15.96 15.96-31.92 16.03-15.97 15.9-15.96v-15.96l16.02-15.96 15.9-15.96 15.96-31.93 16.03-15.96 15.9-15.96v-15.96l16.02-15.97 15.9-15.96 15.96-31.92 16.03-15.96 15.9-15.97v-15.96l16.02-15.96 15.9-15.96 15.96-31.93 15.97-15.96 15.96-31.92 16.02-15.96 15.9-15.97v-15.96l16.03-15.96 15.9-15.96 15.96-31.93 16.02-15.96 15.9-15.96V2075l16.03-15.96 15.9-15.97 15.96-31.92 15.96-15.96 15.96-31.93 16.03-15.96 15.9-15.96 15.96-31.92 15.96-15.97 15.96-31.92 16.03-15.96 15.9-15.96v-15.97l16.02-15.96 15.9-15.96 15.96-31.92 16.03-15.97 15.9-15.96v-15.96l16.02-15.96 15.9-15.96 15.96-31.93 15.97-15.96 15.96-31.92 16.02-15.97 15.9-15.96 15.96-31.92 15.97-15.96 15.96-31.93 16.02-15.96 15.9-15.96v-15.96l16.03-15.97 15.9-15.96 15.96-31.92.06-31.93-15.96-15.89-31.92-15.97-15.97-16.02-15.96-15.9-31.92-15.96-15.97-16.03-15.96-15.9-31.92-15.96-15.96-16.02-15.97-15.9-31.92-15.97-15.96-16.02-15.96-15.9h-15.97l-15.96-16.02-15.96-15.9-31.92-15.97-15.97-15.96-31.92-15.96-15.96-15.96-31.93-15.96-15.96-15.97-31.92-15.96-15.96-15.96h-15.97l-15.96-16.03-15.96-15.89h-15.96l-15.96-15.97-31.93-15.96-15.96-15.96h-15.96l-15.96-15.96h-15.97l-15.96-16.03-15.96-15.9h-15.96l-15.96-15.96h-15.97l-15.96-15.96-31.92-15.96-15.96-15.96h-15.97l-15.96-15.97h-15.96l-15.96-15.96h-15.96l-15.97-15.96h-15.96l-15.96-15.96h-15.96l-15.96-15.96h-15.97l-15.96-15.97h-15.96l-15.96-15.96h-15.96l-15.97-15.96h-15.96l-15.96-15.96h-15.96l-15.96-15.96h-15.97l-15.96-15.97-63.85-15.96-15.96-15.96H7039l-15.96-15.96h-15.97l-15.96-15.96h-31.92l-15.96-15.97h-15.97l-15.96-15.96h-31.92l-15.96-15.96h-15.97l-15.96-15.96h-31.92l-15.96-15.96h-15.97l-15.96-15.97h-31.92l-15.96-15.96h-31.93l-15.96-15.96h-31.92l-15.97-15.96h-31.92l-15.96-15.96h-15.96l-15.97-15.97h-47.88l-15.96-15.96h-31.93l-15.96-15.96h-31.92l-15.97-15.96h-31.92l-31.92-15.96h-31.93l-15.96-15.97h-47.89l-15.96-15.96h-47.88l-15.97-15.96h-31.92l-31.92-15.96h-31.93l-31.92-15.96h-47.89l-15.96-15.97h-63.85l-15.96-15.96h-47.89L5778 159.62h-47.89l-31.92-15.96h-63.85l-31.92-15.96h-63.85l-31.93-15.97h-79.81l-31.92-15.96h-79.81l-31.92-15.96h-95.77c-75.45-.14-30.38.19-47.88-15.96h-127.69c-75.45-.14-30.38.19-47.88-15.96h-175.58c-11.64-.02-35.8 1.04-46.49-1.45-30.67-7.15-16.91-4.14-33.32-14.51h-782.11c-18.86 11.92.11 7.15-34.66 13.17-22.28 3.85-38.66 2.76-61.1 2.8zM28794.24 11970.99h-63.85l-15.96 15.97h-47.89l-15.96 15.96h-31.92l-15.96 15.96h-15.97l-15.96 15.96c-41.91 9.78-46.92 14.55-79.81 31.93l-15.96 15.96h-15.96l-15.96 15.96-31.93 15.96-15.96 15.9-15.96 16.03-47.89 31.92-15.96 15.9-15.9 15.96-47.88 63.85-16.03 15.96-15.9 15.96-15.96 31.93-15.96 15.96v15.96l-16.03 15.96-15.9 15.96v15.97l-15.96 15.96v15.96l-15.96 15.96-15.96 63.85-15.96 15.96v31.93l-15.97 15.96v31.92l-15.96 15.96v47.89l-15.96 31.92v63.85l-15.96 31.93v335.19l15.96 31.92v63.85l15.96 31.93v47.88l15.96 15.96v31.93l15.97 15.96v31.92l15.96 15.97v31.92l15.96 15.96v15.96l15.96 15.97v15.96l15.96 15.96v15.96l15.97 15.96v15.97l15.89 15.96 16.03 15.96v15.96l15.9 15.96 16.02 15.97 15.97 31.92 15.89 15.96 15.97 15.96 15.96 15.97 15.96 15.96 15.96 15.96 15.96 15.96 15.97 15.96 15.96 15.9 31.92 15.96 15.96 16.03 15.97 15.9h15.96l15.96 15.96c37.83 19.98 65.13 37.01 111.73 47.89l15.97 15.96h31.92l15.96 15.96h31.93l15.96 15.96h47.88l15.97 15.96h79.81c11.64.02 35.8-1.04 46.49 1.45 30.67 7.15 16.91 4.14 33.32 14.51h79.81c17.02-10.75.48-9.08 33.32-14.51 14.27-2.36 31.87-1.43 46.49-1.45h79.81l15.96-15.96h47.89l15.96-15.96h47.88l15.97-15.96h15.96l15.96-15.96h31.92l15.97-15.97h15.96l15.96-15.96h15.96l15.96-15.96 31.93-15.96 15.96-15.96h15.96l15.96-15.9 15.97-15.96 15.96-16.03 31.92-15.96 15.96-15.9 15.97-15.96 15.96-15.96 15.96-15.97 15.9-15.96 15.96-31.92 16.03-15.96 15.89-15.97 15.97-31.92 15.96-15.96 15.96-31.93 15.96-15.96v-15.96l15.96-15.96v-15.96l15.97-15.97v-15.96l15.96-15.96v-31.92l15.96-15.97v-15.96l15.96-31.92v-31.93l15.96-15.96v-47.88l15.97-15.97V13200l15.96-31.93v-367.11l-15.96-31.92v-63.85l-15.97-15.96v-47.89l-15.96-15.96v-31.92l-15.96-15.96v-31.93l-15.96-15.96v-15.96l-15.96-15.96v-31.93l-15.97-15.96v-15.96l-15.96-15.96-15.96-31.93-15.96-15.96v-15.96l-15.9-15.96-16.03-15.97-15.96-31.92-15.9-15.96-15.96-15.96-16.02-15.97-63.79-63.78-15.96-16.03-15.96-15.96-15.96-15.9-31.93-15.96-15.96-15.96h-15.96l-15.96-16.03-15.97-15.89h-15.96l-15.96-15.97h-15.96l-15.96-15.96h-15.97l-15.96-15.96h-31.92l-15.96-15.96h-31.93l-15.96-15.96h-47.89l-15.96-15.97h-63.85l-31.92-15.96h-271.35l-31.92 15.96zm47.89 446.79h-15.97l-15.96 15.96h-31.92l-15.96 16.03-15.97 15.9h-15.96l-15.96 16.02-15.96 15.97-15.96 15.96-15.97 15.96-15.96 15.96-16.02 15.96v15.97l-15.97 15.96-15.96 31.92-15.96 15.96v31.93l-15.96 15.96v31.92l-15.96 15.97v47.88l-15.97 15.96v95.77c.02 9.22.47 25.68-1.02 30.85-8.38 29.07-4.32 16.93-14.94 32.99v47.89c2.11 3.19 6.01 3.81 6.5 9.46.51 5.89 4.7 8.12 5.26 10.74 4.61 21.63 4.24 20.69 4.2 43.65v95.77l15.97 15.96v47.89l15.96 15.96v31.93l15.96 15.96v31.92l15.96 15.96v15.97l15.96 15.96v15.96l16.03 15.96 15.9 15.96 15.96 31.93 16.03 15.96 15.96 15.96 15.96 16.03 31.92 15.96 15.97 15.9 15.96 16.02h31.92l15.96 15.97h15.97l15.96 15.96h207.5l15.97-15.96h31.92l15.96-15.97h15.97l15.96-16.02 15.96-15.9 31.92-15.96 15.97-16.03 15.96-15.96 16.02-15.96 15.96-31.93 15.97-15.96 15.96-31.92 15.96-15.96v-15.97l15.96-15.96v-31.92l15.97-15.96v-31.93l15.96-15.96v-63.85l15.96-15.96v-335.19l-15.96-15.97v-63.84l-15.96-15.97v-31.92l-15.97-15.96c-5.69-30.85-3.84-26.66-15.96-47.89l-15.96-15.96v-15.96l-15.96-15.96v-15.97l-16.03-15.96-15.96-15.96-15.96-15.96-15.96-15.96-15.97-15.97-15.96-16.02-31.92-15.96-15.96-15.97h-31.93l-15.96-15.96h-15.96l-15.97-15.96h-207.49l-15.96 15.96zM8778.79 12018.82V13982h1197.04l31.93-15.96h47.88l31.93-15.96h31.92l15.96-15.97h31.93l15.96-15.96h15.96l15.96-15.96h15.96l15.97-15.96 31.92-15.96 15.96-15.97 95.71-95.7 15.96-15.97 15.96-31.92 15.97-15.96v-31.93l15.96-15.96v-15.96l15.96-15.96v-63.85l15.96-31.92v-159.61l-15.96-15.97v-47.88l-15.96-31.93v-15.96l-15.96-15.96v-15.96l-15.97-15.96v-15.97l-15.96-15.96-15.96-31.92-15.9-15.96-15.96-15.97-15.96-15.96-15.96-15.96-15.97-15.9-31.92-15.96-15.96-15.96h-15.96l-15.97-15.97h-15.96l-15.96-15.96h-31.92l-15.97-15.96h-31.92l-15.96-15.96h-47.89v-16.09h47.89l15.96-15.96h31.92l31.93-15.96h15.96l15.96-15.97 31.93-15.96 15.96-15.96 63.85-47.89 15.89-15.9v-15.96l16.03-15.96 15.9-15.96v-15.96l15.96-15.97v-15.96l15.96-15.96v-15.96l15.96-31.93v-47.88l15.97-15.96v-175.58l-15.97-31.92V12338l-15.96-15.97v-31.92l-15.96-15.96-15.96-31.93-15.96-15.96v-15.96l-15.9-15.96-15.96-15.96-15.97-15.97-15.96-15.96-15.96-15.9-31.92-15.96-15.97-15.96c-21.32-12.12-17.06-10.25-47.88-15.96l-15.96-15.96h-15.97l-15.96-15.97h-31.92l-15.96-15.96h-47.89l-15.96-15.96h-79.81c-8.55-.01-26.43.17-30.85-1.1-28.75-8.28-17.22-4.52-33-14.86H8794.69l-15.9 15.9zm941.66 1580.23c17.72-16.48-28.26-16.1 47.89-15.96h63.84l15.97-15.96h15.96l15.96-16.03 15.96-15.9 31.99-31.99 15.9-15.96 16.02-15.96v-31.92l15.97-15.97v-111.73l-15.97-31.92v-15.97l-15.96-15.96v-15.96l-16.02-15.96-15.97-15.96-15.96-16.03c-37.33-19.78-41.52-27.41-95.77-31.92l-15.96-15.97h-510.77l-.06 463.01h446.98zm63.85-814.03 31.92-15.97h15.96l15.97-15.96 31.92-15.96 16.03-16.03 15.96-31.92 15.96-15.96v-31.93l15.96-31.92v-47.89l-15.96-15.96v-31.92l-15.96-15.96v-15.97l-16.03-15.96-15.96-15.96-15.96-16.03h-15.96l-15.97-15.96h-31.92l-15.96-15.96h-511.01l.19 383.2h510.83zM15466.53 13982c0-53.88-16.12-603.72 15.96-654.41 55.68 0 182.34-10.16 223.52 16.02l15.9 15.97 16.03 15.96 15.96 31.92 15.9 15.96 16.02 15.97v15.96l15.9 15.96 16.03 15.96 15.96 31.93 15.9 15.96 16.02 15.96 15.97 31.92 15.89 15.97 16.03 15.96 15.96 31.92 15.9 15.96 16.03 15.97 15.96 31.92 15.9 15.96 16.02 15.96v15.97l15.9 15.96 16.03 15.96 15.96 31.92 15.9 15.97 16.02 15.96 15.96 31.92 15.9 15.96 16.03 15.97 15.96 31.92 15.9 15.96 15.96 15.9h574.61l-.06-15.9v-15.96l-15.9-15.96-16.02-15.96-15.97-31.93-15.9-15.96-15.96-15.96-16.02-15.96-15.96-31.93-15.9-15.96-15.97-15.96-16.02-15.96-15.96-31.93-15.9-15.96-16.03-15.96-15.96-31.93-15.9-15.96-15.96-15.96-16.03-15.96-15.96-31.93-15.9-15.96-15.96-15.96-16.02-15.96-15.97-31.93-15.89-15.96-16.03-15.96-31.92-47.89-15.9-15.96-16.03-15.96-15.96-31.92-15.9-15.97-15.96-15.96-16.03-15.96-15.96-31.92-15.9-15.97c-22.52-24.31-22.65-7.44 0-31.98h47.89l15.96-15.97h31.93l15.96-15.96h15.96l15.96-15.96h31.93l15.96-15.96 31.92-15.96 15.96-15.97h15.97l15.96-15.89 15.96-15.97 15.96-15.96 15.96-15.96 15.97-15.96 15.96-15.96 15.9-15.97 15.96-31.92 15.96-15.96v-15.97l15.96-15.96v-15.96l15.97-15.96v-15.96l15.96-15.97v-31.92l15.96-31.92v-31.93c.14-75.45-.19-30.38 15.96-47.88v-175.58c-16.15-17.5-15.82 27.57-15.96-47.88v-31.93l-15.96-31.92v-31.92l-15.96-15.97-15.97-63.84-15.96-15.97v-15.96l-15.9-15.96-16.02-15.96-15.97-31.93-15.89-15.96-16.03-15.96-31.86-31.86-15.96-16.03-15.96-15.96-15.97-15.96-15.96-15.9h-15.96l-15.96-15.96h-15.96l-15.97-15.96h-15.96l-15.96-15.96c-29.18-14.45-19.99-12.22-63.85-15.97l-15.96-15.96h-31.92l-15.97-15.96h-95.77l-31.92-15.96h-1100.84l-.43 1979.08h478.78zm15.96-1069.35 510.77.06h47.88l15.96-15.96c30.85-5.69 26.66-3.84 47.89-15.96l15.96-16.03 15.96-15.96 16.03-15.96c12.12-21.23 10.27-17.04 15.96-47.89l15.96-15.96v-31.92l15.97-15.97v-95.77l-15.97-31.92v-31.93l-15.96-15.96v-15.96l-15.96-15.96v-15.96l-16.03-15.97-15.96-15.96-15.96-16.02h-15.96l-15.96-15.97h-15.97l-15.96-15.96h-63.85l-494.8.07v494.8zM21867.02 13982v-1292.8l31.99 31.92v15.97l15.96 15.96v15.96l15.96 15.96 15.97 31.93 15.96 15.96v15.96l15.96 15.96 15.96 31.93 15.96 15.96v15.96l15.97 15.96v15.96l15.89 15.97 16.03 15.96v15.96l15.96 15.96v15.97l15.96 15.96 15.97 31.92 15.96 15.96v15.97l15.96 15.96 15.96 31.92 15.96 15.96v15.97l15.97 15.96v15.96l15.89 15.96 16.03 15.96v15.97l15.96 15.96v15.96l15.9 15.96 16.03 15.96v15.97l15.96 15.96v15.96l15.96 15.96 15.96 31.93 15.96 15.96v15.96l15.97 15.96 15.96 31.93 15.96 15.96v15.96l15.96 15.96v15.96l15.9 15.97 16.03 15.96v15.96l15.96 15.96v15.96l15.96 15.97 15.96 31.92 15.96 15.96v15.96l15.97 15.97 15.96 31.92 15.96 15.96v15.96l15.96 15.97v15.96l15.9 15.96 16.03 15.96v15.96l15.96 15.97v15.96l15.96 15.96c41.28 56.23 100.94 31.91 255.32 31.86 101.07-.03 202.14 0 303.2 0v-1963.18l-15.89-15.9h-462.76l-.06 1197.04c-15.74 25.77-.35 25.77-16.09 0v-15.97l-15.96-15.96v-15.96l-15.9-15.96-16.03-15.96v-15.97l-15.96-15.96v-15.96l-15.96-15.96-15.96-31.93-15.96-15.96v-15.96l-15.97-15.96v-15.97l-15.89-15.96-16.03-15.96v-15.96l-15.96-15.96v-15.97l-15.96-15.96-15.97-31.92-15.96-15.96v-15.97l-15.96-15.96v-15.96l-15.9-15.96-16.02-15.96v-15.97l-15.97-15.96v-15.96l-15.96-15.96-15.96-31.93-15.96-15.96v-15.96l-15.96-15.96v-15.96l-15.97-15.97-15.96-31.92-15.96-15.96v-15.96l-15.96-15.97v-15.96l-15.9-15.96-16.03-15.96v-15.96l-15.96-15.97v-15.96l-15.96-15.96-15.96-31.92-15.96-15.97v-15.96l-15.97-15.96v-15.96l-15.89-15.96-16.03-15.97v-15.96l-15.96-15.96v-15.96l-15.96-15.96-15.97-31.93-15.96-15.96v-15.96l-15.96-15.96v-15.97l-15.96-15.96-15.96-31.92-15.97-15.96c-49.2-31.16-528.47-15.9-590.44-15.9v1979.08h462.81z"/></svg>