<svg xmlns="http://www.w3.org/2000/svg" xml:space="preserve" width="1508.209" height="90.5mm" style="shape-rendering:geometricPrecision;text-rendering:geometricPrecision;image-rendering:optimizeQuality;fill-rule:evenodd;clip-rule:evenodd" viewBox="0 0 27842.5 6314.41"><path fill="#fff" d="m17078.45 1938.71-203.09-.08-18.46 18.55-92.32-.09-18.46 18.5c-85.78 1.92-123.39 30.3-203.09 36.98l-18.47 18.39-36.92-.03-18.46 18.49-36.93.08-18.46 18.41-73.85 18.49-18.46 18.41h-18.46l-18.46 18.54c-64.32 14.88-113.24 45.8-166.17 73.85l-18.46 18.46h-18.46l-18.47 18.47-36.92 18.46-18.46 18.43-36.93 18.41-18.46 18.52-36.92 18.49-18.46 18.49-55.39 36.82-18.46 18.46-18.46 18.55-73.85 55.39-18.46 18.39-18.47 18.46-18.46 18.46-18.46 18.46-18.46 18.47-18.46 18.46-18.47 18.46-18.46 18.46-18.39 18.46-55.39 73.85-18.55 18.46-18.39 18.47-36.9 55.39-18.49 18.46-18.49 36.93-18.52 18.46-18.41 36.92-18.52 18.47-18.49 36.92-18.44 18.46-55.31 110.78-18.49 18.47v18.46l-18.43 18.46c-13.42 57.45-23.64 53.4-36.99 110.78l-18.43 18.46-18.52 73.85-18.38 18.46-.06 36.93-18.41 18.46-18.52 110.78-18.41 18.46-.06 55.39-18.38 18.46-.03 73.85-18.55 18.46v775.46l18.55 18.46.03 73.85 18.38 18.46.06 55.39 18.41 18.47 18.52 110.78 18.41 18.46.06 36.92 18.38 18.46 18.52 73.85 18.41 18.46 129.24 276.95 18.44 18.47 18.57 36.92 18.44 18.46 18.41 36.93 18.44 18.46 18.57 36.92 18.38 18.46 37.01 55.39 18.39 18.46 18.57 18.46 55.28 73.85 18.46 18.46 18.46 18.47 18.47 18.46 18.46 18.46 18.46 18.46 18.46 18.46 18.46 18.47 18.47 18.46 18.46 18.43 73.85 55.34 18.46 18.55 18.46 18.39 55.39 37.01 18.46 18.38 36.92 18.57 18.46 18.44 36.93 18.49 18.46 18.36 36.92 18.43 18.47 18.52h18.46l18.46 18.52c52.45 27.73 102.79 59.08 166.17 73.77l18.46 18.55h18.46l18.46 18.49 73.85 18.43 18.46 18.39 36.93.06 18.46 18.41 36.92.06 18.47 18.41h55.39l18.46 18.57 55.39-.1 18.46 18.57 424.65 55.36h150.39c25.38-2.51 49.06-7.88 71.17-18.55l203.1.09 18.46-18.55 92.32.08 18.46-18.49c81.47-1.78 57.25-12.51 129.24-18.5l18.47-18.49h55.39l18.46-18.41 36.93-.06 18.46-18.41 73.85-18.52 18.46-18.46 73.85-18.44 18.46-18.41h18.46l18.46-18.46h18.47l18.46-18.47h18.46l18.46-18.52h18.46l18.47-18.49 73.85-36.84 18.47-18.57 36.92-18.43 18.46-18.5 36.93-18.38 18.46-18.43 18.46-18.44 36.92-18.51 18.47-18.44 18.46-18.45 92.32-73.86 18.46-18.46 18.46-18.46 18.46-18.47 18.47-18.46 18.46-18.46 18.46-18.46 18.39-18.46 55.39-73.85c17.24-28.22 1.44-28.15 18.6 0l1.1 646.13h552.67c0-1261.85 17.49-2467.17 18.55-3729.48l-18.55-18.47.1-55.39-18.52-18.46.05-36.93-18.48-18.46v-18.46l-18.52-18.46v-18.47l-18.41-18.46-129.25-129.25-18.46-18.45c-38.01-20.09-43.85-25.61-92.32-36.93l-18.47-18.49c-78.97-6.45-114.57-18.34-221.5-18.38v646.16c-17.22 28.25-1.48 28.09-18.52 0l-18.46-18.46-18.46-18.47-221.56-221.44-18.46-18.57-18.46-18.39-55.39-36.9-18.46-18.57-55.39-36.93-18.46-18.38-73.85-36.95-18.46-18.44-73.85-37.03-18.46-18.39h-18.46l-18.46-18.46h-18.47l-18.46-18.46c-57.51-13.36-53.33-23.58-110.78-36.96l-18.46-18.43c-73.84-17.16-124.84-48.83-203.09-55.42l-18.47-18.51-55.39.1-18.46-18.57-55.39.05-18.46-18.5-92.32.09-18.46-18.55c-168.74.26-268.38-18.46-443.12-18.46l-18.47 18.55zm-55.39 498.43-110.78-.08-18.47 18.43c-81.26 1.88-57.41 12.59-129.24 18.49l-18.46 18.43c-49.82 4.19-50.31 8.69-92.32 18.57l-18.46 18.39h-36.93l-18.46 18.54h-18.46l-18.46 18.49c-48.68 11.24-54.17 16.63-92.32 36.83l-18.47 18.48h-18.46l-18.46 18.52-73.85 36.95-18.46 18.36-36.92 18.48-18.47 18.52-18.46 18.44-55.39 36.96-18.47 18.45-18.46 18.46-18.46 18.39-92.32 92.4-18.46 18.46-18.46 18.46-18.46 18.46-36.93 55.39-18.46 18.46-18.55 18.46-18.41 36.93-18.43 18.46-18.55 36.92-18.49 18.46-18.43 36.93-18.46 18.46v18.46l-18.44 18.46v18.47l-18.38 18.46c-14.11 24.65-11.92 19.65-18.55 55.39l-18.46 18.47v18.46l-18.41 18.46-18.43 73.85-18.52 18.46-.06 36.92-18.41 18.47-.06 36.92-18.38 18.46c-6.04 71.85-16.71 47.97-18.57 129.25l-18.43 18.46.08 92.32-18.55 18.46v461.58l18.55 18.46-.08 92.32 18.46 18.46.08 55.39 18.36 18.46.08 55.39 18.51 18.46-.1 36.92 18.46 18.47.08 36.92 18.41 18.46 18.5 73.85 18.49 18.46v18.46l18.41 18.46v18.47l18.46 18.46v18.46l18.46 18.46v18.46l18.52 18.47 36.95 73.85 18.41 18.47 18.38 36.92 18.5 18.46 18.57 36.93 18.44 18.46 18.43 18.46 36.87 55.39 18.55 18.46 18.46 18.46 18.46 18.46 18.46 18.46 18.46 18.47 18.47 18.46 18.46 18.46 18.46 18.46 18.46 18.57 55.39 36.82 18.46 18.46 18.46 18.55 36.93 18.38 18.46 18.46 36.92 18.55 18.46 18.5 36.93 18.43 18.46 18.43h18.46l18.46 18.47h18.47l18.46 18.48c24.56 14.02 19.69 11.88 55.39 18.44l18.47 18.49h18.46l18.46 18.41 73.85 18.52 18.46 18.39 36.92-.03 18.47 18.52c133.33 11.13 190.56 55.39 369.26 55.36l18.46 18.55h221.56l18.46-18.55c178.67.03 235.95-44.24 369.27-55.36l18.46-18.52 36.92.03 18.46-18.39 73.85-18.52 18.46-18.41h18.47l18.46-18.49h18.46l18.46-18.46h18.46l18.47-18.46h18.46l18.46-18.44h18.46l18.46-18.46 36.93-18.43 18.46-18.5 36.92-18.55 18.47-18.43 36.92-18.41 18.46-18.55 18.46-18.46 55.39-36.82 18.46-18.57 18.46-18.46 18.47-18.46 18.46-18.46 18.46-18.47 18.46-18.46 18.46-18.46 18.47-18.46 18.54-18.46 36.87-55.39 18.43-18.46 18.44-18.46 18.51-36.93 18.55-18.46 18.38-36.92 18.52-18.47 18.46-36.92 18.39-18.46V4985l18.52-18.47v-18.46l18.46-18.46c14.05-24.58 11.88-19.68 18.46-55.39l18.47-18.46v-18.46l18.41-18.46 18.43-73.85 18.52-18.46.06-36.92 18.41-18.47.06-36.92 18.46-18.46-.02-36.93 18.48-18.46-.08-73.85 18.47-18.46.11-73.85 18.43-18.46c-.08-123.5 18.46-200.19 18.46-295.41l-18.55-18.46.08-184.63-18.55-18.46.09-92.32-18.47-18.47-.06-55.39-18.41-18.46v-55.39l-18.46-18.46-.06-36.93-18.41-18.46-18.55-73.85-18.41-18.46c-14.98-64.31-62.9-147.4-92.29-203.09l-18.48-18.46v-18.46l-18.44-18.47-18.57-36.92-18.36-18.46-18.57-36.93-18.43-18.46-18.47-18.46-18.38-36.92-18.55-18.47-18.46-18.46-18.44-18.46-166.19-166.25-18.46-18.39-18.47-18.57-55.39-36.9-18.46-18.5-36.93-18.38-18.46-18.55-36.92-18.38-18.47-18.49c-55.51-29.4-138.99-77.38-203.09-92.32l-18.46-18.41-73.85-18.54-18.46-18.41-110.78-18.41-18.46-18.57-73.85.08-18.46-18.49c-105.45-.08-127.92-18.98-239.39-19.14-86.29-.13-172.77.66-259.12.62l-18.46 18.55zM4745.04 1901.7l-18.46 18.55-92.32-.08-18.47 18.55-73.85-.08-18.47 18.47-55.39.11-18.46 18.43-36.93-.1-18.46 18.51-36.92.06-18.47 18.41-36.92.06-18.46 18.39-36.93-.03-18.46 18.49-73.85 18.55-18.46 18.43h-18.46l-18.46 18.41h-18.46l-18.47 18.46h-18.46l-18.46 18.55h-18.46l-18.46 18.43h-18.47l-18.46 18.49-36.92 18.46-18.46 18.46h-18.47l-18.46 18.5-36.92 18.38-18.46 18.55-36.93 18.43-18.46 18.39-18.46 18.43-36.93 18.49-18.46 18.46-18.46 18.46-73.85 55.39-18.46 18.46-18.46 18.47-18.46 18.46-18.47 18.46-18.46 18.46-18.46 18.46-18.46 18.47-18.47 18.46-18.46 18.46-18.38 18.46-55.39 73.85-18.55 18.46-18.38 18.46-37.01 55.39-18.43 18.46-18.41 36.93-18.46 18.46-18.47 36.92-18.54 18.46-36.95 73.85-18.39 18.46v18.47l-18.52 18.46v18.46l-18.46 18.46v18.46l-18.47 18.47v18.46l-18.41 18.46v18.46l-18.43 18.46-18.55 73.85-18.39 18.46-.08 36.93-18.49 18.46.02 36.92-18.48 18.47.1 36.92-18.43 18.46-.08 55.39-18.41 18.46-.06 55.39-18.49 18.46c.14 154.93-70.2 411.73-26.65 709.82 10.96 74.99 26.67 164.38 26.76 231.8l18.38 18.46-.05 55.39 18.57 18.46v55.39l18.38 18.46.08 36.92 18.41 18.46.06 36.93 18.41 18.46.06 36.92 18.39 18.46.08 36.93 18.47 18.46v18.46l18.41 18.46c15.24 65.3 62.53 146.83 92.37 203.1l18.43 18.46v18.46l18.52 18.46 18.43 36.93 18.36 18.46 18.57 36.92 18.46 18.46 18.41 36.93 18.44 18.46 18.43 18.46 18.49 36.93 18.46 18.46 18.47 18.46 18.54 18.46 73.78 92.32 18.46 18.46 18.46 18.47 18.46 18.46 18.47 18.46 18.46 18.46 92.32 73.74 18.46 18.57 18.46 18.39 55.39 36.9 18.46 18.57 55.39 36.93 18.46 18.38 73.85 36.95 18.46 18.44 73.85 36.95 18.46 18.46H4025l18.46 18.52h18.46l18.47 18.39h18.46l18.46 18.48c57.5 13.35 53.35 23.58 110.78 36.99l18.46 18.49 36.93-.03 18.46 18.39 36.92.06 18.47 18.41 36.92.06 18.46 18.51c79.72 6.49 117.32 34.96 203.09 36.87l18.47 18.5 110.78-.08 18.46 18.55c110.77-.15 221.59-.32 332.36-.06 136.84.32 220.03-18.52 332.31-18.41l18.46-18.55 73.85-.03 18.46-18.38 55.39-.06 18.46-18.38c78.29-6.57 129.19-38.29 203.1-55.48l18.46-18.46 73.85-18.43 18.46-18.41h18.46l18.46-18.48c48.5-11.3 54.28-16.8 92.32-36.9l18.46-18.46h18.47l18.46-18.52 73.85-36.9 18.46-18.52 36.92-18.46 18.46-18.49 36.93-18.36 18.46-18.46 18.46-18.52 36.93-18.49 18.46-18.39 18.46-18.54 55.39-36.85 18.46-18.46 18.46-18.47 18.46-18.46 18.46-18.46 18.47-18.46 18.46-18.46 18.46-18.47 18.46-18.46 18.46-18.46 18.47-18.46 18.46-18.46 18.38-18.47 55.48-73.85 18.46-18.47 36.81-55.39 18.5-18.46 18.57-36.93 18.36-18.46 18.57-36.92 18.41-18.47 36.97-73.85 18.39-18.47v-18.46l18.52-18.46v-18.46l18.46-18.46v-18.47l18.39-18.46v-18.46l18.49-18.46 18.43-73.85 18.46-18.46 18.55-73.85v-36.85h-553.9l-18.39 18.39c-12.63 54.12-32.25 85.47-55.49 129.24l-18.39 18.46v18.47l-18.44 18.46-18.43 36.92-18.55 18.46-18.38 36.93-18.49 18.46-18.57 36.92-18.43 18.47-18.46 18.46-55.32 73.85-18.54 18.46-18.46 18.46-18.47 18.46-18.46 18.46-18.46 18.47-18.46 18.46-18.46 18.45-73.85 55.42-18.46 18.44-18.47 18.57-36.92 18.43-18.46 18.38-18.46 18.52h-18.47l-18.46 18.52-36.92 18.43-18.46 18.38h-18.47l-18.46 18.46h-18.46l-18.46 18.47h-18.47l-18.46 18.48-73.85 18.41-18.46 18.52-36.92.06-18.46 18.41-36.93.06-18.46 18.39c-71.79 6.02-48.03 16.68-129.24 18.54l-18.47 18.47c-108.36-.13-125.68 16.19-220.95 19.06-77.97 2.34-161.91-.63-240.63-.6l-18.46-18.55-110.78.09-18.46-18.55-73.85.08-18.46-18.46h-55.39l-18.46-18.46-36.92-.08-18.47-18.41-36.92-.03-18.46-18.49h-18.46l-18.47-18.39c-64.41-15.1-147.37-62.88-203.09-92.42l-18.46-18.43-36.92-18.47-18.47-18.38-36.92-18.55-18.46-18.38-55.39-36.9-18.46-18.57-18.46-18.46-166.25-166.17-18.38-18.46-18.46-18.46-18.55-18.46-36.85-55.39-18.57-18.46-18.35-36.93-18.46-18.46-18.49-36.92-18.41-18.46-37.04-73.85-18.39-18.46v-18.47l-18.46-18.46v-18.46l-18.55-18.46-18.36-73.85-18.48-18.46-18.55-73.85-18.41-18.46-.08-55.39-18.43-18.46c-8.58-104.44-36.99-144.02-36.84-277.02h-18.47 3784.96l-.08-36.85 18.55-18.46v-350.8l-18.55-18.46.08-147.71-18.55-18.46v-73.85l-18.46-18.46c-1.76-81.4-12.47-57.32-18.44-129.25l-18.49-18.46v-55.39l-18.41-18.47-.06-36.92-18.39-18.46-18.54-73.85-18.47-18.46-18.46-73.85-18.43-18.46v-18.46l-18.47-18.47v-18.46l-18.46-18.46v-18.46l-18.46-18.46-36.95-73.85-18.46-18.46v-18.47l-18.5-18.46-18.38-36.92-18.55-18.46-18.43-36.93-18.39-18.46-18.43-18.46-18.49-36.93-18.46-18.46-18.46-18.46-55.39-73.85-18.46-18.46-18.46-18.46-18.47-18.46-18.46-18.47-18.46-18.46-18.46-18.46-18.46-18.46-18.47-18.46-18.46-18.47-73.85-55.31-18.46-18.54-18.46-18.47-18.46-18.46-36.93-18.38-18.46-18.55-55.39-36.93-18.47-18.38-36.92-18.55-18.46-18.4h-18.46l-18.47-18.44-73.85-36.95-18.47-18.46h-18.46l-18.46-18.52h-18.46l-18.46-18.39h-18.47l-18.46-18.49c-57.5-13.35-53.33-23.58-110.78-36.98l-18.46-18.49-36.93.03-18.46-18.39-36.92-.06-18.47-18.41-36.92-.06-18.46-18.51-110.78-18.44-18.47-18.47-73.85.08-18.47-18.55-92.32.08-18.46-18.55c-282.31.43-153.07-33.88-427.34-2.64-53.72 6.12-109.29 2.71-163.48 2.64zm110.78 498.52c-98.6-.08-103.12 16.66-184.63 18.43l-18.46 18.38-55.39.09-18.46 18.51-36.92-.03-18.47 18.49-36.92-.02-18.46 18.38c-57.49 13.4-53.33 23.62-110.78 36.99l-18.47 18.48h-18.46l-18.46 18.44-73.85 36.87-18.46 18.48h-18.46l-18.46 18.52-36.93 18.41-18.46 18.52-18.46 18.46-36.93 18.39-18.46 18.54-18.46 18.39-203.12 203.18-18.43 18.46-18.46 18.46-37.01 55.39-18.49 18.46-18.43 36.92-18.38 18.47-18.49 36.92-18.41 18.46-55.5 110.78-18.46 18.47c-13.33 57.44-23.55 53.15-36.83 110.78l-18.48 18.46-18.55 73.85-18.41 18.46-18.41 110.78-18.57 18.46c-1.73 81.4-12.45 57.3-18.41 129.24l3028.17.18c56.51.5 137.55 11.09 184.53-18.64l-18.55-18.47.03-73.85-18.38-18.47-.11-55.39-18.39-18.46c-5.57-66.69-22.96-88.08-37-147.71l-18.49-18.46-18.36-73.85-18.55-18.46v-18.46l-18.46-18.47v-18.46l-18.44-18.46-36.87-73.85-18.47-18.46-18.55-36.92-18.38-18.47-18.55-36.92-18.43-18.46-36.96-55.39-18.45-18.46-18.44-18.46-184.66-184.63-18.46-18.46-18.46-18.47-18.46-18.43-36.93-18.52-18.46-18.43c-36.67-24.63-51.25-33.67-92.32-55.48l-18.46-18.46c-55.84-29.47-138.74-77.23-203.09-92.32l-18.47-18.39h-18.46l-18.46-18.49-36.92.05-18.47-18.49-36.92.03-18.46-18.51-55.39-.06-18.46-18.41c-81.53-1.77-86.01-18.51-184.63-18.43l-18.46-18.55h-332.34l-18.46 18.55zM9471.62 1938.71l-92.32-.08-18.46 18.47-55.39.11-18.47 18.43-36.92-.1-18.46 18.48-36.93-.02-18.46 18.49c-57.36 13.39-53.32 23.6-110.78 36.98l-18.46 18.39-73.85 37.03-18.46 18.44h-18.46l-18.47 18.4-55.39 36.93-18.46 18.58-55.39 36.81-18.46 18.46-18.46 18.46-18.47 18.47-18.46 18.46-18.46 18.46-18.46 18.46-18.46 18.46-18.39 18.47-33.33 40.59-3.67-391.4-553.83.09v4172.51l553.76.01-.03-2732.48 18.55-18.46-.08-92.32 18.46-18.46.08-55.39 18.39-18.46c5.57-66.68 22.97-88.07 37.01-147.7l18.49-18.47c14.8-64.23 62.83-147.42 92.21-203.09l18.46-18.46v-18.46l18.55-18.46 36.93-55.39 18.43-18.46 36.95-37.01 18.46-18.39 18.46-18.46 18.46-18.57 55.39-36.82 18.46-18.43 36.92-18.57 18.47-18.44h18.46l18.46-18.49c43.77-23.18 75.21-42.78 129.24-55.36l18.47-18.43c42.04-9.85 42.46-14.35 92.32-18.52l18.46-18.39 55.39-.1 18.47-18.38 92.32.03 18.46-18.55c99.42 0 211.68.79 282.72 12.74 112.86 18.99 161.14 39.81 252.72 61.19l18.46 18.39 73.85 18.46 18.46 18.52 73.85 36.84 18.46 18.5 36.92 18.55 18.46 18.38 36.93 18.43 18.46 18.57 18.46 18.39 92.34 92.39 18.44 18.46 18.52 18.46 18.41 36.93 18.55 18.46v18.46l18.46 18.46c29.37 55.64 77.38 138.91 92.29 203.1l18.49 18.46v36.92l18.41 18.46.06 36.93 18.39 18.46c6.04 71.91 16.72 47.91 18.55 129.24l18.46 18.47-.08 129.24 18.55 18.46v2658.62h535.35l18.47-18.38c0-251.79 17.88-2189.09-.97-2417.71-5.9-71.52-17.58-62.64-17.58-148.67l18.55-18.46-.08-166.17 18.55-18.46v-73.85l18.47-18.46-.01-55.39 18.39-18.46c5.57-66.77 23-87.99 36.92-147.71l18.46-18.46v-18.46l18.46-18.46c12.61-54.02 32.25-85.5 55.42-129.25l18.52-18.46 36.87-73.85 18.52-18.46 18.39-18.46 18.46-36.92 18.55-18.47 18.46-18.46 18.46-18.57 73.85-55.36 18.46-18.38 55.39-36.93 18.46-18.55h18.46l18.47-18.36c38.23-20.3 43.48-25.65 92.32-36.92l18.46-18.49h18.46l18.46-18.49 36.93.05 18.46-18.51 55.39-.08 18.47-18.36 73.85.01 18.47-18.55h387.73l18.46 18.55 73.85-.03 18.46 18.38 55.39.08 18.46 18.41 73.85 18.55 18.46 18.41h18.46l18.46 18.46h18.47l18.46 18.47h18.46l18.46 18.49 36.93 18.38 18.46 18.55 36.92 18.41 18.46 18.54 18.47 18.39 110.78 110.86 18.46 18.46 18.44 18.46 18.57 36.93 18.36 18.46 18.57 36.92 18.39 18.46v18.47l18.52 18.46v18.46l18.46 18.46v18.46l18.46 18.47v18.46l18.41 18.46v18.46l18.46 18.46.08 36.93 18.39 18.46c9.89 42.01 14.39 42.49 18.55 92.32l18.39 18.46.1 55.39 18.38 18.46-.03 73.85 18.55 18.46-.09 2751.02 18.47 18.38h535.43l.01-2714-18.55-18.47.09-129.24-18.55-18.46v-73.85l-18.46-18.46-.03-73.85-18.36-18.46-18.55-110.78-18.38-18.47-.08-36.92-18.41-18.46-18.52-73.85-18.46-18.46c-15.12-65.29-62.48-146.75-92.24-203.09l-18.43-18.47-18.57-36.92-18.36-18.46-18.57-36.93-18.38-18.46-36.96-55.39-18.43-18.47-18.47-18.46-18.46-18.46-18.46-18.46-18.46-18.46-18.46-18.47-18.47-18.46-18.46-18.46-18.46-18.46-18.46-18.39-55.39-36.92-18.46-18.55-18.46-18.46-36.93-18.35-18.46-18.55-36.92-18.38-18.46-18.49h-18.47l-18.46-18.47c-52.94-28.1-101.87-58.96-166.17-73.85l-18.46-18.47-73.85-18.52-18.46-18.51-36.92.1-18.46-18.46h-55.39l-18.46-18.57-55.39.11-18.46-18.43-92.32-.03-18.46-18.55h-553.9l-18.47 18.55-92.32-.08-18.46 18.47-55.39.11-18.47 18.43-36.92-.1-18.46 18.48-36.93-.02-18.46 18.51-73.85 18.41-18.46 18.55h-18.46l-18.46 18.46h-18.46l-18.47 18.46-73.85 36.95-18.47 18.36-36.92 18.57-18.46 18.49-36.93 18.36-18.46 18.46-18.46 18.46-18.46 18.55-166.09 166.09-18.55 18.46-18.39 18.46-18.49 36.93-18.52 18.46-18.39 18.46v18.46l-18.54 18.47-18.39 36.92-18.49 18.46v18.46l-18.52 18.47v18.46c-16.59 27.35-1.64 27.69-18.46.08-20.78-22.98-21.49-24.3-37.01-55.47l-18.49-18.46-18.36-36.92-18.45-18.47-37.01-55.39-18.39-18.46-18.54-18.47-166.09-166.09-18.46-18.55-18.46-18.46-55.39-36.81-18.46-18.5-36.92-18.57-18.46-18.36-36.93-18.46-18.46-18.47h-18.46l-18.46-18.46c-38.13-20.23-43.66-25.65-92.32-36.92l-18.47-18.55h-18.46l-18.46-18.41-73.85-18.5-18.46-18.41-36.93-.06-18.46-18.41h-55.39l-18.47-18.57-55.39.11-18.46-18.43-92.32-.03-18.47-18.55h-535.43l-18.47 18.55zM23965.23 553.97l-92.32.03-18.47 18.43c-81.38 1.75-57.33 12.5-129.24 18.36l-18.46 18.51-36.93.06-18.46 18.41-36.92.06-18.46 18.39-36.93.08-18.46 18.47h-18.46l-18.46 18.41c-53.92 12.57-85.51 32.25-129.25 55.39l-18.46 18.49h-18.46l-18.46 18.52-36.93 18.43-18.46 18.36-36.92 18.52-18.47 18.43-55.39 37.01-18.46 18.39-18.47 18.54-203.1 203.02-18.45 18.46-18.44 18.47-18.51 36.92-18.44 18.46-18.38 18.46-18.55 36.93-18.38 18.46-36.95 73.85-18.52 18.46v18.46l-18.39 18.46c-20.23 38.13-25.65 43.66-36.92 92.32l-18.55 18.47v18.46l-18.41 18.46-18.44 73.85-18.48 18.46-.03 36.92-18.41 18.46-.06 36.93-18.51 18.46.1 36.92-18.43 18.47c-2.6 110.22-37 158.01-36.96 295.41l-18.55 18.46.05 295.42 590.78-.06c-1.93-83.73-23.44-87.47-19.38-183.93 3.51-83.42 19.3-99.34 19.29-203.74l18.55-18.46-.08-73.85 18.57-18.46-.1-36.93 18.46-18.46.06-36.92 18.41-18.46v-36.93l18.55-18.46v-18.46l18.41-18.46c6.57-35.7 4.42-30.83 18.44-55.39l18.49-18.46v-18.46l18.43-18.47v-18.46l18.55-18.46 18.49-36.92 18.43-18.46 36.94-55.39 18.45-18.46 147.71-147.73 18.46-18.44 18.46-18.57 36.92-18.35 18.47-18.46 36.92-18.47 18.46-18.43c43.84-23.28 75.05-42.88 129.25-55.39l18.46-18.49 73.85-18.55 18.46-18.46h55.39l18.47-18.41 73.85-.08 18.47-18.43h350.8l18.46 18.55 92.32-.08 18.46 18.46h55.39l18.46 18.46 36.92.06 18.46 18.41c64.07 14.92 147.69 63 203.1 92.32l18.46 18.46 36.92 18.55 18.46 18.43 36.93 18.41 18.46 18.55 18.46 18.46 18.46 18.47 110.78 110.78 18.46 18.46 18.54 18.46 18.39 36.93 18.46 18.46 18.52 18.46 36.9 73.85 18.43 18.46v18.46l18.46 18.46v18.46l18.47 18.47 18.43 73.85 18.52 18.47.06 36.92 18.46 18.46c5.9 71.83 16.61 47.98 18.49 129.25l18.43 18.46v350.8l-18.55 18.46v73.85l-18.35 18.46-.11 55.39-18.38 18.47c-4.17 49.82-8.66 50.3-18.55 92.32l-18.39 18.46-.08 36.92-18.47 18.46v18.47l-18.41 18.46v18.46l-18.46 18.46v18.46l-18.44 18.47v18.46l-18.46 18.46-18.55 36.92-18.38 18.47-18.55 36.92-18.45 18.46-18.36 36.93-18.57 18.46-18.43 18.46-36.87 55.39-18.54 18.46-18.47 18.46-18.43 18.46-55.34 73.85-18.55 18.46-18.46 18.46-18.46 18.47-18.46 18.46-18.46 18.46-166.09 184.63-18.54 18.46-18.47 18.46-18.46 18.47-18.46 18.46-18.46 18.46-18.46 18.46-18.47 18.46-18.46 18.47-18.46 18.46-18.46 18.46-18.46 18.46-18.47 18.46-18.46 18.47-18.46 18.46-18.46 18.46-18.46 18.46-18.47 18.46-18.46 18.47-18.46 18.46-18.46 18.46-18.47 18.46-18.46 18.46-18.46 18.47-18.46 18.46-18.46 18.46-18.47 18.46-18.46 18.46-18.46 18.47-18.46 18.54-276.95 258.41-18.46 18.46-18.47 18.46-18.46 18.46-18.46 18.46-18.46 18.47-18.46 18.46-18.47 18.46-18.46 18.46-18.46 18.46-18.46 18.47-18.46 18.54-184.63 166.17-18.47 18.39-18.46 18.46-18.46 18.46-18.46 18.46-18.46 18.46-18.47 18.47-18.46 18.46-18.46 18.55-166.17 147.7-18.46 18.39-18.46 18.46-18.46 18.46-18.47 18.46-18.46 18.47-18.46 18.46-18.46 18.46-18.46 18.55-147.71 129.16-18.46 18.46-18.46 18.46-18.47 18.46-18.46 18.46-18.46 18.47-18.46 18.46-18.46 18.46-18.47 18.46-166.16 147.73-18.47 18.44-18.46 18.46-18.46 18.46-18.46 18.47-18.46 18.46-18.47 18.46-18.46 18.46-18.46 18.46-18.47 18.47v498.51l3600.25-.09-.03-110.69-18.35-18.46-.08-36.93-18.46-18.46c-11.3-48.53-16.82-54.23-36.92-92.32l-18.46-18.46-110.7-110.7-18.46-18.55-36.93-18.48-18.46-18.39h-18.46l-18.46-18.55-36.93.03-18.46-18.49-55.39.1-18.46-18.43-2363.37-.06 129.32-129.37 18.46-18.39 18.46-18.46 18.46-18.47 18.47-18.46 18.46-18.46 18.46-18.46 18.46-18.55 147.71-129.18 18.46-18.44 18.46-18.46 18.46-18.46 18.47-18.47 18.46-18.46 18.46-18.46 18.46-18.46 18.46-18.55 166.17-147.62 18.46-18.46 18.47-18.46 18.46-18.47 18.46-18.46 18.46-18.46 18.46-18.46 18.47-18.46 18.46-18.47 18.46-18.46 18.46-18.57 240.02-221.53 18.46-18.38 18.46-18.47 18.47-18.46 18.46-18.46 18.46-18.46 18.46-18.46 18.46-18.47 18.47-18.46 18.46-18.46 18.46-18.46 18.46-18.46 18.46-18.47 18.47-18.46 18.46-18.46 18.46-18.46 18.46-18.46 18.46-18.47 18.47-18.46 18.46-18.55 313.79-313.79 18.54-18.47 18.47-18.46 18.46-18.46 18.46-18.46 18.46-18.46 18.46-18.47 18.47-18.46 18.46-18.46 18.46-18.46 18.46-18.46 18.46-18.47 18.47-18.46 18.46-18.46 18.43-18.46 110.73-129.25 18.54-18.46 18.47-18.46 18.46-18.46 18.46-18.46 18.44-18.47 55.33-73.85 18.55-18.47 18.46-18.46 18.44-18.46 36.84-55.39 18.57-18.46 18.44-18.46 18.51-36.92 18.44-18.47 18.43-18.46 18.38-36.92 18.55-18.46 36.9-73.85 18.52-18.46v-18.47l18.39-18.46c20.19-38.04 25.66-43.74 37-92.32l18.39-18.46v-18.46l18.46-18.46.08-36.93 18.39-18.46.05-36.92 18.41-18.47.06-36.92 18.43-18.46.05-36.93 18.36-18.46c2.39-103.82 36.41-175.41 37.72-294.66 1.21-110.38-.77-222.44-.68-333.09l-18.55-18.46-.03-92.32-18.38-18.46.05-55.39-18.57-18.46v-55.39l-18.41-18.47-.06-36.92-18.41-18.46-18.52-73.85-18.41-18.46c-14.69-63.17-46.21-114-73.91-166.17l-18.46-18.46v-18.46l-18.49-18.46-18.38-36.93-18.55-18.46-18.43-36.92-18.38-18.47-18.55-18.46-36.87-55.39-18.43-18.47-18.46-18.46-18.47-18.46-18.46-18.46-18.46-18.46-18.46-18.47-18.46-18.46-18.47-18.46-18.46-18.46-18.46-18.46-18.46-18.47-18.46-18.46-55.39-36.81-18.46-18.57-18.46-18.47-36.93-18.35-18.46-18.5-36.92-18.57-18.47-18.41-73.85-36.9-18.47-18.52h-18.46l-18.46-18.46h-18.46l-18.46-18.46h-18.47l-18.46-18.39h-18.46l-18.46-18.46-73.85-18.55-18.46-18.39-36.93-.06-18.46-18.41-110.78-18.55-18.46-18.35-73.85-.03-18.46-18.47h-92.32l-18.46-18.55h-516.97l-18.46 18.55zM0 1809.44v516.84h923.24v3858.88l18.38-.08h553.82V2326.27l701.68.12 18.46-18.52 36.93-.06 18.46-18.46c35.77-6.57 30.73-4.36 55.39-18.46l18.47-18.36 55.39-36.95 18.46-18.46 18.47-18.47 18.38-36.92 18.55-18.46c14.03-24.62 11.86-19.7 18.44-55.39l18.51-18.46-.03-36.92 18.36-18.47v-184.57l-1033.92-.01.01-1329.4-18.46-18.46V406.2l-18.39-18.46c-6.64-35.72-4.45-30.78-18.55-55.39l-18.46-18.47v-18.46l-18.39-18.46-18.54-18.46-55.31-55.28-18.47-18.57-18.46-18.39c-65.24-34.64-124.77-71.72-221.56-73.85l-18.47-18.55H923.23l.01 1735.6h36.84H0zM26180.81 664.67l18.5 18.46c4.22 49.81 8.73 50.2 18.52 92.32l18.38 18.47v18.46l18.52 18.46v18.46l18.41 18.46 18.46 18.47 18.55 18.46 36.85 36.81 18.46 18.57 18.46 18.39 36.92 18.49 18.47 18.43c38.04 20.19 43.74 25.66 92.32 37.01l18.46 18.39h55.39l18.47 18.46h590.87v5132.77l627.69-.01V535.5h-1661.6l-.09 129.16zM2861.79 18.46v516.98l4375.78-.01V18.46c-16.72-8.02-71.95-14.03-154.32-18.46H3016.06c-82.37 4.44-137.56 10.44-154.27 18.46M21066.51 3563.35l-36.92.03-18.47 18.48c-35.57 6.64-30.78 4.51-55.39 18.46l-18.46 18.46-36.93 18.46-18.46 18.46-18.46 18.47-18.46 18.46-36.85 55.39-18.54 18.47v18.46l-18.47 18.46-.03 36.92-18.43 18.47.04 55.39-18.43 18.46c-.19 124.22 14.53 144.44 36.85 240.02l18.47 18.46v18.46l18.46 18.47 18.46 36.92 18.47 18.46 18.46 18.46 18.46 18.47 18.46 18.46 36.93 18.46 18.46 18.46c151.22 80.06 310.36 80.06 461.58 0l18.46-18.46 36.92-18.46 18.47-18.46 18.46-18.47 18.46-18.46 18.47-18.46 18.46-36.92 18.46-18.47v-18.46l18.46-18.46c22.32-95.59 37.04-115.8 36.85-240.02l-18.42-18.46.04-55.39-18.43-18.47-.04-36.92-18.46-18.46v-18.46l-18.54-18.47-36.85-55.39-18.46-18.46-18.46-18.47-18.47-18.46-36.92-18.46-18.46-18.46c-24.62-13.95-19.82-11.83-55.39-18.46l-18.46-18.48-36.92-.03-18.47-18.43h-203.09l-18.46 18.43z"/></svg>