<svg xmlns="http://www.w3.org/2000/svg" xml:space="preserve" width="83.3144mm" height="21.1666mm" version="1.1" style="shape-rendering:geometricPrecision; text-rendering:geometricPrecision; image-rendering:optimizeQuality; fill-rule:evenodd; clip-rule:evenodd"
     viewBox="0 0 8337 2118.07">
        <path fill="#FFFFFF" d="M2193.69 1236.89l-745.35 0c-98.96,0 -179.05,-80.17 -179.05,-178.98 0,-98.85 80.09,-179.01 179.05,-179.01l745.35 0c98.85,0 178.94,80.16 178.94,179.01 0,98.81 -80.09,178.98 -178.94,178.98zm0 485.6l-745.35 0c-98.96,0 -179.05,-80.17 -179.05,-179.01 0,-98.78 80.09,-178.91 179.05,-178.91l745.35 0c98.85,0 178.94,80.13 178.94,178.91 0,98.84 -80.09,179.01 -178.94,179.01zm-1067.54 -146.36c0,98.85 -80.03,178.94 -178.91,178.94 -98.85,0 -179.02,-80.09 -179.02,-178.94l0 -823.16 -215.44 0c-98.84,0 -179.01,-80.17 -179.01,-178.98 0,-98.85 80.17,-178.94 179.01,-178.94l1640.24 0c98.95,0 179.05,80.09 179.05,178.94 0,98.81 -80.1,178.98 -179.05,178.98l-1066.87 0 0 823.16zm1072.1 -1576.13l-1640.31 0c-307.62,0 -557.93,250.32 -557.93,557.93l0 1002.21c0,307.62 250.32,557.93 557.93,557.93l1640.31 0c307.66,0 557.9,-250.32 557.9,-557.93l0 -1002.21c0,-307.62 -250.25,-557.93 -557.9,-557.93z"/>
        <path fill="#FFFFFF" d="M3543.7 1626.54c-6.84,11.68 -16.13,21.1 -27.78,28.24 -11.69,7.23 -24.4,10.8 -38.13,10.8l-232.24 0 0 -152.42 216.14 0 16.1 0c13.73,0 26.44,3.28 38.13,9.85 11.65,6.56 20.93,15.71 27.78,27.36 6.85,11.68 10.32,24.39 10.32,38.09 0,13.81 -3.46,26.52 -10.32,38.1zm-49.31 -375.64c11.65,6.84 20.93,16.13 27.78,27.82 6.88,11.58 10.39,24.36 10.39,38.09 0,13.7 -3.5,26.41 -10.39,38.09 -6.84,11.66 -16.13,20.93 -27.78,27.79 -11.62,6.84 -24.4,10.31 -38.09,10.31l-210.75 0 0 -152.47 210.75 0c13.69,0 26.47,3.53 38.09,10.39zm152.85 246.11c-14.19,-21.07 -32.82,-37.95 -55.32,-50.97 13.45,-10.66 25.14,-22.98 34.74,-37.38 17.29,-25.98 25.98,-56.62 25.98,-91.85 0,-35.26 -8.83,-67.89 -26.41,-97.72 -17.65,-29.93 -41.58,-53.73 -71.73,-71.31 -30.22,-17.65 -62.98,-26.48 -98.21,-26.48l-268.12 0c-16.69,0 -31.2,6.1 -43.49,18.39 -12.25,12.25 -18.39,26.76 -18.39,43.49l0 539.76c0,16.77 6.14,31.31 18.39,43.49 12.29,12.25 26.8,18.39 43.49,18.39l289.61 0c35.26,0 68.03,-8.83 98.25,-26.4 30.11,-17.69 53.91,-41.63 71.2,-71.77 17.37,-30.19 26.06,-62.87 26.06,-98.22 0,-35.22 -8.69,-65.72 -26.06,-91.43z"/>
        <path fill="#FFFFFF" d="M3952.57 1240.54l212.55 0c19.13,0 36.71,4.94 52.92,14.79 16.13,9.85 28.98,23.09 38.52,39.51 9.57,16.41 14.4,34.2 14.4,53.34 0,19.1 -4.83,36.6 -14.4,52.46 -9.54,15.85 -22.24,28.39 -38.1,37.68 -15.81,9.25 -33.6,13.83 -53.34,13.83l-212.55 0 0 -211.59zm303.98 544.27l138.06 0 -162.74 -230.76c16.17,-4.51 31.8,-10.49 46.67,-18.49 34.34,-18.53 61.56,-44.24 81.57,-77.14 20.05,-32.82 30.04,-69.61 30.04,-110.24 0,-40.67 -9.99,-78.44 -30.04,-113.43 -20.01,-35.01 -47.37,-62.58 -82.03,-82.96 -34.66,-20.29 -72.3,-30.5 -112.97,-30.5l-269.91 0c-16.7,0 -31.21,6.14 -43.5,18.39 -12.25,12.25 -18.39,26.8 -18.39,43.49l0 601.64 119.25 0 0 -221.45 150.21 0 153.77 221.45z"/>
        <path fill="#FFFFFF" d="M5007.08 1121.31l0 449.7 -354.22 -439.85c-5.4,-6.56 -12.11,-11.76 -20.12,-15.71 -8.12,-3.84 -16.66,-5.82 -25.63,-5.82 -16.7,0 -30.93,5.82 -42.54,17.51 -11.69,11.69 -17.51,25.84 -17.51,42.61l0 615.09 119.21 0 0 -445.54 354.22 433.92c5.4,5.9 12.25,11.02 20.65,15.18 8.33,4.24 17.01,6.28 25.98,6.28 16.7,0 30.93,-5.78 42.61,-17.43 11.69,-11.69 17.44,-25.85 17.44,-42.65l0 -613.29 -120.09 0z"/>
        <path fill="#FFFFFF" d="M5448.84 1747.61c-52.31,-30.78 -93.68,-72.48 -124.18,-125.07 -30.5,-52.64 -45.75,-110.24 -45.75,-173.02 0,-62.16 15.25,-119.31 45.75,-171.27 30.5,-52 71.73,-93.23 123.73,-123.73 52.03,-30.5 109.11,-45.75 171.27,-45.75 60.93,0 117.63,15.07 169.87,45.29 52.31,30.15 93.86,71.31 124.65,123.27 30.78,51.99 46.17,109.71 46.17,173.09 0,62.16 -15.25,119.49 -45.68,172.12 -30.5,52.6 -71.73,94.29 -123.73,125.07 -52.03,30.78 -109.11,46.17 -171.28,46.17 -61.6,0 -118.5,-15.39 -170.82,-46.17zm282.03 -102.66c33.43,-20.29 60.22,-47.51 80.2,-81.58 20.08,-34.09 30.08,-71.73 30.08,-112.96 0,-40.67 -9.89,-77.88 -29.55,-111.66 -19.8,-33.78 -46.56,-60.64 -80.31,-80.69 -33.74,-20.02 -70.99,-30.08 -111.62,-30.08 -40.63,0 -77.69,10.06 -111.19,30.08 -33.5,20.05 -60.08,46.91 -79.78,80.69 -19.76,33.78 -29.62,71 -29.62,111.66 0,41.23 9.86,78.86 29.62,112.96 19.7,34.07 46.42,61.29 80.2,81.58 33.78,20.33 70.71,30.5 110.77,30.5 40.64,0 77.7,-10.17 111.2,-30.5z"/>
        <polygon fill="#FFFFFF" points="3570.09,331.83 3002.44,331.83 3002.44,451.08 3226.64,451.08 3226.64,995.39 3345.96,995.39 3345.96,451.08 3570.09,451.08 "/>
        <path fill="#FFFFFF" d="M4222.4 451.05l0 -119.21 -451.05 0c-16.69,0 -31.2,6.1 -43.49,18.39 -12.25,12.25 -18.39,26.76 -18.39,43.49l0 539.76c0,16.77 6.14,31.31 18.39,43.49 12.29,12.25 26.8,18.39 43.49,18.39l451.05 0 0 -119.25 -393.68 0 0 -152.43 366.74 0 0 -120.16 -366.74 0 0 -152.47 393.68 0z"/>
        <path fill="#FFFFFF" d="M4771.19 631.3c-10.48,17.96 -24.78,32.19 -43.07,42.64 -18.21,10.42 -38.44,15.67 -60.54,15.67l-177.53 0 0 -238.53 177.53 0c21.53,0 41.45,5.54 59.7,16.63 18.18,11.01 32.68,25.84 43.49,44.37 10.73,18.53 16.13,38.52 16.13,60.05 0,21.53 -5.26,41.3 -15.71,59.17zm103.54 -179.27c-21.49,-37.09 -50.62,-66.39 -87.41,-87.93 -36.77,-21.46 -76.67,-32.27 -119.74,-32.27l-234.9 0c-16.69,0 -31.24,6.14 -43.49,18.39 -12.25,12.25 -18.39,26.8 -18.39,43.5l0 601.63 119.25 0 0 -186.49 177.53 0c43.64,0 83.85,-10.45 120.63,-31.38 36.74,-20.86 65.72,-49.42 86.98,-85.61 21.21,-36.18 31.81,-76.11 31.81,-119.74 0,-43.07 -10.74,-83.03 -32.27,-120.1z"/>
        <path fill="#FFFFFF" d="M6370.6 451.08l212.55 0c19.13,0 36.71,4.94 52.92,14.79 16.13,9.86 28.95,23.1 38.52,39.51 9.57,16.41 14.36,34.2 14.36,53.34 0,19.1 -4.79,36.61 -14.36,52.47 -9.57,15.81 -22.24,28.38 -38.1,37.67 -15.81,9.25 -33.64,13.84 -53.34,13.84l-212.55 0 0 -211.6zm303.98 544.27l138.06 0 -162.74 -230.76c16.13,-4.55 31.77,-10.48 46.63,-18.49 34.38,-18.53 61.6,-44.23 81.58,-77.13 20.08,-32.83 30.07,-69.62 30.07,-110.25 0,-40.67 -9.99,-78.43 -30.07,-113.42 -19.98,-35.02 -47.34,-62.59 -82,-82.97 -34.67,-20.29 -72.3,-30.5 -112.97,-30.5l-269.92 0c-16.69,0 -31.24,6.14 -43.49,18.39 -12.29,12.25 -18.39,26.8 -18.39,43.5l0 601.63 119.25 0 0 -221.44 150.21 0 153.77 221.44z"/>
        <path fill="#FFFFFF" d="M7425.12 331.85l0 449.7 -354.22 -439.85c-5.4,-6.56 -12.11,-11.76 -20.15,-15.71 -8.09,-3.84 -16.63,-5.82 -25.6,-5.82 -16.73,0 -30.96,5.82 -42.54,17.51 -11.69,11.69 -17.51,25.84 -17.51,42.61l0 615.09 119.22 0 0 -445.54 354.21 433.92c5.4,5.89 12.25,11.02 20.65,15.18 8.34,4.24 17.01,6.28 25.98,6.28 16.7,0 30.93,-5.78 42.61,-17.44 11.69,-11.68 17.44,-25.84 17.44,-42.64l0 -613.29 -120.09 0z"/>
        <polygon fill="#FFFFFF" points="8193.47,331.84 8008.77,647.5 7823.19,331.84 7679.7,331.84 7948.72,783.77 7948.72,995.36 8067.97,995.36 8067.97,783.77 8337,331.84 "/>
        <path fill="#FFFFFF" d="M5708.51 774.55l97.65 -227.9 97.25 227.9 -194.9 0zm289.15 220.81l132.73 0 -269.91 -635.7c-4.83,-11.33 -11.83,-20.29 -21.11,-26.93 -9.25,-6.57 -19.83,-9.86 -31.8,-9.86 -12.57,0 -23.8,3.28 -33.64,9.86 -9.86,6.63 -17.16,15.6 -21.96,26.93l-271.67 635.7 133.61 0 51.04 -119.17 281.85 0 50.87 119.17z"/>
        <path fill="#FFFFFF" d="M5156.72 876.12l0 -544.28 -119.24 0 0 601.64c0,16.77 6.1,31.31 18.39,43.5 12.25,12.25 26.79,18.39 43.49,18.39l302.63 0 51.58 -119.22 -296.86 -0.03z"/>
        <polygon fill="#FFFFFF" points="5827.84,192.4 5789.78,280.44 6029.02,280.44 6067.08,192.4 "/>
</svg>