<svg xmlns="http://www.w3.org/2000/svg" xml:space="preserve" width="65.381" height="80.425" style="shape-rendering:geometricPrecision;text-rendering:geometricPrecision;image-rendering:optimizeQuality;fill-rule:evenodd;clip-rule:evenodd" viewBox="0 0 1729.88 2127.92"><path fill="#fff" d="M0 971.13h426.17v434.9H0z"/><path fill="#fff" d="M1023.49 103.06h50.56c326.58 0 478.79 174.7 542.4 640.61l101.12-4.47L1704.08 0H42.28L25.9 739.19l97.31 4.47c16.85-174.7 37.07-268.79 80.94-362.88 77.55-174.73 239.4-277.73 438.31-277.73l70.81.01V1711.3c0 170.23-10.11 224-50.54 264.32-33.73 31.35-101.18 44.79-178.75 44.79l-77.55.01v107.5h923.9v-107.5h-78.03c-77.07 0-144.99-13.47-178.22-44.79-40.45-40.32-50.56-94.11-50.56-264.32V103.07zm0 0"/><path fill="#fff" d="M1303.71 971.13h426.17v434.9h-426.17z"/></svg>