<svg xmlns="http://www.w3.org/2000/svg" xml:space="preserve" width="545.306" height="540.654" style="shape-rendering:geometricPrecision;text-rendering:geometricPrecision;image-rendering:optimizeQuality;fill-rule:evenodd;clip-rule:evenodd" viewBox="0 0 25875.96 25655.08"><path fill="#fff" d="M570.25 25451.29c1.18 36.34 15.23 66.73 41 92.52 25.75 25.81 56.21 39.81 92.47 41h836.15c39.83-1.18 71.45-15.19 96.04-41 24.61-25.79 36.32-56.19 37.47-92.52v-2620.77h7.04l2775.37 2789.43c8.21 7.05 23.44 15.19 43.35 22.24 19.91 8.16 36.28 11.71 48.01 12.9h112.41c36.34-1.18 67.94-12.9 93.71-37.5 25.75-23.4 38.65-52.71 39.8-89.03v-4728.65c-1.15-36.34-14.04-67.97-39.8-93.69-25.77-25.74-57.37-38.63-93.71-39.81h-843.14c-38.67 1.18-71.43 14.08-96.04 39.81-23.42 25.72-36.28 57.35-37.47 93.69v2494.3h-7.02L872.42 20596.12H696.71c-36.28 1.18-66.72 12.9-92.47 36.32-25.79 24.62-39.83 53.91-41 90.16l7.01 4728.7zM5643.24 23132.48c1.18 282.26 43.35 549.25 127.64 802.18 83.13 251.77 202.57 483.63 356 693.28 153.38 209.58 333.75 389.94 543.38 543.4 209.58 153.36 441.48 272.79 693.23 355.9 252.95 84.36 519.94 126.55 802.2 127.73 282.22-1.18 550.38-43.37 803.33-127.73 252.95-83.11 483.63-202.54 694.43-355.9 209.62-153.47 392.3-333.82 545.72-543.4 154.56-209.66 274.02-441.52 358.32-693.28 84.33-252.93 126.49-519.93 127.66-802.18-1.17-282.2-43.33-550.34-127.66-803.27-84.29-254.19-203.76-486.01-358.32-696.83-153.41-210.77-336.1-393.43-545.72-547.98-210.8-154.63-441.48-275.28-694.43-359.55s-521.11-127.66-803.33-128.84c-282.26 1.18-549.25 44.57-802.2 128.84-251.75 84.27-483.64 204.92-693.23 359.55-209.64 154.54-390.01 337.21-543.38 547.98-153.43 210.82-272.88 442.64-356 696.83-84.29 252.93-126.46 521.07-127.64 803.27m1124.2 0c1.17-194.36 38.65-377.09 111.27-546.86 72.6-169.75 172.15-319.72 300.94-449.68 127.64-128.82 276.37-230.69 445.01-304.46 167.47-72.56 347.79-110.08 541.03-111.27 194.36 1.18 375.89 38.7 545.68 111.27 169.81 73.77 318.54 175.63 447.34 304.46 127.64 129.95 228.34 279.92 300.94 449.68 73.82 169.77 110.1 352.51 111.27 546.86-1.17 193.28-37.45 373.58-111.27 541.11-72.6 168.57-173.3 317.26-300.94 444.96-128.81 128.81-277.54 228.38-447.34 300.94-169.79 72.58-351.32 110.08-545.68 111.28-193.25-1.2-373.56-38.7-541.03-111.28-168.64-72.56-317.37-172.14-445.01-300.94-128.79-127.69-228.34-276.39-300.94-444.96-72.62-167.53-110.1-347.82-111.27-541.11M11545.34 25451.29c1.15 36.34 12.88 66.73 37.47 92.52 24.59 25.81 56.21 39.81 96.04 41h2908.87c39.81-1.18 71.42-15.19 96.02-41 24.61-25.79 36.3-56.19 37.48-92.52v-765.85c-1.18-36.34-12.88-66.81-37.48-92.52-24.61-25.77-56.21-39.8-96.02-40.98h-1946.29v-948.51h1601.98c36.32-1.2 66.75-12.98 92.52-37.54 25.75-24.61 39.83-56.19 40.98-95.99v-765.93c-1.15-36.25-15.23-67.88-40.98-93.62-25.77-25.79-56.21-38.61-92.52-39.81h-1601.98v-871.27h1946.29c39.81-1.2 71.42-15.26 96.02-41 24.61-25.79 36.3-56.19 37.48-92.51v-765.86c-1.18-36.34-12.88-67.97-37.48-93.69-24.61-25.74-56.21-38.63-96.02-39.81h-2908.87c-39.83 1.18-71.45 14.08-96.04 39.81-24.59 25.72-36.32 57.35-37.47 93.69zM19534.61 9700.01c.25-.41.11-.22-.04-.07zM18425.18 14651.51c.36.9.63 1.85.09-.09zM18424.82 14648.91c-.07-.22-.05-.2 0 0M18425 14649.57l-.02-.05zl-.22.04c.61 1.83.39.82.22-.04"/><path fill="#fff" d="M14092.02 15921.64c-34.94 120.29-63.33 176.62-140.66 277.52 787.8 282.99 1443.85 638.51 1984.95 1046.65 1135.08 856.2 1764.88 1942.02 2044.55 3078.82 358.03 1455.41 108.36 2825.64-304.6 4222.08-102.28 346.68-209.93 690.25-345.71 1025.29l-819.49.75c661-1569.26 1169.89-3377.13 753.02-5071.77-248.7-1010.94-822.18-1976.92-1868.27-2733.1-1066.21-770.69-2588.67-1287.51-3888.81-1396.57-753.6 259.3-1590.14 120.04-2372.38 132.84-374.58 1112.09-1301.97 1734.69-2403.33 2017.5-428.01 109.89-1340.53 87-1270.02-578.66 120.59-1038.49 1629.17-1720.42 2470.01-1978.23-462.16-179.47-951.45-250.69-1424.76-383.48-315.43-106.12-613.97-237.65-860.52-415.24-128.68-92.69-247.5-199.67-357.85-313.44-221.69 13.25-486.41-30.58-800.26-145.45-303.56-111.18-657.74-290.43-1069.1-551.1-895.28 86.53-3563.15 238.8-3412.68-1318.36 33.77-349.64 377.78-640.46 704.6-711.81 447.63-97.56 978.05 109.11 1368.43 297.27 908.96 438.07 1640.25 1176.71 2573.91 1569.46-250.17-435.06-449.07-908.96-545-1402.97-84.88-437.35-145.75-928.14 125.92-1305.12 370.53-514.26 873.4-413.25 1227.86 68.22 495.3 672.84 902.4 1816.4 730.82 2668.93-34.24 170.07-98.21 339.09-205.78 476.81 149.68 186.88 481.04 299.69 778.4 390.89 625.43 254.4 1835.7 341.58 2316.74 877.56 567.61-11.71 1137.63 50 1704.22-1.95-232.49-259.44-436.24-534.13-602.42-809.77-223.47-370.62-380.91-746.76-451.27-1094.82-72.94-361.02-97.55-837.33 42.11-1178.32 174.95-427.24 655.06-683.56 1068.53-348.49 424.17 343.93 702.72 1103.3 878.22 1602.51 121.2 344.81 220.36 703.27 276.64 1027.17 48.46 278.87 65.69 536.21 39.17 744.16 443.67 75.77 858.17 169.16 1245.15 278.17 58.25-149.61 103.38-453.48 76.9-644.48-36.66-263.12-78.45-534.83 15.42-808.05 94.78-275.82 313.71-530.6 778.13-734.93 561.34-304.14 1052.44-744.31 1312.24-1339.84 267.55-613.56 257.92-1217.05-147.69-1796.1-267.6-381.99-679.71-753.08-1150.29-1176.69-1100.34-926.59-1834.19-1872.99-2420.44-3198.75-353.12-798.43-671.62-1722.5-857.35-2619.28-152.64-736.97-216.26-1459.86-138.92-2090.5 42.31-344.99 317.43-1626.49 909.36-1575.49 380.79 38.08 665.36 457.26 932.3 702.48 448.8 412.23 1010.83 728.22 1525.65 1054.4 1340.9 849.47 3072.92 1946.77 4245.18 3270.96 1189 1343.09 1797.86 2908.08 861.04 4667.22 414.65 261.61 750.74 322.9 1028.52 251.75 301.5-77.12 549.82-313.57 762.37-620.63 316.17-456.96 524.09-978.12 739.84-1486.8 202.23-451.18 454.64-1256.2 965.1-1482.12 137.4-60.85 270.36-95.66 421.05-68.46 475.9 85.6 894.11 439.83 1210.52 778.97 337.71 361.96 650.58 819.22 902.15 1302.52 251.82 483.75 446 1001.54 546.07 1484.2 85.46 412.26 124.38 883.21-19.19 1288.75-91.23 259.03-428.24 478.1-889.33 654.36-440.12 168.32-1007.62 307.15-1574.54 407.28 1082.07 1959.06 1091.48 4605.71 1623.09 6790.59 154.87 636.57 328.49 1138.17 543.53 1393.81 216.79 237.42 19.51 585.66-168.6 772.36-292.87 290.51-719.45 328.2-1108.22 263.59-609.85-101.29-1211.02-418.7-1733.2-737.54-1453.55-887.3-2782.61-2103.98-3822.98-3444.87-642.76-828.51-1104.95-1659.91-1228.29-2365.76-439.67 242.3-975.48 428.84-1458.8 567.67-584.36 167.76-1345.37 162.38-1870.94 475.43zm8171.1-4169.3c-305.95-396.32-1430.59 129.7-540.94 75.92 162.92-9.86 292.21-27.01 540.94-75.92m-11419.67 2874.22c127.73 205.44 279.82 409.36 451.15 603.7-70.32-539.58-392.12-1924.87-837.62-2233.31-116.22-80.42-274.33 566.9 386.47 1629.61m-2596.99 2015.12c-527.55 90.07-1148.84 460.1-1415.62 586.98-266.78 126.85-992.88 753.54-516.63 704.78 821.75-150.74 1821.66-731.73 1932.24-1291.76zm-3309.21-3799.53c126.8 380.23 301.45 729.58 526.56 1060.1 95.82-397.83-35.89-865.6-161.25-1241.54-37.72-113.1-381.04-1284.75-487.1-788.96-72.01 313.46 23.19 674.76 121.79 970.41zm-2540.32 605.98c-246.91-160.62-466.09-284.6-658.76-377.43-339.7-163.67-462.32-225.83-754.51-224.38-292.19 1.47-216.81 256.84-25.56 363.54 424.55 236.88 964.87 234.55 1438.82 238.28zm11912.5 1601.8c479.11-120.2 968.22-175.54 1445.46-312.51 370.37-106.3 804.12-262.69 1321.87-511.17 244.83-136.77 678.14-185.57 909.61 11.62 96.85 82.52 151.33 211.29 141.77 337.94 28.19 606.62 454.77 1396.79 1086.75 2209.26 740.09 951.47 1755.05 1920.85 2747.8 2664.69 671.65 503.12 1494.55 1084.85 2327.61 1243.96 139.6 26.7 353.98 57.03 479.21-36.35-226.05-366.17-402.33-895.67-553.88-1520.41-511.84-2109.9-482.62-4770.81-1576.98-6638.06-35.47-60.55-109.56-119.62-150.7-176.48-503.66 56.05-1362.73 264.55-1770.31-133.42-733.13-750.13 1562.13-1825.75 2194.9-653.93 327.81-43.92 2055.08-284.17 2177.73-695.56 71.16-234.5 60.26-521.47-18.06-873.88-88.08-396.43-256.86-834.07-474.86-1252.84-217.62-418-480.85-809.41-758.28-1114.3-97.47-107.09-602.55-660.35-821.68-563.49-61.32 27.12-141.5 149.66-235.11 328.63-108.09 206.71-223.93 479.82-348.49 773.54-113.1 266.81-232.76 548.82-362.55 817.93-133.65 277.22-281.11 548.26-449.55 791.65-317.57 458.79-699.97 815.63-1184.13 941.66-610.89 158.94-1282.65-108.02-1764.02-473.01-260.63-198.59-274.54-547.54-116.2-820.46 799.15-1455.27 226.93-2797.02-838.93-3968.67-1098.19-1207.29-2731.86-2242.33-3996.75-3043.65-370.85-240.56-747.03-471.38-1110.91-722.77-332.8-229.81-615.25-496.52-892.23-788.96-141.38 251.77-220.78 566.27-250.85 921.37-43.76 516.64 16.88 1113.24 144.18 1727.79 173.7 838.62 470.16 1703.29 798.27 2450.7 558.27 1271.69 1236.93 2052.42 2250.44 2964.94 462.39 426.84 956.56 838.3 1311.99 1365.33 523.84 776.8 525.04 1639.05 169.07 2452.72-330.88 756.3-935.97 1357.83-1675.38 1712.72-155.17 106.5-311.45 137.65-374.69 338.95-98.84 314.66-26.27 305.95 217.85 244.5z"/></svg>