<svg xmlns="http://www.w3.org/2000/svg" xml:space="preserve" width="146.402" height="46.953" style="shape-rendering:geometricPrecision;text-rendering:geometricPrecision;image-rendering:optimizeQuality;fill-rule:evenodd;clip-rule:evenodd" viewBox="0 0 11458.57 3674.9"><path fill="#fff" d="M616.78 2861.29c36 53.22 58.63 89.01 71.79 108.09 11.36 17.13 37.86 54.58 81.38 113.45 20.77 28.4 34.02 49.16 43.43 60.52 24.85 34.02 30.38 41.86 30.38 51.15 0 13.34-15.03 20.65-36.03 20.65H664.14c-15.23 0-26.59-5.53-34.11-18.78L234.7 2587.25c-7.6-9.2-9.58-15.15-9.58-22.75 0-7.42 3.85-17.33 13.34-26.21l539.13-569.8c7.51-9.29 18.87-15.03 32.04-15.03h117.29c13.46 0 22.75 9.5 22.75 20.77 0 7.63-5.74 17.22-18.87 30.38l-527.74 540.87 213.73 315.81zM0 3181.13v-3.76l60.64-1184.15c1.69-28.37 13.16-39.76 43.51-39.76h94.54c26.42 0 37.78 9.5 37.78 34.14v3.85l-62.39 1185.93c-1.89 26.3-13.16 37.78-41.65 37.78H38.01c-26.74 0-38.01-9.29-38.01-34.02zM1571.88 2140.71c77.86 0 115.72 18.99 115.72 56.77v3.76l-3.76 108c0 17.13-11.48 28.4-26.59 28.4-5.74 0-15.23-1.98-22.66-5.74l-26.62-11.39c-20.77-9.58-45.38-15.12-68.24-15.12-79.31 0-136.08 66.26-215.5 247.95-79.52 181.57-136.16 385.89-142.02 512.3l-5.53 111.76c-1.86 26.3-13.25 37.66-41.62 37.66h-85.17c-26.51 0-37.78-9.17-37.78-33.9v-3.76l51.03-976.16c2.1-28.4 13.25-39.76 41.74-39.76h84.96c26.51 0 37.78 11.36 37.78 34.14v5.62l-22.66 416.07c79.52-327.05 194.94-476.59 366.93-476.59zM2381.56 2728.91l-22.84 448.52v3.76c0 24.61 9.5 33.9 34.02 33.9h90.87c26.3 0 37.69-9.29 39.34-37.66l51.56-976.25v-5.53c0-22.75-9.7-34.14-35.88-34.14h-75.88c-22.54 0-32.16 11.39-34.14 39.67l-17.1-9.2c-75.34-41.95-117.08-51.24-187.02-51.24-212.28 0-382.17 143.8-475.05 399.26-37.98 107.8-60.61 228.75-60.61 336.46 0 234.7 83.39 361.28 236.27 361.28 136.49 0 259.43-103.95 371.07-310.16 38.01-69.9 53.04-103.83 85.37-198.67zm39.46-431.12c-7.42 58.45-9.5 81.2-22.75 128.68-24.52 94.45-75.46 209.65-147.46 345.96-126.91 235-206.21 321.82-289.19 321.82-72.09 0-106.43-73.98-106.43-226.86 0-168.53 51.35-357.73 132.64-478.69 56.77-85.05 155.19-138.18 262.98-138.18 62.42 0 113.53 13.05 170.21 47.27M4003.08 2840.49c20.68-66.26 35.91-111.55 58.54-168.11l270.49-690.55c7.72-20.77 17.22-28.37 37.78-28.37h193.08c16.89 0 26.39 9.5 26.39 24.61 0 5.74 0 9.61-1.77 13.37L4127.8 3120.78c-3.76 5.74-7.72 17.01-15.15 32.04-5.74 11.48-11.27 20.68-15.23 28.4-14.91 28.4-26.39 33.93-66.06 33.93h-183.55c-39.67 0-50.94-7.22-60.64-33.93l-9.29-28.4-11.36-34.02-283.75-1127.36c-1.89-1.98-1.89-6.06-1.89-7.63 0-18.99 13.25-30.35 36-30.35h213.73c20.88 0 32.16 9.5 35.91 26.39l142.02 639.41c14.91 72.12 28.19 140.36 37.89 194.82 9.29 58.87 11.15 83.39 17.01 149.65 16.89-55.11 24.4-77.86 39.64-123.24M4603.14 2189.81c-1.77-3.64-1.77-7.4-1.77-11.27 0-17.01 7.72-20.77 34.14-20.77h225.09c24.52 0 33.9 5.65 37.66 22.66l87.15 331.02c5.65 19.11 13.25 58.54 28.28 119.39 13.46 56.56 20.97 90.67 22.66 102.18 13.46 56.77 17.01 77.53 24.94 134.39 16.89-60.73 24.4-77.62 54.46-157.17 22.75-55.08 36.33-92.98 43.51-111.64 28.61-72 43.63-113.45 49.49-124.8l120.84-297.24c5.83-15.03 15.32-18.78 34.11-18.78h192.96c22.66 0 30.38 3.76 30.38 18.78 0 7.63-1.89 15.47-5.74 22.75l-508.86 1195.42c-45.29 106.23-81.38 159.15-141.9 204.44-58.66 45.41-122.94 64.61-215.62 64.61-35.79 0-77.65-5.95-113.53-11.68-68.16-13.37-92.56-24.52-90.9-52.92l7.84-143.59c1.98-22.54 13.13-38.1 30.05-38.1 5.74 0 11.27 1.98 17.22 5.95l22.54 9.61c24.73 11.15 49.14 16.68 85.17 16.68 49.46 0 83.27-11.36 113.42-39.34 30.38-30.35 58.87-77.83 77.53-127.32l26.74-69.81-287.83-1023.44zM6307.9 2884c0 215.8-153.5 352.11-395.71 352.11-107.91 0-213.61-20.97-287.62-56.89-18.67-9.41-24.52-16.8-24.52-41.44v-5.83l7.63-162.58c0-19.11 11.36-32.04 24.61-32.04 7.63 0 19.02 3.76 28.61 9.38 101.97 54.58 177.61 75.34 266.53 75.34 81.29 0 130.66-29.94 130.66-80.96 0-30.5-11.39-45.41-64.49-77.86l-177.84-107.59c-109.45-66.17-160.69-149.12-160.69-264.96 0-217.48 147.35-355.54 380.48-355.54 151.1 0 283.33 45.29 283.33 96.52v3.96l-7.51 145.57c-1.69 22.54-9.2 31.95-26.09 31.95-11.68 0-19.2-1.77-57.09-24.52-58.22-32.36-128.56-51.06-192.64-51.06-83.6 0-132.64 32.27-132.64 88.83 0 26.51 11.27 43.81 41.86 62.39L6149 2615.36c109.45 67.83 158.91 147.67 158.91 268.63zM6486.87 2691.4c-2.19 22.63-3.85 43.51-3.85 66.14 0 314.01 153.09 489.67 425.56 489.67 313.89 0 520.1-239.82 520.1-607.05 0-187.22-39.76-308.3-126.58-393.23-77.74-74.1-178.14-111.88-306.5-111.88-293.36 0-480.67 204.44-508.75 556.34zm287.42 1.86c17.01-238.55 83.07-353.77 204.32-353.77 111.46 0 160.72 86.94 160.72 285.52 0 140.16-24.64 266.94-66.26 340.43-30.17 54.79-73.48 79.52-137.97 79.52-111.76 0-162.7-89.22-162.7-279.78 0-24.64 0-47.48 1.89-71.91zM8336.67 2392.48c-11.27 0-15.12-2.19-41.33-15.23-53.22-28.28-96.85-37.69-147.88-37.69-166.54 0-278.1 164.27-278.1 412.01 0 172.52 71.79 270.49 198.49 270.49 60.61 0 113.53-12.93 189.17-47.15 30.38-14.94 36-16.8 47.27-16.8s18.9 9.17 18.9 22.63l-5.41 151.22c-2.22 56.97-149.65 104.16-325.52 104.16-276.32 0-414.38-145.81-414.38-441.12 0-128.27 32.13-260.7 89.1-377.88 92.68-187.55 241.8-281.97 448.43-281.97 136.28 0 251.41 37.78 251.41 79.52v5.41l-9.41 149.77c0 13.34-9.58 22.63-20.77 22.63zM9804.9 2135.09c136.19 0 206.12 79.55 206.12 230.74v28.72l-41.33 782.88c-2.31 28.37-11.48 37.66-39.96 37.66h-211.95c-26.42 0-35.91-9.29-35.91-33.9v-3.76l32.04-637.43c1.89-11.57 1.89-20.77 1.89-30.35 0-43.63-14.73-64.4-47.18-64.4-28.49 0-56.56 20.77-89.01 60.73-49.05 60.32-88.72 126.7-136.19 228.96-58.34 124.6-79.4 206.12-84.72 298.69l-7.84 143.8c-1.77 28.37-13.25 37.66-39.76 37.66h-204.23c-24.61 0-34.11-9.29-34.11-31.92v-5.74l51.12-983.77c1.77-28.4 9.5-35.79 37.89-35.79H9366c28.49 0 36 5.53 36 30.26v5.53l-22.87 416.27c102.18-321.64 238.25-474.84 425.77-474.84M10849.6 2793.19l-18.9 384.27v5.74c0 22.63 9.41 31.92 34.14 31.92h213.82c26.42 0 37.57-11.36 39.55-37.66l51.27-983.89v-3.76c0-22.66-9.61-31.95-34.26-31.95h-206.18c-18.9 0-24.52 5.53-24.52 24.52v5.74c-89.13-41.74-130.57-53.01-206.01-53.01-185.65 0-335.1 111.76-425.89 317.77-56.89 128.8-86.94 280.11-86.94 420.06 0 236.24 83.27 363.14 240.14 363.14 191.19 0 353.65-170.51 423.79-442.9zm47.48-438.7c-6.06 34.23-7.93 49.25-18.87 79.4-38.1 106.14-104.28 236.59-181.6 363.17-70.02 115.72-119.39 161.01-166.66 161.01-50.91 0-66.35-30.47-66.35-128.56 0-321.64 111.64-501.32 314.1-501.32 45.41 0 76 7.51 119.39 26.3zM8982.47 462.12c-1069.64-995.48-2739.68-72.74-2739.68-72.74l802.7 559.68c458.25-406.6 1128.42-813.05 1884.09-469.61-876.18 299.6-1534.7 772.97-1534.7 772.97l790.3 635.41c585.04-780.9 1991.97-1891.04 3273.39-1348.07-791.75-444.05-1711.56-330.4-2476.1-77.65zM8533.36 2705.95l-24.43 471.5v5.74c0 22.63 9.61 31.92 34.23 31.92h204.56c26.3 0 37.57-11.36 39.55-37.66l43.84-865.56c-147.05 163.53-245.26 309.01-297.74 394.06zM8834.21 2253.77l4.17-82.86v-1.86c0-22.75-11.18-32.24-34.02-32.24h-206.21c-26.51 0-36 9.5-37.89 34.11l-15.23 306.2c128.8-118.24 225.21-185.86 289.19-223.34zM3043.48 2302.61l6.48-126.08V2171c0-24.4-9.61-33.9-35.79-33.9h-89.01c-28.61 0-37.98 11.27-39.96 39.43l-13.05 254.02c69.07-58.04 126.17-99.36 171.34-127.94zM2863.3 2602.71l-38.6 754.3c-5.86 124.92-66.17 187.13-176.07 187.13-32.13 0-58.54-3.55-90.87-18.58l-24.43-11.27c-5.62-1.77-11.36-4.08-16.89-4.08-11.48 0-17.13 9.5-19.11 28.49l-3.64 66.26v5.44c0 39.96 62.18 64.49 166.34 64.49 104.36 0 176.16-24.52 232.93-79.63 64.28-60.11 90.7-132.23 98.42-264.43l48.22-951.97c-71.08 82.24-130.04 158.44-176.28 223.84z"/></svg>