<svg xmlns="http://www.w3.org/2000/svg" version="1.1" viewBox="0 0 413.5 36">
    <path fill="#FFFFFF" d="M411.9,9.4h-6.6v-5.4h-4.9v5.4h-3.5v4.4h3.5v7.1c0,4.7,2.3,7.3,6.8,7.3s4.5-.8,6.1-1.9l-1.8-3.8c-1,.6-2.3,1.2-3.4,1.2s-2.7-.8-2.7-3.1v-6.7h6.6v-4.4ZM386.3,8.9c-2.1,0-4.1.7-5.4,2.6v-2.2h-4.8v18.3h4.9v-10c0-2.8,1.8-4.1,3.9-4.1s3.6,1.5,3.6,4.1v10.1h4.9v-11.6c0-4.2-3-7.1-7.1-7.1M362.8,13.2c2.1,0,3.5,1.3,4,3.7h-8.1c.4-2.3,1.8-3.7,4.1-3.7M362.8,8.9c-5.5,0-9.2,3.9-9.2,9.7s3.9,9.6,9.5,9.6,5.7-.9,7.8-2.8l-2.9-3.2c-1.3,1.1-3,1.8-4.6,1.8-2.3,0-4.2-1.2-4.7-3.8h13c0-.4,0-1.1,0-1.7,0-5.7-3.6-9.6-8.9-9.6M342.1,8.9c-2.4,0-4.8.8-6.2,3.1-1.2-1.9-3.4-3.1-6-3.1s-4.1.7-5.4,2.6v-2.2h-4.8v18.3h4.9v-10c0-2.8,1.8-4.1,3.9-4.1s3.6,1.5,3.6,4.1v10.1h4.9v-10c0-2.8,1.8-4.1,3.9-4.1s3.6,1.5,3.6,4.1v10.1h4.9v-11.6c0-4.2-2.9-7.1-7.2-7.1M307.2,8.9c-2.1,0-4.1.7-5.4,2.6v-2.2h-4.8v18.3h4.9v-10c0-2.8,1.8-4.1,3.9-4.1s3.6,1.5,3.6,4.1v10.1h4.9v-11.6c0-4.2-3-7.1-7.1-7.1M289,.3c-1.8,0-3.1,1.4-3.1,3.2s1.4,3.1,3.1,3.1,3.2-1.4,3.2-3.1-1.4-3.2-3.2-3.2M291.5,9.4h-4.9v18.3h4.9V9.4ZM271.6,13.5c2.8,0,4.7,2.2,4.7,5s-1.9,5-4.7,5-4.7-2.2-4.7-5,1.8-5,4.7-5M281,9.4h-4.8v2c-1.2-1.5-3-2.5-5.5-2.5-5,0-8.8,4.1-8.8,9.6s3.8,9.6,8.8,9.6,4.3-1,5.5-2.5v2h4.8V9.4ZM258.5,9.4h-6.6v-5.4h-4.9v5.4h-3.5v4.4h3.5v7.1c0,4.7,2.3,7.3,6.8,7.3s4.5-.8,6.1-1.9l-1.8-3.8c-1,.6-2.3,1.2-3.4,1.2s-2.7-.8-2.7-3.1v-6.7h6.6v-4.4ZM238.6,8.9c-2.2,0-4,.8-5.2,2.5v-2h-4.8v18.3h4.9v-10c0-2.7,1.6-4.1,3.8-4.1s2.2.2,3,.6l.7-4.9c-.7-.2-1.5-.4-2.6-.4M215.3,13.2c2.1,0,3.5,1.3,4,3.7h-8.1c.4-2.3,1.8-3.7,4.1-3.7M215.4,8.9c-5.5,0-9.2,3.9-9.2,9.7s3.9,9.6,9.5,9.6,5.7-.9,7.8-2.8l-2.9-3.2c-1.3,1.1-3,1.8-4.6,1.8-2.3,0-4.2-1.2-4.7-3.8h13c0-.4,0-1.1,0-1.7,0-5.7-3.6-9.6-8.9-9.6M202.8,9.4h-6.6v-5.4h-4.9v5.4h-3.5v4.4h3.5v7.1c0,4.7,2.3,7.3,6.8,7.3s4.5-.8,6.1-1.9l-1.8-3.8c-1,.6-2.3,1.2-3.4,1.2s-2.7-.8-2.7-3.1v-6.7h6.6v-4.4ZM177.2,8.9c-2.1,0-4.1.7-5.4,2.6v-2.2h-4.8v18.3h4.9v-10c0-2.8,1.8-4.1,3.9-4.1s3.6,1.5,3.6,4.1v10.1h4.9v-11.6c0-4.2-3-7.1-7.1-7.1M153.7,13.2c2.1,0,3.5,1.3,4,3.7h-8.1c.4-2.3,1.8-3.7,4.1-3.7M153.7,8.9c-5.5,0-9.2,3.9-9.2,9.7s3.9,9.6,9.5,9.6,5.7-.9,7.8-2.8l-2.9-3.2c-1.3,1.1-3,1.8-4.6,1.8-2.3,0-4.2-1.2-4.7-3.8h13c0-.4,0-1.1,0-1.7,0-5.7-3.6-9.6-8.9-9.6"/>
    <path fill="#FFFFFF" d="M130.9,13.5c2.7,0,4.6,2.1,4.6,4.8s-1.9,4.8-4.6,4.8-4.6-2.2-4.6-4.8,1.8-4.8,4.6-4.8M129.6,9c-4.5,0-8.4,3.7-8.4,9.4s4,9.3,8.4,9.3,4.4-.9,5.6-2.5v1.3c0,3.2-2.2,4.9-5.2,4.9s-4.2-.7-6-1.9l-1.8,4c2.1,1.5,5.1,2.2,8,2.2,6,0,9.9-3.6,9.9-9.4V9.4h-4.8v2c-1.2-1.5-3.1-2.5-5.7-2.5M110.2,9c-2.1,0-4.1.7-5.4,2.6v-2.2h-4.8v18.3h4.9v-10c0-2.8,1.8-4.1,3.9-4.1s3.6,1.5,3.6,4.1v10.1h4.9v-11.7c0-4.3-3-7.1-7.1-7.1M92.3.3c-1.8,0-3.1,1.4-3.1,3.2s1.4,3.1,3.1,3.1,3.2-1.4,3.2-3.1-1.4-3.2-3.2-3.2M94.8,9.4h-4.9v18.3h4.9V9.4ZM77.7,9c-2.1,0-4.1.7-5.4,2.6v-2.2h-4.8v18.3h4.9v-10c0-2.8,1.8-4.1,3.9-4.1s3.6,1.5,3.6,4.1v10.1h4.9v-11.7c0-4.3-3-7.1-7.1-7.1M55.4,9c-2.1,0-4.1.7-5.4,2.6v-2.2h-4.8v18.3h4.9v-10c0-2.8,1.8-4.1,3.9-4.1s3.6,1.5,3.6,4.1v10.1h4.9v-11.7c0-4.3-3-7.1-7.1-7.1M37.5.3c-1.8,0-3.1,1.4-3.1,3.2s1.4,3.1,3.1,3.1,3.2-1.4,3.2-3.1-1.4-3.2-3.2-3.2M40,9.4h-4.9v18.3h4.9V9.4ZM18.7,9.4h-5.2l-4.1,12.8-3.9-12.8H.3l6.2,18.3h5.6l4-12.4,4.1,12.4h5.6l6.2-18.3h-5.2l-3.9,12.9-4.2-12.9Z"/>
</svg>